<?xml version="1.0" encoding="utf-8"?>
<!-- Generator: Adobe Illustrator 27.5.0, SVG Export Plug-In . SVG Version: 6.00 Build 0)  -->
<svg version="1.1" xmlns="http://www.w3.org/2000/svg" xmlns:xlink="http://www.w3.org/1999/xlink" x="0px" y="0px"
	 viewBox="0 0 750 500" style="enable-background:new 0 0 750 500;" xml:space="preserve">
<g id="BACKGROUND">
	<rect style="fill:#F7F7F7;" width="750" height="500"/>
</g>
<g id="OBJECTS">
	<g>
		<g>
			<path style="fill:#F2F2F4;" d="M689.22,425.646H61.694c0,0,1.427-192.013,146.266-145.296
				c144.838,46.717,59.527-185.214,227.34-192.291c167.813-7.077,112.374,199.869,176.07,211.403S689.22,425.646,689.22,425.646z"/>
			<g>
				
					<ellipse transform="matrix(0.2308 -0.973 0.973 0.2308 -34.301 357.482)" style="fill:#F2F2F4;" cx="208.959" cy="200.437" rx="11.035" ry="11.035"/>
				
					<ellipse transform="matrix(0.3856 -0.9227 0.9227 0.3856 -63.3168 363.3631)" style="fill:#F2F2F4;" cx="241.172" cy="229.223" rx="21.739" ry="21.739"/>
			</g>
		</g>
		<ellipse style="fill:#DDDDE8;" cx="375" cy="435.11" rx="324.185" ry="34.181"/>
		<path style="fill:none;stroke:#1F2326;stroke-miterlimit:10;" d="M195.135,473.596c-107.927-7.079-180.567-20.333-180.567-35.515
			c0-4.336,5.925-8.515,16.904-12.437"/>
		<path style="fill:none;stroke:#1F2326;stroke-miterlimit:10;" d="M583.297,471.524c-58.819,4.743-130.694,7.531-208.297,7.531
			c-43.66,0-85.507-0.883-124.236-2.499"/>
		<path style="fill:#F2F2F4;" d="M643.921,260.585c0,11.533-9.349,20.882-20.882,20.882c-11.533,0-20.882-9.349-20.882-20.882
			c0-11.533,9.349-20.882,20.882-20.882C634.572,239.703,643.921,249.052,643.921,260.585z"/>
	</g>
	<g>
		<g>
			<g>
				<path style="fill:#60A2F4;" d="M515.07,145.923c0,0,17.147-5.417,32.388-13.478l0.787-6.346l4.976,3.086
					c11.762-7.101,20.611-15.746,16.155-24.421c-4.535-8.802-14.691-10.424-25.02-6.046l-0.756,7.7l-5.133-4.566
					C526.675,109.472,516.062,124.777,515.07,145.923z"/>
				<path style="fill:none;stroke:#080808;stroke-width:1.5746;stroke-miterlimit:10;" d="M566.096,106.412
					c0,0-44.744,4.855-56.947,56.815"/>
			</g>
			<g>
				<path style="fill:#FC8D2A;" d="M442.619,135.888c0,0-17.147-5.416-32.389-13.478l-0.787-6.346l-4.976,3.086
					c-11.762-7.101-20.611-15.746-16.155-24.421c4.535-8.802,14.691-10.424,25.02-6.046l0.756,7.7l5.133-4.566
					C431.015,99.437,441.627,114.742,442.619,135.888z"/>
				<path style="fill:none;stroke:#080808;stroke-width:1.5746;stroke-miterlimit:10;" d="M391.593,96.377
					c0,0,44.744,4.855,56.946,56.815"/>
			</g>
			<g>
				<path style="fill:#FC8D2A;" d="M486.458,139.85c0,0,15.856-18.895,35.695-40.073l-3.779-9.337c0,0,6.078,0.693,11.069,1.354
					c17.289-20.831,8.66-35.443,4.944-39.537c-3.291-3.622-20.28-13.258-37.664,3.795l1.055,9.196h-8.581
					c-0.929,1.354-1.842,2.787-2.74,4.33C466.099,104.218,486.458,139.85,486.458,139.85z"/>
				<path style="fill:none;stroke:#080808;stroke-width:1.5746;stroke-miterlimit:10;" d="M530.057,52.258
					c0,0-39.101,30.573-42.251,69.149c-3.149,38.577-3.238,65.869-3.238,65.869"/>
			</g>
			<g>
				<path style="fill:#60A2F4;" d="M429.112,94.006l5.81-0.992l-1.575,4.582c21.477,17.777,24.044,15.95,32.688,27.067
					c0,0,9.778-35.632-12.313-55.645l-6.471,2.204l0.85-6.503C420.657,47.053,406.423,73.631,429.112,94.006z"/>
				<path style="fill:none;stroke:#080808;stroke-width:1.5746;stroke-miterlimit:10;" d="M422.971,65.192
					c0,0,42.513,16.926,46.056,81.483"/>
			</g>
		</g>
		<g>
			<g>
				<g>
					<g>
						<path style="fill:#60A2F4;" d="M600.838,326.255c0,0-5.464-6.48-17.478-14.739v-3.784l-2.654,1.85
							c-9.868-7.821-9.402-15.643,0.24-16.744c2.753-0.311,5.407,0.085,7.821,1.327l-0.226,3.685l3.939-0.904
							C597.181,301.789,600.428,311.093,600.838,326.255z"/>
						<path style="fill:#60A2F4;" d="M638.123,286.02c-1.115,1.581-2.838,3.36-4.913,5.252l-5.746-1.722l0.904,5.774
							c-10.377,8.16-24.198,16.49-24.198,16.49c-0.621-14.061,2.16-30.876,14.259-38.245l4.235,2.033l-1.313-3.558
							c0.875-0.381,1.807-0.72,2.767-1.017C641.059,265.902,644.772,276.674,638.123,286.02z"/>
						<path style="fill:#60A2F4;" d="M600.541,279.892c0,0-9.459-4.701-17.181-10.984v-4.603l-3.233,1.779
							c-4.913-4.701-8.146-9.953-5.774-14.654c2.682-5.308,8.711-5.718,14.372-2.329l0.24,4.447l3.332-1.737
							C598.198,257.318,602.645,267.186,600.541,279.892z"/>
						<path style="fill:#60A2F4;" d="M635.85,260.212l-5.732-1.722v3.925c-9.219,3.318-20.541,6.565-20.541,6.565
							c2.047-10.715,7.017-20.33,17.21-23.422l2.273,2.174l1.539-2.993c0.706-0.099,1.426-0.155,2.174-0.198
							C647.017,243.835,645.125,256.287,635.85,260.212z"/>
						<path style="fill:#60A2F4;" d="M605.313,256.753c0,0-9.713-10.8-21.148-22.193l1.595-5.831l-6.113,1.398
							c-0.113-0.113-0.24-0.226-0.353-0.339c-13.412-12.946-6.805-30.593,13.186-22.829c1.892,0.734,3.572,1.638,5.068,2.711
							l-0.72,4.941l4.941-1.059C611.299,224.974,608.786,244.979,605.313,256.753z"/>
						<path style="fill:#60A2F4;" d="M643.135,225.482c-1.002,2.16-2.725,4.249-4.871,6.198l-5.323,0.579l0.551,3.176
							c-8.838,6.113-20.005,10.25-20.005,10.25s0.226-16.306,11.153-26.725c0.155-0.155,0.311-0.296,0.466-0.423l4.419,1.482
							l-0.381-4.433C638.716,210.221,647.596,215.882,643.135,225.482z"/>
					</g>
					<g>
						<path style="fill:#070707;" d="M629.059,328.549h-54.707l8.824,56.251v20.868c0,0.073,0.015,1.81,1.356,3.055
							c0.861,0.8,2.042,1.204,3.517,1.204c0.21,0,0.427-0.008,0.65-0.025c4.488-0.334,4.33-9.15,4.204-16.236
							c-0.013-0.732-0.025-1.44-0.032-2.116h20.734c-0.007,0.677-0.019,1.385-0.032,2.116c-0.126,7.085-0.283,15.902,4.204,16.236
							c0.223,0.016,0.44,0.025,0.65,0.025c1.475,0,2.656-0.404,3.517-1.204c1.341-1.245,1.356-2.982,1.356-3.055v-20.024
							L629.059,328.549z M591.492,393.691c0.104,5.802,0.26,14.569-2.897,14.802c-1.358,0.102-2.405-0.165-3.09-0.794
							c-0.891-0.818-0.917-2.022-0.917-2.031V391.55h6.872C591.467,392.236,591.479,392.952,591.492,393.691z M620.985,407.689
							c-0.684,0.636-1.73,0.902-3.101,0.804c-3.157-0.233-3.001-9-2.897-14.802c0.013-0.74,0.025-1.456,0.032-2.141h6.872v14.118
							C621.89,405.68,621.865,406.872,620.985,407.689z"/>
						<rect x="571.176" y="324.138" style="fill:#252728;" width="60.707" height="8.824"/>
					</g>
				</g>
				<g>
					<path style="fill:none;stroke:#252728;stroke-width:1.4118;stroke-miterlimit:10;" d="M641.412,218.96
						c0,0-37.765,15.53-39.706,70.589s0,63.53,0,63.53"/>
					<path style="fill:none;stroke:#252728;stroke-width:1.4118;stroke-miterlimit:10;" d="M576.235,296.373
						c0,0,21.686,5.412,24.608,29.883"/>
					<path style="fill:none;stroke:#252728;stroke-width:1.4118;stroke-miterlimit:10;" d="M638.118,273.078
						c0,0-36.902,18.824-37.275,57.883"/>
					<path style="fill:none;stroke:#252728;stroke-width:1.4118;stroke-miterlimit:10;" d="M576.235,252.49
						c0,0,24.963,7.888,25.471,37.059"/>
					<path style="fill:none;stroke:#252728;stroke-width:1.4118;stroke-miterlimit:10;" d="M579.294,209.783
						c0,0,29.961,20.801,26.018,55.463"/>
					<path style="fill:none;stroke:#252728;stroke-width:1.4118;stroke-miterlimit:10;" d="M641.412,250.019
						c0,0-37.765,3.765-39.706,44.236"/>
				</g>
			</g>
			<g>
				<g>
					<g>
						<path style="fill:#FC8D2A;" d="M99.847,351.654c0,0-13.566-4.285-25.624-10.663l-0.623-5.02l-3.936,2.441
							c-9.305-5.618-16.306-12.457-12.781-19.321c3.588-6.963,11.622-8.246,19.794-4.784l0.598,6.091l4.061-3.613
							C90.666,322.816,99.062,334.924,99.847,351.654z"/>
						<path style="fill:none;stroke:#080808;stroke-width:1.2457;stroke-miterlimit:10;" d="M59.479,320.395
							c0,0,35.398,3.841,45.052,44.949"/>
					</g>
					<g>
						<path style="fill:#FC8D2A;" d="M107.259,334.986c0,0-12.544-14.948-28.24-31.703l2.99-7.387c0,0-4.808,0.548-8.757,1.071
							c-13.678-16.48-6.851-28.04-3.911-31.279c2.604-2.865,16.044-10.489,29.797,3.002l-0.835,7.275h6.789
							c0.735,1.071,1.457,2.205,2.168,3.426C123.366,306.796,107.259,334.986,107.259,334.986z"/>
						<path style="fill:none;stroke:#080808;stroke-width:1.2457;stroke-miterlimit:10;" d="M72.766,265.689
							c0,0,30.935,24.187,33.426,54.706c2.491,30.519,2.562,52.111,2.562,52.111"/>
					</g>
					<g>
						<path style="fill:#FC8D2A;" d="M144.829,325.544l-4.597-0.785l1.246,3.625c-16.991,14.064-19.022,12.619-25.86,21.413
							c0,0-7.736-28.19,9.741-44.023l5.12,1.744l-0.673-5.145C151.518,288.398,162.779,309.425,144.829,325.544z"/>
						<path style="fill:none;stroke:#080808;stroke-width:1.2457;stroke-miterlimit:10;" d="M149.687,302.748
							c0,0-33.633,13.391-36.436,64.464"/>
					</g>
				</g>
				<g>
					<path style="fill:#070707;" d="M139.41,359.838H77.96c0,0-2.716,23.481,2.691,43.076v27.056c0,2.603,1.52,5.008,3.874,6.116
						c1.208,0.573,2.342,0.859,3.388,0.859c1.021,0,1.956-0.274,2.765-0.81c2.329-1.545,3.687-5.244,4.061-11.049
						c3.787,2.442,8.383,3.874,13.939,3.887c6.453,0.012,11.622-1.831,15.758-4.933c0.274,6.403,1.657,10.451,4.111,12.096
						c0.822,0.536,1.756,0.81,2.765,0.81c1.059,0,2.193-0.286,3.401-0.859c2.342-1.109,3.862-3.513,3.862-6.116v-33.796h-0.037
						C141.74,378.324,139.41,359.838,139.41,359.838z M89.994,435.102c-1.283,0.847-2.952,0.81-4.933-0.137
						c-1.918-0.909-3.164-2.878-3.164-4.995v-23.058c2.454,7.063,6.154,13.329,11.647,17.34
						C93.208,431.34,91.513,434.093,89.994,435.102z M137.33,429.97c0,2.118-1.233,4.086-3.152,4.995
						c-1.993,0.947-3.65,0.984-4.945,0.137c-1.607-1.071-3.388-4.061-3.575-12.046c5.93-5.057,9.529-12.831,11.672-21.226V429.97z"
						/>
					<rect x="74.634" y="354.651" style="fill:#2A2832;" width="68.098" height="10.381"/>
				</g>
			</g>
		</g>
	</g>
	<g>
		<path style="fill:#B5C2FD;" d="M561.581,137.263v7.396H166.408v-7.396c0-10.503,8.516-19.019,19.019-19.019h357.135
			C553.064,118.244,561.581,126.76,561.581,137.263z"/>
		<path style="fill:#E8EBEF;" d="M561.581,144.659v254.274c0,10.503-8.516,19.019-19.019,19.019H185.427
			c-10.503,0-19.019-8.516-19.019-19.019V144.659H561.581z"/>
		<g>
			<path style="fill:#8FA9ED;" d="M507.077,132.508c0,3.404-2.76,6.164-6.164,6.164c-3.404,0-6.164-2.76-6.164-6.164
				c0-3.404,2.76-6.164,6.164-6.164C504.317,126.344,507.077,129.104,507.077,132.508z"/>
			<path style="fill:#8FA9ED;" d="M526.756,132.508c0,3.404-2.76,6.164-6.164,6.164c-3.404,0-6.164-2.76-6.164-6.164
				c0-3.404,2.76-6.164,6.164-6.164C523.997,126.344,526.756,129.104,526.756,132.508z"/>
			<path style="fill:#8FA9ED;" d="M546.436,132.508c0,3.404-2.76,6.164-6.164,6.164s-6.164-2.76-6.164-6.164
				c0-3.404,2.759-6.164,6.164-6.164S546.436,129.104,546.436,132.508z"/>
		</g>
		<g>
			<rect x="422.556" y="168.885" style="fill:#FFFFFF;" width="122.476" height="169.373"/>
			<line style="fill:none;stroke:#E8EBEF;stroke-miterlimit:10;" x1="444.364" y1="169.208" x2="444.364" y2="338.258"/>
			<line style="fill:none;stroke:#E8EBEF;stroke-miterlimit:10;" x1="465.659" y1="169.208" x2="465.659" y2="338.258"/>
			<line style="fill:none;stroke:#E8EBEF;stroke-miterlimit:10;" x1="486.955" y1="169.208" x2="486.955" y2="338.258"/>
			<line style="fill:none;stroke:#E8EBEF;stroke-miterlimit:10;" x1="508.251" y1="169.208" x2="508.251" y2="338.258"/>
			<line style="fill:none;stroke:#E8EBEF;stroke-miterlimit:10;" x1="529.547" y1="169.208" x2="529.547" y2="338.258"/>
			<line style="fill:none;stroke:#E8EBEF;stroke-miterlimit:10;" x1="421.444" y1="188.027" x2="545.032" y2="188.027"/>
			<line style="fill:none;stroke:#E8EBEF;stroke-miterlimit:10;" x1="421.444" y1="205.913" x2="545.032" y2="205.913"/>
			<line style="fill:none;stroke:#E8EBEF;stroke-miterlimit:10;" x1="421.444" y1="223.799" x2="545.032" y2="223.799"/>
			<line style="fill:none;stroke:#E8EBEF;stroke-miterlimit:10;" x1="421.444" y1="241.685" x2="545.032" y2="241.685"/>
			<line style="fill:none;stroke:#E8EBEF;stroke-miterlimit:10;" x1="421.444" y1="259.571" x2="545.032" y2="259.571"/>
			<line style="fill:none;stroke:#E8EBEF;stroke-miterlimit:10;" x1="421.444" y1="277.457" x2="545.032" y2="277.457"/>
			<line style="fill:none;stroke:#E8EBEF;stroke-miterlimit:10;" x1="421.444" y1="295.343" x2="545.032" y2="295.343"/>
			<line style="fill:none;stroke:#E8EBEF;stroke-miterlimit:10;" x1="545.032" y1="313.229" x2="421.444" y2="313.229"/>
			<line style="fill:none;stroke:#E8EBEF;stroke-miterlimit:10;" x1="421.444" y1="331.115" x2="545.032" y2="331.115"/>
		</g>
		<path style="fill:none;stroke:#F99595;stroke-width:2;stroke-miterlimit:10;" d="M422.556,307.055c0,0,17.065-1.892,23.444-24.688
			c6.379-22.796,21.359-8.802,35.61-22.307c14.251-13.505,7.144-51.789,27.541-54.147c20.397-2.358,21.295,18.21,21.295,18.21"/>
		<path style="fill:#60A2F4;" d="M512.402,205.529c0,2.293-1.859,4.151-4.151,4.151s-4.151-1.859-4.151-4.151
			s1.858-4.151,4.151-4.151S512.402,203.237,512.402,205.529z"/>
		<path style="fill:#60A2F4;" d="M534.208,224.123c0,2.293-1.859,4.151-4.151,4.151c-2.293,0-4.151-1.859-4.151-4.151
			c0-2.293,1.858-4.151,4.151-4.151C532.35,219.972,534.208,221.831,534.208,224.123z"/>
		<path style="fill:#60A2F4;" d="M489.228,256.764c0,2.293-1.859,4.151-4.151,4.151s-4.151-1.858-4.151-4.151
			c0-2.293,1.858-4.151,4.151-4.151S489.228,254.471,489.228,256.764z"/>
		<path style="fill:#60A2F4;" d="M467.398,266.245c0,2.293-1.858,4.151-4.151,4.151c-2.293,0-4.151-1.858-4.151-4.151
			c0-2.293,1.858-4.151,4.151-4.151C465.54,262.094,467.398,263.952,467.398,266.245z"/>
		<path style="fill:#60A2F4;" d="M446.505,292.737c0,2.293-1.858,4.151-4.151,4.151s-4.151-1.858-4.151-4.151
			c0-2.293,1.859-4.151,4.151-4.151S446.505,290.445,446.505,292.737z"/>
		<circle style="fill:#F7F7F7;" cx="240.879" cy="212.375" r="41.012"/>
		<rect x="196.234" y="263.756" style="fill:#B5C2FD;" width="124.513" height="10.455"/>
		<rect x="196.234" y="283.742" style="fill:#F7F7F7;" width="124.513" height="10.455"/>
		<rect x="196.234" y="304.269" style="fill:#F7F7F7;" width="73.126" height="10.455"/>
	</g>
	<g>
		<g>
			<g>
				<g>
					<rect x="499.426" y="389.463" style="fill:#FFFFFF;" width="137.779" height="57.303"/>
					<polygon style="fill:#D1DEEE;" points="561.201,446.766 595.509,390.827 637.206,390.827 637.206,446.766 					"/>
				</g>
				<path style="fill:#A8BBD1;" d="M515.523,437.561c0,3.25-2.634,5.884-5.884,5.884c-3.249,0-5.884-2.634-5.884-5.884
					c0-3.249,2.634-5.884,5.884-5.884C512.888,431.678,515.523,434.312,515.523,437.561z"/>
				<path style="fill:#344B7E;" d="M513.531,437.561c0,2.15-1.743,3.892-3.892,3.892s-3.892-1.743-3.892-3.892
					c0-2.149,1.742-3.892,3.892-3.892S513.531,435.412,513.531,437.561z"/>
				<path style="fill:#344B7E;" d="M534.501,437.561c0,3.25-2.634,5.884-5.884,5.884s-5.884-2.634-5.884-5.884
					c0-3.249,2.634-5.884,5.884-5.884S534.501,434.312,534.501,437.561z"/>
			</g>
			<g>
				<g>
					<g>
						<g>
							<path style="fill:#1F2326;" d="M596.065,249.053c2.278,9.853,4.53,19.712,6.755,29.577c0.475,2.104,1.982,5.508,1.716,7.626
								c-0.208,1.661-1.744,1.965-3.458,2.326c-3.587,0.754-7.289,0.174-10.913,0.174c-4.248,0-8.568,0.232-12.809,0
								c-5.193-0.284-8.715-5.118-9.38-10.007c-0.59-4.34,0.57-8.707,1.72-12.934c1.157-4.254,2.293-8.515,3.344-12.797
								c0.63-2.566,1.27-5.142,1.737-7.743c0.46-2.561-1.73-5.166,0.895-7.24c1.56-1.233,3.683-1.402,5.668-1.52
								c2.746-0.164,5.639-0.299,8.098,0.932C593.562,239.512,595.027,244.561,596.065,249.053z"/>
							<path style="fill:#4498E2;" d="M563.052,285.997c-2.252,4.478-2.768,10.202-4.368,15.178
								c-6.416,19.956-15.969,38.904-28.238,55.902c3.71,3.554,10.001,2.945,14.235,0.034c4.233-2.911,6.896-7.546,9.418-12.022
								c6.526-11.586,13.71-23.012,19.659-34.902c1.885-3.768,2.298-7.38,3.498-11.337c1.3-4.286,4.704-9.012,4.704-13.609
								c-0.043-7.392-6.957-7.844-12.432-5.498C566.354,281.103,564.394,283.328,563.052,285.997z"/>
							<path style="fill:#2D7FC9;" d="M558.023,314.608c-0.284-11.255,7.052-21.225,9.378-32.241
								c-0.803,13.16-0.879,26.363-0.229,39.532c0.198,4.02-2.158,8.784-5.725,4.58
								C558.985,323.579,558.115,318.262,558.023,314.608z"/>
							<path style="fill:#C47A7A;" d="M558.034,359.821c0,0-27.598,3.276-27.601,3.277c-6.808,0.808-26.581,7.988-16.42,16.751
								c1.988,1.715,4.461,2.751,6.917,3.678c5.448,2.058,11.045,3.715,16.733,4.968c6.024,1.326,9.621,0.322,15.57-0.406
								c10.762-1.316,21.524-2.633,32.286-3.949l22.392-24.319H558.034z"/>
							<path style="display:none;fill:#A74040;" d="M514.522,367.719c-0.926,0.932-1.642,2.012-2.052,3.27
								c2.096-3.044,6.404-1.459,8.924,0.04c3.354,1.995,6.583,4.53,9.264,7.365c2.702,2.856,3.371,7.462,7.321,8.362
								c9.266,2.112,23.717,5.289,31.516-0.982c3.922-3.154,7.234-7.418,9.061-12.122c0.469-1.207,3.196-13.586,0.769-13.663
								c-10.166-0.321-20.169-2.072-30.197-0.561c-6.731,1.014-13.565,1.226-20.256,2.526
								C524.551,362.793,518.029,364.19,514.522,367.719z"/>
							<path style="fill:#C47A7A;" d="M595.217,368.143c1.188,0.645,2.488,1.527,2.618,2.872c0.098,1.021-0.56,1.996-1.415,2.564
								c-0.854,0.568-1.88,0.805-2.882,1.021c-6.707,1.447-15.885,6.464-22.377,2.32c-4.193-2.677-6.683-12.504-6.856-17.076
								c0.019,0.502,13.872,2.067,14.98,2.317C584.835,363.415,590.216,365.427,595.217,368.143z"/>
							<path style="fill:#F99595;" d="M558.423,385.92c1.463,2.967,4.724,5.865,8.342,7.629c8.677,4.231,19.189,3.138,28.355,1.414
								c6.335-1.192,12.206-3.84,14.607-10.032c1.805-4.655,3.49-15.167-2.482-17.831c-5.809-2.59-19.297,4.676-25.427,5.116
								c-10.74,0.771-14.391,3.539-17.009,4.183C557.639,378.162,556.538,382.097,558.423,385.92z"/>
							<path style="fill:#F4B516;" d="M614.606,351.673c0.274,4.788,0.414,9.582,0.387,14.378
								c-0.041,7.238-6.081,8.554-11.972,5.141c-6.101-3.535-12.472-6.995-19.619-7.678c-10.295-0.985-10.97-3.521-10.887-14.667
								c0.082-10.897-4.836-20.789-7.82-31.035c-1.394-4.788-2.989-10.557-2.656-15.588c0.362-5.472,3.559-11.251,5.608-16.38
								c4.297-10.75,19.217-10.188,28.62-8.904c5.273,0.72,11.178,1.038,14.468,5.444c4.464,5.976,4.971,14.453,3.333,21.47
								c-2.06,8.824-5.861,17.692-4.261,26.611c1.038,5.786,3.994,10.055,4.447,15.982
								C614.389,348.188,614.506,349.93,614.606,351.673z"/>
							<path style="fill:#DD9A05;" d="M615.893,367.114c0.228,3.576-2.109,7.691-4.122,10.144
								c-7.29-3.119-13.334-8.385-21.168-10.47c-9.121-2.428-18.711-2.428-28.041-3.382c-6.452-0.691,0.255-11.391,1.764-14.358
								c2.617-5.145,4.645-12.499,4.14-18.28c9.4,5.187,22.422,10.228,28.229,19.495c2.094,3.343,4.409,7.995,8.05,9.947
								c3.278,1.758,7.517,0.255,10.02,3.671C615.476,364.852,615.819,365.955,615.893,367.114z"/>
							<path style="fill:#4498E2;" d="M583.776,278.483c-0.134,0.86-7.427,2.879-8.224,5.378
								c-0.797,2.499-6.191,18.869-6.191,18.869l2.968,33.727l-4.642,28.767l-11.485-3.09l7.723-34.006l-2.717-28.13l8.319-20.254
								c0,0,4.669-3.286,12.432-3.48C589.723,276.069,583.776,278.483,583.776,278.483z"/>
							<path style="fill:#60A2F4;" d="M593.996,275.283c0,0-10.205,18.558-9.812,30.252c0.555,16.525-3.242,34.749,1.635,51.269
								c1.877,6.356,6.546,10.597,11.382,14.793c2.154,1.869,5.734,4.138,7.02,6.752c1.482,3.012-0.212,6.351,2.619,9.285
								c1.89,1.958,4.634,2.909,7.345,3.141c2.711,0.232,5.432-0.185,8.121-0.602c-4.269,0.661-4.962-29.171-5.302-32.169
								c-1.694-14.956-3.456-29.971-5.543-44.821c-0.433-3.078-0.501-33.404-2.283-33.877L593.996,275.283z"/>
							<path style="fill:#5397E0;" d="M607.749,296.652c-2.382,9.735-4.792,19.504-8.34,28.893c-1.8,4.762-3.883,9.426-6.399,13.855
								c-1.921,3.382-3.079,7.197-4.954,10.403c-0.099,0.169-4.446-10.984-4.647-12.569c-0.742-5.846,1.843-7.637,5.389-12.112
								C595.883,316.175,602.23,306.643,607.749,296.652z"/>
							<path style="fill:#5397E0;" d="M585.822,356.801c-0.073,0.241,4.091,6.93,4.412,7.456c2.015,3.313,4.502,6.34,7.366,8.953
								c0.311,0.284,8.321-13.504,8.936-14.808c2.704-5.737,4.52-11.675,6.114-17.795c1.925-7.391,0.583-14.129-0.387-21.603
								C612.262,319.004,586.231,356.215,585.822,356.801z"/>
							<path style="fill:#60A2F4;" d="M606.313,279.333c-7,1.67-3.593,13.97-3.955,19.057c-0.375,5.271-0.813,10.838-2.834,15.775
								c-3.013,7.361-7.343,14.167-12.28,20.379c-7.678,9.662-16.88,17.985-26.037,26.259c1.714-1.548,10.203,1.476,12.616,1.327
								c5.088-0.315,10.313-3.23,14.556-5.848c12.997-8.023,22.282-20.921,27.03-35.328c2.379-7.219,3.652-14.801,3.818-22.399
								c0.14-6.403-0.379-12.449-5.466-16.955c-1.989-1.762-4.734-2.859-7.331-2.293
								C606.391,279.314,606.352,279.323,606.313,279.333z"/>
							<path style="fill:#C86F31;" d="M569.586,240.638c-0.263,1.408-0.418,2.837-0.466,4.271c-0.103,3.068,0.311,4.887,2.043,7.558
								c1.214-3.712,2.429-7.423,3.643-11.135c0.476-1.455,0.958-2.993,0.648-4.493c-0.605-2.931-3.308-4.169-4.525-0.982
								C570.338,237.409,569.89,239.01,569.586,240.638z"/>
							<path style="fill:#E9B98A;" d="M595.365,278.031c-0.962,2.968-3.93,4.589-6.801,5.249c-1.814,0.426-7.942,1.209-9.178-0.344
								c-0.852-1.058-0.096-2.597,0.508-3.82c0.55-1.113,0.921-2.253,1.14-3.408c0.701-3.6-0.11-7.255-1.882-10.525
								c0.014-0.014,0.014-0.014,0-0.014c-0.261-0.508-0.55-0.976-0.852-1.457c-0.014,0-0.014-0.014-0.014-0.014l0.646-0.357
								c0.22-0.096,0.44-0.165,0.673-0.234c1.497-0.453,3.105-0.302,4.685-0.536c2.803-0.398,5.633-1.305,8.409-2.089
								c0.508-0.151,1.003-0.288,1.498-0.426C590.584,261.022,596.162,275.586,595.365,278.031z"/>
							<path style="fill:#CA876F;" d="M592.7,260.486c-2.391,8.45-9.247,13.616-11.665,15.224c0.701-3.6-0.11-7.255-1.882-10.525
								c0.014-0.014,0.014-0.014,0-0.014c-0.398-1.113-0.756-1.401-0.852-1.457c-0.014,0-0.014-0.014-0.014-0.014l0.646-0.357
								c0.22-0.096,0.44-0.165,0.673-0.234c1.497-0.453,3.105-0.302,4.685-0.536C587.094,262.176,589.924,261.269,592.7,260.486z"/>
							<path style="fill:#E9B98A;" d="M598.797,241.736c2.24,4.686,1.045,8.657-0.226,13.318c-0.802,2.943-3.939,8.347-7.929,6.322
								c-0.143,0.231-0.221,0.469-0.335,0.716c-2.756,5.983-13.463,11.731-18.531,5.242c-3.923-5.023-3.915-13.375-2.862-19.347
								c0.09-0.512,0.191-0.993,0.302-1.436c0.715-2.873,1.425-6.439,2.937-9.011c1.014-1.724,2.809-2.64,4.699-3.378
								C584.486,231.182,595.104,234.01,598.797,241.736z"/>
							<path style="fill:#1F2326;" d="M611.097,280.312c-1.608-0.975-3.696-0.467-5.386,0.33c-2.899,1.374-4.685,2.212-7.859,1.099
								c-2.459-0.866-4.493-2.872-5.716-5.152c-2.418-4.452-2.281-8.821-1.841-13.616c0.426-4.617,3.297-9.041,2.776-13.712
								c-0.138-1.209-0.371-2.281-0.261-3.476c0.027-0.22,0.069-0.44,0.11-0.673c-0.041,0.22-0.096,0.44-0.137,0.66
								c-0.522,2.528-1.03,5.056-1.553,7.571c-1.552-1.086-3.174-1.635-4.809-2.556c-2.405-1.333-1.869-0.44-2.006-3.119
								c-0.055-1.195,0.22-2.542,0.522-3.861c0.192-0.879,0.412-1.745,0.536-2.528c-0.289,0.811-0.577,1.608-0.866,2.418
								c-0.632,1.772-1.278,3.559-1.91,5.331c-1.91-0.646-3.806-1.292-5.702-1.937c0.289-2.144,0.577-4.273,0.865-6.417
								c0.138-1.017,0.275-2.047,0.412-3.064c-0.398,0.879-0.783,1.759-1.182,2.638c-0.852,1.91-1.717,3.806-2.569,5.716
								c-2.652-0.687-5.304-1.374-7.955-2.061c0.028-3.27,1.14-6.485,3.023-9.137c0.275-0.385,0.563-0.77,0.866-1.127
								c2.322-2.748,4.245-3.064,6.952-3.861c0.522-0.151,1.058-0.33,1.649-0.536c2.83-1.003,5.084-1.923,8.093-1.965
								c4.795-0.055,12.352,2.336,11.734,8.45c0.577-0.055,1.154-0.014,1.704,0.137c0.769,0.206,1.498,0.605,2.13,1.127
								c0.536,0.44,0.989,0.975,1.346,1.566c1.305,2.184,1.168,4.878,0.989,7.433c-0.069,0.825-0.137,1.635-0.151,2.404
								c-0.11,3.737,0.069,7.474,0.536,11.17c0.453,3.696,1.182,7.365,2.185,10.964c0.495,1.786,1.058,3.572,1.69,5.317
								C609.641,276.74,610.3,279.831,611.097,280.312z"/>
							<path style="fill:#DB8686;" d="M560.338,376.246c3.285,1.649,17.287,7.205,17.228,11.726
								c-0.026,2.041-1.788,3.729-3.733,4.346c-1.945,0.617-4.045,0.4-6.073,0.176c-6.135-0.676-12.271-1.353-18.372-2.286
								c-9.017-1.379-17.949-3.318-26.727-5.801c-5.714-1.617-26.853-13.136-13.594-20.084c1.457-0.763,3.149-0.918,4.792-0.995
								c10.471-0.494,19.164,2.534,28.953,5.716C548.825,370.997,554.689,373.408,560.338,376.246z"/>
							<path style="fill:#CA876F;" d="M578.287,250.888c0,0-2.691,6.792-4.729,8.167c-2.037,1.375,3.525,2.625,5.4,0
								c0,0-1.938,0.938-2.063-0.75S578.287,250.888,578.287,250.888z"/>
							<path style="fill:#1F2326;" d="M572.54,252.942c-0.044,1.143,0.377,2.086,0.939,2.108c0.562,0.021,1.054-0.887,1.097-2.03
								c0.044-1.143-0.377-2.086-0.939-2.108S572.583,251.8,572.54,252.942z"/>
							<path style="fill:#1F2326;" d="M581.04,254.727c-0.044,1.143,0.377,2.086,0.939,2.108c0.562,0.022,1.054-0.887,1.097-2.03
								c0.044-1.143-0.377-2.086-0.939-2.108S581.083,253.585,581.04,254.727z"/>
							<path style="fill:#FFFFFF;" d="M572.329,261.242c0,0,3.379,2.125,7.566,0.813c0,0-1.875,2.125-4.75,1.625
								S572.329,261.242,572.329,261.242z"/>
						</g>
						<g>
							<rect x="545.032" y="361.137" style="fill:#304573;" width="48.659" height="3.72"/>
							<path style="fill:#304573;" d="M500.714,364.628l-15.46-34.965c-0.599-1.354,0.393-2.876,1.873-2.876h66.543
								c0.825,0,1.569,0.495,1.888,1.256l15.596,37.181L500.714,364.628z"/>
							<path style="fill:#344B7E;" d="M497.246,364.628l-15.46-34.965c-0.599-1.354,0.392-2.876,1.873-2.876h66.544
								c0.825,0,1.569,0.495,1.888,1.256l15.596,37.181L497.246,364.628z"/>
							<path style="fill:#FFFFFF;" d="M529.016,342.932c1.129,3.408-0.307,6.949-3.207,7.91c-2.9,0.96-6.166-1.024-7.294-4.432
								c-1.129-3.408,0.307-6.949,3.207-7.909C524.622,337.54,527.887,339.524,529.016,342.932z"/>
						</g>
					</g>
					<path style="fill:#78B860;" d="M601.066,359.793"/>
					<path style="fill:#1F2326;" d="M605.052,245.99c-4.067,0.508-8.189,0.426-12.242-0.206c0,0-0.014-0.014-0.028-0.014
						c-2.666-0.412-5.29-1.072-7.845-1.965c-0.11-0.027-0.22-0.069-0.33-0.11c-2.322-0.811-4.589-1.827-6.746-3.023
						c-0.261-0.137-0.522-0.288-0.769-0.426c-2.693-1.553-5.221-3.38-7.502-5.482c0.275-0.385,0.563-0.77,0.866-1.127
						c2.322-2.748,4.245-3.064,6.952-3.861c0.976,0.714,2.02,1.333,3.091,1.882c3.394,1.731,7.103,2.734,10.786,3.737
						c3.284,0.893,6.636,1.8,10.044,1.704c0.467-0.014,0.92-0.055,1.388-0.11c0.536,0.44,0.989,0.975,1.346,1.566
						C605.368,240.742,605.23,243.435,605.052,245.99z"/>
				</g>
				<path style="fill:#F99595;" d="M545.605,452.768c1.88,0.905,4.408,0.299,6.048-1.119c5.051-4.366,8.449-12.642,11.802-18.423
					c5.677-9.788,29.159-48.019,10.589-56.964c-2.815-1.356-6.319-0.441-8.752,1.52c-2.433,1.961-3.989,4.792-5.313,7.622
					c-6.026,12.884-7.72,26.854-11.742,40.344C547.049,429.733,539.972,450.054,545.605,452.768z"/>
				<path style="fill:#E9B98A;" d="M543.509,448.433l-16.815,14.263c0,0,8.763,10.561,14.285,7.262
					c5.523-3.298,10.674-18.308,10.674-18.308L543.509,448.433z"/>
				<path d="M531.376,462.417c0.042,0.163,0.096,0.323,0.166,0.479c1.649,3.714,7.933,2.073,10.561,0.459
					c3.096-1.901,5.397-4.823,7.989-7.369c-2.81,6.721-5.189,16.419-13.276,18.662c-4.846,1.344-11.655-1.543-12.379-6.981
					c-0.895-6.726,7.11-10.18,11.557-13.437C534.018,455.676,530.646,459.554,531.376,462.417z"/>
			</g>
		</g>
		<g>
			<g>
				<g>
					<g>
						<path style="fill:#37539A;" d="M147.674,445.548c1.042,0,2.021-0.643,2.398-1.679l66.738-182.759l66.504,182.759
							c0.482,1.325,1.946,2.006,3.273,1.524c1.325-0.482,2.008-1.948,1.524-3.273l-68.902-189.346
							c-0.367-1.007-1.325-1.679-2.398-1.679c-1.074,0-2.031,0.671-2.398,1.679l-69.136,189.346c-0.484,1.325,0.2,2.79,1.524,3.272
							C147.089,445.498,147.383,445.548,147.674,445.548z"/>
						<path style="fill:#37539A;" d="M208.523,278.958h37.821c1.409,0,2.553-1.144,2.553-2.553c0-1.41-1.144-2.553-2.553-2.553
							h-37.821c-1.409,0-2.553,1.143-2.553,2.553C205.97,277.814,207.114,278.958,208.523,278.958z"/>
						<path style="fill:#37539A;" d="M198.787,306.789h36.046c1.409,0,2.553-1.143,2.553-2.553c0-1.409-1.144-2.553-2.553-2.553
							h-36.046c-1.409,0-2.553,1.143-2.553,2.553C196.234,305.646,197.377,306.789,198.787,306.789z"/>
						<path style="fill:#37539A;" d="M238.81,306.789h34.526c1.35,0,2.445-1.143,2.445-2.553c0-1.409-1.095-2.553-2.445-2.553
							H238.81c-1.35,0-2.445,1.143-2.445,2.553C236.365,305.646,237.46,306.789,238.81,306.789z"/>
						<path style="fill:#37539A;" d="M189.052,334.621h36.046c1.41,0,2.553-1.144,2.553-2.553c0-1.41-1.143-2.553-2.553-2.553
							h-36.046c-1.409,0-2.553,1.143-2.553,2.553C186.499,333.478,187.643,334.621,189.052,334.621z"/>
						<path style="fill:#37539A;" d="M246.344,334.621h36.046c1.409,0,2.553-1.144,2.553-2.553c0-1.41-1.144-2.553-2.553-2.553
							h-36.046c-1.409,0-2.553,1.143-2.553,2.553C243.791,333.478,244.935,334.621,246.344,334.621z"/>
						<path style="fill:#37539A;" d="M179.317,362.451h36.046c1.409,0,2.553-1.144,2.553-2.553c0-1.409-1.144-2.553-2.553-2.553
							h-36.046c-1.409,0-2.553,1.143-2.553,2.553C176.764,361.308,177.908,362.451,179.317,362.451z"/>
						<g id="POLYLINE_1062_">
							<path d="M211.492,345.061c1.92,2.119,3.553,4.56,5.964,6.154c1.172,0.775,1.436,1.531,2.438,2.515
								c-6.457,1.67-13.198,2.237-19.843,1.669c-1.916-0.164-4.063-0.561-5.134-2.158c-1.042-1.553-0.652-3.619-0.223-5.439
								c0.386-1.636,0.909-3.459,2.383-4.265c0.691-0.378,1.499-0.469,2.285-0.523C203.424,342.736,208.758,342.044,211.492,345.061
								z"/>
						</g>
						<g id="POLYLINE_1060_">
							<path d="M194.462,358.424c0.661,0.291,1.487,0.406,2.399,0.431c6.829,0.182,13.755,0.156,20.587,0.083
								c2.098-0.022,4.208-0.033,6.299-0.229c0.89-0.084,1.924-0.194,2.656-0.769c1.107-0.871,1.034-2.452,0.079-3.401
								c-1.346-1.339-7.088-4.364-8.976-3.257c-0.251,0.147-0.442,0.376-0.663,0.566c-0.54,0.462-1.247,0.675-1.937,0.846
								c-3.47,0.857-7.052,0.882-10.564,0.277c-2.195-0.378-3.544-0.248-5.41-1.465c-0.661-0.431-4.807-2.786-4.441-3.833
								c-0.915,2.616-1.631,5.159-1.641,7.963C192.846,357.154,193.469,357.987,194.462,358.424z"/>
						</g>
						<path style="fill:#37539A;" d="M256.942,362.451h36.044c1.41,0,2.553-1.144,2.553-2.553c0-1.409-1.143-2.553-2.553-2.553
							h-36.044c-1.409,0-2.553,1.143-2.553,2.553C254.389,361.308,255.532,362.451,256.942,362.451z"/>
						<path style="fill:#37539A;" d="M169.582,390.283h36.046c1.409,0,2.553-1.143,2.553-2.553c0-1.41-1.143-2.553-2.553-2.553
							h-36.046c-1.41,0-2.553,1.143-2.553,2.553C167.029,389.139,168.173,390.283,169.582,390.283z"/>
						<path style="fill:#37539A;" d="M266.718,390.283h36.046c1.409,0,2.553-1.143,2.553-2.553c0-1.41-1.143-2.553-2.553-2.553
							h-36.046c-1.409,0-2.553,1.143-2.553,2.553C264.165,389.139,265.309,390.283,266.718,390.283z"/>
						<path style="fill:#37539A;" d="M159.847,418.115h36.044c1.409,0,2.553-1.144,2.553-2.553s-1.144-2.553-2.553-2.553h-36.044
							c-1.409,0-2.553,1.144-2.553,2.553S158.438,418.115,159.847,418.115z"/>
						<path style="fill:#37539A;" d="M276.741,418.115h36.046c1.409,0,2.553-1.144,2.553-2.553s-1.144-2.553-2.553-2.553h-36.046
							c-1.41,0-2.553,1.144-2.553,2.553S275.331,418.115,276.741,418.115z"/>
						<path style="fill:#37539A;" d="M216.997,256.202h37.821c1.409,0,2.553-1.143,2.553-2.553c0-1.41-1.144-2.553-2.553-2.553
							h-37.821c-1.41,0-2.553,1.143-2.553,2.553C214.444,255.059,215.587,256.202,216.997,256.202z"/>
					</g>
					<path style="fill:#60A2F4;" d="M186.279,445.34c1.042,0,2.021-0.643,2.398-1.679l66.489-182.552l66.661,182.759
						c0.484,1.325,1.95,2.006,3.273,1.524c1.325-0.482,2.008-1.948,1.524-3.273l-69.059-189.346
						c-0.367-1.007-1.325-1.679-2.398-1.679c-1.074,0-2.031,0.671-2.398,1.679l-68.888,189.138c-0.484,1.325,0.199,2.79,1.524,3.273
						C185.695,445.29,185.988,445.34,186.279,445.34z"/>
				</g>
			</g>
			<g>
				<polygon style="fill:#ECB781;" points="231.839,147.03 206.735,164.489 215.638,173.132 234.1,152.764 				"/>
				<g>
					<path style="fill:#5985D3;" d="M228.343,123.259c-0.397,15.288,1.007,44.279,12.919,81.197l75.47-56.58
						c-24.119-17.763-49.817-30.663-75.85-35.127C234.182,111.601,228.521,116.396,228.343,123.259z"/>
					<path style="fill:#B5C2FD;" d="M250.358,160.302c-1.415-12.923-6.111-23.374-10.49-23.343
						c-4.378,0.031-6.781,10.532-5.366,23.455c1.415,12.923,6.111,23.374,10.49,23.343
						C249.37,183.726,251.772,173.225,250.358,160.302z"/>
					<path style="fill:#2B52C1;" d="M240.882,112.75c-2.849-0.488-5.476,0.146-7.608,1.508c19.667,10.99,36.68,26.925,49.98,48.647
						c1.26,2.798,1.999,5.661,2.203,8.418l31.274-23.446C292.613,130.113,266.914,117.213,240.882,112.75z"/>
				</g>
				<g>
					<g id="POLYLINE_1_">
						<path d="M192.149,346.253c0.438,0.58,0.882,1.202,1.378,1.842c1.14,1.471,2.85,2.749,4.675,3.211
							c2.059,0.522,2.343,0.872,3.922,2.424c-6.457,1.67-13.198,2.237-19.843,1.669c-2.684-0.229-5.32-0.887-4.705-4.158
							c0.265-1.408,0.529-2.816,0.794-4.225c0.201-1.066,0.401-2.133,0.601-3.2c0.249-1.325,6.284-1.16,7.298-1.113
							C189.293,342.843,190.684,344.313,192.149,346.253z"/>
					</g>
					<g id="POLYLINE_1066_">
						<path d="M188.178,358.926c4.41,0,8.75-0.024,13.145-0.363c1.245-1.318,0.363-3.649-1.186-4.592
							c-1.548-0.943-3.46-0.963-5.26-1.184c-3.124-0.384-6.161-1.464-8.826-3.139c-1.511-0.95-2.952-2.11-4.687-2.531
							c-5.025-1.22-4.766,4.328-4.605,7.681c0.048,0.997,0.059,2.324,0.803,3.108c0.881,0.927,2.544,0.943,3.714,0.995
							C183.572,359.001,185.882,358.931,188.178,358.926z"/>
					</g>
					<g id="POLYLINE_1065_">
						<path style="fill:#304573;" d="M177.544,342.963c0.206,1.31-0.273,2.563-0.301,3.866c-0.009,0.412,0.008,0.928,0.36,1.209
							c0.591,0.47,1.736,0.184,2.375,0.12c2.143-0.214,4.295,0.077,6.441-0.099c1.95-0.16,3.996-0.662,5.713-1.625
							c2.569-1.441-1.184-21.66-1.199-25.685c-0.03-7.854-0.173-16.667,0.898-24.811c1.217-9.249,5.538-17.405,8.002-26.244
							c2.817-10.101,3.735-21.127,5.522-31.464c0.592-3.426,1.184-6.958,0.431-10.353c-1.829-8.253-15.197-9.949-21.13-4.817
							c-3.077,2.662-3.543,7.182-3.793,11.242c-0.933,15.163-0.863,30.507-2.83,45.531
							C175.299,300.724,174.253,322.071,177.544,342.963z"/>
					</g>
					<g id="POLYLINE_1061_">
						<path style="fill:#344B7E;" d="M217.077,235.688c-0.246-1.517-0.509-3.03-0.794-4.54c-1.51-8.007-4.731-17.138-12.514-19.548
							c-4.348-1.347-9.145-0.127-13.106,2.115c-4.365,2.471-8.292,6.89-7.8,11.881c0.465,4.723,4.305,7.413,6.829,11.004
							c3.694,5.256,4.803,11.574,6.808,17.549c1.839,5.481,5.295,10.656,6.255,16.41c0.964,5.778-0.973,10.777-2.145,16.454
							c-1.307,6.328-10.094,58.339-4.174,59.598c4.819,1.023,9.396-2.974,14.371-2.572c-0.71-9.359-1.484-20.454,0.401-29.771
							c2.174-10.753,6.016-21.203,8.452-31.92c1.768-7.287,1.047-14.919,0.314-22.381
							C219.177,251.854,218.379,243.731,217.077,235.688z"/>
					</g>
					<path style="fill:#304573;" d="M199.881,227.233c6.155,1.051,11.516,4.679,16.66,8.218c-1.979-8.512-3.958-17.023-5.937-25.535
						c-0.111-0.476-21.142-2.991-22.715-2.209c-5.191,2.582-5.786,15.253-6.844,20.804
						C187.279,229.154,193.622,226.165,199.881,227.233z"/>
					<path style="fill:#ECB781;" d="M214.603,109.979l2.41,4.549c0.603,1.138-0.222,2.508-1.51,2.508h-2.265L214.603,109.979z"/>
					<g id="POLYLINE_1068_">
						<path style="fill:#ECB781;" d="M215.104,108.316c0.164-3.5,0.799-9.26-2.214-11.873c-2.699-2.341-7.613-1.511-10.345,0.193
							c-3.08,1.92-5.115,5.2-6.236,8.652c-1.121,3.451-1.422,7.107-1.716,10.724c-0.484,5.964-0.969,11.929-1.453,17.893
							c0.098-1.202,9.013,4.455,9.654,5.17c1.249-0.964,3.359-0.641,4.949-0.72c-1.488-3.202-1.298-6.949-0.613-10.394
							c0.114-0.571,0.276-1.179,0.723-1.552c0.591-0.493,1.449-0.407,2.213-0.503C216.55,125.089,214.914,112.374,215.104,108.316z"
							/>
					</g>
					<g id="POLYLINE_1053_">
						<path style="fill:#FF901B;" d="M216.618,147.325c1.756,5.745,1.669,11.737,2.847,17.576c0.76,3.764,5.283,8.145,4.946,11.636
							c-0.5,5.168-8.035,7.916-8.159,13.109c-0.032,1.333,0.584,2.582,1.037,3.837c2.112,5.842,1.421,12.158,1.063,18.218
							c-0.22,3.724,2.747,13.999-0.492,16.629c-2.048,1.663-14.449-1.935-17.394-2.237c-7.434-0.762-14.024,0.177-21.272,1.52
							c-3.588-8.882-0.537-15.884,0.749-25.12c1.484-10.657,1.654-21.498,0.483-32.194c-0.889-8.123-2.535-16.411-0.693-24.373
							c1.177-5.088,2.765-9.868,8.364-11.518c0.134-1.428,0.268-2.856,0.402-4.284c6.535-1.946,13.647-1.905,20.159,0.116
							c-0.454-0.141,0.217,4.75,0.432,5.226c0.648,1.435,1.869,2.276,2.936,3.428C214.251,141.3,215.662,144.199,216.618,147.325z"
							/>
					</g>
					<path style="fill:#D38838;" d="M195.135,153.002c0.411,11.009,0.874,22.274,4.986,32.494c1.287,3.197,3.015,6.367,5.812,8.381
						c2.797,2.014,6.88,2.564,9.651,0.516c0.796-0.585-7.657-21.808-8.592-23.936C204.156,164.001,199.278,158.805,195.135,153.002z
						"/>
					<g id="POLYLINE_1059_">
						<path style="fill:#1F2326;" d="M219.808,89.591c-0.276,0.266-0.123,2.85-0.214,3.371c-0.031,0.184-0.061,0.368-0.112,0.541
							c-0.215,1.175-0.572,2.309-1.052,3.402c-0.082,0.184-0.163,0.358-0.245,0.511c-1.164,2.196-2.544,1.808-5.108,2.339
							c-2.544,0.531-4.178,2.962-5.526,5.189c-0.46,0.766-0.93,1.532-1.359,2.319c-0.919,1.634-1.706,3.33-2.094,5.159
							c-1.154-0.521-2.799-1.9-3.851-0.735c-2.39,2.646,0.787,4.219,2.85,4.781c-0.419,0-1.307,5.955-2.063,6.374
							c-0.337,0.194-0.736,0.235-1.114,0.276c-1.389,0.153-2.778,0.296-4.158,0.449c-0.909,0.092-1.839,0.184-2.717-0.051
							c-3.228-0.879-6.671-6.466-7.947-9.296c-0.838-1.859-1.369-3.861-1.583-5.894c-0.255-2.543-0.031-5.148,0.725-7.6
							c0.419-1.369,1.011-2.717,1.992-3.759c0.541-0.572,1.205-1.042,1.941-1.318c0.592-0.225,1.236-0.327,1.88-0.255
							c-1.134-7.202,11.86-8.356,16.375-7.038c2.268,0.664,4.382,1.828,6.681,2.4C215.395,91.338,218.082,91.215,219.808,89.591z"/>
					</g>
					<path style="fill:#1F2326;" d="M219.482,93.504c-0.215,1.175-0.572,2.309-1.052,3.402c-0.082,0.184-0.163,0.358-0.245,0.511
						c-1.164,2.196-2.544,1.808-5.108,2.339c-2.544,0.531-4.178,2.962-5.526,5.189c-0.46,0.766-0.93,1.532-1.359,2.319
						c-7.488,1.686-15.221,2.258-22.678,1.062c-0.255-2.543-0.031-5.148,0.725-7.6c0.419-1.369,1.011-2.717,1.992-3.759
						c0.541-0.572,1.205-1.042,1.941-1.318C198.408,98.724,209.798,98.06,219.482,93.504z"/>
					<g id="POLYLINE_1056_">
						<path style="fill:#ECB781;" d="M215.75,178.011c3.449-2.119,6.626-4.811,10.101-6.838c3.803-2.219,7.563-3.617,10.911-6.658
							c1.434-1.302,2.793-2.793,3.385-4.637c1.132-3.526-0.554-7.695,1.743-10.955c1.992-2.828,8.933-5.343,12.057-6.385
							c1.001,1.374-2.279,3.692-3.184,5.131c-0.072,0.114,2.363,1.551,2.545,3.924c0.111,1.438-2.667,8.821-3.579,5.638
							c0.67,2.337-4.848,9.513-6.16,11.16c-3.499,4.393-7.082,8.732-11.041,12.721c-7.417,7.473-15.613,11.323-22.336,0.132
							C212.041,180.229,213.898,179.149,215.75,178.011z"/>
					</g>
					<g id="POLYLINE_1054_">
						<path style="fill:#FFA452;" d="M213.568,152.997c-1.282-3.665-2.376-9.669-6.896-10.376c-2.065-0.323-4.184,0.324-6.002,1.358
							c-3.42,1.945-6,5.315-6.986,9.124c-0.816,3.152-0.828,8.027,1.461,10.625c0.844,0.959,2.134,1.229,2.894,2.387
							c0.835,1.27,0.692,2.819,1.23,4.195c0.37,0.946,1.082,1.661,1.768,2.386c0.441,0.466,0.811,0.951,1.138,1.503
							c0.207,0.35,0.42,0.693,0.727,0.967c0.778,0.695,1.931,0.857,2.603,1.687c0.3,0.37,0.473,0.821,0.704,1.232
							c0.34,0.608,0.785,1.148,1.134,1.75c0.676,1.163,1.392,3.268,3.106,2.81c3.032-0.811,4.599-3.769,7.078-5.396
							c0.823-0.54,2.038-1.07,2.545-1.989c0.37-0.673,0.189-1.513-0.038-2.202c-0.363-1.102-1.016-1.747-1.823-2.539
							c-0.85-0.836-1.527-1.958-2.028-3.032c-0.638-1.37-0.818-2.895-1.138-4.361c-0.181-0.827-0.342-1.666-0.402-2.511
							c-0.063-0.89,0.005-1.782-0.014-2.674C214.595,156.236,214.127,154.595,213.568,152.997z"/>
					</g>
					<g>
						<path style="fill:#1F2326;" d="M213.551,107.093c0,0.831-0.464,1.504-1.036,1.504c-0.572,0-1.036-0.673-1.036-1.504
							c0-0.83,0.464-1.504,1.036-1.504C213.087,105.589,213.551,106.262,213.551,107.093z"/>
						<path style="fill:none;stroke:#1F2326;stroke-width:0.5;stroke-linecap:round;stroke-miterlimit:10;" d="M214.145,104.472
							c0,0-1.458-1.25-3.625,0.333"/>
						<path style="fill:none;stroke:#1F2326;stroke-width:0.5;stroke-linecap:round;stroke-miterlimit:10;" d="M210.104,118.597
							c0,0,3.639,2.074,4.632,1.183"/>
					</g>
				</g>
			</g>
		</g>
		<g>
			<g>
				<path style="fill:#CA876F;" d="M412.777,254.588c-0.95,2.027-1.822,4.076-2.578,6.155c-0.945,2.599-0.776,6.024,1.559,7.505
					c2.322,1.473,5.379,0.244,7.703-1.226c5.952-3.765,12.205-9.464,14.082-16.421c1.533-5.68,2.374-11.732,3.602-17.508
					c0.891-4.187,4.868-12.256-1.662-12.146c-5.381,0.091-8.573,6.717-10.473,10.618
					C421.268,239.248,416.444,246.758,412.777,254.588z"/>
				<path style="fill:#C47A7A;" d="M417.445,239.437c-0.904,1.775-1.73,3.911-0.83,5.688c1.63,3.219,7.161,2.26,9.089,5.31
					c2.434-4.938,4.867-9.876,7.301-14.813c0.913-1.852,1.837-3.739,2.155-5.779c0.318-2.04-0.057-4.292-1.471-5.797
					C428.252,218.26,419.506,235.389,417.445,239.437z"/>
				<g id="POLYLINE_6_">
					<path style="fill:#CA876F;" d="M415.442,258.473c-0.962-0.44-1.915-0.883-2.849-1.361c-4.453-2.281-8.509-5.215-12.884-7.622
						c-2.796-1.464-5.547-3.023-8.327-4.518c-2.075-1.116-4.585-3.42-6.88-3.885c-0.481,1.76,0.316,3.502,1.344,4.888
						c-4.128,0.56-8.253,1.357-12.454,1.804c-0.629,1.729,0.039,3.756,1.351,5.045c1.312,1.289,3.162,1.917,4.994,2.083
						c4.774,0.434,9.814-1.742,14.48-0.098c3.122,1.1,5.658,4.565,8.064,6.798c3.481,3.236,6.95,6.397,10.645,9.382
						c2.649-0.737,3.743-2.311,4.328-4.997C417.839,263.306,417.943,259.616,415.442,258.473z"/>
				</g>
				<g id="POLYLINE_5_">
					<path style="fill:#344B7E;" d="M455.349,407.097c1.512,3.025,6.929,13.652,3.267,16.371c-0.518,0.385-1.135,0.608-1.743,0.827
						c-1.344,0.483-2.688,0.966-4.032,1.449c-8.137,2.941-15.34,4.07-23.935,4.751c-0.825,0.065-1.74,0.104-2.384-0.415
						c-2.948-2.378,3.009-2.976,3.952-3.435c2.644-1.286,5.206-4.495,7.155-6.641c2.59-2.852,4.955-5.585,6.784-8.99
						c1.163-2.166,0.404-2.099,2.348-3.444c0.514-0.355,7.67-2.26,7.704-2.194C454.755,405.927,455.052,406.502,455.349,407.097z"/>
				</g>
				<g id="POLYLINE_9_">
					<path style="fill:#6278C7;" d="M421.882,309.396c0.017-0.789,0.026-1.582,0.044-2.37l25.619-22.429
						c0.599,0.927,1.155,1.884,1.668,2.86c2.108,4.038,3.264,8.475,3.402,13.025c0.123,4.134-0.584,8.221-1.614,12.215
						c-1.178,4.593-2.493,9.139-3.455,13.78c-1.038,5.039-1.908,10.176-3.398,15.113c-1.177,3.901-2.901,7.583-2.704,11.75
						c0.082,1.746,0.255,3.598,0.879,5.241c0.626,1.652,1.76,3.054,2.814,4.444c2.569,3.398,4.968,6.824,6.715,10.729
						c1.833,4.07,2.614,8.271,2.976,12.692c0.386,4.699,0.52,9.532,1.607,14.141c0.374,1.573,1.16,2.984,1.569,4.539
						c0.335,1.27,0.28,2.627,0.114,3.922l-11.131,2.595c-0.499-1.174-0.892-2.402-1.089-3.663c-0.243-1.553-0.132-3.138-0.338-4.7
						c-0.47-3.559-1.824-6.753-3.461-9.912c-1.916-3.701-3.822-7.404-5.493-11.228c-1.526-3.486-2.827-7.141-4.809-10.398
						c-1.894-3.131-4.647-5.483-7.009-8.226c-1.426-1.657-2.459-3.432-2.692-5.631c-0.199-1.836,0.015-3.697,0.097-5.539
						c0.076-1.567,0.053-3.141,0.002-4.708c-0.148-4.509-0.306-9.015-0.376-13.522c-0.151-8.603,1.175-18.195-0.204-26.574
						c-1.314-7.983-2.78-14.821,3.553-21.474c5.798-6.091,15.772-7.694,23.186-3.727c0.552,1.44-0.039,3.23-1.34,4.058"/>
				</g>
				<g id="POLYLINE_4_">
					<path style="fill:#344B7E;" d="M442.586,412.661c0.813,3.283,3.77,14.838-0.398,16.689c-0.59,0.262-1.241,0.345-1.882,0.425
						c-1.417,0.177-2.834,0.354-4.251,0.53c-7.628,0.952-15.025,1.198-22.697,1.282c-3.559,0.039-8.43-1.816-2.477-4.003
						c4.072-1.495,8.049-3.722,11.589-6.211c3.151-2.216,6.058-4.364,8.588-7.286c1.61-1.858,0.853-1.959,3.045-2.846
						c0.58-0.234,7.979-0.525,7.998-0.453C442.263,411.389,442.426,412.016,442.586,412.661z"/>
				</g>
				<g id="POLYLINE_3_">
					<path style="fill:#799CDF;" d="M437.452,285.045c5.034-3.36,15.016-5.032,20.171-0.782c5.335,4.398,1.856,11.172,0.518,17.863
						c-3.602,18.009-12.216,31.886-18.386,48.51c-3.272,8.815,2.15,15.493,3.995,23.766c2.539,11.386-0.845,22.673-0.434,34.006
						c0.047,1.312-0.304,2.624-0.751,3.851l-11.429,0.086c-0.228-1.255-0.342-2.539-0.257-3.813c0.105-1.569,0.561-3.09,0.704-4.659
						c0.323-3.575-0.295-6.988-1.198-10.43c-1.847-7.038-3.405-15.362-5.811-22.693c-2.642-8.05-5.35-12.379-4.436-21.023
						c1.442-13.645,6.378-26.49,8.54-39.966C430.134,300.679,428.727,290.867,437.452,285.045z"/>
				</g>
				<path style="fill:#6278C7;" d="M425.211,296.031c3.514,3.986,8.19,7.011,13.367,8.211s10.84,0.495,15.382-2.263
					c1.692-1.027,3.273-2.397,4.02-4.23c0.747-1.833,0.451-4.19-1.092-5.429c-1.193-0.958-2.83-1.086-4.358-1.173
					c-10.362-0.591-20.723-1.181-31.085-1.772c0.393,5.209,4.669,9.872,9.826,10.713"/>
				<g id="POLYLINE_2_">
					<path style="fill:#F99595;" d="M459.211,273.909c0.389,2.993,0.797,5.992,1.069,9.007c0.428,4.745,0.463,8.537-3.316,11.835
						c-3.247,2.833-7.745,3.763-12.051,3.949c-12.485,0.54-31.82-3.242-26.365-18.791c2.583-7.362,3.64-17.223,3.019-24.998
						c-0.326-4.081-1.175-8.116-1.32-12.208c-0.276-7.794,3.663-11.158,7.213-17.328c3.025-5.257,6.482-9.402,12.63-10.878
						c4.838-1.161,9.384,0.216,13.672,2.813c1.646,0.997,5.249,2.665,6.132,4.412c1.005,1.987-0.395,5.543-0.584,7.647
						c-0.94,10.448-0.983,20.95-1.195,31.431C458.115,265.176,458.642,269.535,459.211,273.909z"/>
				</g>
				<path style="fill:#C47A7A;" d="M445.395,247.554c0.525,2.116,1.731,3.989,2.917,5.818c2.798,4.314,5.647,8.615,8.565,12.873
					c0.642-4.304,1.286-8.608,1.926-12.913c0.591-3.976,0.108-6.971,0.108-10.906c-0.356-2.422-0.8-4.924-2.194-6.938
					C450.1,225.944,444.017,242.001,445.395,247.554z"/>
				<path style="fill:#D38838;" d="M453.624,188.305c2.018,0.636,3.953,2.033,4.972,3.483c1.817,2.585,2.347,5.876,2.283,9.036
					c-0.063,3.159-0.665,6.282-0.89,9.434c-0.225,3.152-0.044,6.435,1.356,9.268c-0.307-0.62-2.971-1.596-3.648-2.088
					c-1.223-0.889-2.341-1.92-3.338-3.056c-1.996-2.275-3.507-4.983-4.373-7.883c-0.44-1.472-0.439-2.996-0.798-4.459
					c-0.323-1.315-1.029-2.023-1.622-3.232c-1.296-2.645-1.401-6.384,0.213-8.914C449.099,187.826,451.412,187.609,453.624,188.305z
					"/>
				<g id="POLYLINE_111_">
					<path style="fill:#E3BD4A;" d="M453.491,193.98c0,5.962-1.78,13.136-6.873,13.601c-5.165,0.466-10.972-1.946-14.906-5.134
						c-3.416-2.774-6.055-6.614-7.391-10.817v-0.01c-0.083-0.269-0.166-0.549-0.238-0.818c-0.714-2.64-0.093-5,1.284-7.029
						c1.066-1.584,2.598-2.971,4.306-4.141c0.673-0.466,1.439-0.745,2.215-0.994c1.149-0.362,2.132-0.88,3.199-1.429
						c5.952-3.116,11.976,0.973,15.413,6.18c0.911,1.366,1.636,2.805,2.143,4.213c0.238,0.683,0.445,1.542,0.58,2.526
						C453.398,191.278,453.491,192.593,453.491,193.98z"/>
				</g>
				<path style="fill:#F0CAA2;" d="M449.045,216.714c0.736-1.472-1.328-8.24-1.457-10.081c-0.25-3.56-0.023-7.115,0.017-10.674
					c-1.561,0.431-13.608,5.615-13.694,5.107c0.66,3.882,1.776,7.885,2.275,11.745c0.342,2.649-0.745,6.939,1.874,8.782
					C441.77,224.206,447.5,219.999,449.045,216.714z"/>
				<path style="fill:#CA876F;" d="M436.185,212.81c0,0,7.35-1.272,9.445-5.391c2.095-4.119,0.988,0.163,0.988,0.163
					s-2.016,12.045-9.788,11.944L436.185,212.81z"/>
				<g id="POLYLINE_110_">
					<path style="fill:#F0CAA2;" d="M427.815,188.238c-0.8,3.26-0.893,6.832-0.724,10.17c0.16,3.172,0.86,6.285,2.34,9.11
						c1.11,2.118,2.713,4.498,5.022,5.432c1.978,0.8,4.126,0.159,5.942-0.763c2.071-1.05,4.213-2.615,5.235-4.769
						c0.862-1.816,0.381-3.531,0.53-5.43c-0.061,0.777,0.792,1.411,1.565,1.311c0.773-0.1,1.386-0.749,1.671-1.474
						c0.285-0.725,0.304-1.524,0.319-2.303c0.013-0.682,0.023-1.385-0.227-2.02c-0.25-0.635-0.827-1.191-1.51-1.2
						c-0.682-0.009-1.33,0.726-1.072,1.358c0.006-4.103-3.03-9.478-6.628-11.565c-2.028-1.176-4.576-2.369-6.985-2
						c-1.825,0.28-4.284,1.29-5.126,3.085C428.01,187.518,427.905,187.878,427.815,188.238z"/>
				</g>
				<path style="fill:#E3BD4A;" d="M447.602,189.483c-0.237-1.251-0.6-2.43-1.247-3.336c-2.249-3.153-5.939-5.233-9.801-5.525
					c-4.126-0.312-14.229,3.16-10.244,9.021c1.131,1.664,3.071,2.561,4.945,3.294c5.419,2.122,11.519,3.535,17.006,1.597
					C448.012,193.065,447.928,191.206,447.602,189.483z"/>
				<path style="fill:#F4D763;" d="M453.131,190.037c-9.342,3.145-19.588,0.826-28.881-2.401c-0.357-5.404,4.413-2.831,7.581-2.372
					c4.472,0.648,9.048,0.526,13.472-0.404c1.687-0.352,3.426-0.828,5.196-1.47c0.911,1.366,1.636,2.805,2.143,4.213
					C452.931,188.403,453.129,189.193,453.131,190.037z"/>
				<g>
					<path style="fill:#E2B68D;" d="M433.911,195.959c0,0,0.484,3.846-1.141,7.221s3.415,2.122,3.415,2.122
						s-2.385-0.184-1.869-2.497S433.911,195.959,433.911,195.959z"/>
					<path style="fill:#1F2326;" d="M439.77,200.055c0,0.808-0.343,1.464-0.766,1.464s-0.766-0.655-0.766-1.464
						c0-0.808,0.343-1.464,0.766-1.464S439.77,199.247,439.77,200.055z"/>
					<path style="fill:#1F2326;" d="M431.64,199.711c0,0.808-0.343,1.464-0.766,1.464c-0.423,0-0.765-0.655-0.765-1.464
						c0-0.808,0.343-1.464,0.765-1.464C431.297,198.247,431.64,198.903,431.64,199.711z"/>
					<path style="fill:none;stroke:#E3BD4A;stroke-width:0.75;stroke-linecap:round;stroke-miterlimit:10;" d="M437.187,197.097
						c0,0,3.333-1.208,5.167,0.75"/>
					<path style="fill:none;stroke:#E3BD4A;stroke-width:0.75;stroke-linecap:round;stroke-miterlimit:10;" d="M429.02,195.959
						c0,0,2.209-1.154,3.708,0.388"/>
					<path style="fill:#FFFFFF;" d="M432.141,207.086c0,0,4.352,0.563,6.863-0.219c0,0-0.891,1.695-3.518,1.879
						C432.86,208.93,432.141,207.086,432.141,207.086z"/>
				</g>
			</g>
			<g>
				<g>
					<g>
						<path style="fill:#E2A213;" d="M454.021,411.828v30.852c0,6.926-46.787,12.543-104.522,12.543
							c-57.717,0-104.504-5.617-104.504-12.543v-30.852H454.021z"/>
						<ellipse style="fill:#FCC13D;" cx="349.507" cy="411.832" rx="104.512" ry="12.546"/>
					</g>
					<g>
						<ellipse style="opacity:0.2;fill:#3A3429;" cx="351.622" cy="408.91" rx="102.398" ry="12.292"/>
						<g>
							<g>
								<path style="fill:#E28BD9;" d="M280.651,405.421c7.208-12.474,19.292-26.995,38.237-32.794l-15.207-59.866
									c0,0-13.778,29.331-36.28,89.741c-1.193,3.201,2.983,6.051,6.086,6.051h2.032
									C277.599,408.552,279.523,407.374,280.651,405.421z"/>
								<path style="fill:#B5C2FD;" d="M303.681,312.76c0,0-13.778,29.331-36.28,89.741c-0.943,2.532,1.472,4.838,4.059,5.694
									c8.187-29.463,21.63-56.577,35.221-83.625L303.681,312.76z"/>
								<path style="fill:#5985D3;" d="M271.46,408.196c0.684,0.226,1.378,0.357,2.027,0.357h2.032c2.08,0,4.004-1.179,5.132-3.131
									c7.208-12.474,19.292-26.995,38.237-32.794l-12.207-48.057C293.09,351.618,279.647,378.733,271.46,408.196z"/>
								<path style="fill:#2B52C1;" d="M426.091,405.421c-7.208-12.474-19.292-26.995-38.237-32.794l15.207-59.866
									c0,0,13.777,29.331,36.28,89.741c1.192,3.201-2.983,6.051-6.086,6.051h-2.032
									C429.144,408.552,427.22,407.374,426.091,405.421z"/>
								<path style="fill:#E2A213;" d="M370.7,390.305h-36.107c-1.425,0-2.659-1.102-2.974-2.654l-1.982-9.769
									c-0.433-2.132,1.018-4.161,2.975-4.161h40.071c1.957,0,3.407,2.029,2.975,4.161l-1.982,9.769
									C373.36,389.203,372.125,390.305,370.7,390.305z"/>
								<path style="fill:#FFFFFF;" d="M300.646,289.743c0,0,5.542,56.853,22.67,92.879c0,0,27.205-14.635,59.447,0
									c0,0,19.648-30.397,23.678-97.382c2.323-38.598-0.451-82.666-11.892-120.635h-79.908
									C304.006,195.535,296.433,237.07,300.646,289.743z"/>
								<path style="fill:#FFFFFF;" d="M403.89,209.771c-2.041-15.47-5.123-30.694-9.448-45.046h-79.908
									c-10.636,30.93-18.208,72.465-13.995,125.138c0,0,1.881,19.243,6.82,42.425C354.989,312.341,389.858,264.352,403.89,209.771
									z"/>
								<path style="fill:#E28BD9;" d="M358.348,403.528c5.964-24.026,11.597-67.452-6.308-116.413c0,0-20.212,51.363-5.538,116.238
									c0.689,3.047,3.133,5.199,5.946,5.199l0,0C355.206,408.552,357.611,406.497,358.348,403.528z"/>
								<path style="fill:#5985D3;" d="M351.481,288.644c-2.924,8.287-16.125,49.852-7.356,102.573
									C354.133,358.406,354.413,323.522,351.481,288.644z"/>
								<path style="fill:#2B52C1;" d="M352.041,287.115c0,0-0.209,0.537-0.559,1.529c2.932,34.877,2.652,69.762-7.356,102.573
									c0.663,3.985,1.449,8.033,2.377,12.136c0.689,3.047,3.133,5.199,5.946,5.199c2.758,0,5.163-2.055,5.9-5.025
									C364.312,379.502,369.946,336.076,352.041,287.115z"/>
								
									<ellipse transform="matrix(0.9975 -0.0706 0.0706 0.9975 -13.5506 25.5438)" style="fill:#E2A213;" cx="354.562" cy="204.457" rx="28.328" ry="28.328"/>
								<path style="fill:#47649F;" d="M355.996,184.862c-5.44,11.027-10.256,22.179-15.708,33.096
									c2.416,2.553,5.512,4.442,8.99,5.417c4.561-12.28,9.924-24.036,15.55-35.673
									C362.222,186.106,359.218,185.096,355.996,184.862z"/>
								<path style="fill:#344B7E;" d="M364.828,187.703c-5.626,11.636-10.989,23.393-15.55,35.673
									c1.683,0.472,3.449,0.748,5.284,0.748c10.862,0,19.667-8.805,19.667-19.667C374.228,197.36,370.465,191.155,364.828,187.703
									z"/>
								<path style="fill:#344B7E;" d="M354.562,184.79c-10.862,0-19.667,8.805-19.667,19.667c0,5.234,2.058,9.978,5.392,13.502
									c5.453-10.917,10.269-22.069,15.708-33.096C355.521,184.828,355.046,184.79,354.562,184.79z"/>
								
									<ellipse transform="matrix(0.9966 -0.0822 0.0822 0.9966 -20.4458 30.026)" style="fill:#E2A213;" cx="354.562" cy="263.408" rx="22.666" ry="22.666"/>
								<path style="fill:#47649F;" d="M355.709,247.73c-4.352,8.823-8.206,17.746-12.568,26.48c1.933,2.043,4.41,3.554,7.193,4.334
									c3.65-9.825,7.94-19.232,12.442-28.542C360.691,248.726,358.287,247.917,355.709,247.73z"/>
								<path style="fill:#344B7E;" d="M362.776,250.003c-4.502,9.31-8.792,18.717-12.442,28.542
									c1.347,0.378,2.759,0.598,4.228,0.598c8.691,0,15.735-7.045,15.735-15.735C370.297,257.73,367.286,252.765,362.776,250.003z
									"/>
								<path style="fill:#344B7E;" d="M354.562,247.673c-8.69,0-15.735,7.045-15.735,15.735c0,4.188,1.647,7.983,4.314,10.803
									c4.363-8.735,8.216-17.657,12.568-26.48C355.329,247.703,354.949,247.673,354.562,247.673z"/>
							</g>
							<g>
								<path style="fill:#344B7E;" d="M320.747,169.208c0,1.19-0.965,2.155-2.155,2.155c-1.19,0-2.154-0.965-2.154-2.155
									c0-1.19,0.965-2.155,2.154-2.155C319.782,167.054,320.747,168.018,320.747,169.208z"/>
								<path style="fill:#344B7E;" d="M329.431,169.208c0,1.19-0.965,2.155-2.155,2.155c-1.19,0-2.154-0.965-2.154-2.155
									c0-1.19,0.965-2.155,2.154-2.155C328.466,167.054,329.431,168.018,329.431,169.208z"/>
								<path style="fill:#344B7E;" d="M338.115,169.208c0,1.19-0.965,2.155-2.154,2.155c-1.19,0-2.155-0.965-2.155-2.155
									c0-1.19,0.965-2.155,2.155-2.155C337.151,167.054,338.115,168.018,338.115,169.208z"/>
								<path style="fill:#344B7E;" d="M346.8,169.208c0,1.19-0.965,2.155-2.155,2.155c-1.19,0-2.154-0.965-2.154-2.155
									c0-1.19,0.965-2.155,2.154-2.155C345.835,167.054,346.8,168.018,346.8,169.208z"/>
								<path style="fill:#344B7E;" d="M355.484,169.208c0,1.19-0.965,2.155-2.154,2.155c-1.19,0-2.155-0.965-2.155-2.155
									c0-1.19,0.965-2.155,2.155-2.155C354.519,167.054,355.484,168.018,355.484,169.208z"/>
								<path style="fill:#344B7E;" d="M364.168,169.208c0,1.19-0.965,2.155-2.154,2.155c-1.19,0-2.155-0.965-2.155-2.155
									c0-1.19,0.965-2.155,2.155-2.155C363.204,167.054,364.168,168.018,364.168,169.208z"/>
								<path style="fill:#344B7E;" d="M372.852,169.208c0,1.19-0.965,2.155-2.155,2.155c-1.19,0-2.155-0.965-2.155-2.155
									c0-1.19,0.965-2.155,2.155-2.155C371.888,167.054,372.852,168.018,372.852,169.208z"/>
								<path style="fill:#344B7E;" d="M381.537,169.208c0,1.19-0.965,2.155-2.154,2.155c-1.19,0-2.155-0.965-2.155-2.155
									c0-1.19,0.965-2.155,2.155-2.155C380.572,167.054,381.537,168.018,381.537,169.208z"/>
								<path style="fill:#344B7E;" d="M390.221,169.208c0,1.19-0.965,2.155-2.155,2.155c-1.19,0-2.155-0.965-2.155-2.155
									c0-1.19,0.965-2.155,2.155-2.155C389.256,167.054,390.221,168.018,390.221,169.208z"/>
							</g>
							<path style="fill:#FF901B;" d="M394.693,164.295c0,0.823-17.965,1.49-40.125,1.49c-22.16,0-40.125-0.667-40.125-1.49
								s17.965-1.49,40.125-1.49C376.729,162.805,394.693,163.472,394.693,164.295z"/>
						</g>
					</g>
				</g>
				<g>
					<path style="fill:#C5D9EF;" d="M390.567,342.704c0,5.169-2.405,9.359-5.372,9.359c-2.967,0-5.372-4.19-5.372-9.359
						c0-5.169,2.405-9.359,5.372-9.359C388.162,333.345,390.567,337.535,390.567,342.704z"/>
					<ellipse style="fill:#60A2F4;" cx="387.773" cy="342.704" rx="5.372" ry="9.359"/>
					<path style="fill:none;stroke:#455157;stroke-width:1.5034;stroke-miterlimit:10;" d="M387.189,342.704
						c0,0,77.235-8.743,78.471,34.554c1.236,43.297,0.724,65.81,43.98,60.303"/>
				</g>
			</g>
			<g>
				<g id="POLYLINE_493_">
					<path style="fill:#F0CAA2;" d="M421.074,265.134c-4.636,0.864-9.53,2.58-15.803,3.343c-6.346,0.758-12.797,1.283-18.947,3.123
						c-1.531,0.458-4.03,0.68-2.993,2.523c1.117,1.984,4.738,0.393,6.259,0.108c-2.266,0.425-5.234,3.491-7.513,4.467
						c-1.406,0.602-4.879,0.641-4.746,2.461c0.154,2.121,6.682,3.664,8.332,3.444c4.002-0.546,8.402-3.062,11.817-5.106
						c1.282-0.772,2.477-1.623,3.926-2.06c3.977-1.204,8.502-1.007,12.614-1.204c10.286-0.483,16.626-3.461,24.931-9.045
						C432.647,266.646,427.665,263.909,421.074,265.134z"/>
				</g>
				<path style="fill:#F0CAA2;" d="M434.992,254.188c-3.109,3.88-5.184,5.819-9.249,8.577c-1.819,1.234-3.416,3.227-3.16,5.41
					c0.221,1.888,1.839,3.408,3.663,3.948c1.823,0.54,3.798,0.249,5.608-0.335c6.445-2.08,38.659-29.707,23.707-36.782
					c-5.218-2.469-7.914,2.77-10.471,6.266c-3.214,4.394-6.655,8.614-10.055,12.864C435.02,254.153,435.006,254.171,434.992,254.188
					z"/>
				<g id="POLYLINE_490_">
					<path style="fill:#F99595;" d="M442.484,240.572c-1.265,1.91-2.043,3.896-0.766,6.576c0.786,1.648,2.184,2.908,3.548,4.122
						c2.378,2.117,4.755,4.234,7.133,6.351c3.125-2.147,4.658-5.69,6.747-8.69c2.257-3.243,4.326-6.489,5.443-10.326
						c0.901-3.096,1.45-6.562,0.755-9.752c-0.907-4.132-3.33-8.81-8.548-6.912c-1.042,0.379-1.9,1.132-2.698,1.902
						C449.102,228.665,446.251,234.884,442.484,240.572z"/>
				</g>
			</g>
		</g>
	</g>
	<g>
		<g>
			<g>
				<g>
					<g>
						<g>
							<path style="fill:#F99595;" d="M137.449,171.13h-33.425c-2.957,0-5.355-2.397-5.355-5.355V137.12
								c0-2.308,1.871-4.178,4.178-4.178h34.602c2.308,0,4.178,1.871,4.178,4.178v29.831
								C141.627,169.259,139.757,171.13,137.449,171.13z"/>
						</g>
					</g>
				</g>
				<g>
					<g>
						<g>
							<path style="fill:#F9F9F9;" d="M116.602,160.272c3.644,0.062,7.334,0.112,10.685-0.12c1.061-0.074,1.978-1.759,0.689-2.291
								c0.542-0.278,1.092-0.546,1.329-1.154c0.224-0.576-0.045-1.357-0.645-1.505c1.264,0.313,1.762-1.693,0.776-2.34
								c0.522-0.444,0.956-1.032,1.066-1.709c0.11-0.677-0.167-1.44-0.769-1.768c-0.395-0.215-0.865-0.223-1.314-0.227
								c-1.516-0.011-3.031-0.023-4.547-0.034c0.41-2.372,0.534-4.956-0.671-7.039c-0.363-0.628-1.338-1.38-2.113-0.897
								c-0.726,0.453-0.524,1.578-0.488,2.287c0.152,2.95-1.527,5.918-4.133,7.308C116.468,150.783,116.64,157.066,116.602,160.272z
								"/>
						</g>
					</g>
					<rect x="109.772" y="150.783" style="fill:#F9F9F9;" width="5.508" height="9.481"/>
				</g>
			</g>
			<g>
				<path style="fill:#FF901B;" d="M344.634,106.033H305.61c-3.915,0-7.089-3.174-7.089-7.089V69.042
					c0-3.915,3.174-7.089,7.089-7.089h39.024c3.915,0,7.089,3.174,7.089,7.089v29.903
					C351.723,102.859,348.549,106.033,344.634,106.033z"/>
				<g>
					<rect x="307.177" y="87.445" style="fill:#F7F7F7;" width="6.359" height="8.367"/>
					<rect x="317.021" y="81.754" style="fill:#F7F7F7;" width="6.359" height="14.057"/>
					<rect x="326.864" y="77.404" style="fill:#F7F7F7;" width="6.359" height="18.407"/>
					<rect x="336.708" y="70.878" style="fill:#F7F7F7;" width="6.359" height="24.934"/>
				</g>
			</g>
			<g>
				<path style="fill:#60A2F4;" d="M588.154,178.637l32.503,0.227c4.078,0.029,7.407-3.254,7.435-7.332l0.223-31.892
					c0.029-4.078-3.254-7.407-7.332-7.436l-32.503-0.227c-4.078-0.029-7.407,3.254-7.435,7.332l-0.223,31.892
					C580.793,175.279,584.076,178.608,588.154,178.637z"/>
				<path style="fill:#FFFFFF;" d="M587.409,154.622l-0.009,1.336c-0.005,0.59,0.416,1.098,0.996,1.203l1.576,0.288
					c0.18,0.689,0.449,1.351,0.8,1.97l-0.929,1.315c-0.341,0.479-0.289,1.135,0.125,1.553l0.938,0.951
					c0.413,0.419,1.067,0.481,1.551,0.146l1.287-0.89c0.614,0.36,1.273,0.639,1.959,0.828l0.265,1.574
					c0.096,0.582,0.599,1.01,1.189,1.013l1.357,0.01c0.59,0.005,1.098-0.416,1.203-0.997l0.287-1.571
					c0.689-0.18,1.351-0.449,1.97-0.8l1.305,0.929c0.479,0.341,1.135,0.289,1.554-0.125l0.951-0.938
					c0.419-0.413,0.481-1.067,0.146-1.551l-0.91-1.318c0.36-0.614,0.638-1.273,0.828-1.959l1.574-0.266
					c0.582-0.096,1.01-0.598,1.013-1.189l0.009-1.337c0.005-0.59-0.415-1.098-0.997-1.203l-1.571-0.287
					c-0.18-0.689-0.449-1.351-0.8-1.97l0.928-1.305c0.341-0.479,0.289-1.135-0.125-1.553l-0.938-0.951
					c-0.413-0.419-1.068-0.481-1.552-0.146l-1.312,0.87c-0.614-0.36-1.273-0.638-1.959-0.828l-0.265-1.574
					c-0.096-0.582-0.598-1.01-1.189-1.013l-1.362-0.01c-0.581,0.007-1.075,0.425-1.178,0.997l-0.283,1.611
					c-0.689,0.18-1.351,0.449-1.97,0.8l-1.305-0.929c-0.473-0.348-1.128-0.306-1.553,0.1l-0.951,0.938
					c-0.419,0.413-0.481,1.068-0.147,1.552l0.91,1.318c-0.36,0.614-0.638,1.273-0.828,1.959l-1.58,0.265
					C587.842,153.535,587.415,154.034,587.409,154.622z M594.318,155.359c0-0.007,0-0.013,0-0.02
					c0.014-1.993,1.64-3.596,3.633-3.582c1.992,0.014,3.596,1.64,3.582,3.633c-0.014,1.992-1.64,3.596-3.633,3.582
					C595.916,158.958,594.315,157.344,594.318,155.359z"/>
				<path style="fill:#FFFFFF;" d="M608.662,163.236l-0.005,0.668c-0.003,0.295,0.208,0.549,0.498,0.601l0.788,0.144
					c0.09,0.344,0.224,0.676,0.4,0.985l-0.464,0.658c-0.171,0.24-0.144,0.567,0.062,0.777l0.469,0.476
					c0.206,0.21,0.534,0.241,0.776,0.073l0.644-0.445c0.307,0.18,0.636,0.319,0.979,0.414l0.133,0.787
					c0.048,0.291,0.299,0.505,0.594,0.507l0.678,0.005c0.295,0.003,0.549-0.208,0.601-0.498l0.144-0.785
					c0.344-0.09,0.675-0.224,0.985-0.4l0.652,0.464c0.24,0.171,0.567,0.144,0.777-0.062l0.475-0.469
					c0.21-0.206,0.241-0.534,0.073-0.776l-0.455-0.659c0.18-0.307,0.319-0.636,0.414-0.979l0.787-0.133
					c0.291-0.048,0.505-0.299,0.507-0.594l0.005-0.668c0.003-0.295-0.208-0.549-0.498-0.601l-0.785-0.144
					c-0.09-0.344-0.224-0.676-0.4-0.985l0.464-0.652c0.171-0.24,0.144-0.567-0.062-0.777l-0.469-0.475
					c-0.207-0.21-0.534-0.241-0.776-0.073l-0.656,0.435c-0.307-0.18-0.636-0.319-0.979-0.414l-0.133-0.787
					c-0.048-0.291-0.299-0.505-0.594-0.507l-0.681-0.005c-0.29,0.003-0.537,0.213-0.589,0.498l-0.141,0.805
					c-0.344,0.09-0.676,0.224-0.985,0.4l-0.652-0.464c-0.237-0.174-0.564-0.153-0.777,0.05l-0.476,0.469
					c-0.21,0.206-0.241,0.534-0.073,0.776l0.455,0.659c-0.18,0.307-0.319,0.636-0.414,0.979l-0.79,0.133
					C608.879,162.692,608.665,162.942,608.662,163.236z M612.117,163.604c0-0.003,0-0.007,0-0.01
					c0.007-0.996,0.82-1.798,1.816-1.791c0.996,0.007,1.798,0.82,1.791,1.816c-0.007,0.996-0.82,1.798-1.816,1.791
					C612.915,165.404,612.115,164.597,612.117,163.604z"/>
				<path style="fill:#FFFFFF;" d="M607.436,145.372l-0.006,0.851c-0.004,0.376,0.265,0.7,0.635,0.766l1.004,0.183
					c0.115,0.439,0.286,0.861,0.51,1.255l-0.592,0.838c-0.217,0.305-0.184,0.723,0.08,0.99l0.598,0.606
					c0.263,0.267,0.68,0.307,0.988,0.093l0.82-0.567c0.391,0.229,0.811,0.407,1.248,0.527l0.169,1.003
					c0.061,0.371,0.381,0.644,0.757,0.645l0.864,0.006c0.376,0.003,0.7-0.265,0.766-0.635l0.183-1.001
					c0.439-0.114,0.861-0.286,1.255-0.51l0.831,0.591c0.305,0.217,0.723,0.184,0.99-0.079l0.606-0.598
					c0.267-0.263,0.307-0.68,0.093-0.988l-0.58-0.839c0.229-0.391,0.407-0.811,0.527-1.248l1.003-0.169
					c0.371-0.061,0.644-0.381,0.645-0.757l0.006-0.851c0.003-0.376-0.265-0.7-0.635-0.766l-1.001-0.183
					c-0.114-0.439-0.286-0.861-0.51-1.255l0.591-0.831c0.218-0.305,0.184-0.723-0.08-0.99l-0.597-0.606
					c-0.263-0.267-0.68-0.307-0.988-0.093l-0.836,0.554c-0.391-0.229-0.811-0.407-1.248-0.527l-0.169-1.003
					c-0.061-0.371-0.381-0.644-0.757-0.645l-0.867-0.006c-0.37,0.004-0.685,0.271-0.75,0.635l-0.18,1.026
					c-0.439,0.114-0.861,0.286-1.255,0.51l-0.831-0.591c-0.302-0.222-0.719-0.195-0.989,0.063l-0.606,0.597
					c-0.267,0.263-0.306,0.68-0.093,0.988l0.58,0.839c-0.229,0.391-0.407,0.811-0.527,1.248l-1.006,0.169
					C607.712,144.679,607.44,144.997,607.436,145.372z M611.837,145.841c0-0.004,0-0.008,0-0.013
					c0.009-1.269,1.045-2.291,2.314-2.282c1.269,0.009,2.291,1.045,2.282,2.314c-0.009,1.269-1.045,2.291-2.314,2.282
					C612.855,148.133,611.835,147.105,611.837,145.841z"/>
			</g>
		</g>
		<g>
			<path style="fill:#B1DCFB;" d="M677.212,313.711l-30.41,0.076c-2.022,0.003-3.663-1.898-3.665-4.246l0,0
				c-0.003-2.348,1.634-4.255,3.655-4.258l30.41-0.076c2.022-0.003,3.663,1.898,3.665,4.246l0,0
				C680.87,311.801,679.234,313.707,677.212,313.711z"/>
			<path style="fill:#B1DCFB;" d="M288.666,70.458l-62.19,0.076c-2.022,0.003-3.663-1.898-3.665-4.246l0,0
				c-0.003-2.348,1.634-4.255,3.655-4.258l62.19-0.076c2.022-0.003,3.663,1.898,3.665,4.247l0,0
				C292.324,68.548,290.688,70.454,288.666,70.458z"/>
			<path style="fill:#B1DCFB;" d="M394.289,77.246l-5.374,0.009c-1.644,0.003-2.979-1.328-2.981-2.973l-0.008-6.792
				c-0.002-1.643,1.328-2.977,2.971-2.98l5.374-0.009c1.644-0.003,2.979,1.328,2.981,2.973l0.008,6.792
				C397.262,75.909,395.932,77.243,394.289,77.246z"/>
			<path style="fill:#B1DCFB;" d="M54.24,325.397l-5.374,0.009c-1.644,0.003-2.979-1.328-2.981-2.973l-0.008-6.792
				c-0.002-1.643,1.328-2.977,2.971-2.98l5.374-0.009c1.644-0.003,2.979,1.328,2.981,2.973l0.008,6.792
				C57.214,324.06,55.883,325.394,54.24,325.397z"/>
			<path style="fill:#FFFFFF;" d="M46.738,375.534l-4.722,0.007c-1.444,0.002-2.617-1.167-2.619-2.612l-0.007-5.967
				c-0.002-1.444,1.167-2.615,2.61-2.618l4.722-0.008c1.444-0.002,2.617,1.167,2.619,2.612l0.007,5.968
				C49.351,374.36,48.182,375.532,46.738,375.534z"/>
			<path style="fill:#FFFFFF;" d="M678.257,211.124l-4.721,0.007c-1.444,0.002-2.617-1.167-2.619-2.612l-0.007-5.967
				c-0.002-1.444,1.167-2.615,2.61-2.618l4.722-0.008c1.445-0.002,2.617,1.167,2.619,2.612l0.007,5.967
				C680.869,209.95,679.701,211.122,678.257,211.124z"/>
			<path style="fill:#FFFFFF;" d="M85.901,127.772H55.604c-1.991,0-3.605-1.875-3.605-4.187l0,0c0-2.313,1.614-4.188,3.605-4.188
				h30.297c1.991,0,3.604,1.875,3.604,4.188l0,0C89.505,125.897,87.892,127.772,85.901,127.772z"/>
			<path style="fill:#60A2F4;" d="M636.276,116.767H605.98c-1.991,0-3.605-1.875-3.605-4.187l0,0c0-2.313,1.614-4.188,3.605-4.188
				h30.296c1.991,0,3.604,1.875,3.604,4.188l0,0C639.88,114.892,638.267,116.767,636.276,116.767z"/>
		</g>
	</g>
</g>
</svg>
