<?xml version="1.0" encoding="utf-8"?>
<!-- Generator: Adobe Illustrator 27.5.0, SVG Export Plug-In . SVG Version: 6.00 Build 0)  -->
<svg version="1.1" xmlns="http://www.w3.org/2000/svg" xmlns:xlink="http://www.w3.org/1999/xlink" x="0px" y="0px"
	 viewBox="0 0 750 500" style="enable-background:new 0 0 750 500;" xml:space="preserve">
<g id="BACKGROUND">
</g>
<g id="OBJECTS">
	<rect style="fill:#E2ECFB;" width="750" height="500"/>
	<path style="fill:#BCD7F4;" d="M652.866,196.006c-11.191-6.087-23.246-11.341-35.953-16.873
		c-24.558-10.691-48.18-23.592-70.48-38.426c-14.647-9.743-28.726-20.345-42.08-31.799C411.36,29.147,238.329,5.068,152.587,69.433
		C79.62,124.207,36.793,191.367,52.583,328.214s193.866,150.005,267.553,145.619c73.686-4.386,221.188-50.518,260.534-45.616
		c42.617,5.31,89.593-9.729,117.71-43.034c33.569-39.762,30.115-100.769,4.174-143.59
		C690.54,221.761,673.073,206.998,652.866,196.006z"/>
	<g>
		<g>
			<g>
				<path style="fill:none;stroke:#1A004F;stroke-linecap:round;stroke-linejoin:round;" d="M687.201,53.513
					c0,0-0.772-0.969-2.363-2.577"/>
				<path style="fill:none;stroke:#1A004F;stroke-linecap:round;stroke-linejoin:round;stroke-dasharray:6.9422,6.9422;" d="
					M679.712,46.264c-15.085-12.543-53.737-35.684-122.965-21.839c-92.552,18.51-260.028,149.846-332.307,237.992
					c-69.636,84.922-129.454,114.209-190.49,119.39"/>
				<path style="fill:none;stroke:#1A004F;stroke-linecap:round;stroke-linejoin:round;" d="M30.487,382.074
					c-1.163,0.082-2.327,0.155-3.492,0.219"/>
			</g>
		</g>
		<g>
			<polygon style="fill:#FFFFFF;stroke:#1A004F;stroke-linecap:round;stroke-linejoin:round;stroke-miterlimit:10;" points="
				705.431,104.456 689.305,63.661 706.466,48.791 			"/>
			<polygon style="fill:#FFFFFF;stroke:#1A004F;stroke-linecap:round;stroke-linejoin:round;stroke-miterlimit:10;" points="
				689.305,63.661 667.313,61.714 705.431,104.456 			"/>
		</g>
	</g>
	<g>
		<g>
			
				<ellipse transform="matrix(0.7071 -0.7071 0.7071 0.7071 -11.0505 166.6205)" style="fill:#1A004F;" cx="195.603" cy="96.649" rx="53.111" ry="53.111"/>
			
				<ellipse transform="matrix(0.7071 -0.7071 0.7071 0.7071 -11.0505 166.6205)" style="fill:#FFFFFF;stroke:#1A004F;stroke-miterlimit:10;" cx="195.603" cy="96.649" rx="42.531" ry="42.531"/>
			
				<ellipse transform="matrix(0.7071 -0.7071 0.7071 0.7071 -11.0505 166.6205)" style="fill:#1A004F;" cx="195.603" cy="96.649" rx="27.23" ry="27.23"/>
			
				<ellipse transform="matrix(0.7071 -0.7071 0.7071 0.7071 -11.0505 166.6205)" style="fill:#FFFFFF;stroke:#1A004F;stroke-miterlimit:10;" cx="195.603" cy="96.649" rx="15.389" ry="15.389"/>
			<path style="fill:#DC3341;stroke:#1A004F;stroke-miterlimit:10;" d="M202.101,96.649c0-3.589-2.909-6.498-6.498-6.498
				c-3.589,0-6.498,2.909-6.498,6.498s2.909,6.498,6.498,6.498C199.192,103.147,202.101,100.238,202.101,96.649z"/>
		</g>
		<g>
			<g>
				<line style="fill:#FFFFFF;" x1="192.962" y1="96.649" x2="101.946" y2="96.649"/>
			</g>
			<g>
				<g>
					<path style="fill:#1A004F;" d="M194.316,97.937h-71.427v-2.575h71.427c0.711,0,1.288,0.576,1.288,1.288l0,0
						C195.604,97.36,195.027,97.937,194.316,97.937z"/>
				</g>
				<g>
					<g>
						<polygon style="fill:#1A004F;" points="116.542,87.491 116.939,87.951 124.406,95.352 102.07,95.352 94.078,87.491 						"/>
					</g>
					<g>
						<path style="fill:#1A004F;" d="M94.078,105.509l7.992-7.594h22.336c-2.907,2.18-5.547,4.755-7.929,7.594H94.078z"/>
					</g>
				</g>
			</g>
		</g>
	</g>
	<g>
		<rect x="306.124" y="73.381" style="fill:#1A004F;stroke:#1A004F;stroke-miterlimit:10;" width="73.574" height="49.853"/>
		<rect x="310.095" y="70.065" style="fill:#FFFFFF;stroke:#1A004F;stroke-miterlimit:10;" width="73.574" height="47.853"/>
		<polyline style="fill:none;stroke:#1A004F;stroke-miterlimit:10;" points="310.095,70.065 346.882,95.747 383.669,70.065 		"/>
	</g>
	<g>
		<rect x="31.901" y="150.589" style="fill:#1A004F;stroke:#1A004F;stroke-miterlimit:10;" width="78.105" height="64.456"/>
		<rect x="35.989" y="144.049" style="fill:#D8DCF6;stroke:#1A004F;stroke-miterlimit:10;" width="78.105" height="64.455"/>
		<g>
			<rect x="40.706" y="162.195" style="fill:#DC3341;stroke:#1A004F;stroke-miterlimit:10;" width="9.81" height="9.81"/>
			<rect x="55.421" y="162.195" style="fill:#FFFFFF;stroke:#1A004F;stroke-miterlimit:10;" width="9.81" height="9.81"/>
			<rect x="70.136" y="162.195" style="fill:#FFFFFF;stroke:#1A004F;stroke-miterlimit:10;" width="9.81" height="9.81"/>
			<rect x="84.851" y="162.195" style="fill:#FFFFFF;stroke:#1A004F;stroke-miterlimit:10;" width="9.81" height="9.81"/>
			<rect x="99.566" y="162.195" style="fill:#FFFFFF;stroke:#1A004F;stroke-miterlimit:10;" width="9.81" height="9.81"/>
		</g>
		<g>
			<rect x="40.706" y="177.318" style="fill:#FFFFFF;stroke:#1A004F;stroke-miterlimit:10;" width="9.81" height="9.81"/>
			<rect x="55.421" y="177.318" style="fill:#FFFFFF;stroke:#1A004F;stroke-miterlimit:10;" width="9.81" height="9.81"/>
			<rect x="70.136" y="177.318" style="fill:#DC3341;stroke:#1A004F;stroke-miterlimit:10;" width="9.81" height="9.81"/>
			<rect x="84.851" y="177.318" style="fill:#FFFFFF;stroke:#1A004F;stroke-miterlimit:10;" width="9.81" height="9.81"/>
			<rect x="99.566" y="177.318" style="fill:#FFFFFF;stroke:#1A004F;stroke-miterlimit:10;" width="9.81" height="9.81"/>
		</g>
		<g>
			<rect x="40.706" y="192.442" style="fill:#FFFFFF;stroke:#1A004F;stroke-miterlimit:10;" width="9.81" height="9.81"/>
			<rect x="55.421" y="192.442" style="fill:#FFFFFF;stroke:#1A004F;stroke-miterlimit:10;" width="9.81" height="9.81"/>
			<rect x="70.136" y="192.442" style="fill:#FFFFFF;stroke:#1A004F;stroke-miterlimit:10;" width="9.81" height="9.81"/>
			<rect x="84.851" y="192.442" style="fill:#FFFFFF;stroke:#1A004F;stroke-miterlimit:10;" width="9.81" height="9.81"/>
			<rect x="99.566" y="192.442" style="fill:#FFFFFF;stroke:#1A004F;stroke-miterlimit:10;" width="9.81" height="9.81"/>
		</g>
		<g>
			<g>
				<path style="fill:#1A004F;" d="M65.021,149.513c-1.575,0-2.851-1.276-2.851-2.851v-9.81c0-1.574,1.276-2.851,2.851-2.851
					s2.851,1.276,2.851,2.851v9.81C67.872,148.236,66.596,149.513,65.021,149.513z"/>
			</g>
			<g>
				<path style="fill:#1A004F;" d="M85.061,149.513c-1.575,0-2.851-1.276-2.851-2.851v-9.81c0-1.574,1.276-2.851,2.851-2.851
					c1.575,0,2.851,1.276,2.851,2.851v9.81C87.912,148.236,86.636,149.513,85.061,149.513z"/>
			</g>
		</g>
	</g>
	<g>
		<g>
			<rect x="31.249" y="306.377" style="fill:#1A004F;stroke:#1A004F;stroke-miterlimit:10;" width="14.385" height="33.523"/>
			<rect x="48.845" y="293.364" style="fill:#1A004F;stroke:#1A004F;stroke-miterlimit:10;" width="14.385" height="46.536"/>
			<rect x="66.442" y="261.762" style="fill:#1A004F;stroke:#1A004F;stroke-miterlimit:10;" width="14.385" height="78.138"/>
			<rect x="84.039" y="282.211" style="fill:#1A004F;stroke:#1A004F;stroke-miterlimit:10;" width="14.385" height="57.689"/>
		</g>
		<g>
			<rect x="34.953" y="300.959" style="fill:#FFFFFF;stroke:#1A004F;stroke-miterlimit:10;" width="14.385" height="34.763"/>
			<rect x="52.55" y="287.465" style="fill:#FFFFFF;stroke:#1A004F;stroke-miterlimit:10;" width="14.385" height="48.257"/>
			<rect x="70.147" y="254.694" style="fill:#DC3341;stroke:#1A004F;stroke-miterlimit:10;" width="14.385" height="81.029"/>
			<rect x="87.744" y="275.899" style="fill:#FFFFFF;stroke:#1A004F;stroke-miterlimit:10;" width="14.385" height="59.824"/>
		</g>
	</g>
	<g>
		<path style="fill:#1A004F;" d="M601.257,366.408c3.129,1.366,10.781,1.194,10.787,1.194c0.079-0.002-1.645-5.01-1.79-5.313
			c-1.679-3.513-6.989-9.312-11.309-8.728c-3.112,0.421-4.843,3.536-4.141,6.466C595.522,363.021,598.592,365.244,601.257,366.408z"
			/>
		<path style="fill:#1A004F;" d="M603.898,388.574c3.245,0.473,10.075-1.507,10.618-1.667c1.078,3.823,2.495,7.659,4.142,11.461
			c0.939,2.175,1.953,4.336,2.997,6.491c-0.623-0.912-1.187-1.724-1.278-1.829c-2.548-2.945-9.201-7.136-13.212-5.431
			c-2.892,1.227-3.738,4.688-2.287,7.329c1.482,2.697,5.032,4.031,7.909,4.45c2.92,0.426,8.776-1.146,10.321-1.583
			c0.409,0.823,0.808,1.648,1.221,2.468c1.978,3.938,3.968,7.859,5.802,11.765c0.647,1.376,1.234,2.755,1.826,4.133
			c-0.554-0.81-1.028-1.488-1.111-1.584c-2.547-2.944-9.199-7.135-13.212-5.431c-2.891,1.228-3.738,4.689-2.286,7.33
			c1.483,2.697,5.032,4.031,7.909,4.45c2.786,0.406,8.205-0.996,10.042-1.506c0.564,1.429,1.131,2.859,1.613,4.27
			c0.307,0.97,0.672,1.883,0.925,2.875c0.273,0.977,0.542,1.944,0.809,2.901c0.447,1.862,0.92,3.782,1.31,5.61
			c0.281,1.27,0.526,2.484,0.775,3.708c-0.628-1.377-1.915-4.048-2.048-4.259c-2.071-3.296-8.012-8.446-12.237-7.37
			c-3.044,0.776-4.405,4.069-3.369,6.899c1.057,2.89,4.362,4.747,7.143,5.597c3.062,0.935,9.84,0.081,10.686-0.032
			c0.406,2.025,0.782,3.999,1.107,5.867c0.244,1.383,0.466,2.712,0.67,3.988h2.715c-0.256-1.421-0.536-2.908-0.846-4.463
			c-0.404-2.058-0.877-4.249-1.384-6.495c0.51-0.202,3.401-1.372,5.962-2.803c2.231,2.416,7.949,5.245,8.689,5.604
			c-0.778,1.914-1.554,3.767-2.314,5.505c-0.4,0.921-0.789,1.79-1.176,2.653h2.871c0.228-0.546,0.453-1.08,0.686-1.648
			c0.798-1.94,1.613-4.029,2.429-6.181c0.82,0.171,7.53,1.534,10.657,0.828c2.836-0.641,6.271-2.246,7.541-5.05
			c1.243-2.744,0.13-6.13-2.848-7.13c-4.132-1.388-10.441,3.305-12.752,6.438c-0.137,0.185-1.392,2.355-2.161,3.737
			c0.329-0.881,0.657-1.733,0.985-2.645c0.66-1.798,1.265-3.611,1.923-5.56c0.285-0.952,0.573-1.914,0.864-2.885
			c0.308-0.957,0.513-2.008,0.776-3.02c0.563-2.36,1.017-4.779,1.421-7.225c1.576,0.573,7.2,2.53,10.114,2.325
			c2.901-0.204,6.539-1.269,8.218-3.848c1.645-2.525,1.058-6.04-1.734-7.48c-3.875-1.998-10.821,1.686-13.581,4.432
			c-0.172,0.171-1.93,2.364-2.873,3.587c0.231-1.473,0.469-2.941,0.655-4.439c0.537-4.323,0.945-8.715,1.372-13.095
			c0.13-1.342,0.276-2.677,0.417-4.014c0.559,0.211,7.193,2.681,10.458,2.451c2.9-0.203,6.539-1.269,8.218-3.849
			c1.645-2.525,1.058-6.04-1.734-7.479c-3.874-1.999-10.821,1.685-13.58,4.431c-0.208,0.207-2.734,3.366-3.337,4.202
			c0.311-2.946,0.649-5.877,1.099-8.754c0.615-3.97,1.439-7.832,2.513-11.514c0.26,0.099,7.174,2.708,10.516,2.473
			c2.901-0.204,6.54-1.27,8.219-3.849c1.644-2.525,1.058-6.04-1.734-7.48c-3.875-1.998-10.821,1.686-13.581,4.432
			c-0.216,0.216-2.932,3.616-3.38,4.268c0.065-0.219,0.107-0.453,0.174-0.67c1.197-3.916,2.848-7.56,4.561-10.895
			c0.992-1.94,2.048-3.739,3.115-5.466c1.238,0.618,6.926,3.38,9.958,3.501c2.906,0.116,6.639-0.544,8.591-2.923
			c1.912-2.329,1.715-5.887-0.901-7.625c-3.633-2.412-10.941,0.487-13.985,2.913c-0.165,0.132-1.7,1.66-2.801,2.788
			c0.493-0.772,0.988-1.578,1.475-2.308c1.824-2.747,3.663-5.149,5.309-7.264c0.945-1.194,1.824-2.257,2.657-3.242
			c1.53-0.027,7.7-0.214,10.397-1.48c2.631-1.236,5.642-3.542,6.279-6.553c0.623-2.949-1.192-6.016-4.314-6.352
			c-4.334-0.467-9.486,5.473-11.07,9.03c-0.136,0.308-1.725,5.36-1.645,5.36c0,0,0.074-0.001,0.092-0.001
			c-0.821,0.931-1.689,1.94-2.617,3.06c-1.696,2.083-3.592,4.452-5.482,7.169c-1.896,2.711-3.88,5.71-5.685,9.057
			c-1.814,3.353-3.549,6.972-4.856,10.933c-0.015,0.045-0.024,0.093-0.039,0.138c0.023-1.277-0.034-4.85-0.07-5.124
			c-0.501-3.861-3.736-11.027-8.024-11.82c-3.088-0.57-5.704,1.849-5.95,4.853c-0.251,3.068,1.973,6.137,4.142,8.075
			c2.446,2.185,9.234,4.3,9.775,4.467c-1.21,3.783-2.144,7.763-2.868,11.843c-0.416,2.333-0.763,4.695-1.08,7.068
			c-0.016-1.105-0.038-2.093-0.057-2.23c-0.501-3.862-3.736-11.026-8.024-11.819c-3.089-0.571-5.705,1.849-5.95,4.852
			c-0.252,3.068,1.973,6.138,4.141,8.075c2.201,1.965,7.952,3.886,9.481,4.373c-0.112,0.911-0.234,1.821-0.343,2.733
			c-0.523,4.375-1.025,8.744-1.65,13.013c-0.219,1.505-0.49,2.978-0.756,4.453c-0.016-0.981-0.037-1.807-0.053-1.932
			c-0.501-3.861-3.736-11.027-8.023-11.82c-3.089-0.57-5.705,1.849-5.952,4.853c-0.251,3.066,1.974,6.137,4.142,8.074
			c2.099,1.876,7.393,3.696,9.207,4.284c-0.318,1.503-0.634,3.009-1.01,4.451c-0.279,0.979-0.48,1.94-0.815,2.908
			c-0.312,0.964-0.62,1.92-0.925,2.866c-0.656,1.8-1.32,3.662-2.003,5.402c-0.466,1.214-0.933,2.362-1.399,3.52
			c0.235-1.495,0.636-4.432,0.641-4.681c0.059-2.586-0.859-6.79-2.687-9.746c0.011-0.382-0.011-0.762-0.071-1.141
			c-0.478-2.975-3.273-5.186-6.309-4.377c-4.213,1.122-6.885,8.517-7.084,12.404c-0.012,0.23,0.138,2.732,0.259,4.31
			c-0.213-0.917-0.407-1.808-0.638-2.749c-0.442-1.863-0.938-3.71-1.463-5.699c-0.287-0.951-0.579-1.912-0.872-2.883
			c-0.271-0.968-0.68-1.957-1.018-2.947c-0.833-2.278-1.789-4.547-2.801-6.81c1.631-0.391,7.402-1.862,9.719-3.64
			c2.307-1.77,4.754-4.667,4.732-7.743c-0.022-3.014-2.449-5.622-5.572-5.283c-4.334,0.471-8.096,7.376-8.883,11.188
			c-0.049,0.238-0.306,3.037-0.417,4.577c-0.619-1.355-1.231-2.712-1.903-4.064c-1.937-3.902-4.018-7.791-6.079-11.679
			c-0.632-1.191-1.247-2.384-1.867-3.578c0.582-0.133,7.479-1.734,10.075-3.725c2.307-1.77,4.754-4.666,4.732-7.744
			c-0.022-3.013-2.45-5.622-5.572-5.282c-4.335,0.47-8.096,7.375-8.883,11.188c-0.059,0.287-0.423,4.316-0.465,5.344
			c-1.365-2.628-2.701-5.259-3.913-7.907c-1.677-3.651-3.12-7.326-4.255-10.989c0.272-0.062,7.477-1.7,10.136-3.739
			c2.307-1.77,4.754-4.666,4.732-7.744c-0.021-3.013-2.449-5.621-5.572-5.282c-4.334,0.47-8.095,7.375-8.882,11.188
			c-0.062,0.299-0.451,4.634-0.465,5.424c-0.067-0.217-0.161-0.436-0.226-0.654c-1.161-3.928-1.795-7.877-2.206-11.604
			c-0.243-2.165-0.354-4.248-0.417-6.277c1.373-0.168,7.642-1.002,10.237-2.573c2.488-1.507,5.238-4.116,5.554-7.177
			c0.309-2.998-1.818-5.857-4.958-5.862c-4.36-0.009-8.857,6.442-10.058,10.145c-0.065,0.202-0.503,2.322-0.799,3.871
			c-0.014-0.916-0.047-1.862-0.043-2.74c0.006-3.297,0.214-6.316,0.421-8.988c0.13-1.519,0.277-2.889,0.429-4.17
			c1.261-0.868,6.304-4.427,7.854-6.971c1.514-2.483,2.752-6.066,1.622-8.928c-1.107-2.804-4.312-4.36-7.102-2.919
			c-3.873,2.002-4.892,9.799-4.252,13.639c0.056,0.331,1.519,5.422,1.585,5.378c0,0,0.061-0.042,0.076-0.052
			c-0.171,1.229-0.339,2.55-0.493,3.996c-0.266,2.673-0.54,5.695-0.618,9.005c-0.086,3.307-0.087,6.903,0.255,10.691
			c0.337,3.796,0.885,7.773,1.981,11.797c0.012,0.045,0.031,0.091,0.044,0.137c-0.686-1.078-2.705-4.026-2.886-4.235
			c-2.547-2.944-9.199-7.135-13.212-5.432c-2.891,1.228-3.738,4.689-2.286,7.331C597.473,386.822,601.021,388.155,603.898,388.574z"
			/>
		<path style="fill:#1A004F;" d="M678.66,368.091c0.068,0.042,1.392-5.086,1.439-5.419c0.536-3.856-0.693-11.622-4.619-13.519
			c-2.828-1.366-5.99,0.277-7.02,3.11c-1.053,2.891,0.281,6.44,1.862,8.881C672.177,364.011,678.656,368.088,678.66,368.091z"/>
	</g>
	<g>
		<path style="fill:#1A004F;" d="M254.194,377.296c2.763,1.207,9.52,1.054,9.525,1.054c0.07-0.002-1.452-4.424-1.58-4.691
			c-1.482-3.102-6.171-8.223-9.986-7.707c-2.748,0.372-4.277,3.122-3.656,5.71C249.13,374.305,251.841,376.268,254.194,377.296z"/>
		<path style="fill:#1A004F;" d="M256.526,396.869c2.866,0.418,8.896-1.331,9.376-1.472c0.952,3.376,2.203,6.763,3.658,10.12
			c0.829,1.921,1.725,3.829,2.646,5.732c-0.55-0.806-1.048-1.522-1.128-1.615c-2.25-2.6-8.124-6.301-11.667-4.796
			c-2.554,1.084-3.301,4.14-2.019,6.472c1.308,2.382,4.443,3.56,6.983,3.93c2.578,0.376,7.749-1.012,9.113-1.398
			c0.361,0.726,0.714,1.455,1.078,2.18c1.746,3.477,3.504,6.939,5.124,10.388c0.572,1.215,1.089,2.432,1.613,3.649
			c-0.489-0.715-0.908-1.313-0.981-1.399c-2.249-2.599-8.123-6.301-11.667-4.796c-2.553,1.084-3.301,4.14-2.019,6.472
			c1.31,2.382,4.443,3.559,6.984,3.929c2.461,0.359,7.245-0.879,8.867-1.329c0.498,1.262,0.999,2.525,1.424,3.77
			c0.271,0.857,0.593,1.663,0.816,2.538c0.241,0.862,0.479,1.716,0.715,2.562c0.395,1.644,0.812,3.339,1.156,4.953
			c0.248,1.121,0.464,2.194,0.685,3.274c-0.555-1.216-1.691-3.574-1.809-3.761c-1.829-2.91-7.075-7.458-10.806-6.508
			c-2.688,0.685-3.889,3.593-2.975,6.092c0.933,2.552,3.852,4.191,6.307,4.942c2.704,0.826,8.689,0.071,9.436-0.028
			c0.359,1.788,0.691,3.531,0.977,5.181c0.215,1.221,0.411,2.394,0.591,3.522h2.397c-0.226-1.255-0.474-2.567-0.747-3.941
			c-0.357-1.817-0.774-3.752-1.222-5.735c0.45-0.179,3.003-1.211,5.265-2.475c1.97,2.134,7.019,4.631,7.673,4.949
			c-0.687,1.69-1.372,3.326-2.043,4.861c-0.353,0.813-0.697,1.58-1.038,2.342h2.535c0.201-0.482,0.4-0.954,0.605-1.455
			c0.705-1.713,1.424-3.557,2.145-5.458c0.724,0.151,6.649,1.355,9.411,0.732c2.504-0.566,5.538-1.983,6.659-4.459
			c1.098-2.423,0.115-5.413-2.515-6.296c-3.649-1.226-9.219,2.919-11.26,5.685c-0.121,0.163-1.229,2.08-1.908,3.3
			c0.29-0.778,0.58-1.53,0.869-2.335c0.583-1.587,1.117-3.189,1.698-4.91c0.252-0.841,0.506-1.69,0.763-2.548
			c0.272-0.846,0.453-1.773,0.685-2.667c0.497-2.084,0.898-4.22,1.255-6.38c1.391,0.506,6.358,2.234,8.931,2.053
			c2.561-0.18,5.774-1.121,7.257-3.398c1.452-2.23,0.934-5.334-1.531-6.605c-3.422-1.764-9.555,1.489-11.992,3.914
			c-0.152,0.151-1.705,2.088-2.537,3.168c0.204-1.3,0.414-2.597,0.578-3.919c0.474-3.817,0.834-7.695,1.212-11.563
			c0.115-1.185,0.243-2.364,0.368-3.545c0.493,0.186,6.352,2.367,9.234,2.164c2.561-0.179,5.774-1.121,7.257-3.398
			c1.452-2.229,0.934-5.333-1.531-6.604c-3.421-1.765-9.555,1.488-11.991,3.913c-0.183,0.183-2.414,2.973-2.946,3.71
			c0.275-2.601,0.573-5.19,0.97-7.73c0.543-3.505,1.27-6.915,2.219-10.167c0.229,0.087,6.334,2.391,9.286,2.184
			c2.561-0.18,5.775-1.121,7.257-3.398c1.452-2.229,0.934-5.333-1.531-6.605c-3.422-1.765-9.555,1.488-11.992,3.913
			c-0.191,0.191-2.589,3.193-2.985,3.769c0.057-0.193,0.095-0.4,0.154-0.592c1.057-3.458,2.515-6.675,4.027-9.62
			c0.875-1.713,1.809-3.302,2.75-4.827c1.093,0.546,6.116,2.985,8.793,3.092c2.566,0.102,5.863-0.48,7.586-2.581
			c1.689-2.057,1.514-5.199-0.796-6.733c-3.207-2.13-9.661,0.43-12.349,2.573c-0.146,0.116-1.501,1.466-2.474,2.462
			c0.435-0.682,0.872-1.394,1.303-2.038c1.61-2.425,3.234-4.547,4.688-6.415c0.835-1.055,1.611-1.993,2.347-2.862
			c1.351-0.024,6.799-0.189,9.18-1.307c2.323-1.092,4.982-3.127,5.544-5.786c0.55-2.604-1.052-5.312-3.809-5.609
			c-3.827-0.413-8.376,4.833-9.775,7.974c-0.121,0.272-1.523,4.733-1.453,4.733c0,0,0.066-0.001,0.082-0.001
			c-0.725,0.822-1.492,1.713-2.31,2.702c-1.497,1.84-3.172,3.931-4.841,6.331c-1.675,2.394-3.426,5.042-5.02,7.997
			c-1.601,2.961-3.134,6.156-4.288,9.654c-0.013,0.039-0.021,0.082-0.035,0.122c0.02-1.128-0.03-4.283-0.061-4.524
			c-0.442-3.409-3.299-9.737-7.085-10.437c-2.727-0.504-5.037,1.633-5.254,4.285c-0.221,2.709,1.742,5.419,3.657,7.13
			c2.16,1.929,8.154,3.797,8.632,3.945c-1.069,3.34-1.893,6.855-2.533,10.458c-0.367,2.06-0.673,4.146-0.954,6.241
			c-0.014-0.976-0.034-1.848-0.051-1.97c-0.442-3.41-3.299-9.736-7.085-10.436c-2.728-0.505-5.037,1.633-5.254,4.284
			c-0.222,2.709,1.742,5.42,3.656,7.13c1.943,1.735,7.022,3.431,8.371,3.862c-0.099,0.805-0.207,1.608-0.303,2.413
			c-0.462,3.863-0.906,7.721-1.457,11.491c-0.193,1.329-0.433,2.63-0.668,3.932c-0.014-0.866-0.033-1.596-0.047-1.706
			c-0.442-3.41-3.299-9.737-7.084-10.437c-2.728-0.504-5.038,1.632-5.255,4.285c-0.222,2.708,1.743,5.419,3.658,7.129
			c1.854,1.656,6.528,3.264,8.129,3.783c-0.281,1.327-0.56,2.657-0.892,3.931c-0.247,0.864-0.424,1.713-0.719,2.568
			c-0.275,0.851-0.547,1.695-0.816,2.531c-0.579,1.59-1.165,3.233-1.768,4.77c-0.411,1.072-0.824,2.086-1.235,3.108
			c0.208-1.32,0.561-3.914,0.566-4.134c0.052-2.283-0.758-5.996-2.373-8.606c0.01-0.337-0.009-0.673-0.063-1.007
			c-0.422-2.627-2.891-4.579-5.571-3.865c-3.72,0.99-6.079,7.521-6.255,10.953c-0.01,0.203,0.122,2.413,0.229,3.806
			c-0.188-0.809-0.36-1.597-0.563-2.427c-0.39-1.645-0.828-3.276-1.292-5.032c-0.254-0.84-0.511-1.688-0.77-2.546
			c-0.239-0.855-0.6-1.728-0.899-2.602c-0.736-2.011-1.579-4.015-2.473-6.013c1.441-0.345,6.536-1.644,8.582-3.215
			c2.037-1.563,4.198-4.121,4.178-6.837c-0.019-2.661-2.163-4.964-4.92-4.665c-3.827,0.415-7.149,6.513-7.844,9.879
			c-0.043,0.21-0.27,2.682-0.368,4.042c-0.547-1.197-1.087-2.395-1.68-3.588c-1.71-3.445-3.548-6.879-5.368-10.313
			c-0.558-1.052-1.101-2.105-1.649-3.159c0.514-0.118,6.604-1.531,8.896-3.289c2.037-1.563,4.198-4.12,4.178-6.838
			c-0.019-2.661-2.163-4.964-4.92-4.664c-3.828,0.415-7.149,6.512-7.844,9.879c-0.052,0.254-0.373,3.811-0.411,4.719
			c-1.205-2.32-2.385-4.644-3.455-6.982c-1.48-3.224-2.755-6.469-3.757-9.703c0.24-0.055,6.602-1.501,8.95-3.302
			c2.037-1.563,4.198-4.12,4.178-6.838c-0.019-2.661-2.163-4.964-4.921-4.664c-3.827,0.415-7.148,6.513-7.843,9.88
			c-0.055,0.264-0.398,4.092-0.41,4.789c-0.059-0.192-0.142-0.385-0.199-0.577c-1.026-3.468-1.585-6.956-1.948-10.247
			c-0.215-1.911-0.313-3.751-0.368-5.542c1.213-0.148,6.748-0.885,9.039-2.272c2.197-1.33,4.625-3.635,4.904-6.337
			c0.273-2.647-1.605-5.172-4.378-5.177c-3.85-0.008-7.821,5.688-8.881,8.958c-0.058,0.178-0.444,2.051-0.705,3.418
			c-0.013-0.809-0.041-1.644-0.038-2.419c0.005-2.911,0.189-5.577,0.372-7.936c0.114-1.341,0.245-2.551,0.379-3.682
			c1.114-0.766,5.566-3.909,6.935-6.155c1.337-2.193,2.43-5.356,1.432-7.884c-0.977-2.475-3.808-3.85-6.271-2.577
			c-3.42,1.768-4.32,8.652-3.755,12.043c0.05,0.293,1.341,4.787,1.4,4.749c0,0,0.054-0.037,0.067-0.046
			c-0.151,1.085-0.299,2.252-0.436,3.529c-0.235,2.36-0.477,5.029-0.545,7.951c-0.076,2.92-0.077,6.096,0.225,9.44
			c0.298,3.352,0.782,6.864,1.749,10.417c0.011,0.04,0.028,0.081,0.039,0.121c-0.606-0.952-2.388-3.555-2.548-3.74
			c-2.249-2.6-8.123-6.301-11.667-4.796c-2.553,1.085-3.301,4.141-2.019,6.473C250.853,395.321,253.986,396.499,256.526,396.869z"/>
		<path style="fill:#1A004F;" d="M322.542,378.783c0.06,0.037,1.229-4.491,1.27-4.785c0.474-3.405-0.612-10.262-4.078-11.937
			c-2.497-1.206-5.289,0.245-6.198,2.746c-0.93,2.553,0.249,5.687,1.644,7.842C316.818,375.179,322.538,378.779,322.542,378.783z"/>
	</g>
	<g>
		<path style="fill:#1A004F;stroke:#1A004F;stroke-miterlimit:10;" d="M169.822,287.372c0,0,9.359,3.565,10.25,2.228
			c0.891-1.337,10.25-32.977,10.25-32.977s3.714-1.783,5.496-5.199c1.783-3.417-0.594-15.3-0.594-15.3s-2.228-2.377-5.051-1.486
			c-2.822,0.891-4.456,4.753-4.456,4.753s-1.339-0.617-2.378,4.519c-1.039,5.136,0.595,11.524,0.595,11.524l-11.735,19.162
			l-6.982-5.496l-2.228,13.666L169.822,287.372z"/>
		<path style="fill:#1A004F;stroke:#1A004F;stroke-miterlimit:10;" d="M121.264,305.86c0,0-3.609,11.778-3.989,17.857
			c-0.38,6.079-4.369,45.973-4.369,45.973l-12.158,40.084c0,0-4.939,11.208-3.419,16.717c1.52,5.509,3.609,2.66,5.699-1.52
			c2.09-4.179,3.229-14.628,3.229-14.628s21.087-34.955,22.607-38.184c1.52-3.229,9.119-25.266,9.119-25.266
			s2.66,35.335,2.85,36.474c0.19,1.14,1.14,35.145,1.14,35.145s-1.33,8.929,0.19,9.119c1.52,0.19,7.029-0.38,7.029-0.38
			s5.889,1.9,8.359,1.71c2.47-0.19,3.989,0.57,3.799-1.33c-0.19-1.9-11.778-8.549-12.158-10.258
			c-0.38-1.71,7.409-33.435,7.979-38.754c0.57-5.319,4.179-53.762,4.369-56.421c0.19-2.66,1.187-9.149,1.187-9.149
			s-6.696,4.4-15.624,2.31C138.172,313.268,121.264,305.86,121.264,305.86z"/>
		<path style="fill:#596BFB;stroke:#1A004F;stroke-miterlimit:10;" d="M150.075,240.057c0,0-7.008,1.88-13.504,12.479
			c-6.496,10.598-16.41,51.452-15.555,55.555c0.855,4.102,18.119,11.111,27.521,10.769c9.402-0.342,13.333-2.906,14.188-5.812
			c0.855-2.906,4.615-51.623,4.786-55.555c0.171-3.932,0.342-5.983-1.709-10.256C163.75,242.963,158.109,238.348,150.075,240.057z"
			/>
		<g>
			
				<line style="fill:none;stroke:#1A004F;stroke-linecap:round;stroke-linejoin:round;stroke-miterlimit:10;" x1="143.084" y1="278.46" x2="132.24" y2="277.717"/>
			<path style="fill:none;stroke:#1A004F;stroke-linecap:round;stroke-linejoin:round;stroke-miterlimit:10;" d="M146.649,281.876
				c0,0-14.112,5.348-18.271,6.833"/>
			<path style="fill:none;stroke:#1A004F;stroke-linecap:round;stroke-linejoin:round;stroke-miterlimit:10;" d="M148.729,283.51
				c0,0-14.409,12.626-19.757,15.598"/>
		</g>
		<g>
			<path style="fill:#FFFFFF;stroke:#1A004F;stroke-miterlimit:10;" d="M181.456,212.084c0,0,0.798,3.993,1.141,6.274
				c0.342,2.282-0.114,3.993,0.228,4.677c0.342,0.684,4.905,5.361,4.221,6.616c-0.684,1.255-4.221,3.422-4.221,3.422
				s-0.114,9.24-0.456,9.582c-0.342,0.342-1.369,1.255-3.194,1.027c-1.825-0.228-6.16-0.456-6.16-0.456l-7.187,9.582l-1.255,3.08
				l-1.027-3.308l-7.643-14.031l3.308-6.046l-3.993-12.434c0,0-2.966-5.59,5.818-10.153c8.784-4.563,16.883-3.65,18.708-2.738
				C181.57,208.091,181.456,212.084,181.456,212.084z"/>
			<path style="fill:#1A004F;stroke:#1A004F;stroke-miterlimit:10;" d="M181.456,212.084c0,0-1.711-2.738-8.214-0.57
				c-6.502,2.167-2.282,4.449-1.939,5.476c0.342,1.027-5.247,1.711-5.704,3.308c-0.456,1.597,1.483,14.031,1.483,14.031
				s4.221-5.362,10.495-3.765c6.274,1.597,6.046,4.221,5.932,5.932c-0.114,1.711,0,5.932-0.913,7.415s-7.415,0.456-14.145-1.597
				c-6.73-2.053-6.046-6.845-6.046-6.845s0-7.643-0.685-9.012c-0.684-1.369-3.993-2.282-4.449-1.027
				c-0.456,1.255-0.57,1.825-0.57,1.825s-3.65-8.213-3.194-12.434c0.456-4.221,17.568-13.005,23.271-12.89
				C182.482,202.045,184.079,210.943,181.456,212.084z"/>
			<path style="fill:#FFFFFF;stroke:#1A004F;stroke-miterlimit:10;" d="M156.701,227.256c0,0-0.57,2.282,0.228,5.133
				c0.799,2.852,4.335,4.449,5.59,0.456c1.255-3.993,0.228-6.959-2.282-8.327C157.728,223.149,157.158,225.659,156.701,227.256z"/>
			<path style="fill:#1A004F;" d="M180.611,224.176c0,0.945-0.424,1.712-0.946,1.712c-0.523,0-0.946-0.766-0.946-1.712
				c0-0.945,0.424-1.712,0.946-1.712C180.187,222.465,180.611,223.231,180.611,224.176z"/>
			<path style="fill:none;stroke:#1A004F;stroke-linecap:round;stroke-linejoin:round;stroke-miterlimit:10;" d="M181.798,220.525
				c0,0-3.993-1.825-6.616-0.342c-2.624,1.483-1.141,6.046,0.684,7.187c1.825,1.141,4.563,0.228,5.704-1.711
				C182.71,223.72,182.825,220.64,181.798,220.525z"/>
			<path style="fill:none;stroke:#1A004F;stroke-linecap:round;stroke-linejoin:round;stroke-miterlimit:10;" d="M181.798,220.525
				c0,0,1.255,0.114,3.308,0.114c2.053,0,1.825,1.483,1.711,3.536c-0.114,2.053-1.027,2.51-1.027,2.51"/>
			
				<line style="fill:none;stroke:#1A004F;stroke-linecap:round;stroke-linejoin:round;stroke-miterlimit:10;" x1="174.155" y1="221.324" x2="161.492" y2="225.203"/>
			<path style="fill:none;stroke:#1A004F;stroke-linecap:round;stroke-linejoin:round;stroke-miterlimit:10;" d="M176.665,218.358
				c0,0,1.711-2.396,3.879-0.456"/>
			<path style="fill:#FFFFFF;" d="M175.752,231.819c0,0,1.141,2.167,3.993,3.08c0,0-2.738,3.194-4.449,2.624
				C173.585,236.952,175.752,231.819,175.752,231.819z"/>
		</g>
		<polygon style="fill:#FFFFFF;stroke:#1A004F;stroke-miterlimit:10;" points="148.401,240.02 157.658,260.27 165.827,252.809 
			154.958,235.006 		"/>
		<polygon style="fill:#FFFFFF;stroke:#1A004F;stroke-miterlimit:10;" points="164.572,255.889 166.761,255.073 170.265,260.98 
			168.864,248.566 		"/>
		<g>
			<path style="fill:#FFFFFF;stroke:#1A004F;stroke-miterlimit:10;" d="M162.212,272.536c0,0-11.453-16.923-14.017-19.829
				c-2.564-2.906-9.231,0.342-11.282,8.547c-2.051,8.205,4.786,16.239,13.504,23.248c8.718,7.008,9.743,10.085,13.162,9.743
				c3.419-0.342,24.786-38.461,24.786-38.461s7.008-6.325,7.521-7.863c0.513-1.538,0.156-6.51-0.186-7.878
				c-0.342-1.368-0.522-3.567-1.353-5.114c-0.343-0.639-1.026-2.393-1.709-3.077c-0.684-0.684-2.941-1.119-4.103,0.513
				c-0.852,1.198-3.932,4.444-4.957,5.983c-1.026,1.538-0.513,8.205-0.171,10.256c0.342,2.051,0.342,3.761,0.342,3.761
				L162.212,272.536z"/>
			<path style="fill:none;stroke:#1A004F;stroke-linecap:round;stroke-linejoin:round;stroke-miterlimit:10;" d="M187.174,234.126
				c0,0-2.262,6.874-2.349,8.179"/>
			
				<line style="fill:none;stroke:#1A004F;stroke-linecap:round;stroke-linejoin:round;stroke-miterlimit:10;" x1="191.612" y1="231.777" x2="188.539" y2="241.917"/>
			
				<line style="fill:none;stroke:#1A004F;stroke-linecap:round;stroke-linejoin:round;stroke-miterlimit:10;" x1="193.874" y1="234.126" x2="191.956" y2="243.402"/>
			<path style="fill:none;stroke:#1A004F;stroke-linecap:round;stroke-linejoin:round;stroke-miterlimit:10;" d="M195.353,238.39
				c0,0-0.473,4.932-1.169,6.498"/>
			<path style="fill:#596BFB;stroke:#1A004F;stroke-miterlimit:10;" d="M167.194,267.87l-4.982,4.666
				c0,0-11.453-16.923-14.017-19.829c-2.564-2.906-9.231,0.342-11.282,8.547c-2.051,8.205,4.786,16.239,13.504,23.248
				c8.718,7.008,9.743,10.085,13.162,9.743c1.618-0.162,7.257-8.787,12.748-17.827L167.194,267.87z"/>
			<polyline style="fill:none;stroke:#1A004F;stroke-linecap:round;stroke-linejoin:round;stroke-miterlimit:10;" points="
				172.645,282.025 162.212,272.536 165.366,287.818 			"/>
			
				<line style="fill:none;stroke:#1A004F;stroke-linecap:round;stroke-linejoin:round;stroke-miterlimit:10;" x1="162.212" y1="272.536" x2="160.761" y2="287.818"/>
		</g>
	</g>
	<g>
		<path style="fill:#DC3341;stroke:#1A004F;stroke-miterlimit:10;" d="M198.086,211.924l7.293,67.854
			c1.448,13.474,14.173,22.78,27.448,20.058c48.257-9.895,156.017-30.228,221.949-29.156
			c86.958,1.414,165.572,45.335,165.572,45.335l-0.805-39.574c-1.244-61.156-10.602-121.877-27.829-180.57l-11.4-38.841
			c0,0-60.896,67.525-149.693,95.722c-66.847,21.227-166.284,30.507-211.36,33.798C206.294,187.497,196.697,198.995,198.086,211.924
			z"/>
		<path style="fill:none;stroke:#FFFFFF;stroke-width:5;stroke-miterlimit:10;" d="M580.905,66.311l-0.59-2.011
			c0,0-60.896,67.525-149.693,95.722c-4.797,1.523-9.762,2.985-14.862,4.387"/>
		<path style="fill:none;stroke:#FFFFFF;stroke-width:5;stroke-miterlimit:10;" d="M395.658,169.489
			c-15.073,3.506-30.886,6.571-46.738,9.243"/>
		<g>
			<path style="fill:#1A004F;stroke:#1A004F;stroke-linecap:round;stroke-linejoin:round;stroke-miterlimit:10;" d="
				M621.777,329.171c-0.382,0.041-0.769,0.066-1.16,0.074c-7.307,0.149-13.351-5.655-13.499-12.961l-0.804-39.573
				c-1.221-59.969-10.404-119.559-27.296-177.113l-11.4-38.841c-2.059-7.013,1.958-14.366,8.971-16.424
				c7.017-2.051,14.367,1.959,16.424,8.971l11.4,38.841c17.552,59.801,27.094,121.717,28.363,184.028l0.804,39.574
				C633.718,322.661,628.529,328.446,621.777,329.171z"/>
		</g>
		<path style="fill:#1A004F;stroke:#1A004F;stroke-linecap:round;stroke-linejoin:round;stroke-miterlimit:10;" d="M355.04,170.405
			c-52.266,9.158-105.935,13.967-135.778,16.146c-12.969,0.947-22.566,12.445-21.176,25.374l7.294,67.854
			c1.448,13.474,14.172,22.78,27.448,20.058c29.813-6.113,82.335-16.206,133.676-22.778L355.04,170.405z"/>
		<path style="fill:#DC3341;stroke:#1A004F;stroke-miterlimit:10;" d="M266.554,281.585c0,0,21.115,42.927,24.409,46.877
			c1.239,1.486,3.55,2.553,5.951,3.305c5.819,1.822,10.824,5.596,14.182,10.686c15.083,22.858,53.656,81.231,55.611,83.327
			c2.433,2.608,8.411,4.835,11.729,2.326c3.317-2.509,27.98-26.682,26.128-37.244c-1.853-10.562-5.094-7.344-10.592-11.775
			c-4.425-3.566-21.512-34.122-28.011-45.911c-1.561-2.831-1.423-6.292,0.353-8.993l5.751-8.743c0,0-25.134-20.255-25.515-23.801
			c-0.381-3.546,10.105-6.108,10.433-9.73c0.328-3.622-8.922-16.259-8.922-16.259L266.554,281.585z"/>
		<path style="fill:#DC3341;stroke:#DC3341;stroke-miterlimit:10;" d="M356.407,302.236l18.426,6.787
			c0.719,0.265,0.989,1.14,0.545,1.764l-3.314,4.654L356.407,302.236z"/>
		<line style="fill:none;stroke:#1A004F;stroke-miterlimit:10;" x1="310.56" y1="319.484" x2="305.242" y2="323.598"/>
		<line style="fill:none;stroke:#1A004F;stroke-miterlimit:10;" x1="346.549" y1="291.639" x2="315.154" y2="315.929"/>
		
			<rect x="287.668" y="219.686" transform="matrix(0.9943 -0.1069 0.1069 0.9943 -22.4699 33.136)" style="fill:#DC3341;stroke:#DC3341;stroke-miterlimit:10;" width="20.553" height="13.079"/>
	</g>
	<line style="fill:none;stroke:#1A004F;stroke-miterlimit:10;" x1="722.094" y1="460.416" x2="13.41" y2="460.416"/>
	<g>
		<g>
			<rect x="36.804" y="428.241" style="fill:#1A004F;stroke:#1A004F;stroke-miterlimit:10;" width="135.819" height="31.758"/>
			<rect x="79.55" y="428.241" style="fill:#D8DCF6;stroke:#1A004F;stroke-miterlimit:10;" width="454.153" height="31.758"/>
		</g>
	</g>
	<g>
		<g>
			<path style="fill:#1A004F;stroke:#1A004F;stroke-miterlimit:10;" d="M487.449,184.183c0,0-3.383,0.579-10.269-0.388
				c-6.885-0.966-12.563,1.933-14.133,6.161c-1.57,4.228-3.865,26.696-3.865,26.696s-8.818,9.06-15.341,22.831
				c-6.523,13.771-10.484,53.035-10.484,53.035s-8.084,16.067-9.121,20.212c-1.616,6.464-8.516,30.978-8.516,30.978
				s-4.953,4.107-5.557,7.973c-0.604,3.866,0,7.006,1.933,6.161s3.624-2.899,5.315-6.04c1.691-3.141,3.503-7.61,3.624-7.973
				c0.121-0.362,24.28-41.284,26.455-45.753c2.174-4.469,15.909-36.06,15.909-36.06l10.183,36.906l10.147,48.532
				c0,0-0.121,8.214,1.087,9.181c1.208,0.966,4.711,0.362,5.315,0.362s3.624,1.45,4.832,1.57c1.208,0.121,4.832,0.483,5.677-0.242
				c0.846-0.725,0.604-1.449-0.242-1.812c-0.845-0.362-5.315-2.295-6.523-3.866c-1.208-1.57-4.711-7.973-4.711-7.973
				s-0.725-48.652-0.725-54.934c0-6.281-1.958-41.318-1.958-48.807s-0.242-13.65-0.242-13.65l1.933-4.107
				c0,0,7.369-2.174,8.818-8.093c0,0,13.529,10.993,17.999,11.838c4.47,0.846,27.059,1.45,27.059,1.45s5.347-0.165,6.192-0.769
				c0.846-0.604,1.539-5.995,1.297-7.324c-0.242-1.329-2.054-1.691-2.899-1.691c-0.846,0,1.45-1.57,2.054-3.382
				c0.604-1.812-0.362-1.933-1.691-0.846c-1.329,1.087-2.899,2.658-4.59,4.107c-1.691,1.45-2.899,4.228-2.899,4.228
				s-9.422-1.449-14.133-3.262c-4.711-1.812-9.181-4.469-9.181-4.469s-8.456-11.717-10.872-16.308
				c-2.416-4.59-7.731-8.697-10.509-10.992C492.038,185.366,487.449,184.183,487.449,184.183z"/>
			<path style="fill:#596BFB;stroke:#1A004F;stroke-miterlimit:10;" d="M526.427,219.803c-0.369-0.122-0.721-0.246-1.049-0.372
				c-4.711-1.812-9.181-4.469-9.181-4.469s-8.456-11.717-10.872-16.308c-2.416-4.59-7.731-8.697-10.509-10.992
				c-2.778-2.295-7.367-3.478-7.367-3.478s-3.383,0.579-10.269-0.388c-6.885-0.966-12.563,1.933-14.133,6.161
				c-1.57,4.228-3.865,26.696-3.865,26.696s-6.958,7.153-13.084,18.402c13.737,12.818,33.573,11.973,40.582,11.191
				c-0.123-2.221-0.198-4.065-0.198-5.313c0-7.489-0.242-13.65-0.242-13.65l1.933-4.107c0,0,7.369-2.174,8.818-8.093
				c0,0,13.529,10.993,17.999,11.838c1.497,0.283,5.028,0.539,9.059,0.754C523.878,223.645,525.19,221.192,526.427,219.803z"/>
			<g>
				<path style="fill:#1A004F;stroke:#1A004F;stroke-miterlimit:10;" d="M518.083,175.709c0,0,0.989-6.43-1.484-12.737
					c-2.473-6.307-8.285-8.409-13.231-9.027c-4.946-0.618-24.237,8.656-26.216,9.151c-1.979,0.495-2.968,1.113-2.968,1.113
					s3.215,11.995,7.543,17.683c4.328,5.688,7.914,10.387,16.076,11.624c8.161,1.237,13.479,0.989,15.457,0.247
					c1.979-0.742,6.059-2.597,6.059-2.597S518.083,184.117,518.083,175.709z"/>
				<path style="fill:none;stroke:#1A004F;stroke-linecap:round;stroke-linejoin:round;stroke-miterlimit:10;" d="M512.501,159.086
					c0,0,0.909,5.093-0.364,9.641"/>
				<path style="fill:none;stroke:#FFFFFF;stroke-width:0.5;stroke-linecap:round;stroke-linejoin:round;stroke-miterlimit:10;" d="
					M492.642,168.938c0,0,13.046,0,16.791-1.691"/>
				<path style="fill:none;stroke:#FFFFFF;stroke-width:0.5;stroke-linecap:round;stroke-linejoin:round;stroke-miterlimit:10;" d="
					M482.374,165.072c2.778,0.604,7.723,1.103,7.723,1.103s15.228,0.709,20.785-2.794"/>
			</g>
			<path style="fill:#FFFFFF;stroke:#1A004F;stroke-miterlimit:10;" d="M488.173,180.292c0,0-1.812,6.644-2.658,10.389
				c-0.846,3.745-0.121,7.006,2.054,7.006c2.174,0,7.127-5.677,7.127-5.677S487.931,185.849,488.173,180.292z"/>
			<g>
				<path style="fill:#FFFFFF;stroke:#1A004F;stroke-miterlimit:10;" d="M492.569,171.648c0,0,0-6.003-2.472-5.473
					c-2.472,0.53-4.16,6.046-3.358,8.31c0.122,0.345,0.257,0.667,0.39,0.955c0.394,0.853,1.172,1.463,2.085,1.682l0,0
					c0,0-1.766,4.414-1.766,7.062c0,2.648,0.883,7.945,4.237,9.005c3.355,1.059,11.123-1.236,12.889-3.001
					c1.766-1.766,6.356-9.181,6.709-11.476c0.353-2.295-0.177-7.592-0.177-7.592S498.042,174.12,492.569,171.648z"/>
				<path style="fill:none;stroke:#1A004F;stroke-linecap:round;stroke-linejoin:round;stroke-miterlimit:10;" d="M504.308,180.685
					c0,0-3.675,4.823-5.397,6.201c-1.722,1.378-3.215,0.23-3.56-1.148"/>
				<path style="fill:none;stroke:#1A004F;stroke-linecap:round;stroke-linejoin:round;stroke-miterlimit:10;" d="M505.571,179.996
					c0,0,3.33-0.459,2.756,2.526"/>
				<path style="fill:none;stroke:#1A004F;stroke-linecap:round;stroke-linejoin:round;stroke-miterlimit:10;" d="M500.978,178.159
					c0,0-1.378-2.297-4.249-2.641"/>
				<path style="fill:none;stroke:#1A004F;stroke-linecap:round;stroke-linejoin:round;stroke-miterlimit:10;" d="M494.662,178.963
					c0,0,0.804,2.067,2.871,2.297"/>
				<path style="fill:none;stroke:#1A004F;stroke-linecap:round;stroke-linejoin:round;stroke-miterlimit:10;" d="M502.701,184.819
					c0,0,0.574,1.378,2.526,1.493"/>
				<path style="fill:none;stroke:#1A004F;stroke-linecap:round;stroke-linejoin:round;stroke-miterlimit:10;" d="M492.48,183.327
					c0,0-1.493,1.837-0.115,3.789"/>
			</g>
		</g>
		<g>
			<rect x="383.887" y="351.496" style="fill:#1A004F;stroke:#1A004F;stroke-miterlimit:10;" width="57.081" height="26.114"/>
			<rect x="355.214" y="376.756" style="fill:#1A004F;stroke:#1A004F;stroke-miterlimit:10;" width="85.754" height="26.114"/>
			<g>
				<rect x="326.541" y="402.015" style="fill:#1A004F;stroke:#1A004F;stroke-miterlimit:10;" width="114.427" height="26.114"/>
			</g>
		</g>
		<g>
			<rect x="403.837" y="351.496" style="fill:#D8DCF6;stroke:#1A004F;stroke-miterlimit:10;" width="57.081" height="26.114"/>
			<rect x="375.164" y="376.756" style="fill:#D8DCF6;stroke:#1A004F;stroke-miterlimit:10;" width="85.754" height="26.114"/>
			<g>
				<rect x="346.491" y="402.015" style="fill:#D8DCF6;stroke:#1A004F;stroke-miterlimit:10;" width="114.427" height="26.114"/>
			</g>
		</g>
		<g>
			<g>
				<path style="fill:#1A004F;stroke:#1A004F;stroke-miterlimit:10;" d="M546.148,460.513h-84.68
					c-6.07,0-10.991-4.921-10.991-10.991V260.954c0-6.07,4.921-10.991,10.991-10.991h84.68c6.07,0,10.991,4.921,10.991,10.991
					v188.568C557.139,455.592,552.218,460.513,546.148,460.513z"/>
				<path style="fill:#FFFFFF;stroke:#1A004F;stroke-miterlimit:10;" d="M541.855,456.431h-76.094
					c-6.07,0-10.991-4.921-10.991-10.991V265.035c0-6.07,4.921-10.991,10.991-10.991h76.094c6.07,0,10.991,4.921,10.991,10.991
					V445.44C552.846,451.51,547.925,456.431,541.855,456.431z"/>
				<path style="fill:#596BFB;stroke:#1A004F;stroke-miterlimit:10;" d="M552.846,269.654v-6.925c0-4.796-3.888-8.684-8.684-8.684
					h-80.707c-4.796,0-8.684,3.888-8.684,8.684v6.925H552.846z"/>
				<path style="fill:#596BFB;stroke:#1A004F;stroke-miterlimit:10;" d="M454.77,444.755v2.992c0,4.796,3.888,8.684,8.684,8.684
					h80.707c4.796,0,8.684-3.888,8.684-8.684v-2.992H454.77z"/>
				<line style="fill:#FFFFFF;stroke:#1A004F;stroke-miterlimit:10;" x1="456.34" y1="365.303" x2="550.977" y2="365.303"/>
			</g>
			<g>
				<path style="fill:#DC3341;stroke:#DC3341;stroke-miterlimit:10;" d="M469.772,373.371l-1.043,1.051l-3.443,3.443l-4.495-4.495
					c-0.952-0.952-0.952-2.491,0-3.444c0.48-0.472,1.101-0.712,1.722-0.712c0.621,0,1.242,0.24,1.722,0.712l1.051,1.051l1.043-1.051
					c0.472-0.472,1.101-0.712,1.722-0.712c0.629,0,1.25,0.24,1.722,0.712C470.724,370.879,470.724,372.419,469.772,373.371z"/>
				<path style="fill:#FFFFFF;stroke:#1A004F;stroke-miterlimit:10;" d="M483.461,375.572c0.339-0.614,0.549-1.31,0.549-2.062
					c0-2.372-1.923-4.295-4.295-4.295c-2.372,0-4.295,1.923-4.295,4.295c0,2.372,1.923,4.295,4.295,4.295
					c0.799,0,1.539-0.233,2.18-0.613l1.819,0.909L483.461,375.572z"/>
				<g>
					<polygon style="fill:#FFFFFF;stroke:#1A004F;stroke-linecap:round;stroke-linejoin:round;stroke-miterlimit:10;" points="
						499.056,369.215 492.535,374.555 488.809,372.286 					"/>
					<polygon style="fill:#FFFFFF;stroke:#1A004F;stroke-linecap:round;stroke-linejoin:round;stroke-miterlimit:10;" points="
						492.535,374.555 493.467,378.694 499.056,369.215 					"/>
				</g>
			</g>
			<line style="fill:none;stroke:#1A004F;stroke-miterlimit:10;" x1="458.731" y1="389.035" x2="498.611" y2="389.035"/>
			<line style="fill:none;stroke:#1A004F;stroke-miterlimit:10;" x1="458.731" y1="397.085" x2="541.417" y2="397.085"/>
			<line style="fill:none;stroke:#1A004F;stroke-miterlimit:10;" x1="458.731" y1="405.134" x2="498.611" y2="405.134"/>
		</g>
		<g>
			<polygon style="fill:#FFFFFF;stroke:#1A004F;stroke-miterlimit:10;" points="549.528,273.017 467.797,277.801 466.956,263.466 
				463.997,212.838 545.728,208.054 546.486,221.03 			"/>
			<polygon style="fill:#1A004F;" points="549.528,273.017 467.797,277.801 466.956,263.466 500.233,233.097 517.851,244.49 
				539.611,216.171 546.486,221.03 			"/>
			<circle style="fill:#1A004F;" cx="481.928" cy="225.842" r="7.254"/>
		</g>
		<g>
			<path style="fill:#FFFFFF;stroke:#1A004F;stroke-miterlimit:10;" d="M548.897,218.738c0,0-3.317,0.622-3.939,1.659
				c-0.622,1.036-0.104,1.451,2.073,1.244c2.177-0.207,3.421-0.415,3.524-1.762C550.659,218.531,549.416,218.634,548.897,218.738z"
				/>
			<path style="fill:#FFFFFF;stroke:#1A004F;stroke-miterlimit:10;" d="M550.544,220.691c0,0,1.355,1.152,0.745,2.168
				c-0.61,1.016-4.742,1.219-5.826,0.745c-1.084-0.474,0.813-1.694,0.813-1.694S549.663,221.707,550.544,220.691z"/>
			<path style="fill:#FFFFFF;stroke:#1A004F;stroke-miterlimit:10;" d="M550.95,223.4c0,0,0.745,1.152,0.203,1.965
				c-0.542,0.813-4.877,0.542-5.419-0.135c-0.542-0.677,0.61-1.219,0.61-1.219S550.273,223.739,550.95,223.4z"/>
			<path style="fill:#FFFFFF;stroke:#1A004F;stroke-miterlimit:10;" d="M550.747,225.839c0,0,0.474,0.881-0.271,1.558
				c-0.745,0.677-2.574,0.61-3.522,0.068c-0.948-0.542,0.135-1.423,0.135-1.423S549.934,226.042,550.747,225.839z"/>
		</g>
		<g>
			<path style="fill:#FFFFFF;stroke:#1A004F;stroke-miterlimit:10;" d="M474.6,183.968c0,0-8.533-0.776-10.828,0.673
				c-2.295,1.45-23.556,25.851-23.193,28.75c0.362,2.899,18.361,34.186,18.361,34.186s2.174,3.503,3.141,5.798
				c0.966,2.295,3.141,6.644,4.47,7.248c1.329,0.604,1.812-0.725,1.45-1.329s-1.57-3.382-1.57-3.382l-0.604-6.765
				c0,0,1.691,1.812,2.778,2.416c1.087,0.604,3.02,0.483,2.537-0.725c-0.483-1.208-2.174-1.933-2.899-3.261
				c-0.725-1.329-1.45-3.262-2.416-3.866c-0.966-0.604-5.919-2.416-5.919-2.416l-7.731-26.455l17.032-17.636"/>
			<path style="fill:#596BFB;stroke:#1A004F;stroke-miterlimit:10;" d="M474.6,183.968c0,0-8.533-0.776-10.828,0.673
				c-2.295,1.45-23.556,25.851-23.193,28.75c0.141,1.124,2.935,6.52,6.301,12.7c2.296-1.913,5.347-2.985,7.545-3.553l-2.25-7.698
				l17.033-17.636"/>
		</g>
	</g>
	<g>
		
			<ellipse transform="matrix(0.7363 -0.6766 0.6766 0.7363 -174.8135 246.5708)" style="fill:#FFFFFF;stroke:#1A004F;stroke-miterlimit:10;" cx="228.958" cy="347.581" rx="23.162" ry="23.162"/>
		
			<ellipse transform="matrix(0.7359 -0.6771 0.6771 0.7359 -174.8786 246.8313)" style="fill:#BCD7F4;stroke:#1A004F;stroke-miterlimit:10;" cx="228.958" cy="347.581" rx="18.019" ry="18.019"/>
		
			<line style="fill:none;stroke:#1A004F;stroke-width:4;stroke-miterlimit:10;" x1="211.927" y1="363.25" x2="188.871" y2="383.004"/>
	</g>
	<g>
		
			<line style="fill:none;stroke:#1A004F;stroke-linecap:round;stroke-linejoin:round;stroke-miterlimit:10;" x1="669.825" y1="44.907" x2="620.237" y2="75.686"/>
		
			<line style="fill:none;stroke:#1A004F;stroke-linecap:round;stroke-linejoin:round;stroke-miterlimit:10;" x1="636.481" y1="177.428" x2="673.37" y2="173.462"/>
		
			<line style="fill:none;stroke:#1A004F;stroke-linecap:round;stroke-linejoin:round;stroke-miterlimit:10;" x1="642.466" y1="276.606" x2="686.925" y2="291.996"/>
	</g>
	<g>
		<g id="XMLID_92_">
			<path id="XMLID_93_" style="fill:#1A004F;" d="M701.559,195.611L701.559,195.611c-10.46,0-18.94-8.48-18.94-18.94l0,0
				c0-10.46,8.48-18.94,18.94-18.94l0,0c10.46,0,18.94,8.48,18.94,18.94l0,0C720.499,187.131,712.02,195.611,701.559,195.611z"/>
		</g>
		<path id="XMLID_91_" style="fill:#FFFFFF;" d="M698.559,188.119h4.61v-11.545h3.217l0.343-3.866h-3.56c0,0,0-1.443,0-2.202
			c0-0.911,0.183-1.271,1.064-1.271c0.709,0,2.495,0,2.495,0v-4.012c0,0-2.631,0-3.193,0c-3.431,0-4.977,1.511-4.977,4.403
			c0,2.519,0,3.082,0,3.082h-2.398v3.914h2.398V188.119z"/>
	</g>
	<g>
		<g id="XMLID_89_">
			<path id="XMLID_90_" style="fill:#1A004F;" d="M662.963,252.355L662.963,252.355c-10.46,0-18.94-8.48-18.94-18.94l0,0
				c0-10.46,8.48-18.94,18.94-18.94l0,0c10.46,0,18.94,8.48,18.94,18.94l0,0C681.903,243.876,673.423,252.355,662.963,252.355z"/>
		</g>
		<g id="XMLID_81_">
			<path id="XMLID_86_" style="fill:#FFFFFF;" d="M662.963,224.902c2.773,0,3.101,0.011,4.196,0.061
				c1.012,0.046,1.563,0.215,1.929,0.358c0.485,0.188,0.831,0.413,1.194,0.777c0.363,0.364,0.588,0.709,0.777,1.194
				c0.142,0.366,0.311,0.916,0.358,1.928c0.05,1.095,0.061,1.423,0.061,4.196s-0.011,3.101-0.061,4.196
				c-0.046,1.013-0.215,1.562-0.358,1.928c-0.188,0.485-0.413,0.831-0.777,1.194c-0.363,0.363-0.709,0.588-1.194,0.777
				c-0.366,0.142-0.916,0.312-1.929,0.358c-1.095,0.05-1.423,0.06-4.196,0.06c-2.773,0-3.101-0.011-4.196-0.06
				c-1.012-0.046-1.562-0.215-1.928-0.358c-0.485-0.188-0.831-0.413-1.194-0.777c-0.363-0.363-0.588-0.709-0.777-1.194
				c-0.142-0.366-0.311-0.916-0.358-1.928c-0.05-1.095-0.06-1.423-0.06-4.196s0.01-3.101,0.06-4.196
				c0.046-1.013,0.216-1.562,0.358-1.928c0.188-0.485,0.414-0.83,0.777-1.194c0.364-0.363,0.709-0.588,1.194-0.777
				c0.366-0.142,0.916-0.311,1.928-0.358C659.862,224.912,660.191,224.902,662.963,224.902 M662.963,223.031
				c-2.82,0-3.174,0.012-4.282,0.063c-1.105,0.05-1.86,0.226-2.521,0.483c-0.683,0.265-1.262,0.62-1.839,1.198
				c-0.577,0.577-0.932,1.157-1.198,1.839c-0.257,0.661-0.432,1.415-0.483,2.521c-0.051,1.108-0.063,1.461-0.063,4.282
				s0.012,3.174,0.063,4.282c0.05,1.105,0.226,1.86,0.483,2.521c0.265,0.683,0.62,1.262,1.198,1.839
				c0.577,0.577,1.156,0.932,1.839,1.198c0.661,0.257,1.415,0.432,2.521,0.483c1.108,0.051,1.461,0.062,4.282,0.062
				s3.174-0.012,4.282-0.062c1.105-0.05,1.86-0.226,2.521-0.483c0.683-0.265,1.262-0.62,1.839-1.198
				c0.577-0.577,0.932-1.157,1.198-1.839c0.257-0.661,0.432-1.415,0.483-2.521c0.05-1.108,0.062-1.461,0.062-4.282
				s-0.012-3.174-0.062-4.282c-0.05-1.105-0.226-1.86-0.483-2.521c-0.265-0.683-0.62-1.262-1.198-1.839
				c-0.577-0.577-1.156-0.933-1.839-1.198c-0.661-0.257-1.415-0.432-2.521-0.483C666.137,223.043,665.784,223.031,662.963,223.031"
				/>
			<path id="XMLID_83_" style="fill:#FFFFFF;" d="M662.963,228.083c-2.945,0-5.333,2.387-5.333,5.333
				c0,2.945,2.388,5.333,5.333,5.333c2.945,0,5.333-2.387,5.333-5.333C668.296,230.47,665.908,228.083,662.963,228.083
				 M662.963,236.877c-1.912,0-3.461-1.55-3.461-3.462c0-1.912,1.55-3.462,3.461-3.462c1.912,0,3.461,1.55,3.461,3.462
				C666.425,235.327,664.875,236.877,662.963,236.877"/>
			<path id="XMLID_82_" style="fill:#FFFFFF;stroke:#FFFFFF;stroke-miterlimit:10;" d="M669.753,227.872
				c0,0.688-0.558,1.246-1.246,1.246c-0.688,0-1.246-0.558-1.246-1.246c0-0.688,0.558-1.246,1.246-1.246
				C669.195,226.626,669.753,227.184,669.753,227.872"/>
		</g>
	</g>
	<g>
		<g id="XMLID_67_">
			<path id="XMLID_68_" style="fill:#1A004F;" d="M657.394,139.591L657.394,139.591c-10.46,0-18.94-8.48-18.94-18.94l0,0
				c0-10.46,8.48-18.94,18.94-18.94h0c10.46,0,18.94,8.48,18.94,18.94l0,0C676.334,131.111,667.854,139.591,657.394,139.591z"/>
		</g>
		<path id="XMLID_66_" style="fill:#FFFFFF;" d="M647.303,126.991c1.833,1.175,4.009,1.861,6.347,1.861
			c7.688,0,12.031-6.493,11.769-12.317c0.809-0.583,1.511-1.312,2.066-2.144c-0.743,0.329-1.541,0.552-2.378,0.652
			c0.854-0.511,1.511-1.323,1.82-2.291c-0.8,0.475-1.686,0.82-2.629,1.005c-0.756-0.805-1.832-1.307-3.023-1.307
			c-2.672,0-4.636,2.494-4.033,5.084c-3.441-0.173-6.492-1.821-8.534-4.327c-1.085,1.862-0.563,4.297,1.281,5.529
			c-0.679-0.021-1.318-0.208-1.876-0.518c-0.045,1.919,1.33,3.713,3.321,4.113c-0.583,0.159-1.221,0.195-1.869,0.071
			c0.526,1.646,2.055,2.842,3.867,2.876C651.692,126.642,649.499,127.251,647.303,126.991z"/>
	</g>
</g>
</svg>
