<?xml version="1.0" encoding="utf-8"?>
<!-- Generator: Adobe Illustrator 27.5.0, SVG Export Plug-In . SVG Version: 6.00 Build 0)  -->
<svg version="1.1" xmlns="http://www.w3.org/2000/svg" xmlns:xlink="http://www.w3.org/1999/xlink" x="0px" y="0px"
	 viewBox="0 0 750 500" style="enable-background:new 0 0 750 500;" xml:space="preserve">
<g id="BACKGROUND">
	<rect style="fill:#E2ECFB;" width="750" height="500"/>
</g>
<g id="OBJECTS">
	<path style="fill:#BCD7F4;" d="M659.896,185.86c-13.773-8.096-28.47-14.888-42.776-21.455c-38-17.445-73.405-37.807-105.212-65.088
		C425.069,24.835,287.244-9.812,182.958,48.238C93.939,97.789,44.226,200.607,58.761,301.262
		c12.061,83.525,87.146,136.696,165.195,153.614c61.432,13.316,124.8,6.744,185.916-4.95c30.773-5.888,61.265-13.116,91.832-19.968
		c23.474-5.262,46.758-12.827,71-13.404c7.803-0.186,15.412,0.959,23.17,1.46c7.161,0.463,14.353,0.363,21.501-0.275
		c33.146-2.96,66.038-17.627,87.733-43.325c33.425-39.592,29.986-100.338,4.157-142.976
		C697.206,211.533,679.486,197.377,659.896,185.86z"/>
	<g>
		<polygon style="fill:#2C314B;" points="397.751,310.463 638.452,449.056 728.171,397.083 484.064,259.112 		"/>
		<path style="fill:#FFFFFF;stroke:#2C314B;stroke-miterlimit:10;" d="M542.285,346.68v36.579c0,2.391-1.269,4.597-3.338,5.788
			l-7.203,4.177l-24.321,14.113l-52.693-30.333l24.38-14.073l7.281-4.206c2.079-1.201,3.357-3.416,3.348-5.817l-0.146-36.57
			L542.285,346.68z"/>
	</g>
	<g>
		<path style="fill:#2C314B;stroke:#2C314B;stroke-miterlimit:10;" d="M542.285,346.68v36.579c0,2.391-1.269,4.597-3.338,5.788
			l-7.203,4.177L479.11,362.93l7.281-4.206c2.079-1.201,3.357-3.416,3.348-5.817l-0.146-36.57L542.285,346.68z"/>
		<path style="fill:#FFFFFF;stroke:#2C314B;stroke-linecap:round;stroke-linejoin:round;stroke-miterlimit:10;" d="M647.508,159.932
			L412.577,24.295c-2.993-1.728-5.663-1.892-7.415-0.75v-0.001l-8.607,5.279c1.13,1.13,4.279,2.904,6.463,5.088v250.481
			c0,2.89,1.542,5.561,4.045,7.006l238.738,137.835l-1.06,6.865l8.485-5.245l-0.002-0.005c2.18-0.872,3.842-2.971,3.842-5.651
			V175.01C657.067,169.731,652.787,162.98,647.508,159.932z"/>
		<g>
			<g>
				<path style="fill:#2C314B;stroke:#2C314B;stroke-linecap:round;stroke-linejoin:round;stroke-miterlimit:10;" d="
					M648.162,180.45v250.19c0,4.68-5.07,7.61-9.12,5.27l-119.26-68.85l-118.15-68.21l-3.47-2.01c-2.5-1.45-4.05-4.12-4.05-7.01
					V33.78c0-5.28,4.28-7.09,9.56-4.04l234.93,135.63C643.882,168.42,648.162,175.17,648.162,180.45z"/>
			</g>
		</g>
		<path style="fill:#FFFFFF;stroke:#2C314B;stroke-miterlimit:10;" d="M648.17,390.75v39.89c0,4.68-5.08,7.61-9.13,5.27l-94.5-54.56
			L426.2,313.03l-28.04-16.19c-2.5-1.45-4.04-4.12-4.04-7.01V244.8L648.17,390.75z"/>
		<g>
			<g>
				<polygon style="fill:#D8DCF6;stroke:#1A004F;stroke-miterlimit:10;" points="404.59,41.55 639.822,177.01 640.7,377.247 
					406.125,242.286 				"/>
				<g>
					
						<line style="fill:none;stroke:#2C314B;stroke-linecap:round;stroke-linejoin:round;stroke-miterlimit:10;" x1="437.43" y1="140.864" x2="503.47" y2="178.883"/>
					
						<line style="fill:none;stroke:#2C314B;stroke-linecap:round;stroke-linejoin:round;stroke-miterlimit:10;" x1="437.43" y1="153.857" x2="503.47" y2="191.876"/>
					
						<line style="fill:none;stroke:#2C314B;stroke-linecap:round;stroke-linejoin:round;stroke-miterlimit:10;" x1="437.43" y1="166.851" x2="503.47" y2="204.869"/>
					
						<line style="fill:none;stroke:#2C314B;stroke-linecap:round;stroke-linejoin:round;stroke-miterlimit:10;" x1="437.43" y1="179.844" x2="503.47" y2="217.863"/>
					
						<line style="fill:none;stroke:#2C314B;stroke-linecap:round;stroke-linejoin:round;stroke-miterlimit:10;" x1="437.43" y1="192.837" x2="503.47" y2="230.856"/>
				</g>
				<polygon style="fill:#596BFB;stroke:#1A004F;stroke-miterlimit:10;" points="639.912,196.7 404.742,61.32 404.592,41.55 
					639.822,177.01 				"/>
			</g>
		</g>
	</g>
	<path style="fill:#FFFFFF;stroke:#263238;stroke-miterlimit:10;" d="M664.955,425.399"/>
	<polygon style="fill:#2C314B;stroke:#2C314B;stroke-linecap:round;stroke-linejoin:round;stroke-miterlimit:10;" points="
		427.932,186.61 394.112,167.15 394.112,93.26 427.612,112.55 	"/>
	<g>
		<polygon style="fill:#FFFFFF;stroke:#2C314B;stroke-linecap:round;stroke-linejoin:round;stroke-miterlimit:10;" points="
			333.637,43.78 420.635,93.878 420.959,167.933 334.205,118.019 		"/>
		<polygon style="fill:#DC3341;stroke:#1A004F;stroke-miterlimit:10;" points="333.799,43.102 333.799,58.819 420.797,108.873 
			420.797,93.2 		"/>
		<polygon style="fill:#DC3341;stroke:#1A004F;stroke-miterlimit:10;" points="362.302,94.649 391.092,111.228 391.2,123.097 
			362.49,106.579 		"/>
		<g>
			<g>
				<path style="fill:#FFFFFF;stroke:#2C314B;stroke-linecap:round;stroke-linejoin:round;stroke-miterlimit:10;" d="
					M405.273,87.989c-1.707-0.986-3.096-0.194-3.102,1.769c-0.005,1.962,1.375,4.352,3.082,5.338
					c1.709,0.987,3.098,0.195,3.104-1.767C408.362,91.366,406.982,88.976,405.273,87.989"/>
			</g>
			<g>
				<path style="fill:#FFFFFF;stroke:#2C314B;stroke-linecap:round;stroke-linejoin:round;stroke-miterlimit:10;" d="M397.43,84.011
					c-1.707-0.986-3.096-0.194-3.102,1.77c-0.006,1.962,1.374,4.352,3.082,5.338c1.709,0.987,3.098,0.195,3.104-1.767
					C400.519,87.388,399.139,84.998,397.43,84.011"/>
			</g>
			<g>
				<path style="fill:#FFFFFF;stroke:#2C314B;stroke-linecap:round;stroke-linejoin:round;stroke-miterlimit:10;" d="M413.363,92.93
					c-1.707-0.986-3.096-0.194-3.102,1.77c-0.006,1.962,1.374,4.352,3.082,5.338c1.709,0.987,3.098,0.195,3.104-1.767
					C416.452,96.307,415.072,93.917,413.363,92.93"/>
			</g>
		</g>
	</g>
	<g>
		<g>
			<polygon style="fill:#FFFFFF;stroke:#2C314B;stroke-linecap:round;stroke-linejoin:round;stroke-miterlimit:10;" points="
				271.844,129.404 358.841,179.502 359.166,253.558 272.412,203.644 			"/>
			<polygon style="fill:#DC3341;stroke:#1A004F;stroke-miterlimit:10;" points="272.006,128.726 272.006,144.444 359.004,194.498 
				359.004,178.824 			"/>
			<polygon style="fill:#596BFB;stroke:#1A004F;stroke-miterlimit:10;" points="280.395,186.087 309.186,202.666 309.293,214.535 
				280.583,198.017 			"/>
			<polygon style="fill:#DC3341;stroke:#1A004F;stroke-miterlimit:10;" points="313.867,205.526 342.658,222.105 342.765,233.974 
				314.055,217.456 			"/>
			<g>
				<g>
					<path style="fill:#FFFFFF;stroke:#2C314B;stroke-linecap:round;stroke-linejoin:round;stroke-miterlimit:10;" d="
						M343.48,173.614c-1.707-0.986-3.096-0.194-3.102,1.77c-0.006,1.962,1.374,4.352,3.082,5.338
						c1.709,0.987,3.098,0.195,3.104-1.767C346.569,176.991,345.189,174.6,343.48,173.614"/>
				</g>
				<g>
					<path style="fill:#FFFFFF;stroke:#2C314B;stroke-linecap:round;stroke-linejoin:round;stroke-miterlimit:10;" d="
						M335.637,169.636c-1.707-0.986-3.096-0.194-3.102,1.77c-0.005,1.962,1.374,4.352,3.082,5.338
						c1.709,0.987,3.098,0.195,3.103-1.767C338.726,173.013,337.346,170.622,335.637,169.636"/>
				</g>
				<g>
					<path style="fill:#FFFFFF;stroke:#2C314B;stroke-linecap:round;stroke-linejoin:round;stroke-miterlimit:10;" d="
						M351.57,178.555c-1.707-0.986-3.096-0.194-3.102,1.77c-0.005,1.962,1.375,4.352,3.082,5.338
						c1.709,0.987,3.098,0.195,3.104-1.767C354.659,181.932,353.279,179.542,351.57,178.555"/>
				</g>
			</g>
		</g>
		
			<line style="fill:none;stroke:#2C314B;stroke-linecap:round;stroke-linejoin:round;stroke-miterlimit:10;" x1="281.374" y1="172.472" x2="347.415" y2="210.49"/>
	</g>
	<g>
		<g>
			<g>
				<polygon style="fill:#FFFFFF;stroke:#2C314B;stroke-linecap:round;stroke-linejoin:round;stroke-miterlimit:10;" points="
					597.476,317.645 532.74,280.431 532.369,187.363 532.291,168.819 596.871,206.023 596.969,224.508 				"/>
				<polygon style="fill:#DC3341;stroke:#1A004F;stroke-miterlimit:10;" points="596.969,224.508 532.369,187.363 532.291,168.819 
					596.871,206.023 				"/>
				<g>
					<path style="fill:#2C314B;" d="M563.011,225.611c-8.468-4.889-15.351-0.96-15.385,8.768
						c-0.021,9.734,6.817,21.586,15.285,26.475c8.468,4.889,15.357,0.963,15.385-8.768
						C578.324,242.355,571.479,230.5,563.011,225.611z M571.706,256.12c0.54,0.936,0.538,1.938-0.006,2.248
						c-0.269,0.153-0.624,0.106-0.98-0.099c-0.355-0.205-0.71-0.568-0.977-1.03l-6.789-11.758l-6.827,3.898
						c-0.275,0.149-0.631,0.102-0.986-0.103c-0.349-0.202-0.704-0.564-0.977-1.03c-0.534-0.932-0.531-1.935,0.006-2.248l6.833-3.894
						l-6.789-11.758c-0.534-0.925-0.531-1.935,0.006-2.248c0.272-0.155,0.628-0.106,0.983,0.099s0.71,0.566,0.98,1.034l6.782,11.755
						l6.833-3.894c0.272-0.155,0.626-0.106,0.98,0.098c0.354,0.204,0.707,0.564,0.977,1.032c0.54,0.936,0.537,1.945-0.006,2.248
						l-6.827,3.898L571.706,256.12z"/>
					<path style="fill:#FFFFFF;" d="M570.78,237.187c-0.354-0.204-0.708-0.253-0.98-0.098l-6.833,3.894l-6.782-11.755
						c-0.27-0.468-0.625-0.829-0.98-1.034s-0.711-0.254-0.983-0.099c-0.538,0.313-0.541,1.323-0.006,2.248l6.789,11.758
						l-6.833,3.894c-0.538,0.314-0.541,1.316-0.006,2.248c0.273,0.466,0.628,0.829,0.977,1.03c0.355,0.205,0.711,0.253,0.986,0.103
						l6.827-3.898l6.789,11.758c0.267,0.463,0.622,0.825,0.977,1.03c0.355,0.205,0.711,0.253,0.98,0.099
						c0.544-0.31,0.547-1.312,0.006-2.248l-6.782-11.755l6.827-3.897c0.544-0.303,0.547-1.312,0.006-2.248
						C571.487,237.751,571.133,237.391,570.78,237.187"/>
				</g>
			</g>
			<g>
				<path style="fill:#2C314B;" d="M596.897,196.659c-3.991-2.304-7.235-0.452-7.251,4.132c-0.01,4.588,3.213,10.173,7.203,12.477
					c3.991,2.304,7.238,0.454,7.251-4.132C604.114,204.55,600.888,198.963,596.897,196.659z M600.995,211.037
					c0.255,0.441,0.253,0.914-0.003,1.06c-0.127,0.072-0.294,0.05-0.462-0.047c-0.167-0.097-0.335-0.268-0.46-0.486l-3.199-5.541
					l-3.217,1.837c-0.13,0.071-0.297,0.048-0.465-0.049c-0.164-0.095-0.332-0.266-0.46-0.485c-0.252-0.439-0.25-0.912,0.003-1.06
					l3.22-1.835l-3.199-5.541c-0.252-0.436-0.25-0.912,0.003-1.06c0.128-0.073,0.296-0.05,0.463,0.047
					c0.167,0.097,0.335,0.267,0.462,0.487l3.196,5.54l3.22-1.835c0.128-0.073,0.295-0.05,0.462,0.046
					c0.167,0.096,0.333,0.266,0.461,0.486c0.255,0.441,0.253,0.917-0.003,1.06l-3.217,1.837L600.995,211.037z"/>
				<path style="fill:#FFFFFF;" d="M600.559,202.115c-0.167-0.096-0.333-0.119-0.462-0.046l-3.22,1.835l-3.196-5.54
					c-0.127-0.221-0.294-0.391-0.462-0.487c-0.167-0.097-0.335-0.12-0.463-0.047c-0.253,0.148-0.255,0.624-0.003,1.06l3.199,5.541
					l-3.22,1.835c-0.253,0.148-0.255,0.62-0.003,1.06c0.129,0.22,0.296,0.391,0.461,0.485c0.167,0.097,0.335,0.119,0.465,0.049
					l3.217-1.837l3.199,5.541c0.126,0.218,0.293,0.389,0.46,0.486c0.167,0.097,0.335,0.119,0.462,0.047
					c0.256-0.146,0.258-0.618,0.003-1.06l-3.196-5.54l3.217-1.837c0.256-0.143,0.258-0.618,0.003-1.06
					C600.892,202.381,600.726,202.211,600.559,202.115"/>
			</g>
		</g>
		<g>
			<g>
				<polygon style="fill:#FFFFFF;stroke:#2C314B;stroke-linecap:round;stroke-linejoin:round;stroke-miterlimit:10;" points="
					607.581,347.347 542.845,310.134 542.474,217.065 542.396,198.521 606.976,235.725 607.074,254.21 				"/>
				<polygon style="fill:#DC3341;stroke:#1A004F;stroke-miterlimit:10;" points="607.074,254.21 542.474,217.065 542.396,198.521 
					606.976,235.725 				"/>
				<g>
					<path style="fill:#2C314B;" d="M573.116,255.313c-8.468-4.889-15.351-0.96-15.385,8.767
						c-0.021,9.734,6.817,21.586,15.285,26.475c8.468,4.889,15.357,0.963,15.385-8.768
						C588.429,272.057,581.584,260.202,573.116,255.313z M581.811,285.822c0.54,0.936,0.537,1.938-0.006,2.248
						c-0.269,0.153-0.625,0.106-0.98-0.099c-0.355-0.205-0.71-0.568-0.977-1.03l-6.789-11.758l-6.827,3.897
						c-0.275,0.15-0.631,0.102-0.986-0.103c-0.349-0.202-0.704-0.564-0.977-1.03c-0.534-0.932-0.531-1.935,0.006-2.248l6.833-3.894
						l-6.789-11.758c-0.534-0.925-0.531-1.935,0.006-2.248c0.272-0.155,0.627-0.106,0.983,0.099c0.355,0.205,0.71,0.566,0.98,1.034
						l6.782,11.755l6.833-3.894c0.272-0.155,0.626-0.107,0.98,0.098c0.354,0.204,0.707,0.564,0.977,1.032
						c0.54,0.936,0.537,1.946-0.006,2.248l-6.827,3.897L581.811,285.822z"/>
					<path style="fill:#FFFFFF;" d="M580.885,266.889c-0.354-0.204-0.708-0.253-0.98-0.098l-6.833,3.894l-6.782-11.755
						c-0.27-0.468-0.625-0.829-0.98-1.034c-0.355-0.205-0.711-0.254-0.983-0.099c-0.538,0.314-0.541,1.323-0.006,2.248l6.789,11.758
						l-6.833,3.894c-0.538,0.314-0.54,1.316-0.006,2.248c0.273,0.466,0.628,0.829,0.977,1.03c0.355,0.205,0.711,0.253,0.986,0.103
						l6.827-3.897l6.789,11.758c0.267,0.462,0.622,0.825,0.977,1.03c0.355,0.205,0.711,0.253,0.98,0.099
						c0.544-0.31,0.547-1.312,0.006-2.248l-6.782-11.755l6.827-3.897c0.544-0.303,0.547-1.312,0.006-2.248
						C581.592,267.453,581.239,267.094,580.885,266.889"/>
				</g>
			</g>
			<g>
				<path style="fill:#2C314B;" d="M607.003,226.361c-3.991-2.304-7.235-0.452-7.251,4.132c-0.01,4.588,3.213,10.173,7.204,12.477
					s7.238,0.454,7.251-4.132C614.219,234.253,610.993,228.665,607.003,226.361z M611.1,240.74c0.255,0.441,0.253,0.914-0.003,1.06
					c-0.127,0.072-0.294,0.05-0.462-0.047c-0.167-0.097-0.335-0.268-0.46-0.486l-3.199-5.541l-3.217,1.837
					c-0.13,0.07-0.297,0.048-0.464-0.049c-0.164-0.095-0.332-0.266-0.461-0.485c-0.252-0.439-0.25-0.912,0.003-1.06l3.22-1.835
					l-3.199-5.542c-0.252-0.436-0.25-0.912,0.003-1.06c0.128-0.073,0.296-0.05,0.463,0.047c0.167,0.097,0.335,0.267,0.462,0.487
					l3.196,5.54l3.22-1.835c0.128-0.073,0.295-0.05,0.462,0.046c0.167,0.096,0.333,0.266,0.46,0.486
					c0.255,0.441,0.253,0.917-0.003,1.06l-3.217,1.837L611.1,240.74z"/>
				<path style="fill:#FFFFFF;" d="M610.664,231.817c-0.167-0.096-0.333-0.119-0.462-0.046l-3.22,1.835l-3.196-5.54
					c-0.127-0.221-0.294-0.391-0.462-0.487c-0.167-0.097-0.335-0.12-0.463-0.047c-0.253,0.148-0.255,0.624-0.003,1.06l3.199,5.541
					l-3.22,1.835c-0.253,0.148-0.255,0.62-0.003,1.06c0.129,0.22,0.296,0.391,0.46,0.485c0.167,0.097,0.335,0.119,0.465,0.049
					l3.217-1.837l3.199,5.541c0.126,0.218,0.293,0.389,0.46,0.486c0.167,0.097,0.335,0.119,0.462,0.047
					c0.256-0.146,0.258-0.618,0.003-1.06l-3.196-5.54l3.217-1.837c0.256-0.143,0.258-0.618,0.003-1.06
					C610.997,232.083,610.831,231.913,610.664,231.817"/>
			</g>
		</g>
		<g>
			<g>
				<polygon style="fill:#FFFFFF;stroke:#2C314B;stroke-linecap:round;stroke-linejoin:round;stroke-miterlimit:10;" points="
					617.686,377.05 552.95,339.836 552.579,246.767 552.501,228.224 617.081,265.428 617.179,283.913 				"/>
				<polygon style="fill:#DC3341;stroke:#1A004F;stroke-miterlimit:10;" points="617.179,283.913 552.579,246.767 552.501,228.224 
					617.081,265.428 				"/>
				<g>
					<path style="fill:#2C314B;" d="M583.221,285.015c-8.468-4.889-15.351-0.96-15.385,8.767
						c-0.021,9.734,6.817,21.586,15.285,26.475c8.468,4.889,15.357,0.963,15.385-8.768
						C598.534,301.759,591.689,289.904,583.221,285.015z M591.916,315.524c0.54,0.936,0.538,1.938-0.006,2.248
						c-0.269,0.153-0.624,0.106-0.98-0.099c-0.355-0.205-0.71-0.568-0.977-1.03l-6.789-11.758l-6.827,3.897
						c-0.275,0.15-0.631,0.102-0.986-0.103c-0.349-0.201-0.704-0.564-0.977-1.03c-0.534-0.932-0.531-1.935,0.006-2.248l6.833-3.894
						l-6.789-11.758c-0.534-0.925-0.531-1.935,0.006-2.248c0.272-0.155,0.628-0.106,0.983,0.099c0.355,0.205,0.71,0.566,0.98,1.034
						l6.782,11.755l6.833-3.894c0.272-0.155,0.626-0.106,0.98,0.098c0.354,0.204,0.707,0.564,0.977,1.032
						c0.54,0.936,0.537,1.946-0.006,2.248l-6.827,3.897L591.916,315.524z"/>
					<path style="fill:#FFFFFF;" d="M590.99,296.592c-0.354-0.204-0.708-0.253-0.98-0.098l-6.833,3.894l-6.782-11.755
						c-0.27-0.468-0.625-0.829-0.98-1.034c-0.355-0.205-0.711-0.254-0.983-0.099c-0.538,0.314-0.541,1.323-0.006,2.248l6.789,11.758
						l-6.833,3.894c-0.538,0.314-0.54,1.316-0.006,2.248c0.273,0.466,0.628,0.829,0.977,1.03c0.355,0.205,0.711,0.253,0.986,0.103
						l6.827-3.897l6.789,11.758c0.267,0.463,0.622,0.825,0.977,1.03c0.355,0.205,0.711,0.253,0.98,0.099
						c0.544-0.31,0.547-1.312,0.006-2.248l-6.782-11.755l6.827-3.897c0.544-0.303,0.547-1.312,0.006-2.248
						C591.697,297.156,591.344,296.796,590.99,296.592"/>
				</g>
			</g>
			<g>
				<path style="fill:#2C314B;" d="M617.108,256.064c-3.991-2.304-7.235-0.452-7.251,4.132c-0.01,4.588,3.213,10.173,7.204,12.477
					c3.991,2.304,7.238,0.454,7.251-4.132C624.324,263.955,621.099,258.368,617.108,256.064z M621.206,270.442
					c0.255,0.441,0.253,0.914-0.003,1.06c-0.127,0.072-0.294,0.05-0.462-0.047c-0.167-0.097-0.335-0.267-0.461-0.486l-3.199-5.541
					l-3.217,1.837c-0.13,0.07-0.297,0.048-0.465-0.048c-0.164-0.095-0.332-0.266-0.46-0.486c-0.252-0.439-0.25-0.912,0.003-1.06
					l3.22-1.835l-3.199-5.542c-0.252-0.436-0.25-0.912,0.003-1.06c0.128-0.073,0.296-0.05,0.463,0.047
					c0.167,0.097,0.335,0.267,0.462,0.487l3.196,5.54l3.22-1.835c0.128-0.073,0.295-0.05,0.462,0.046
					c0.167,0.096,0.333,0.266,0.46,0.486c0.255,0.441,0.253,0.917-0.003,1.06l-3.217,1.837L621.206,270.442z"/>
				<path style="fill:#FFFFFF;" d="M620.769,261.519c-0.167-0.096-0.333-0.119-0.462-0.046l-3.22,1.835l-3.196-5.54
					c-0.127-0.221-0.294-0.391-0.462-0.487c-0.167-0.097-0.335-0.12-0.463-0.047c-0.253,0.148-0.255,0.623-0.003,1.059l3.199,5.542
					l-3.22,1.835c-0.253,0.148-0.255,0.62-0.003,1.06c0.129,0.22,0.296,0.391,0.46,0.486c0.167,0.097,0.335,0.119,0.465,0.049
					l3.217-1.837l3.199,5.541c0.126,0.218,0.293,0.389,0.461,0.486c0.167,0.097,0.335,0.119,0.462,0.047
					c0.256-0.146,0.258-0.618,0.003-1.06l-3.196-5.54l3.217-1.837c0.256-0.143,0.258-0.618,0.003-1.06
					C621.102,261.785,620.936,261.616,620.769,261.519"/>
			</g>
		</g>
		<g>
			<g>
				<polygon style="fill:#FFFFFF;stroke:#2C314B;stroke-linecap:round;stroke-linejoin:round;stroke-miterlimit:10;" points="
					627.791,406.752 563.055,369.538 562.684,276.469 562.606,257.926 627.186,295.13 627.284,313.615 				"/>
				<polygon style="fill:#DC3341;stroke:#1A004F;stroke-miterlimit:10;" points="627.284,313.615 562.684,276.469 562.606,257.926 
					627.186,295.13 				"/>
				<g>
					<path style="fill:#DC3341;stroke:#1A004F;stroke-miterlimit:10;" d="M593.326,314.717c-8.468-4.889-15.351-0.96-15.385,8.768
						c-0.021,9.734,6.817,21.586,15.285,26.475c8.468,4.889,15.357,0.963,15.385-8.767
						C608.639,331.462,601.794,319.607,593.326,314.717z M602.021,345.227c0.54,0.936,0.538,1.938-0.006,2.248
						c-0.269,0.153-0.625,0.106-0.98-0.099c-0.355-0.205-0.71-0.568-0.977-1.03l-6.789-11.758l-6.827,3.897
						c-0.275,0.15-0.631,0.102-0.986-0.103c-0.349-0.201-0.704-0.564-0.977-1.03c-0.534-0.932-0.531-1.935,0.006-2.248l6.833-3.894
						l-6.789-11.758c-0.534-0.925-0.531-1.935,0.006-2.248c0.272-0.155,0.628-0.106,0.983,0.099c0.355,0.205,0.71,0.566,0.98,1.034
						l6.782,11.755l6.833-3.894c0.272-0.155,0.626-0.106,0.98,0.098c0.354,0.204,0.707,0.564,0.977,1.032
						c0.54,0.936,0.537,1.946-0.006,2.248l-6.827,3.897L602.021,345.227z"/>
					<path style="fill:#FFFFFF;" d="M601.095,326.294c-0.354-0.204-0.708-0.253-0.98-0.098l-6.833,3.894l-6.782-11.755
						c-0.27-0.468-0.625-0.829-0.98-1.034c-0.355-0.205-0.711-0.254-0.983-0.099c-0.538,0.314-0.541,1.323-0.006,2.248l6.789,11.758
						l-6.833,3.894c-0.538,0.313-0.54,1.316-0.006,2.248c0.273,0.466,0.628,0.829,0.977,1.03c0.355,0.205,0.711,0.253,0.986,0.103
						l6.827-3.897l6.789,11.758c0.267,0.463,0.622,0.825,0.977,1.03c0.355,0.205,0.711,0.253,0.98,0.099
						c0.544-0.31,0.547-1.312,0.006-2.248l-6.782-11.755l6.827-3.897c0.544-0.303,0.547-1.312,0.006-2.248
						C601.802,326.858,601.449,326.498,601.095,326.294"/>
				</g>
			</g>
			<g>
				<path style="fill:#2C314B;" d="M627.213,285.766c-3.991-2.304-7.235-0.452-7.251,4.132c-0.01,4.587,3.213,10.173,7.203,12.477
					c3.991,2.304,7.238,0.454,7.251-4.132C634.429,293.657,631.204,288.07,627.213,285.766z M631.311,300.144
					c0.255,0.441,0.253,0.914-0.003,1.06c-0.127,0.072-0.294,0.05-0.462-0.047c-0.167-0.097-0.334-0.267-0.46-0.486l-3.199-5.541
					l-3.217,1.837c-0.13,0.07-0.297,0.048-0.465-0.048c-0.164-0.095-0.332-0.266-0.46-0.486c-0.252-0.439-0.25-0.912,0.003-1.06
					l3.22-1.835l-3.199-5.542c-0.252-0.436-0.25-0.912,0.003-1.06c0.128-0.073,0.296-0.05,0.463,0.047
					c0.167,0.097,0.335,0.267,0.462,0.487l3.196,5.54l3.22-1.835c0.128-0.073,0.295-0.05,0.462,0.046
					c0.167,0.096,0.333,0.266,0.461,0.486c0.255,0.441,0.253,0.917-0.003,1.06l-3.217,1.837L631.311,300.144z"/>
				<path style="fill:#FFFFFF;" d="M630.874,291.222c-0.167-0.096-0.333-0.119-0.462-0.046l-3.22,1.835l-3.196-5.54
					c-0.127-0.221-0.294-0.391-0.462-0.487c-0.167-0.097-0.335-0.12-0.463-0.047c-0.253,0.148-0.255,0.624-0.003,1.06l3.199,5.542
					l-3.22,1.835c-0.253,0.148-0.255,0.62-0.003,1.06c0.129,0.22,0.296,0.391,0.46,0.486c0.167,0.097,0.335,0.119,0.465,0.048
					l3.217-1.837l3.199,5.541c0.126,0.218,0.293,0.389,0.46,0.486c0.167,0.097,0.335,0.119,0.462,0.047
					c0.256-0.146,0.258-0.618,0.003-1.06l-3.196-5.54l3.217-1.837c0.256-0.143,0.258-0.618,0.003-1.06
					C631.207,291.487,631.041,291.318,630.874,291.222"/>
			</g>
		</g>
	</g>
	<g>
		<path style="fill:#D8DCF6;stroke:#1A004F;stroke-miterlimit:10;" d="M137.792,281.082l-9.316,41.374h-0.005
			c-0.578,3.093-2.911,6.099-7.018,8.47c-9.512,5.492-24.89,5.488-34.341-0.004c-4.077-2.369-6.377-5.374-6.922-8.466h-0.136
			l-9.045-41.374H137.792z"/>
		<g>
			<path style="fill:#D8DCF6;stroke:#1A004F;stroke-miterlimit:10;" d="M80.327,262.751c13.349-7.707,34.916-7.702,48.169,0
				c13.253,7.702,13.192,20.194-0.157,27.901c-13.34,7.702-34.906,7.696-48.16-0.006C66.926,282.944,66.987,270.453,80.327,262.751"
				/>
		</g>
		<g>
			<path style="fill:#2C314B;" d="M82.6,264.071c12.086-6.978,31.611-6.973,43.61,0c11.999,6.973,11.944,18.283-0.142,25.26
				c-12.077,6.973-31.602,6.968-43.601-0.005C70.467,282.353,70.522,271.044,82.6,264.071"/>
		</g>
		<g>
			<path style="fill:#2C314B;" d="M74.34,148.331c2.413-1.393,4.658-0.798,5.546,1.453c1.198,3.056-0.292,8.503-2.058,12.694
				c-2.08,4.911-9.351,14.385-9.361,14.391c0,0-0.001,0.001-0.001,0.001c-0.086,0.05-1.575-5.673-1.631-6.078
				c-0.624-4.628,0.731-15.462,5.145-20.467C72.757,149.444,73.557,148.782,74.34,148.331 M157.374,106.673
				c0.233-0.134,0.464-0.251,0.692-0.347c3.508-1.474,5.458,1.436,4.684,5.668c-0.795,4.332-4.239,9.203-7.24,12.439
				c-2.83,3.058-8.965,6.738-11.248,8.056c-0.55,0.318-0.877,0.498-0.879,0.499c0,0,0-0.001,0-0.001c0-0.011,0-0.022,0-0.034
				c0.068-0.54,1.84-7.536,1.995-7.999C147.162,119.59,152.656,109.396,157.374,106.673 M136.548,89.971
				c0.828-0.478,1.675-0.746,2.491-0.735c4.363,0.075,5.535,9.488,4.831,14.871c-0.064,0.461-1.674,7.923-1.765,7.976
				c0,0-0.001,0-0.001,0l-0.087-0.012c0.201,1.476,0.39,3.071,0.57,4.847c0.315,3.278,0.631,7.006,0.73,11.235
				c0.04,1.541,0.067,3.142,0.068,4.802c-0.003,0.022-0.003,0.034,0,0.034c0,2.867-0.08,5.913-0.312,9.142
				c-0.367,5.125-0.973,10.626-2.189,16.53l-0.043,0.2c0.758-1.829,3.023-6.959,3.229-7.342c2.397-4.584,8.048-12.188,12.471-14.742
				c0.843-0.486,1.64-0.79,2.363-0.854c3.26-0.291,4.221,3.629,2.597,7.988c-1.656,4.441-5.637,8.468-8.87,10.874
				c-0.39,0.291-0.827,0.572-1.295,0.843c-3.922,2.264-10.111,3.777-10.657,3.902c-1.195,5.641-2.781,11.52-4.619,17.506
				c-1.048,3.425-2.173,6.87-3.341,10.326c0.694-1.579,1.322-2.994,1.431-3.195c2.395-4.58,8.038-12.175,12.459-14.728
				c0.847-0.489,1.648-0.793,2.374-0.855c3.26-0.303,4.221,3.63,2.597,7.976c-1.656,4.453-5.637,8.481-8.87,10.886
				c-0.387,0.288-0.819,0.567-1.284,0.835c-3.487,2.013-8.801,3.442-10.33,3.827c-0.465,1.334-0.909,2.655-1.363,3.983
				c-2.218,6.369-4.436,12.726-6.491,18.976c-0.725,2.198-1.373,4.352-2.032,6.512c0.618-1.397,1.149-2.581,1.236-2.756
				c2.397-4.584,8.056-12.192,12.481-14.747c0.843-0.487,1.641-0.79,2.364-0.854c3.26-0.291,4.221,3.629,2.597,7.989
				c-1.656,4.441-5.648,8.475-8.88,10.88c-0.39,0.291-0.826,0.572-1.294,0.842c-3.295,1.902-8.191,3.273-10.004,3.738
				c-0.626,2.216-1.264,4.427-1.792,6.562c-0.345,1.452-0.755,2.868-1.035,4.32c-0.301,1.44-0.603,2.867-0.904,4.27
				c-0.494,2.704-1.021,5.49-1.449,8.106c-0.311,1.822-0.579,3.543-0.858,5.295c0.703-2.198,2.141-6.475,2.293-6.839
				c2.095-5.09,7.786-14.22,12.372-16.869c0.465-0.268,0.917-0.47,1.354-0.594c3.433-0.979,4.97,2.395,3.815,6.721
				c-1.176,4.427-4.883,8.96-8.005,11.866c-1.193,1.111-2.893,2.235-4.643,3.246c-3.291,1.9-6.76,3.399-7.379,3.658
				c-0.45,2.879-0.867,5.677-1.22,8.3c-0.267,1.947-0.513,3.805-0.737,5.589l-3.06,1.767c0.289-2.009,0.599-4.106,0.942-6.322
				c0.439-2.923,0.965-6.059,1.522-9.289c-0.567,0.064-3.827,0.43-6.707,0.25c-2.507,4.568-8.921,11.931-9.758,12.878
				c0.889,1.968,1.767,3.855,2.623,5.617c0.461,0.925,0.9,1.799,1.338,2.661l-3.234,1.867c-0.253-0.569-0.516-1.106-0.779-1.681
				c-0.9-2-1.822-4.162-2.745-6.424c-0.737,0.605-5.677,4.616-9.434,6.786c-0.957,0.553-1.837,0.986-2.552,1.212
				c-3.193,1.016-7.065,1.171-8.502-1.634c-1.404-2.736-0.164-7.839,3.175-11.058c0.574-0.553,1.186-1.008,1.822-1.375
				c4.511-2.605,10.252-0.82,12.543,1.416c0.153,0.15,1.577,2.135,2.442,3.428c-0.373-0.925-0.747-1.812-1.11-2.781
				c-0.758-1.894-1.44-3.844-2.187-5.944c-0.319-1.044-0.649-2.094-0.98-3.169c-0.352-1.025-0.584-2.257-0.882-3.389
				c-0.64-2.688-1.161-5.521-1.627-8.423c-1.682,1.685-7.457,7.334-10.844,9.29c-0.183,0.106-0.359,0.201-0.527,0.283
				c-3.257,1.617-7.355,2.605-9.248,0.364c-1.861-2.197-1.22-7.117,1.922-10.798c0.863-1.01,1.863-1.81,2.935-2.43
				c4.332-2.501,9.853-2.056,12.348-0.654c0.197,0.112,2.187,1.796,3.247,2.775c-0.267-1.751-0.534-3.502-0.757-5.316
				c-0.615-5.235-1.088-10.652-1.583-16.031c-0.157-1.651-0.326-3.284-0.483-4.923c-0.603,0.611-7.426,7.479-11.236,9.678
				c-0.179,0.103-0.351,0.196-0.516,0.278c-3.268,1.636-7.366,2.611-9.259,0.37c-1.861-2.197-1.209-7.123,1.922-10.785
				c0.866-1.016,1.87-1.821,2.947-2.442c4.33-2.501,9.843-2.055,12.337-0.654c0.24,0.137,3.094,2.575,3.772,3.262
				c-0.359-3.603-0.751-7.174-1.263-10.601c-0.711-4.728-1.651-9.186-2.873-13.243c-0.281,0.282-7.387,7.481-11.296,9.738
				c-0.181,0.104-0.355,0.198-0.521,0.28c-3.268,1.623-7.355,2.605-9.259,0.37c-1.861-2.197-1.209-7.123,1.922-10.798
				c0.864-1.012,1.866-1.814,2.941-2.434c4.334-2.503,9.858-2.067,12.353-0.656c0.24,0.137,3.313,2.775,3.816,3.324
				c-0.077-0.244-0.122-0.519-0.199-0.75c-1.365-4.288-3.229-7.924-5.169-11.116c-1.129-1.867-2.322-3.51-3.526-5.045
				c-1.392,1.606-7.774,8.862-11.182,10.993c-0.232,0.145-0.469,0.287-0.71,0.426c-3.144,1.816-6.919,3.046-8.971,1.378
				c-2.154-1.777-1.949-6.495,0.996-10.451c1.08-1.451,2.452-2.587,3.949-3.451c4.149-2.396,9.259-2.705,11.786-1.861
				c0.186,0.068,1.912,1.052,3.157,1.787c-0.558-0.68-1.117-1.398-1.664-2.022c-2.068-2.365-4.135-4.28-6.005-5.946
				c-1.061-0.929-2.056-1.734-2.996-2.457c-1.721,0.956-8.658,4.723-11.701,4.838c-2.956,0.102-6.351-0.921-7.081-4.397
				c-0.708-3.402,1.317-8.544,4.823-11.006c0.182-0.127,0.365-0.244,0.549-0.35c4.756-2.746,10.21,1.392,11.942,4.832
				c0.153,0.3,1.958,5.801,1.871,5.851l-0.109,0.063c0.929,0.667,1.902,1.409,2.951,2.257c1.913,1.59,4.056,3.424,6.19,5.714
				c2.144,2.271,4.388,4.849,6.436,8.003c2.049,3.154,4.011,6.708,5.496,10.977l0.044,0.15c-0.027-1.639,0.026-6.294,0.057-6.663
				c0.552-5.32,4.163-16.679,8.984-20.49c0.345-0.273,0.685-0.504,1.018-0.697c3.014-1.74,5.432-0.246,5.697,3.111
				c0.294,3.791-2.199,9.203-4.631,13.127c-2.747,4.406-10.373,11.554-10.982,12.118c1.375,4.107,2.446,8.64,3.278,13.436
				c0.477,2.745,0.867,5.578,1.234,8.436c0.018-1.439,0.036-2.728,0.057-2.916c0.552-5.32,4.163-16.679,8.984-20.49
				c0.345-0.273,0.685-0.504,1.018-0.697c3.014-1.74,5.431-0.247,5.686,3.105c0.294,3.803-2.199,9.216-4.631,13.127
				c-2.465,3.967-8.926,10.179-10.645,11.811c0.134,1.101,0.279,2.195,0.402,3.302c0.604,5.316,1.186,10.633,1.899,15.749
				c0.256,1.795,0.566,3.521,0.866,5.266c0.018-1.276,0.037-2.365,0.058-2.54c0.552-5.32,4.163-16.679,8.973-20.471
				c0.346-0.274,0.688-0.506,1.021-0.698c3.022-1.745,5.439-0.251,5.694,3.101c0.294,3.791-2.199,9.216-4.631,13.127
				c-2.345,3.773-8.295,9.564-10.34,11.51c0.365,1.732,0.73,3.477,1.16,5.096c0.319,1.081,0.541,2.195,0.925,3.226
				c0.352,1.05,0.704,2.075,1.045,3.107c0.747,1.9,1.505,3.868,2.274,5.681c0.527,1.262,1.065,2.443,1.592,3.63
				c-0.278-1.77-0.735-5.303-0.747-5.622c-0.075-3.303,0.944-9.331,2.992-14.336c-0.012-0.494,0.008-0.995,0.072-1.521
				c0.458-3.576,2.825-7.516,5.649-9.147c0.468-0.27,0.948-0.477,1.435-0.608c4.741-1.296,7.774,6.529,8.006,11.433
				c0.023,0.275-0.142,3.617-0.267,5.732c0.236-1.327,0.451-2.604,0.709-3.969c0.483-2.698,1.032-5.396,1.623-8.319
				c0.312-1.409,0.635-2.836,0.97-4.282c0.301-1.427,0.755-2.98,1.133-4.477c0.928-3.481,1.998-7.032,3.122-10.614
				c-1.831,0.556-8.327,2.401-10.947,1.607c-2.598-0.794-5.353-2.951-5.343-6.942c0.01-3.673,2.422-8.268,5.629-10.119
				c0.201-0.116,0.406-0.222,0.613-0.315c4.88-2.216,9.131,4.266,10.038,8.681c0.055,0.281,0.349,3.734,0.485,5.648
				c0.692-2.154,1.373-4.302,2.119-6.488c2.164-6.3,4.491-12.67,6.796-19.039c0.703-1.948,1.396-3.889,2.089-5.831
				c-0.654,0.202-8.424,2.62-11.35,1.727c-2.598-0.794-5.364-2.944-5.343-6.942c0.01-3.673,2.422-8.268,5.629-10.119
				c0.201-0.116,0.406-0.222,0.613-0.315c4.88-2.216,9.131,4.266,10.038,8.681c0.066,0.338,0.484,5.31,0.542,6.605
				c1.526-4.278,3.019-8.549,4.37-12.763c1.87-5.805,3.48-11.484,4.74-16.95c-0.305,0.089-8.413,2.651-11.404,1.734
				c-2.609-0.775-5.364-2.944-5.353-6.923c0.01-3.685,2.422-8.28,5.629-10.132c0.201-0.116,0.406-0.222,0.613-0.315
				c4.88-2.203,9.131,4.279,10.038,8.693c0.066,0.35,0.518,5.692,0.543,6.705c0.075-0.332,0.173-0.664,0.248-0.995
				c1.292-5.822,1.986-11.336,2.44-16.424c0.264-2.96,0.376-5.719,0.445-8.379c-1.547,0.668-8.596,3.659-11.52,3.317
				c-2.804-0.336-5.906-1.917-6.277-5.676c-0.359-3.665,2.026-8.74,5.554-10.789c4.9-2.842,9.988,2.568,11.351,6.581
				c0.077,0.219,0.575,2.676,0.907,4.49c0.018-1.201,0.048-2.446,0.044-3.573c-0.023-4.261-0.263-8.033-0.512-11.348
				c-0.147-1.87-0.315-3.553-0.494-5.104c-1.419-0.309-7.105-1.625-8.857-3.91c-1.719-2.229-3.115-6.06-1.862-10.481
				C131.976,94.408,134.187,91.334,136.548,89.971"/>
		</g>
	</g>
	<polygon style="fill:#2C314B;stroke:#2C314B;stroke-linecap:round;stroke-linejoin:round;stroke-miterlimit:10;" points="
		544.54,378.718 426.2,310.398 425.9,270.748 544.37,338.958 	"/>
	<g>
		<polygon style="fill:#FFFFFF;stroke:#2C314B;stroke-linecap:round;stroke-linejoin:round;stroke-miterlimit:10;" points="
			387.808,178.935 506.271,247.153 506.713,347.993 388.581,280.026 		"/>
		<polygon style="fill:#DC3341;stroke:#1A004F;stroke-miterlimit:10;" points="388.029,178.012 388.029,199.414 506.492,267.572 
			506.492,246.229 		"/>
		<polygon style="fill:#DC3341;stroke:#1A004F;stroke-miterlimit:10;" points="420.471,270.237 459.675,292.813 459.821,308.975 
			420.727,286.482 		"/>
		
			<line style="fill:none;stroke:#2C314B;stroke-linecap:round;stroke-linejoin:round;stroke-miterlimit:10;" x1="410.73" y1="240.007" x2="476.771" y2="278.026"/>
		
			<line style="fill:none;stroke:#2C314B;stroke-linecap:round;stroke-linejoin:round;stroke-miterlimit:10;" x1="414.656" y1="252.689" x2="472.844" y2="286.186"/>
		<g>
			<g>
				<path style="fill:#FFFFFF;stroke:#2C314B;stroke-linecap:round;stroke-linejoin:round;stroke-miterlimit:10;" d="
					M485.353,239.135c-2.325-1.342-4.216-0.264-4.224,2.41c-0.008,2.671,1.872,5.926,4.196,7.268
					c2.327,1.344,4.218,0.266,4.226-2.406C489.56,243.733,487.68,240.478,485.353,239.135"/>
			</g>
			<g>
				<path style="fill:#FFFFFF;stroke:#2C314B;stroke-linecap:round;stroke-linejoin:round;stroke-miterlimit:10;" d="
					M474.674,233.718c-2.325-1.342-4.216-0.264-4.224,2.41c-0.008,2.671,1.872,5.926,4.197,7.268
					c2.327,1.344,4.218,0.266,4.226-2.406C478.88,238.316,477.001,235.061,474.674,233.718"/>
			</g>
			<g>
				<path style="fill:#FFFFFF;stroke:#2C314B;stroke-linecap:round;stroke-linejoin:round;stroke-miterlimit:10;" d="
					M496.369,245.863c-2.325-1.342-4.216-0.264-4.224,2.41c-0.008,2.671,1.872,5.926,4.196,7.268
					c2.327,1.344,4.219,0.266,4.226-2.406C500.575,250.461,498.696,247.206,496.369,245.863"/>
			</g>
		</g>
	</g>
	<g>
		<path style="fill:#FFFFFF;stroke:#314E52;stroke-linecap:round;stroke-linejoin:round;stroke-miterlimit:10;" d="M249.374,232.844
			l1.572-0.067c0,0,1.324-2.08,1.891-2.836c0.567-0.756,2.174-0.473,3.214-1.796c1.04-1.324,1.985-1.702,1.607-0.095
			c-0.378,1.607-1.135,2.363-1.607,2.647c-0.473,0.284-0.662,0.851-0.662,0.851l2.458,1.04l-2.842,7.711c0,0-1.79,0.419-3.775,0.514
			c-1.985,0.094-3.025-0.284-3.309-0.378C247.637,240.34,246.857,235.464,249.374,232.844z"/>
		<path style="fill:#596BFB;stroke:#1A004F;stroke-miterlimit:10;" d="M226.144,198.716c0,0,1.455,2.95,2.445,6.414
			c0.99,3.464,4.582,23.738,4.582,23.738l16.204,3.976c0,0-1.485,2.639-1.485,4.784c0,2.145-0.165,4.289-0.165,4.289
			s-8.578-0.495-13.362-1.65c-4.784-1.155-9.879-1.328-10.796-3.056c-0.917-1.728-1.577-18.059-1.082-27.297
			C222.98,200.676,226.144,198.716,226.144,198.716z"/>
		<path style="fill:#2C314B;" d="M212.475,177.308c0,0,2.542-0.169,4.914-4.067c2.372-3.898-1.864-10.507-7.965-14.574
			c-6.101-4.067-15.082-4.576-18.471-0.847c-3.389,3.728-10.676,11.185-10.507,14.913c0.169,3.728,0.678,4.914,0.339,5.762
			c-0.339,0.847-8.473,3.05-8.643,8.304c-0.169,5.253,3.898,6.44,2.711,8.304c-1.186,1.864-8.982,3.898-6.44,8.812
			c2.542,4.914,7.287,7.456,17.624,9.998c10.337,2.542,23.304-5.661,29.954-8.931s6.142-10.726,3.6-12.59
			c-2.542-1.864,0.339-0.508-0.847-5.423C217.559,182.053,212.475,177.308,212.475,177.308z"/>
		<path style="fill:#FFFFFF;stroke:#314E52;stroke-linecap:round;stroke-linejoin:round;stroke-miterlimit:10;" d="M182.456,343.05
			l3.322,19.035c0,0-0.767,8.815,0.255,12.137s4.088,6.643,5.238,5.366c1.15-1.277,3.96-2.81,2.555-9.07
			c-1.405-6.26-2.811-10.731-2.683-11.115c0.128-0.383,2.938-17.758,2.938-17.758S185.906,344.838,182.456,343.05z"/>
		<path style="fill:#596BFB;stroke:#1A004F;stroke-miterlimit:10;" d="M192.932,366.74v5.182c0,0-1.533-0.255-2.938-0.128
			c-1.405,0.128-2.938,1.15-2.938,1.15l-1.405-6.643c0,0-0.047,0.094-0.117,0.237c-0.079,2.698-0.035,5.944,0.501,7.684
			c1.022,3.322,4.088,6.643,5.238,5.366c1.15-1.277,3.96-2.811,2.555-9.07C193.523,369.164,193.22,367.902,192.932,366.74z"/>
		<path style="fill:#FFFFFF;stroke:#314E52;stroke-linecap:round;stroke-linejoin:round;stroke-miterlimit:10;" d="M210.945,338.195
			c0,0,0.767,7.154,0.894,8.943c0.128,1.789-1.533,6.771-0.383,8.049c1.15,1.277,5.493,1.277,6.004,1.661
			c0.511,0.383,3.705,3.322,6.388,3.577s3.833,0.511,3.449-1.661c-0.383-2.172-5.11-6.388-6.771-8.048s-3.066-3.449-3.066-3.449
			s3.194-12.264,3.321-12.648C220.91,334.235,215.672,338.962,210.945,338.195z"/>
		<path style="fill:#596BFB;stroke:#1A004F;stroke-miterlimit:10;" d="M217.461,356.847c0.511,0.383,3.705,3.322,6.388,3.577
			c2.683,0.255,3.833,0.511,3.449-1.661c-0.222-1.259-1.903-3.202-3.6-4.938l-2.66,2.128c0,0-2.3,0-5.11-2.555
			c-1.461-1.328-3.091-2.86-4.323-4.029c-0.372,2.168-0.96,4.915-0.148,5.817C212.606,356.464,216.95,356.464,217.461,356.847z"/>
		<path style="fill:#2C314B;stroke:#2C314B;stroke-linecap:round;stroke-linejoin:round;stroke-miterlimit:10;" d="M183.036,246.49
			c0,0-5.209,11.883-5.372,25.393c-0.163,13.51,5.697,45.293,5.697,45.293s-2.279,11.72-2.442,16.929
			c-0.163,5.209,0.814,11.883,0.814,11.883s2.767,2.116,6.185,2.116c3.418,0,8.139-3.093,8.139-3.093s0.163-10.743,1.79-18.394
			c1.628-7.651,3.907-29.178,5.372-36.015c1.465-6.837,2.116-12.371,2.116-12.371s2.279,35.852,2.279,36.666
			c0,0.814-0.814,7.813-0.651,13.51c0.163,5.697,0.326,9.441,0.326,9.441s4.721,2.767,8.301,2.116
			c3.581-0.651,7.813-5.372,7.813-5.372s-0.488-23.277-0.326-25.393c0.163-2.116,4.395-31.294,4.395-45.456
			c0-14.161-3.907-26.532-3.907-26.532s-2.604-11.394-3.255-16.44c-0.651-5.046-0.977-19.533-0.977-19.533
			s-12.045-3.418-18.068-1.791c-6.023,1.628-16.44,8.139-16.44,8.139s2.116,17.417,0.814,25.393S183.036,246.49,183.036,246.49z"/>
		<path style="fill:#DC3341;stroke:#1A004F;stroke-miterlimit:10;" d="M223.567,237.212c0,0-2.604-11.394-3.255-16.44
			c-0.651-5.046-0.977-19.533-0.977-19.533s-12.045-3.418-18.068-1.791c-6.023,1.628-16.44,8.139-16.44,8.139
			s2.116,17.417,0.814,25.393c-1.302,7.976-2.604,13.51-2.604,13.51s-2.391,5.459-3.983,13.18
			c5.811,4.197,20.696,13.346,34.585,8.632c6.743-2.289,11.036-5.071,13.774-7.641C226.919,247.835,223.567,237.212,223.567,237.212
			z"/>
		<path style="fill:#FFFFFF;stroke:#314E52;stroke-linecap:round;stroke-linejoin:round;stroke-miterlimit:10;" d="M195.895,207.424
			c0,0,2.116,3.907,6.837,5.209c4.72,1.302,6.9-5.7,7.65-7.162c0.75-1.462-0.87-10.642-0.87-10.642s-2.386,1.364-5.479,1.038
			c-3.093-0.326-7.742-3.386-7.742-3.386S195.081,201.564,195.895,207.424z"/>
		<path style="fill:#596BFB;stroke:#1A004F;stroke-miterlimit:10;" d="M196.292,192.481c0,0-1.452,9.872,0.871,16.549
			c2.323,6.678,2.903,22.501,1.742,29.034c-1.161,6.533-3.339,15.098-3.339,15.098s-3.92-0.581-9.726-3.629
			c-5.807-3.049-6.968-5.226-6.968-5.226l-4.065-33.97c0,0,17.275-12.485,18.292-13.646
			C194.114,195.529,196.292,192.481,196.292,192.481z"/>
		<path style="fill:#FFFFFF;stroke:#314E52;stroke-linecap:round;stroke-linejoin:round;stroke-miterlimit:10;" d="M195.711,191.029
			c0,0-3.774,2.468-4.5,4.355c-0.726,1.887-1.452,11.614-1.452,13.646c0,2.032,0.436,3.774,0.436,3.774s2.758-1.887,3.774-2.903
			c1.016-1.016,3.194-0.871,3.194-0.871s-1.452-6.097-1.161-7.984c0.29-1.887,0.29-8.565,0.29-8.565
			S196.727,189.868,195.711,191.029z"/>
		<path style="fill:#596BFB;stroke:#1A004F;stroke-miterlimit:10;" d="M207.893,196.988c0,0,1.512,5.076,2.484,10.584
			c0.972,5.508,3.132,14.04,4.644,18.468c1.512,4.428,5.832,17.28,5.832,17.28s3.132-1.08,5.076-2.808
			c1.944-1.728,4.86-5.184,4.86-5.184l-4.536-14.796c0,0-1.512-1.836-0.216-6.048c1.296-4.212,0.648-14.364,0.108-15.768
			c-0.54-1.404-4.428-1.404-6.588-1.62c-2.16-0.216-9.288-2.052-10.044-2.268C208.757,194.612,208.001,195.044,207.893,196.988z"/>
		<path style="fill:#FFFFFF;stroke:#314E52;stroke-linecap:round;stroke-linejoin:round;stroke-miterlimit:10;" d="M210.377,207.572
			c0,0,0-3.348,0.756-3.564s4.86,0.972,4.86,0.972s-0.972-4.104-3.024-7.776c-2.052-3.672-4.32-6.696-5.724-6.696
			C205.841,190.508,209.297,204.44,210.377,207.572z"/>
		<g>
			<path style="fill:#FFFFFF;stroke:#314E52;stroke-linecap:round;stroke-linejoin:round;stroke-miterlimit:10;" d="
				M205.835,168.003c0,0-3.331,4.917-6.661,7.613c-3.331,2.696-8.406,6.027-8.406,6.027s-3.014-4.282-3.648,0.634
				c-0.634,4.917,2.379,5.869,3.172,6.027c0.793,0.159,2.062-0.317,2.062-0.317s3.331,4.441,4.441,5.868
				c1.11,1.427,6.979,6.503,10.151,4.6s5.551-7.93,6.503-11.737c0.952-3.807,0.635-6.979,0.159-9.041
				C213.132,175.617,205.835,168.003,205.835,168.003z"/>
			<path style="fill:none;stroke:#314E52;stroke-linecap:round;stroke-linejoin:round;stroke-miterlimit:10;" d="M198.034,182.754
				c0,0,2.758-2.323,6.242-1.161"/>
			<path style="fill:none;stroke:#314E52;stroke-linecap:round;stroke-linejoin:round;stroke-miterlimit:10;" d="M208.631,180.722
				c0,0,1.161-2.323,4.065-1.742"/>
			<path style="fill:#2C314B;" d="M202.607,184.932c0,0.721-0.357,1.307-0.798,1.307c-0.441,0-0.798-0.585-0.798-1.307
				c0-0.722,0.357-1.307,0.798-1.307C202.249,183.625,202.607,184.21,202.607,184.932z"/>
			<path style="fill:#2C314B;" d="M211.172,183.625c0,0.722-0.358,1.307-0.798,1.307c-0.441,0-0.799-0.585-0.799-1.307
				c0-0.722,0.357-1.307,0.799-1.307C210.814,182.319,211.172,182.904,211.172,183.625z"/>
			<path style="fill:none;stroke:#314E52;stroke-linecap:round;stroke-linejoin:round;stroke-miterlimit:10;" d="M208.631,187.835
				c0,0,0.581,1.887,0.29,2.468c-0.29,0.581-2.323,1.306-3.775,0.435"/>
			<path style="fill:none;stroke:#314E52;stroke-linecap:round;stroke-linejoin:round;stroke-miterlimit:10;" d="M206.599,193.497
				c0,0-3.194,2.032-5.371-1.016"/>
		</g>
		<path style="fill:#596BFB;stroke:#1A004F;stroke-miterlimit:10;" d="M179.452,207.433c0,0-7.549,3.774-8.13,5.226
			s-6.388,37.164-6.388,39.777s20.905,19.308,21.921,19.743c1.016,0.436,1.016,0.436,1.016,0.436s0.436-1.307,2.178-3.484
			c1.742-2.178,4.5-3.775,4.5-3.775s-10.888-8.565-11.614-9.872c-0.726-1.307-5.371-6.097-5.371-6.097l4.355-22.937"/>
		<path style="fill:#FFFFFF;stroke:#314E52;stroke-linecap:round;stroke-linejoin:round;stroke-miterlimit:10;" d="M188.632,271.329
			c0,0,0.399,2.392,0.638,2.95s2.153,0.877,2.79,2.232c0.638,1.355-0.08,2.87,0.638,3.109c0.718,0.239,1.674-0.478,1.754-1.674
			c0.08-1.196-1.036-3.189-1.036-3.189s2.392,1.674,3.189,1.355s5.422-4.226,6.059-5.023c0.638-0.797-0.399-2.232-1.595-2.87
			c-1.196-0.638-6.52-2.863-6.52-2.863S189.588,267.661,188.632,271.329z"/>
		<polygon style="fill:#FFFFFF;stroke:#2C314B;stroke-linecap:round;stroke-linejoin:round;stroke-miterlimit:10;" points="
			232.338,275.681 270.677,210.343 196.795,227.088 219.606,241.073 188.102,264.116 194.416,272.749 225.179,250.247 		"/>
		<g>
			<path style="fill:#FFFFFF;stroke:#314E52;stroke-linecap:round;stroke-linejoin:round;stroke-miterlimit:10;" d="
				M195.887,269.176c0,0-1.036,5.342-0.877,6.299c0.16,0.957,0.797,0.399,1.595,0.638s1.116-0.957,1.116-2.073
				s0.08-3.588,0.08-4.943S196.445,267.821,195.887,269.176z"/>
			<path style="fill:#FFFFFF;stroke:#314E52;stroke-linecap:round;stroke-linejoin:round;stroke-miterlimit:10;" d="
				M202.983,273.003c0,0,1.674-0.638,1.674-2.073c0-1.435-2.523-4.823-2.697-3.408C201.787,268.937,202.983,273.003,202.983,273.003
				z"/>
			<path style="fill:#FFFFFF;stroke:#314E52;stroke-linecap:round;stroke-linejoin:round;stroke-miterlimit:10;" d="
				M200.274,267.973c0,0,0.137,4.959,0.469,5.779c0.332,0.82,0.76,0.597,1.545,0.251c0.694-0.306,0.803-1.073,0.582-2.066
				c-0.222-0.993-0.641-3.208-0.91-4.414C201.692,266.316,200.502,266.656,200.274,267.973z"/>
			<path style="fill:#FFFFFF;stroke:#314E52;stroke-linecap:round;stroke-linejoin:round;stroke-miterlimit:10;" d="
				M197.903,268.542c0,0,0.151,5.439,0.515,6.339c0.364,0.899,0.834,0.655,1.695,0.276c0.762-0.336,0.881-1.177,0.638-2.266
				c-0.243-1.089-0.703-3.519-0.998-4.842C199.458,266.725,198.153,267.098,197.903,268.542z"/>
		</g>
		<g>
			<path style="fill:#FFFFFF;stroke:#314E52;stroke-linecap:round;stroke-linejoin:round;stroke-miterlimit:10;" d="
				M253.243,237.393c0,0,1.314,2.639,1.762,2.907c0.447,0.268,0.636-0.321,1.213-0.703c0.577-0.382,0.336-1.024-0.071-1.447
				c-0.408-0.423-1.262-1.407-1.757-1.921C253.895,235.715,253.091,236.548,253.243,237.393z"/>
			<path style="fill:#FFFFFF;stroke:#314E52;stroke-linecap:round;stroke-linejoin:round;stroke-miterlimit:10;" d="
				M259.384,233.736c0,0,0.763-1.621-0.233-2.654c-0.996-1.033-5.164-1.721-4.307-0.582
				C255.701,231.639,259.384,233.736,259.384,233.736z"/>
			<path style="fill:#FFFFFF;stroke:#314E52;stroke-linecap:round;stroke-linejoin:round;stroke-miterlimit:10;" d="
				M253.942,231.995c0,0,3.541,3.475,4.348,3.835c0.808,0.36,0.962-0.097,1.287-0.892c0.287-0.702-0.166-1.33-1.015-1.891
				c-0.849-0.561-2.688-1.865-3.719-2.547C253.813,229.818,253.192,230.889,253.942,231.995z"/>
			<path style="fill:#FFFFFF;stroke:#314E52;stroke-linecap:round;stroke-linejoin:round;stroke-miterlimit:10;" d="M252.63,234.05
				c0,0,3.884,3.811,4.77,4.206c0.886,0.395,1.055-0.107,1.412-0.978c0.315-0.77-0.182-1.459-1.113-2.075s-2.949-2.046-4.079-2.794
				C252.488,231.662,251.807,232.837,252.63,234.05z"/>
		</g>
	</g>
	<g>
		<path style="fill:none;stroke:#314E52;stroke-linecap:round;stroke-linejoin:round;stroke-miterlimit:10;" d="M376.3,270.338
			c1.694-0.717,2.883-2.394,2.883-4.349c0-2.131-1.412-3.932-3.351-4.518"/>
		<path style="fill:#FFFFFF;stroke:#314E52;stroke-linecap:round;stroke-linejoin:round;stroke-miterlimit:10;" d="M373.243,253.471
			c0,0,3.182,7.425,2.829,9.193c-0.354,1.768-0.707,2.652-0.53,3.889s1.237,2.652,1.237,5.657c0,3.005,0.354,8.663-1.061,10.077
			c-1.414,1.414-7.425,2.298-7.425,2.298l-1.061,7.955l-17.148-5.304l2.652-8.132c0,0-1.414-3.359-1.768-12.198
			c-0.354-8.839,6.718-14.32,11.138-15.734C366.525,249.758,373.243,253.471,373.243,253.471z"/>
		<path style="fill:none;stroke:#314E52;stroke-linecap:round;stroke-linejoin:round;stroke-miterlimit:10;" d="M362.283,278.575
			c0,0,1.796,1.979,3.279,1.709c1.483-0.27,1.483-1.349,1.483-1.349"/>
		
			<line style="fill:none;stroke:#314E52;stroke-linecap:round;stroke-linejoin:round;stroke-miterlimit:10;" x1="366.269" y1="269.764" x2="379.183" y2="263.156"/>
		<path style="fill:#596BFB;stroke:#1A004F;stroke-miterlimit:10;" d="M348.818,284.841l-2.883,4.505l24.507,8.83l-0.721-6.667
			C369.721,291.508,353.143,284.66,348.818,284.841z"/>
		<g>
			<path style="fill:#FFFFFF;stroke:#314E52;stroke-linecap:round;stroke-linejoin:round;stroke-miterlimit:10;" d="M329.08,356.591
				c0,0,1.495,3.24,1.994,3.738c0.498,0.498,1.121,3.489,1.869,4.112c0.748,0.623,3.906,0.667,2.991,2.243
				c-0.916,1.576-1.745,0.997-2.741,0.748c-0.997-0.249-0.125,3.614,0.623,5.483c0.748,1.869-1.121,1.246-1.121,1.246
				s0.249,1.869-0.872,2.118c-1.121,0.249-1.121,0.249-1.121,0.249s-1.122,0.374-1.994,0c-0.872-0.374-1.121-1.246-1.121-1.246
				s-1.246-1.121-1.994-2.367c-0.748-1.246-2.492-5.358-2.617-7.601c-0.125-2.243-0.125-6.48-0.125-6.853
				c0-0.374-0.498-2.492-0.498-2.492l5.233-1.246L329.08,356.591z"/>
			<path style="fill:none;stroke:#314E52;stroke-linecap:round;stroke-linejoin:round;stroke-miterlimit:10;" d="M327.585,375.282
				c0,0,1.257-0.001,0.655-1.405c-0.602-1.404-0.502-0.903-0.903-2.407c-0.401-1.505-0.502-2.307-0.502-2.307"/>
			<path style="fill:none;stroke:#314E52;stroke-linecap:round;stroke-linejoin:round;stroke-miterlimit:10;" d="M330.7,376.528
				c0,0,0.249-0.344-0.253-1.448c-0.502-1.103-1.103-2.307-1.304-3.41c-0.201-1.103-0.602-2.708-0.602-2.708"/>
			<path style="fill:none;stroke:#314E52;stroke-linecap:round;stroke-linejoin:round;stroke-miterlimit:10;" d="M332.694,374.161
				c0,0-0.742-0.585-1.344-2.391c-0.602-1.805-0.802-3.41-0.802-3.41"/>
			<path style="fill:none;stroke:#314E52;stroke-linecap:round;stroke-linejoin:round;stroke-miterlimit:10;" d="M327.839,363.043
				c0,0,0.502,1.705,0,3.009c-0.501,1.304-0.501,1.304-0.501,1.304"/>
			<path style="fill:none;stroke:#314E52;stroke-linecap:round;stroke-linejoin:round;stroke-miterlimit:10;" d="M333.192,367.432
				l-2.043-1.179c0,0-1.003,0.301-1.806-0.502"/>
		</g>
		<g>
			<path style="fill:#596BFB;stroke:#1A004F;stroke-miterlimit:10;" d="M326.494,456.171c0,0-1.665,7.354-1.249,8.881
				c0.416,1.526,3.192,3.192,4.996,3.053c1.804-0.139,4.024-2.22,4.857-3.053c0.833-0.832,4.302-0.416,5.273-2.498
				c0.971-2.081,1.249-5.689,0-6.383c-1.249-0.694-3.192-1.11-4.857-0.832C333.848,455.616,326.494,456.171,326.494,456.171z"/>
			<path style="fill:#2C314B;stroke:#2C314B;stroke-linecap:round;stroke-linejoin:round;stroke-miterlimit:10;" d="
				M341.203,458.619c-0.319,1.318-1.181,3.934-4.23,3.922c-3.397-0.013-3.001,1.921-6.603,2.761
				c-2.163,0.505-4.018-0.678-5.158-1.705c-0.049,0.639-0.048,1.158,0.033,1.454c0.416,1.526,3.192,3.192,4.996,3.053
				s4.024-2.22,4.857-3.053c0.833-0.832,4.302-0.416,5.273-2.498C340.885,461.45,341.202,459.919,341.203,458.619z"/>
		</g>
		<path style="fill:#596BFB;stroke:#1A004F;stroke-miterlimit:10;" d="M369.741,469.775c0,0,1.475,2.702,2.855,3.782
			c3.191,2.498,12.627,3.747,13.046,7.012c0.211,1.64-0.618,3.605-9.23,5.04c-8.613,1.435-13.639,0.991-16.305,0.991
			c-2.666,0-3.994-2.135-3.994-3.981c0-1.846-0.205-12.304-0.205-12.304S361.632,475.386,369.741,469.775z"/>
		<path style="fill:#2C314B;stroke:#2C314B;stroke-linecap:round;stroke-linejoin:round;stroke-miterlimit:10;" d="M385.642,480.569
			c-0.046-0.36-0.207-0.694-0.452-1.01c-0.568,0.759-1.345,1.576-2.415,2.329c-3.241,2.281-11.045,3.001-18.368,2.401
			c-4.137-0.339-6.778-1.214-8.295-1.912c0,0.091,0.001,0.174,0.001,0.243c0,1.846,1.328,3.981,3.994,3.981
			c2.666,0,7.692,0.444,16.305-0.991C385.025,484.174,385.853,482.209,385.642,480.569z"/>
		<path style="fill:#2C314B;stroke:#2C314B;stroke-linecap:round;stroke-linejoin:round;stroke-miterlimit:10;" d="M335.63,354.78
			c0,0-1.021,7.353-0.613,13.481s0.409,10.008,0.409,10.008s-0.409,17.77-1.226,24.102c-0.817,6.332-4.085,19.2-5.106,27.166
			c-1.021,7.966-2.981,27.905-2.981,27.905s1.838,2.247,4.902,2.247s5.515-2.042,5.515-2.042s6.862-33.216,8.087-36.688
			c1.225-3.472,4.289-12.664,4.698-16.136c0.409-3.472,3.268-15.728,3.268-15.728s2.451,26.145,2.451,28.391
			s-2.86,20.425-2.043,26.145c0.817,5.719,2.859,28.187,2.859,28.187s1.838,1.634,4.085,2.247c2.247,0.613,4.902,0.409,6.536-0.817
			c1.634-1.225,3.268-3.472,3.268-3.472s-0.817-28.391-0.204-31.659c0.613-3.268,4.085-17.157,5.719-29.004
			c1.634-11.847-0.409-46.161-0.409-46.161S357.281,373.571,335.63,354.78z"/>
		<path style="fill:#DC3341;stroke:#1A004F;stroke-miterlimit:10;" d="M374.847,362.95c0,0-17.566,10.621-39.217-8.17
			c0,0-0.949,6.859-0.646,12.85c3.316,4.093,9.842,9.977,21.071,12.274c8.728,1.785,15.185,0.728,19.527-0.831
			C375.275,370.139,374.847,362.95,374.847,362.95z"/>
		<path style="fill:#FFFFFF;stroke:#314E52;stroke-linecap:round;stroke-linejoin:round;stroke-miterlimit:10;" d="M417.536,301.061
			c0,0,0.886-4.191,1.173-5.63c0.288-1.438,1.007-2.733,0.575-5.034c-0.432-2.301-1.87-4.747-0.575-5.034
			c1.294-0.288,2.158,0.863,2.589,1.87c0.431,1.007,1.007,3.308,1.007,3.308l2.733-4.171l4.459-5.322c0,0,1.438-0.288,1.582,0.575
			c0.144,0.863-2.301,5.466-2.301,5.466l-1.295,3.021c0,0,4.028-4.891,4.459-5.178c0.431-0.288,2.445-2.302,3.308-2.158
			c0.863,0.144,1.438,0.431,1.007,1.294c-0.431,0.863-3.021,4.315-3.021,4.315l-2.877,3.884c0,0,2.877-0.863,3.884-1.294
			c1.007-0.432,3.596-1.151,4.171-0.863c0.575,0.288,0.431,1.151-0.144,1.582c-0.575,0.431-2.589,1.582-3.021,1.726
			c-0.431,0.144-3.596,1.582-3.596,1.582s3.021,0.288,4.027,0.432s2.733-0.144,2.589,0.719c-0.144,0.863-1.582,1.151-2.014,1.151
			c-0.431,0-1.87,0-2.589,0.144c-0.719,0.144-2.733,0.575-2.733,0.575s-0.432,2.158-3.164,4.171
			c-2.733,2.014-6.185,3.884-6.185,3.884l-5.322-3.165L417.536,301.061z"/>
		<path style="fill:#596BFB;stroke:#1A004F;stroke-miterlimit:10;" d="M345.935,289.345c0,0-10.509,1.299-10.917,2.729
			s-14.502,37.379-14.502,39.217s-1.021,25.532-0.204,26.145c0.817,0.613,3.472,1.838,5.106,1.838c1.634,0,3.881-1.634,3.881-1.634
			l4.289-27.37l3.881-5.923l0.817,17.157l-4.289,14.093c0,0,7.353,12.051,22.876,13.685c15.523,1.634,21.447-1.43,21.447-1.43
			s0.409-30.025,0.817-32.068c0.409-2.043,1.021-5.719,1.021-5.719s8.17,4.902,11.234,4.902c3.064,0,31.455-26.553,31.455-26.553
			s0.409-2.859-1.43-4.698c-1.838-1.838-3.881-2.655-3.881-2.655l-25.532,14.502c0,0-14.298-15.319-16.749-16.136
			c-2.451-0.817-4.814-1.252-4.814-1.252S350.521,289.681,345.935,289.345z"/>
		
			<line style="fill:none;stroke:#314E52;stroke-linecap:round;stroke-linejoin:round;stroke-miterlimit:10;" x1="380.158" y1="330.065" x2="366.473" y2="323.733"/>
		<path style="fill:none;stroke:#314E52;stroke-linecap:round;stroke-linejoin:round;stroke-miterlimit:10;" d="M376.89,329.453
			c0,0-9.191,1.634-12.868,0.817"/>
		<path style="fill:none;stroke:#314E52;stroke-linecap:round;stroke-linejoin:round;stroke-miterlimit:10;" d="M336.856,321.078
			c0,0-1.634-8.17-2.042-15.728"/>
		<path style="fill:#2C314B;" d="M372.183,255.239c0,0-2.121,1.414-0.884,3.536c1.237,2.121,1.591,2.475,0.707,4.42
			c-0.884,1.945-3.359,3.182-3.359,3.182s0.53,3.889-0.53,4.596c-1.061,0.707-2.298-1.061-3.536-1.945
			c-1.238-0.884-4.42,1.768-4.243,4.42c0.177,2.652,1.945,5.127,1.945,5.127s-0.177,3.713-3.712,4.95
			c-3.536,1.237-6.541,0.707-10.254-5.304c-3.712-6.011-8.839-14.143-6.541-18.209c2.298-4.066,11.845-10.43,11.845-10.43
			s1.061-4.773,4.773-6.364c3.712-1.591,7.248,2.652,9.37,2.828c2.121,0.177,3.889-2.828,6.011-1.768
			c2.121,1.061,4.243,3.005,3.182,6.895S372.183,255.239,372.183,255.239z"/>
	</g>
</g>
</svg>
