<?xml version="1.0" encoding="utf-8"?>
<!-- Generator: Adobe Illustrator 27.5.0, SVG Export Plug-In . SVG Version: 6.00 Build 0)  -->
<svg version="1.1" xmlns="http://www.w3.org/2000/svg" xmlns:xlink="http://www.w3.org/1999/xlink" x="0px" y="0px"
	 viewBox="0 0 800 500" style="enable-background:new 0 0 800 500;" xml:space="preserve">
<g id="BACKGROUND">
	<rect style="fill:#FFFFFF;" width="800" height="500"/>
</g>
<g id="OBJECTS">
	<g>
		<g>
			<path style="fill:#ECF5E9;" d="M115.859,434.216c-14.737-10.96-20.629-23.429-21.027-41.79
				c-0.398-18.361,12.263-37.282,30.349-40.473c-1.444-21.685-2.55-43.647,1.528-64.994c4.078-21.346,13.875-42.311,30.833-55.903
				c16.958-13.592,41.788-18.386,61.046-8.316c2.803,1.466,6.236,3.221,8.89,1.5c1.453-0.941,2.151-2.668,2.776-4.282
				c7.518-19.405,16.86-38.344,30.167-54.344c13.307-16,30.874-28.976,51.016-34.211c19.231-4.999,39.663-2.748,58.963,1.978
				c13.969,3.421,28.08,8.382,38.588,18.201c12.231,11.43,18.133,28.082,21.563,44.467c3.955,18.896,1.383,37.46,3.777,56.114
				c2.122,16.528,14.529,10.296,27.709,5.69c20.051-7.006,44.073-1.423,58.76,13.658c14.688,15.081,19.23,38.827,11.11,58.084
				c17.814-17.326,46.871-22.424,69.729-12.235c22.857,10.189,37.992,34.988,36.318,59.509c18.091-13.665,45.027-14.838,64.288-2.8
				c19.261,12.038,29.497,36.443,24.43,58.248"/>
		</g>
		<g>
			<circle style="fill:#FFFFFF;" cx="378.166" cy="223.318" r="2.337"/>
			<path style="fill:#FFFFFF;" d="M346.853,272.391c0-2.581-2.092-4.674-4.674-4.674c-2.581,0-4.674,2.092-4.674,4.674
				c0,2.581,2.092,4.674,4.674,4.674C344.761,277.065,346.853,274.973,346.853,272.391z"/>
			<path style="fill:#FFFFFF;" d="M351.994,326.138c0-1.033-0.837-1.87-1.869-1.87c-1.033,0-1.87,0.837-1.87,1.87
				c0,1.032,0.837,1.869,1.87,1.869C351.157,328.008,351.994,327.171,351.994,326.138z"/>
			<path style="fill:#FFFFFF;" d="M416.023,307.911c0-3.355-2.72-6.076-6.076-6.076c-3.356,0-6.076,2.72-6.076,6.076
				c0,3.356,2.72,6.076,6.076,6.076C413.303,313.987,416.023,311.267,416.023,307.911z"/>
			<circle style="fill:#FFFFFF;" cx="424.903" cy="264.914" r="0.935"/>
			<circle style="fill:#FFFFFF;" cx="343.114" cy="162.094" r="5.141"/>
			<path style="fill:#FFFFFF;" d="M496.877,290.151c0-2.839-2.302-5.141-5.141-5.141c-2.839,0-5.141,2.302-5.141,5.141
				c0,2.839,2.302,5.141,5.141,5.141C494.575,295.292,496.877,292.991,496.877,290.151z"/>
		</g>
		<g>
			<circle style="fill:none;stroke:#ECF5E9;stroke-width:1.0541;stroke-miterlimit:10;" cx="297.313" cy="63.947" r="14.213"/>
			<circle style="fill:#ECF5E9;" cx="482.856" cy="234.418" r="3.155"/>
			<path style="fill:#ECF5E9;" d="M423.453,116.024c0-2.665-2.16-4.825-4.825-4.825c-2.665,0-4.825,2.16-4.825,4.825
				c0,2.665,2.16,4.825,4.825,4.825C421.293,120.849,423.453,118.689,423.453,116.024z"/>
			<path style="fill:#ECF5E9;" d="M301.471,96.862c0-2.665-2.16-4.825-4.825-4.825c-2.665,0-4.825,2.16-4.825,4.825
				c0,2.665,2.16,4.825,4.825,4.825C299.311,101.687,301.471,99.527,301.471,96.862z"/>
			<circle style="fill:none;stroke:#ECF5E9;stroke-width:1.0541;stroke-miterlimit:10;" cx="186.314" cy="191.304" r="8.413"/>
			<path style="fill:#ECF5E9;" d="M103.24,321.698c0-2.904-2.354-5.258-5.258-5.258c-2.904,0-5.258,2.354-5.258,5.258
				c0,2.904,2.354,5.258,5.258,5.258C100.886,326.956,103.24,324.602,103.24,321.698z"/>
			<path style="fill:#ECF5E9;" d="M83.26,415.288c0-2.323-1.883-4.206-4.206-4.206c-2.323,0-4.206,1.883-4.206,4.206
				c0,2.323,1.883,4.206,4.206,4.206C81.377,419.494,83.26,417.611,83.26,415.288z"/>
			
				<ellipse transform="matrix(0.9732 -0.2298 0.2298 0.9732 -63.0192 30.6441)" style="fill:none;stroke:#ECF5E9;stroke-width:1.0541;stroke-miterlimit:10;" cx="100.085" cy="285.945" rx="8.413" ry="8.413"/>
			<circle style="fill:none;stroke:#ECF5E9;stroke-width:1.0541;stroke-miterlimit:10;" cx="500.732" cy="209.18" r="9.464"/>
			<circle style="fill:#ECF5E9;" cx="672.138" cy="343.781" r="6.309"/>
			
				<ellipse transform="matrix(0.7071 -0.7071 0.7071 0.7071 -40.7562 595.4777)" style="fill:none;stroke:#ECF5E9;stroke-width:1.0541;stroke-miterlimit:10;" cx="698.427" cy="346.936" rx="11.567" ry="11.567"/>
		</g>
		<g>
			<g>
				<g>
					<path style="fill:#FFC580;" d="M513.351,244.591c4.07,0,4.076-6.324,0-6.324C509.282,238.266,509.275,244.591,513.351,244.591
						L513.351,244.591z"/>
				</g>
			</g>
			<g>
				<g>
					<path style="fill:#FFC580;" d="M665.828,312.943c4.069,0,4.076-6.324,0-6.324C661.759,306.618,661.752,312.943,665.828,312.943
						L665.828,312.943z"/>
				</g>
			</g>
			<g>
				<g>
					<path style="fill:#FFC580;" d="M116.91,256.158c4.069,0,4.076-6.325,0-6.325C112.841,249.834,112.834,256.158,116.91,256.158
						L116.91,256.158z"/>
				</g>
			</g>
			<g>
				<g>
					<path style="fill:#FFC580;" d="M62.229,367.102c2.481,0,4.858-2.182,4.743-4.743c-0.115-2.57-2.084-4.743-4.743-4.743
						c-2.481,0-4.858,2.182-4.743,4.743C57.601,364.929,59.57,367.102,62.229,367.102L62.229,367.102z"/>
				</g>
			</g>
			<g>
				<g>
					<path style="fill:#FFC580;" d="M659.519,415.474c2.481,0,4.858-2.182,4.743-4.743c-0.115-2.57-2.084-4.743-4.743-4.743
						c-2.481,0-4.858,2.182-4.743,4.743C654.891,413.301,656.86,415.474,659.519,415.474L659.519,415.474z"/>
				</g>
			</g>
			<g>
				<g>
					<path style="fill:#FFC580;" d="M749.954,337.658c2.481,0,4.858-2.182,4.743-4.743c-0.115-2.57-2.084-4.743-4.743-4.743
						c-2.481,0-4.858,2.182-4.743,4.743C745.326,335.485,747.295,337.658,749.954,337.658L749.954,337.658z"/>
				</g>
			</g>
		</g>
	</g>
	<g>
		<g>
			<g>
				<g>
					<path style="fill:#FFC580;" d="M272.202,228.138c0,0,15.471-8.191,36.099,35.189c20.628,43.38,54.301,145.914,54.301,145.914
						l-61.581-1.213C301.021,408.029,278.876,239.362,272.202,228.138z"/>
					<g>
						<path style="fill:#FFC580;" d="M202.919,216.574c0,0-48.604,15.492-54.735,63.15s21.796,169.917,21.796,169.917l157.301,0.04
							l-36.186-184.031c-2.832-12.162-4.344-29.637-15.416-36.61l-18.696-11.309l-37.014-9.507L202.919,216.574z"/>
						<path style="fill:#EDB15E;" d="M311.652,417.991c-14.102-28.204-125.43-182.324-123.498-194.539
							c-14.838,8.543-36.056,25.843-39.97,56.272c-6.132,47.658,21.796,169.917,21.796,169.917l156.724-0.249
							C328.095,448.001,312.348,419.382,311.652,417.991z"/>
					</g>
					<g>
						<path style="fill:#FFC580;" d="M197.923,223.398c-11.006-6.977-44.94,12.628-54.041,57.525
							c-9.235,48.137,7.091,143.791,22.829,149.555c15.737,5.764,101.641-10.921,101.641-10.921s-0.522-18.259,1.565-31.302
							l-58.569-13.595C211.348,374.659,205.748,309.478,197.923,223.398z"/>
					</g>
				</g>
				<g>
					<g>
						<rect x="210.859" y="420.949" style="fill:#010A0F;" width="88.496" height="10.378"/>
						<polygon style="fill:#8FCFB1;" points="210.859,420.949 268.684,420.949 264.134,431.327 210.859,431.327 						"/>
						<polygon style="fill:#8FCFB1;" points="409.975,431.327 270.497,431.327 304.164,335.136 443.642,335.136 						"/>
						<path style="fill:#010A0F;" d="M365.275,385.935c0-4.836-3.921-8.757-8.757-8.757c-4.837,0-8.757,3.921-8.757,8.757
							c0,4.836,3.92,8.757,8.757,8.757C361.354,394.692,365.275,390.771,365.275,385.935z"/>
					</g>
				</g>
				<g>
					<g>
						<path style="fill:#DEA3A3;" d="M230.283,182.672l-13.321,27.713l15.125,20.442c12.531,7.914,22.516,5.118,23.223-6.908v0
							l-1.607-13.86l-16.778-30.386c0,0-4.701,1.276-5.511,2.061C230.603,182.518,230.283,182.672,230.283,182.672z"/>
						<path style="fill:#D06765;" d="M236.924,179.673l16.778,30.386c0,0-3.646,8.881-8.8,6.09
							c-4.054-2.195-10.624-12.285-8.995-23.445"/>
					</g>
					<g>
						<path style="fill:#0E1D2E;" d="M231.112,167.678c0,0,3.863,1.708,5.332,6.523l19.607-25.859c0,0,2.611,7.601,6.049,12.849
							c3.438,5.248,15.392,7.945,18.878,7.845c3.485-0.1,7.751-14.098,7.751-14.098s8.384-1.827,7.978-6.456
							c-0.406-4.629-4.42-4.377-4.42-4.377s12.2-8.259,12.504-14.494c0.865-17.723-59.589,3.155-59.589,3.155
							s-14.371-11.567-12.716,9.283c0,0-7.159,4.363-2.939,10.35C229.546,152.399,225.58,162.492,231.112,167.678"/>
						<path style="fill:#DEA3A3;" d="M290.015,153.549c-6.39,10.324-9.939,6.711-11.678,2.706c-1.187-0.827-2.367-1.999-3.532-3.242
							c-0.359,0.077-0.765,0.146-1.26,0.253c-1.713,0.369-3.595-0.032-4.953-1.14c-0.858-0.7-1.486-1.643-1.996-2.626
							c-0.439-0.847-0.805-1.76-0.826-2.714c-0.008-0.364,0.111-0.816,0.306-1.303c-0.057-0.029-0.115-0.058-0.173-0.086
							c-3.452,3.084-7.066,2.044-9.242,0.877c-1.456,0.989-3.01,2.433-4.664,4.488c-3.809,4.734-11.261,16.173-14.594,20.038
							c-0.566,0.656-1.607,0.536-1.993-0.235c-1.313-2.622-4.348-6.659-8.485,0.45c-5.618,9.654,6.062,11.809,6.446,13.516
							c0.78,3.459,3.126,14.985,10.351,21.708c4.403,4.097,17.827,11.811,25.407,8.504
							C276.708,211.435,272.104,211.377,290.015,153.549z"/>
						<g>
							<path style="fill:#FFFFFF;" d="M275.219,194.479c0,0-4.02,0.447-12.12-3.306c0,0,2.38,7.568,6.09,7.589
								C272.9,198.783,275.219,194.479,275.219,194.479z"/>
							<path style="fill:#D06765;" d="M228.856,170.834l4.303,6.375C233.159,177.209,234.686,166.041,228.856,170.834z"/>
							<path style="fill:#132B3B;" d="M272.682,179.96c-0.443,1.245-1.307,2.074-1.929,1.852c-0.623-0.222-0.768-1.41-0.324-2.655
								c0.444-1.245,1.307-2.074,1.93-1.852C272.98,177.527,273.125,178.715,272.682,179.96z"/>
							<path style="fill:#132B3B;" d="M280.409,181.469c-0.443,1.245-1.307,2.074-1.93,1.852c-0.622-0.221-0.767-1.41-0.324-2.655
								c0.443-1.244,1.307-2.074,1.929-1.852C280.707,179.036,280.852,180.225,280.409,181.469z"/>
							<path style="fill:#132B3B;" d="M266.665,166.872c-2.076,0.544,2.373-3.678,4.847-3.444c2.474,0.235,4.315,2.157,4.113,4.294
								C275.624,167.721,271.651,165.564,266.665,166.872z"/>
							<path style="fill:#132B3B;" d="M284.018,172.436c-2.284-1.157-4.152-1.355-4.152-1.355c0.973-1.745,3.2-2.416,5.296-1.728"/>
							<path style="fill:#D06765;" d="M276.981,180.176l0.034,10.77c0,0.175-0.16,0.308-0.32,0.264l-4.161-1.144
								c-0.145-0.039-0.217-0.205-0.155-0.351l4.127-9.627C276.618,179.829,276.98,179.896,276.981,180.176z"/>
						</g>
					</g>
				</g>
			</g>
		</g>
	</g>
	<g>
		<g>
			<g>
				<path style="fill:#FFFFFF;" d="M386.857,235.197c-12.388,2.324-22.909,12.574-25.555,24.897
					c3.586-3.028,8.052-5.003,12.705-5.619c-13.819,17.675-20.247,40.951-17.459,63.213c19.434-5.733,35.758-21.122,42.625-40.185
					c-0.312,5.233-0.624,10.466-0.936,15.699c7.685-4.34,13.656-11.628,16.4-20.017c1.01-3.087,1.596-6.405,0.946-9.587
					c-0.616-3.018-2.585-10.15-4.304-12.706c-5.745-8.543-13.122-12.709-23.357-13.81"/>
			</g>
		</g>
		<g>
			<g>
				<path style="fill:#2E5871;" d="M424.15,237.307l0.023-0.032l6.162-8.61l-25.07-17.941l-6.162,8.61l0.023-0.032
					c-4.81-0.219-9.067,2.366-12.078,6.573l0,0l34.822,24.921l0,0C424.881,246.589,425.909,241.789,424.15,237.307z"/>
				<path style="fill:#121212;" d="M411.96,218.64c3.883,6.171,12.213,18.635,12.213,18.635l6.162-8.61l-21.968-15.722
					C409.523,214.867,410.767,216.745,411.96,218.64z"/>
				<g>
					<path style="fill:#D94E97;" d="M463.675,203.83l1.541,17.876c0.375,4.347-1.107,8.65-4.078,11.845l-16.917,18.19
						c-1.189,1.279-3.206,1.305-4.427,0.057l0,0c-1.082-1.105-1.17-2.844-0.204-4.052l6.953-8.696
						c4.271-5.342,3.994-13.004-0.651-18.024l0,0L463.675,203.83z"/>
					<path style="fill:#D94E97;" d="M418.604,171.575l-17.417,4.309c-4.236,1.048-7.83,3.838-9.896,7.682l-11.76,21.881
						c-0.827,1.538-0.201,3.455,1.374,4.209l0,0c1.395,0.668,3.069,0.19,3.901-1.114l5.988-9.386
						c3.679-5.766,11.02-7.976,17.27-5.199l0,0L418.604,171.575z"/>
				</g>
				<g>
					<path style="fill:#B0257A;" d="M464.66,215.257l-0.985-11.427l-17.784,17.195l0,0c0.914,0.988,1.652,2.08,2.227,3.235
						C453.574,221.154,459.074,218.126,464.66,215.257z"/>
					<path style="fill:#B0257A;" d="M404.45,180.63c0.158,4.133,0.39,8.263,0.606,12.394c1.017,0.196,2.027,0.495,3.01,0.931l0,0
						l10.538-22.38l-14.065,3.479C404.547,177.051,404.391,179.062,404.45,180.63z"/>
				</g>
				<path style="fill:#F2F2F2;" d="M402.321,204.173c0,0,4.918-19.238,16.565-34.925c11.647-15.686,32.877-53.595,60.38-68.47
					c16.408-8.874,24.586-11.489,28.514-12.154c1.777-0.301,3.401,1.05,3.437,2.853c0.144,7.201,0.346,25.998-1.256,32.954
					c-2,8.683-4.765,26.091-46.287,79.399c0,0-15.675,19.547-25.959,25.673L402.321,204.173z"/>
				<path style="fill:#D94E97;" d="M506.037,120.376c1.34,1.319,2.645,2.677,3.921,4.067c0.001-0.004,0.002-0.008,0.003-0.012
					c1.602-6.956,1.4-25.753,1.256-32.954c-0.036-1.802-1.66-3.154-3.437-2.853c-3.928,0.665-12.106,3.28-28.514,12.154
					c-0.352,0.19-0.698,0.4-1.047,0.597C488.72,105.53,498.022,112.486,506.037,120.376z"/>
				<path style="fill:#B0257A;" d="M495.926,97.51c5.132-1.598,10.176-3.448,15.31-5.041c-0.006-0.349-0.013-0.685-0.019-0.993
					c-0.036-1.802-1.66-3.154-3.437-2.853c-3.928,0.665-12.106,3.28-28.514,12.154c-0.352,0.19-0.698,0.4-1.047,0.597
					c1.482,0.587,2.938,1.234,4.371,1.927C486.637,100.617,491.278,98.957,495.926,97.51z"/>
				<path style="fill:#2E5871;" d="M433.208,233.211l-32.667-23.378c-1.469-1.051-1.807-3.093-0.756-4.562l0,0
					c1.051-1.468,3.093-1.807,4.562-0.756l32.667,23.378c1.469,1.051,1.807,3.093,0.756,4.562l0,0
					C436.719,233.924,434.677,234.262,433.208,233.211z"/>
				<path style="fill:#8FCFB1;" d="M485.434,124.119c-7.762-5.555-18.557-3.766-24.112,3.996
					c-5.555,7.762-3.766,18.557,3.996,24.112s18.557,3.766,24.112-3.996C494.985,140.469,493.196,129.673,485.434,124.119z
					 M468.247,148.133c-5.501-3.937-6.769-11.588-2.832-17.089c3.937-5.501,11.588-6.769,17.089-2.832
					c5.501,3.937,6.769,11.588,2.832,17.089C481.399,150.802,473.749,152.07,468.247,148.133z"/>
				<path style="opacity:0.37;fill:#8FCFB1;" d="M485.336,145.301c3.937-5.501,2.669-13.152-2.832-17.089
					c-5.501-3.937-13.152-2.669-17.089,2.832c-3.937,5.501-2.669,13.152,2.832,17.089
					C473.749,152.07,481.399,150.802,485.336,145.301z"/>
				<g style="opacity:0.6;">
					<path style="fill:#FAF9F4;" d="M464.953,131.764c-3.346,5.432-1.973,12.6,3.294,16.37c0.823,0.589,1.697,1.047,2.596,1.406
						C468.799,143.642,466.838,137.716,464.953,131.764z"/>
					<path style="fill:#FAF9F4;" d="M478.402,150.036c2.701-0.688,5.185-2.291,6.935-4.735c3.937-5.501,2.669-13.152-2.832-17.089
						c-3.562-2.549-8.021-2.904-11.793-1.352C473.137,134.631,475.692,142.361,478.402,150.036z"/>
				</g>
				<g>
					<g>
						<path style="fill:#FFFFFF;" d="M484.888,126.887c0.375-0.524,0.254-1.254-0.27-1.629c-0.525-0.375-1.254-0.254-1.629,0.27
							c-0.375,0.524-0.254,1.254,0.27,1.629C483.783,127.533,484.513,127.412,484.888,126.887z"/>
						<path style="fill:#FFFFFF;" d="M467.762,150.818c0.375-0.525,0.255-1.254-0.27-1.629c-0.525-0.375-1.254-0.254-1.629,0.27
							c-0.375,0.524-0.254,1.254,0.27,1.629C466.658,151.463,467.387,151.342,467.762,150.818z"/>
					</g>
					<g>
						<path style="fill:#FFFFFF;" d="M490.082,136.919c0.636-0.105,1.066-0.707,0.961-1.343c-0.105-0.636-0.707-1.066-1.343-0.961
							c-0.636,0.105-1.067,0.707-0.961,1.343C488.845,136.594,489.446,137.025,490.082,136.919z"/>
						<path style="fill:#FFFFFF;" d="M461.051,141.73c0.636-0.105,1.066-0.707,0.961-1.343c-0.105-0.636-0.707-1.067-1.343-0.961
							c-0.636,0.105-1.067,0.707-0.961,1.343C459.814,141.406,460.415,141.836,461.051,141.73z"/>
					</g>
					<g>
						<path style="fill:#FFFFFF;" d="M486.661,147.685c0.525,0.375,1.254,0.254,1.629-0.27c0.375-0.525,0.254-1.254-0.27-1.629
							c-0.524-0.375-1.254-0.255-1.629,0.27C486.016,146.581,486.137,147.31,486.661,147.685z"/>
						<path style="fill:#FFFFFF;" d="M462.731,130.559c0.525,0.375,1.254,0.254,1.629-0.27c0.375-0.525,0.254-1.254-0.27-1.629
							c-0.524-0.375-1.254-0.254-1.629,0.27C462.086,129.455,462.207,130.184,462.731,130.559z"/>
					</g>
					<g>
						<path style="fill:#FFFFFF;" d="M476.629,152.879c0.105,0.636,0.707,1.066,1.343,0.961c0.636-0.105,1.066-0.707,0.961-1.343
							c-0.105-0.636-0.707-1.066-1.343-0.961C476.954,151.642,476.524,152.243,476.629,152.879z"/>
						<path style="fill:#FFFFFF;" d="M471.818,123.848c0.105,0.636,0.707,1.067,1.343,0.961c0.636-0.105,1.066-0.707,0.961-1.343
							c-0.105-0.636-0.707-1.066-1.343-0.961C472.143,122.611,471.713,123.212,471.818,123.848z"/>
					</g>
				</g>
				<path style="fill:none;stroke:#2E5871;stroke-width:0.3512;stroke-miterlimit:10;stroke-dasharray:2.8092;" d="M438.178,141.994
					c0,0,29.259,8.877,45.853,32.241"/>
				<path style="fill:none;stroke:#2E5871;stroke-width:0.3512;stroke-miterlimit:10;stroke-dasharray:2.8092;" d="M465.576,109.792
					c7.828,2.98,27.178,11.622,40.336,28.294"/>
				<path style="fill:none;stroke:#2E5871;stroke-width:0.3512;stroke-miterlimit:10;stroke-dasharray:2.8092;" d="M434.1,147.692
					c0,0,29.259,8.877,45.853,32.241"/>
				<path style="fill:none;stroke:#2E5871;stroke-width:0.3512;stroke-miterlimit:10;stroke-dasharray:2.8092;" d="M491.568,163.688
					c0,0-10.145-5.574-20.28,6.585c-8.273,9.925-9.875,23.427-4.031,29.432"/>
				<path style="fill:none;stroke:#2E5871;stroke-width:0.3512;stroke-miterlimit:10;stroke-dasharray:2.8092;" d="M446.447,131.01
					c0,0,8.46,7.9,0.069,21.322c-6.85,10.956-19.177,16.69-26.706,13.01"/>
				<g>
					<g>
						<path style="fill:#2E5871;" d="M470.596,193.258c0.698-0.963,0.482-2.31-0.481-3.007c-0.963-0.698-2.31-0.482-3.007,0.481
							c-0.698,0.963-0.482,2.31,0.481,3.007C468.552,194.437,469.898,194.222,470.596,193.258z"/>
						<path style="fill:#2E5871;" d="M487.989,168.629c0.698-0.963,0.482-2.31-0.481-3.007c-0.963-0.698-2.31-0.482-3.007,0.481
							c-0.698,0.963-0.482,2.31,0.481,3.007C485.945,169.808,487.292,169.593,487.989,168.629z"/>
					</g>
					<g>
						<path style="fill:#2E5871;" d="M429.607,163.574c0.698-0.963,0.482-2.31-0.481-3.007c-0.963-0.698-2.31-0.482-3.007,0.481
							c-0.698,0.963-0.482,2.31,0.481,3.007C427.563,164.753,428.91,164.537,429.607,163.574z"/>
						<path style="fill:#2E5871;" d="M447.001,138.945c0.698-0.963,0.482-2.31-0.481-3.007c-0.963-0.698-2.31-0.482-3.007,0.481
							c-0.698,0.963-0.482,2.31,0.481,3.007C444.957,140.124,446.303,139.908,447.001,138.945z"/>
					</g>
				</g>
			</g>
		</g>
		<g>
			<g>
				<path style="fill:#D94E97;" d="M391.893,236.643c-7.047,1.322-13.031,7.153-14.536,14.162c2.04-1.723,4.58-2.846,7.227-3.196
					c-7.861,10.054-11.517,23.294-9.932,35.957c11.055-3.261,20.34-12.015,24.247-22.858c-0.178,2.977-0.355,5.953-0.532,8.93
					c4.371-2.469,7.768-6.614,9.328-11.386c0.574-1.756,0.908-3.644,0.538-5.454c-0.351-1.717-1.47-5.773-2.448-7.227
					c-3.268-4.859-7.464-7.23-13.286-7.855"/>
			</g>
		</g>
	</g>
	<g>
		<g>
			<g>
				<circle style="fill:#FFC580;" cx="551.208" cy="219.696" r="13.67"/>
				<g>
					<g>
						<g>
							<path style="fill:#010A0F;stroke:#010A0F;stroke-width:1.2374;stroke-miterlimit:10;" d="M644.331,238.74
								c-1.238-15.859-18.214-21.043-9.606-29.971c8.607-8.928-1.584-15.481-8.754-18.669c-7.169-3.188-1.816-3.201-2.037-15.286
								c-0.221-12.085-9.968-13.743-9.968-13.743c-10.575-4.305-39.623-11.362-51.774,4.294c-2.688,3.463,1.422,14.803,2.893,18.881
								c0,0,4.844,2.274-1.945,6.902c-6.79,4.628-2.836,22.506-4.779,25.492c-10.612,16.314,13.549,16.011,29.442,19.727
								L644.331,238.74z"/>
						</g>
						<g>
							<g>
								<path style="fill:#010A0F;" d="M622.779,178.493c-1.136,1.821-0.956,4.025,0.022,5.88c1.065,2.02,3.07,3.301,5.066,4.27
									c4.573,2.219,9.736,4.205,12.159,9.046c1.15,2.296,1.549,5.145,0.439,7.535c-0.894,1.923-2.503,3.396-3.619,5.179
									c-1.079,1.725-1.592,3.745-0.898,5.719c0.73,2.076,2.426,3.599,4.045,4.999c4.243,3.668,7.914,8.269,8.244,14.095
									c0.07,1.234,1.998,1.242,1.928,0c-0.266-4.699-2.464-8.93-5.578-12.387c-2.565-2.847-8.831-6.11-6.494-10.722
									c0.98-1.934,2.64-3.421,3.714-5.298c1.077-1.883,1.424-4.04,1.127-6.178c-0.666-4.788-4.143-8.353-8.148-10.73
									c-2.377-1.41-5.022-2.286-7.395-3.689c-2.225-1.316-4.605-4.086-2.946-6.745
									C625.102,178.411,623.435,177.442,622.779,178.493L622.779,178.493z"/>
							</g>
						</g>
						<g>
							<path style="fill:#010A0F;" d="M618.602,166.673c-1.611-2.689-0.657-6.132,0.489-9.049c0.793-2.016,1.716-4.081,3.384-5.463
								c2.402-1.991,5.972-2.13,8.857-0.945c2.886,1.186,5.169,3.502,7,6.028c2.761,3.809,4.703,8.366,4.646,13.07
								c-0.056,4.704-2.364,9.515-6.458,11.83c-4.095,2.315-9.915,1.538-12.711-2.245"/>
						</g>
						<path style="fill:#010A0F;stroke:#010A0F;stroke-width:1.2374;stroke-miterlimit:10;" d="M563.885,261.883l-13.233-73.36
							c-0.616-4.945,8.331-16.785,12.667-19.269c11.874-6.803,18.386-12.685,31.785-9.902c0,0,31.823-7.74,32.151,22.493
							c0.254,23.396-14.073,47.338-42.86,46.698"/>
						<path style="fill:#DEA3A3;" d="M590.26,201.045c1.545,3.161,4.922,4.878,8.408,4.405c0.055-0.008,0.1-0.012,0.133-0.012
							c2.755-0.012,9.111-0.599,10.009,6.606c0.908,7.284-6.033,11.383-10.209,11.611c-1.206,0.066-3.987,0.312-4.804,1.201
							c-2.512,2.732,0.145,23.955-1.788,31.396c-4.269,16.437,4.806,8.692,4.806,8.692s-43.054,21.167-42.654-0.052
							c0,0,3.403-39.036,3.203-39.236c-3.361-3.361-16.415-4.804-8.207-32.63c7.603-25.776,21.547-25.943,26.354-25.092
							C567.313,182.859,582.994,186.183,590.26,201.045z"/>
						<g>
							<path style="fill:#D06765;" d="M605.68,214.133c0,0-4.328-9.132-9.822,3.105"/>
							<path style="fill:#DE8986;" d="M573.706,204.271c-3.572-0.08-6.533,2.75-6.613,6.322c-0.08,3.572,2.75,6.533,6.321,6.613
								c3.572,0.081,6.533-2.75,6.613-6.322C580.108,207.312,577.278,204.351,573.706,204.271z"/>
							<path style="fill:#DE8986;" d="M546.754,206.684c2.961-0.537,5.236-3.094,5.307-6.219c0.054-2.409-1.215-4.54-3.144-5.697
								C548.917,194.768,546.154,201.925,546.754,206.684z"/>
							<path style="fill:#FFFFFF;" d="M552.197,203.351l9.861,4.912c0,0-4.824,3.51-7.431,1.589
								C552.021,207.932,552.197,203.351,552.197,203.351z"/>
							<path style="fill:#D06765;" d="M559.747,196.191l-1.56,7.039l-3.427-1.514c-0.632-0.279-0.735-1.133-0.187-1.555
								L559.747,196.191z"/>
							<path d="M572.401,193.551c0.855,1.195,0.36-2.976-1.046-3.936c-1.406-0.959-3.217-0.753-4.046,0.462
								C567.309,190.077,570.346,190.679,572.401,193.551z"/>
							<path d="M553.802,186.512c-1.415,0.397,1.581-2.547,3.278-2.416c1.697,0.131,2.981,1.426,2.867,2.891
								C559.948,186.988,557.202,185.558,553.802,186.512z"/>
							<path d="M566.713,198.729c-0.476,1.179-1.325,1.947-1.897,1.717c-0.571-0.231-0.649-1.373-0.173-2.552
								c0.476-1.179,1.325-1.948,1.897-1.717C567.112,196.408,567.189,197.55,566.713,198.729z"/>
							<path d="M557.579,194.379c-0.455,1.126-1.266,1.86-1.811,1.64c-0.546-0.221-0.62-1.312-0.166-2.438
								c0.455-1.126,1.265-1.86,1.811-1.639C557.959,192.162,558.033,193.254,557.579,194.379z"/>
							<path style="fill:#D06765;" d="M557.363,225.657c0,0,12.291,2.348,18.497,1.948
								C582.066,227.205,555.86,244.422,557.363,225.657z"/>
						</g>
					</g>
					<g>
						<path style="fill:#2E5871;" d="M644.714,442.265c-0.376-1.344-0.688-2.498-0.929-3.438
							c-7.005-27.401-13.449-43.185-25.639-64.737c-24.503-0.73-53.993-5.085-78.158-1.753
							c-10.412,17.208-17.412,41.49-21.892,69.927H644.714z"/>
						<path style="fill:none;stroke:#FFFFFF;stroke-width:0.942;stroke-miterlimit:10;" d="M546.001,374.886
							c-8.65,20.25-11.812,41.331-17.274,62.61"/>
						<path style="fill:none;stroke:#FFFFFF;stroke-width:0.942;stroke-miterlimit:10;" d="M618.753,437.371
							c-3.401-20.1-8.671-41.182-13.271-61.171"/>
						<path style="opacity:0.21;" d="M639.48,442.265c-0.977-18.007-4.387-47.691-15.924-69.351l-85.442,3.286l82.03,66.065H639.48z
							"/>
					</g>
					<g>
						<path style="fill:#DEA3A3;" d="M444.59,314.589c0,0,65.033,90.185,80.274,79.433c0,0,17.481-12.341,8.691-62.725
							c-0.017-4.893-0.042-8.286,0.132-9.053c0,0,3.779-49.744,11.955-60.046c0.897-1.131,3.607-3.233,3.247-3.324
							c-24.972-6.243-34.527,56.538-41.412,85.581c-0.285,1.203-47.954-45.22-47.954-45.22s-24.97-33.014-26.711-31.128
							c-2.524,2.734,7.151,17.457,7.151,17.457s-0.631,1.682-2.524,2.524c-1.893,0.841-2.945,2.103-3.576,4.627
							c-0.631,2.524-3.155,3.996-3.575,5.468C429.868,299.656,439.262,310.733,444.59,314.589z"/>
						<path style="fill:#DEA3A3;" d="M458.682,299.025c0,0-5.048-14.302-7.151-13.882c-2.103,0.421-11.358,4.417-11.147,7.992
							c0.211,3.576,8.203,0.631,8.203,0.631s-1.472,7.992,2.524,9.044C455.107,303.862,458.682,299.025,458.682,299.025z"/>
						<g>
							<path style="fill:#DE8986;" d="M446.273,293.136c0,0,0.211,3.576-2.734,4.206c0,0-0.631,3.786-4.417,2.945
								c0,0,1.051,1.682-1.262,2.103C437.86,302.39,447.745,313.117,446.273,293.136z"/>
							<g>
								<path style="fill:#D06765;" d="M448.193,286.248c-0.86,0.644-1.76,1.193-2.635,1.79l-2.696,1.63
									c-0.446,0.276-0.897,0.541-1.361,0.781c-0.477,0.25-0.899,0.487-1.236,0.771c-0.344,0.274-0.601,0.606-0.642,0.829
									c-0.037,0.217,0.005,0.371,0.251,0.61c0.222,0.245,0.638,0.492,1.053,0.688c0.419,0.195,0.869,0.342,1.339,0.452
									c0.942,0.231,1.951,0.257,2.981,0.351l0.806,0.048c0.307,0.039,0.695,0.054,1.101,0.412c0.192,0.181,0.313,0.459,0.326,0.69
									c0.017,0.229-0.023,0.404-0.057,0.547l-0.205,0.77c-0.326,1.01-0.599,2.029-0.973,3.03l-0.093-0.018l0.575-3.105
									l0.143-0.776c0.05-0.25,0.054-0.52-0.132-0.677c-0.391-0.298-0.977-0.162-1.489-0.184c-1.054,0.007-2.117-0.031-3.159-0.242
									c-1.032-0.223-2.073-0.577-2.887-1.315c-0.401-0.37-0.626-0.981-0.455-1.526c0.162-0.543,0.569-0.943,0.987-1.268
									c0.423-0.331,0.898-0.575,1.369-0.807l1.41-0.714l5.638-2.854L448.193,286.248z"/>
							</g>
							<g>
								<path style="fill:#D06765;" d="M439.788,285.111c1.012,0.117,1.661,0.565,2.219,1.097c0.522,0.564,0.956,1.21,1.029,2.184
									l-0.07,0.064l-1.658-1.609l-1.589-1.673L439.788,285.111z"/>
							</g>
							<g>
								<path style="fill:#D06765;" d="M435.518,290.423c1.917,1.253,3.56,2.608,5.277,3.91c0.416,0.341,0.846,0.663,1.274,0.99
									l1.252,0.969c0.401,0.28,0.805,0.527,1.242,0.615c0.455,0.12,0.956,0.063,1.418-0.252l0.077,0.056
									c-0.339,0.472-0.931,0.688-1.489,0.696c-0.572,0.011-1.116-0.199-1.605-0.461c-0.967-0.554-1.864-1.198-2.749-1.864
									c-1.741-1.367-3.342-2.91-4.769-4.598L435.518,290.423z"/>
							</g>
							<g>
								<path style="fill:#D06765;" d="M443.756,297.35c0.06,0.661-0.002,1.314-0.146,2.003c-0.191,0.659-0.565,1.381-1.267,1.861
									c-0.683,0.511-1.643,0.551-2.391,0.376c-0.768-0.187-1.402-0.56-1.98-0.956c-1.128-0.859-1.976-1.842-2.746-2.885
									c-0.378-0.528-0.752-1.054-1.107-1.594c-0.316-0.573-0.667-1.116-0.923-1.728l0.074-0.059
									c0.801,0.989,1.639,1.949,2.5,2.886c0.869,0.926,1.736,1.872,2.757,2.612c0.508,0.368,1.058,0.694,1.659,0.861
									c0.594,0.174,1.255,0.154,1.795-0.158c0.547-0.298,0.922-0.838,1.167-1.413c0.248-0.58,0.392-1.202,0.515-1.825
									L443.756,297.35z"/>
							</g>
							<g>
								<path style="fill:#D06765;" d="M439.38,299.654c0.233,0.817,0.161,1.668-0.049,2.498c-0.136,0.412-0.275,0.833-0.647,1.272
									c-0.107,0.108-0.213,0.219-0.387,0.317c-0.2,0.113-0.307,0.148-0.419,0.194c-0.233,0.094-0.477,0.146-0.718,0.17
									c-0.949,0.148-1.932-0.215-2.56-0.529c-0.324-0.174-0.722-0.314-1.121-0.637c-0.376-0.34-0.587-0.729-0.702-1.148
									l0.071-0.063c0.261,0.284,0.54,0.558,0.88,0.726c0.338,0.168,0.725,0.239,1.1,0.349c0.744,0.247,1.491,0.437,2.255,0.386
									c0.37-0.039,0.779-0.085,1.033-0.347c0.262-0.264,0.451-0.608,0.61-0.956c0.302-0.703,0.538-1.465,0.559-2.229
									L439.38,299.654z"/>
							</g>
						</g>
					</g>
					<path style="fill:#D94E97;" d="M554.874,257.896c0,0-22.158-1.286-28.607,11.894c-6.45,13.18-20.752,72.071-20.752,72.071
						L493.4,331.068l-15.424,28.043c0,0,28.94,44.164,45.206,39.116C539.447,393.18,555.062,275.864,554.874,257.896z"/>
					<path style="fill:#DE73C1;" d="M502.735,355.182c-3.883,7.096-7.891,14.104-11.953,21.073
						c9.796,11.791,23.146,24.845,32.4,21.973c14.677-4.555,28.82-100.503,31.305-132.401
						C537.736,295.857,519.262,324.986,502.735,355.182z"/>
					<g>
						<path style="fill:#D94E97;" d="M553.559,258.553c0.704,1.706-27.31,54.25-26.472,70.982
							c0.844,16.857,11.923,42.487,11.027,45.022c0,0,54.552,1.314,85.665,1.689c22.181-19.406,8.87-83.006,1.42-103.891
							c0,0-25.761-22.882-31.876-23.332C593.323,249.023,559.803,273.341,553.559,258.553z"/>
					</g>
					<g>
						<path style="fill:#DE73C1;" d="M625.199,272.355c0,0-5.532-4.908-12.068-10.219c-0.467,0.794-0.966,1.576-1.44,2.367
							c3.063,4.084,3.934,9.624,0.346,15.333c-20.044,31.897-40.427,63.576-61.169,95.017c18.016,0.41,51.172,1.13,72.911,1.392
							C645.961,356.84,632.649,293.24,625.199,272.355z"/>
					</g>
				</g>
				
					<ellipse transform="matrix(0.3336 -0.9427 0.9427 0.3336 185.3711 712.152)" style="fill:#FFC580;" cx="596.425" cy="224.954" rx="13.67" ry="13.67"/>
			</g>
		</g>
		<g>
			<g>
				<path style="fill:#8FCFB1;" d="M514.724,300.988l-11.425,110.13l63.051,5.275l5.757-58.617l3.652-1.406
					c3.192-1.229,5.306-1.15,5.694-4.548l1.96-33.68c0.859-8.28-4.078-10.45-12.357-11.309L514.724,300.988z"/>
			</g>
			<g>
				<g>
					<path style="fill:#FFFFFF;" d="M558.386,354.565c0.623-8.514-5.773-15.922-14.287-16.545
						c-8.514-0.623-15.922,5.773-16.545,14.287c-0.623,8.514,13.068,22.955,13.068,22.955S557.763,363.079,558.386,354.565z"/>
					<path style="fill:#2E5871;" d="M540.622,375.263c0,0,17.141-12.184,17.764-20.698c0.623-8.514-5.773-15.922-14.287-16.545"/>
					<g>
						<path style="fill:#2E5871;" d="M547.093,372.237l-12.433-0.91c-0.961-0.07-1.683-0.907-1.613-1.868l0,0
							c0.07-0.961,0.907-1.684,1.868-1.613l12.432,0.91c0.961,0.07,1.683,0.907,1.613,1.868l0,0
							C548.891,371.585,548.054,372.307,547.093,372.237z"/>
						<path style="fill:#2E5871;" d="M540.543,379.757L540.543,379.757c-3.982-0.292-6.974-3.756-6.683-7.739l0.091-1.243
							l14.422,1.056l-0.091,1.243C547.99,377.056,544.525,380.048,540.543,379.757z"/>
					</g>
				</g>
				<g>
					<g>
						
							<line style="fill:none;stroke:#FFFFFF;stroke-width:1.0564;stroke-linecap:round;stroke-miterlimit:10;" x1="515.167" y1="351.499" x2="522.174" y2="352.012"/>
						
							<line style="fill:none;stroke:#FFFFFF;stroke-width:1.0564;stroke-linecap:round;stroke-miterlimit:10;" x1="564.218" y1="355.09" x2="571.226" y2="355.603"/>
					</g>
					<g>
						
							<line style="fill:none;stroke:#FFFFFF;stroke-width:1.0564;stroke-linecap:round;stroke-miterlimit:10;" x1="524.828" y1="332.28" x2="529.42" y2="337.598"/>
						
							<line style="fill:none;stroke:#FFFFFF;stroke-width:1.0564;stroke-linecap:round;stroke-miterlimit:10;" x1="556.973" y1="369.504" x2="561.565" y2="374.822"/>
					</g>
					<g>
						
							<line style="fill:none;stroke:#FFFFFF;stroke-width:1.0564;stroke-linecap:round;stroke-miterlimit:10;" x1="545.248" y1="325.522" x2="544.735" y2="332.529"/>
					</g>
					<g>
						
							<line style="fill:none;stroke:#FFFFFF;stroke-width:1.0564;stroke-linecap:round;stroke-miterlimit:10;" x1="564.467" y1="335.182" x2="559.149" y2="339.775"/>
						
							<line style="fill:none;stroke:#FFFFFF;stroke-width:1.0564;stroke-linecap:round;stroke-miterlimit:10;" x1="527.243" y1="367.328" x2="521.925" y2="371.92"/>
					</g>
				</g>
			</g>
			<g>
				<path style="fill:#FFC580;" d="M482.918,313.899l27.015,107.375l61.039-16.656l-14.683-57.039l2.949-2.573
					c2.577-2.249,4.59-2.899,3.79-6.225l-9.703-32.312c-2.031-8.072-7.413-8.419-15.485-6.389L482.918,313.899z"/>
			</g>
			<g>
				<g>
					<path style="fill:#8FCFB1;" d="M538.455,344.545c-3.074-7.964-12.022-11.929-19.986-8.855
						c-7.964,3.074-11.929,12.022-8.855,19.986c3.074,7.964,21.623,15.172,21.623,15.172S541.529,352.509,538.455,344.545z"/>
					<path style="fill:#2E5871;" d="M531.237,370.848c0,0,10.292-18.339,7.219-26.303c-3.074-7.964-12.022-11.929-19.986-8.855"/>
					<g>
						<path style="fill:#2E5871;" d="M535.794,365.348l-11.63,4.489c-0.899,0.347-1.91-0.101-2.257-1l0,0
							c-0.347-0.899,0.101-1.909,1-2.257l11.63-4.488c0.899-0.347,1.909,0.101,2.257,1l0,0
							C537.141,363.99,536.694,365.001,535.794,365.348z"/>
						<path style="fill:#2E5871;" d="M533.085,374.945L533.085,374.945c-3.725,1.438-7.911-0.417-9.349-4.142l-0.449-1.163
							l13.49-5.207l0.449,1.163C538.664,369.322,536.81,373.507,533.085,374.945z"/>
					</g>
				</g>
				<g>
					<g>
						
							<line style="fill:none;stroke:#FFFFFF;stroke-width:1.0564;stroke-linecap:round;stroke-miterlimit:10;" x1="498.069" y1="360.238" x2="504.624" y2="357.708"/>
						
							<line style="fill:none;stroke:#FFFFFF;stroke-width:1.0564;stroke-linecap:round;stroke-miterlimit:10;" x1="543.953" y1="342.528" x2="550.508" y2="339.999"/>
					</g>
					<g>
						
							<line style="fill:none;stroke:#FFFFFF;stroke-width:1.0564;stroke-linecap:round;stroke-miterlimit:10;" x1="498.593" y1="338.734" x2="505.016" y2="341.58"/>
						
							<line style="fill:none;stroke:#FFFFFF;stroke-width:1.0564;stroke-linecap:round;stroke-miterlimit:10;" x1="543.56" y1="358.656" x2="549.984" y2="361.503"/>
					</g>
					<g>
						
							<line style="fill:none;stroke:#FFFFFF;stroke-width:1.0564;stroke-linecap:round;stroke-miterlimit:10;" x1="514.169" y1="323.899" x2="516.698" y2="330.454"/>
					</g>
					<g>
						
							<line style="fill:none;stroke:#FFFFFF;stroke-width:1.0564;stroke-linecap:round;stroke-miterlimit:10;" x1="535.672" y1="324.423" x2="532.826" y2="330.846"/>
						
							<line style="fill:none;stroke:#FFFFFF;stroke-width:1.0564;stroke-linecap:round;stroke-miterlimit:10;" x1="515.75" y1="369.39" x2="512.904" y2="375.814"/>
					</g>
				</g>
				<g>
					<g>
						<g>
							<path style="fill:#FFFFFF;" d="M525.259,364.967c-3.169-3.978-6.337-7.957-9.506-11.935
								c-0.391-0.491-1.076,0.203-0.689,0.689c3.169,3.978,6.337,7.957,9.506,11.935
								C524.96,366.147,525.646,365.453,525.259,364.967L525.259,364.967z"/>
						</g>
					</g>
					<g>
						<g>
							<path style="fill:#FFFFFF;" d="M515.923,353.721c0.808,0.552,1.616,1.104,2.423,1.656c0.223,0.152,0.534,0.035,0.667-0.175
								c0.774-1.226,0.512-2.921-0.645-3.815c-0.289-0.223-0.694-0.165-0.815,0.215c-0.272,0.859,0.058,1.738,0.71,2.333
								c0.558,0.51,1.554,1.117,2.325,1.147c2.077,0.081,1.259-3.416,0.764-4.448c-0.152-0.317-0.691-0.32-0.842,0
								c-0.867,1.839,0.914,3.848,2.848,3.168c2.119-0.745,2.236-3.471,0.635-4.809c-0.336-0.281-0.793-0.089-0.832,0.345
								c-0.122,1.349,0.689,2.527,1.921,3.021c0.211,0.085,0.434-0.061,0.55-0.224c0.725-1.016,0.901-2.305,0.482-3.48
								c-0.146-0.408-0.646-0.469-0.891-0.116c-1.091,1.573,1.043,3.876,2.739,3.458c0.922-0.228,1.246-1.281,1.414-2.102
								c0.175-0.856,0.172-1.824-0.569-2.414c-0.269-0.214-0.722-0.175-0.815,0.215c-0.353,1.493,0.456,2.962,1.879,3.505
								c0.587,0.224,0.841-0.718,0.259-0.94c-0.916-0.349-1.421-1.362-1.198-2.305c-0.272,0.072-0.543,0.143-0.815,0.215
								c0.464,0.369,0.427,0.93,0.318,1.466c-0.077,0.38-0.177,1.016-0.479,1.276c-0.834,0.719-2.506-0.994-1.891-1.881
								c-0.297-0.039-0.594-0.078-0.891-0.116c0.341,0.956,0.205,1.904-0.384,2.728c0.184-0.075,0.367-0.149,0.55-0.224
								c-0.849-0.34-1.285-1.197-1.206-2.081c-0.277,0.115-0.555,0.23-0.832,0.345c0.954,0.797,1.236,2.373,0.008,3.074
								c-1.065,0.608-2.536-0.406-1.959-1.632c-0.281,0-0.561,0-0.842,0c0.278,0.579,1.024,3.194-0.319,2.835
								c-0.871-0.233-2.015-1.103-1.698-2.1c-0.272,0.072-0.543,0.143-0.815,0.215c0.828,0.639,1.059,1.738,0.493,2.633
								c0.222-0.058,0.445-0.117,0.667-0.175c-0.808-0.552-1.616-1.104-2.423-1.656
								C515.896,352.524,515.408,353.368,515.923,353.721L515.923,353.721z"/>
						</g>
					</g>
					<g>
						<g>
							<path style="fill:#FFFFFF;" d="M529.559,347.651c0.609,5.328,1.093,10.669,1.703,15.997c0.07,0.616,1.046,0.623,0.975,0
								c-0.609-5.328-1.093-10.669-1.703-15.997C530.464,347.034,529.488,347.027,529.559,347.651L529.559,347.651z"/>
						</g>
					</g>
				</g>
			</g>
			<g>
				<path style="fill:#DEA3A3;" d="M603.938,393.69c38.056-0.634,34.391-40.019,33.705-54.99
					c-0.745-16.241,3.298-59.649-11.891-68.246c-2.482-1.405-1.159-1.007-4.912-2.457l0.055-0.18
					c-4.63-1.582-19.315-9.487-19.315-9.487c7.216,11.307,9.58,24.251,7.188,40.433c0.055,19.49-12.641,56.844-15.57,59.773
					c-11.635,11.635-48.672,8.939-68.44,9.262c0,0-9.597-16.466-11.381-15.574c-1.783,0.892,0.599,16.173,0.599,16.173
					s-29.671-4.016-32.346-0.449c-2.675,3.567,19.301,5.629,17.072,7.413c-2.229,1.784,2.085,9.125,2.085,9.125l1.958,9.519
					C502.744,394.004,565.883,394.324,603.938,393.69z"/>
				<path style="fill:#D94E97;" d="M641.563,336.949c-0.745-16.242,2.161-60.363-13.028-68.96
					c-2.482-1.405-34.368-18.194-34.368-18.194c1.412,5.671,13.106,33.998,9.772,52.104c0.055,19.49-10.361,50.391-13.291,53.32
					c-3.564,3.564-9.064,3.355-15.574,5.391c4.04,9.013,10.649,24.228,14.731,33.223c5.134-0.026,9.904-0.071,14.134-0.142
					C641.994,393.056,642.249,351.919,641.563,336.949z"/>
			</g>
		</g>
	</g>
	<g>
		<path style="fill:#2E5871;" d="M722.959,450.265H69.62c-5.064,0-9.169-4.105-9.169-9.169v-0.374c0-5.064,4.105-9.169,9.169-9.169
			h653.339c5.064,0,9.169,4.105,9.169,9.169v0.374C732.128,446.16,728.023,450.265,722.959,450.265z"/>
		<g style="opacity:0.58;">
			<g>
				<g>
					<path style="fill:#8FCFB1;" d="M690.492,381.817c-5.811-20.564-8.831-42.283-5.32-63.362
						c3.511-21.079,14.1-41.513,31.453-53.984c4.049-2.91,8.869-5.458,13.796-4.692c4.981,0.775,8.946,4.91,10.797,9.598
						c1.851,4.689,1.924,9.877,1.67,14.912c-1.927,38.256-22.188,75.07-53.156,97.613"/>
					<g>
						<path style="fill:#8FCFB1;" d="M692.016,381.397c-5.737-20.386-8.861-42.041-5.222-63.099
							c2.971-17.19,10.61-33.937,23.206-46.206c3.178-3.095,6.658-6.027,10.499-8.268c3.878-2.263,8.595-3.689,12.807-1.428
							c8.651,4.643,8.449,15.976,7.846,24.413c-1.237,17.32-6.311,34.33-14.4,49.673c-8.116,15.395-19.264,29.159-32.761,40.159
							c-1.651,1.345-3.339,2.642-5.059,3.898c-1.627,1.188-0.051,3.933,1.596,2.73c14.76-10.78,27.145-24.635,36.322-40.438
							c9.166-15.786,15.094-33.423,17.064-51.58c1.008-9.291,1.95-20.338-4.556-27.952c-2.839-3.323-7.031-5.477-11.461-5.216
							c-5.065,0.299-9.55,3.079-13.486,6.069c-14.727,11.189-24.44,27.886-29.021,45.644c-5.442,21.096-3.594,43.417,1.464,64.391
							c0.651,2.698,1.359,5.38,2.111,8.051C689.518,384.194,692.57,383.362,692.016,381.397L692.016,381.397z"/>
					</g>
				</g>
				<g>
					<path style="fill:#8FCFB1;" d="M674.449,396.435c5.363-14.363,5.784-30.52,1.176-45.143c-1.447-4.592-3.512-9.221-7.267-12.236
						c-3.754-3.015-9.575-3.896-13.337-0.89c-2.211,1.767-3.375,4.524-4.18,7.238c-5.59,18.842,3.766,41,21.168,50.133"/>
					<g>
						<path style="fill:#8FCFB1;" d="M675.974,396.855c3.916-10.597,5.267-22.15,3.877-33.364
							c-0.676-5.451-1.856-10.939-3.919-16.044c-1.814-4.489-4.584-9.006-9.079-11.214c-4.1-2.013-9.276-2.198-12.949,0.815
							c-3.627,2.975-4.938,8.217-5.668,12.649c-1.444,8.764-0.09,17.743,3.476,25.848c3.953,8.984,10.799,16.74,19.499,21.357
							c1.797,0.953,3.396-1.775,1.596-2.73c-14.072-7.468-22.66-23.444-21.962-39.261c0.177-4.008,0.862-8.33,2.576-11.991
							c0.885-1.89,2.184-3.633,4.162-4.46c1.835-0.768,3.942-0.713,5.83-0.186c4.497,1.257,7.341,5.189,9.154,9.272
							c1.973,4.446,3.122,9.364,3.869,14.154c1.795,11.505,0.52,23.405-3.511,34.314
							C672.218,397.926,675.273,398.751,675.974,396.855L675.974,396.855z"/>
					</g>
				</g>
				<g>
					<path style="fill:#8FCFB1;" d="M707.891,406.875c5.629-13.969,9.526-34.507,21.236-43.978c3.75-3.033,8.32-5.9,13.068-5.058
						c7.013,1.243,10.182,9.781,9.713,16.888c-0.637,9.658-5.68,18.939-13.437,24.728c-7.757,5.79-18.088,7.984-27.529,5.848"/>
					<g>
						<path style="fill:#8FCFB1;" d="M709.416,407.296c3.205-7.996,5.428-16.347,8.605-24.356
							c3.059-7.711,7.056-15.332,13.963-20.248c3.733-2.657,8.664-4.899,12.939-2.086c3.157,2.077,4.669,6.068,5.228,9.651
							c1.362,8.731-2.789,18.269-8.747,24.494c-7.631,7.973-19.283,11.391-30.039,9.029c-1.983-0.436-2.831,2.612-0.841,3.049
							c10.575,2.322,21.918-0.304,30.285-7.211c7.66-6.323,12.829-16.483,12.726-26.502c-0.045-4.369-1.245-8.93-3.965-12.41
							c-2.963-3.791-7.648-5.384-12.325-4.164c-4.877,1.272-9.417,4.845-12.695,8.589c-2.985,3.409-5.287,7.354-7.205,11.444
							c-4.52,9.638-7.026,20.024-10.977,29.881C705.61,408.344,708.667,409.164,709.416,407.296L709.416,407.296z"/>
					</g>
				</g>
				<g>
					<path style="fill:#8FCFB1;" d="M119.013,373.576c1.716-17.081-1.065-35.121-7.723-50.944
						c-6.659-15.823-19.66-29.542-36.188-34.184c-6.757-1.897-14.59-2.065-20.191,2.164c-7.144,5.393-8.094,15.994-5.663,24.609
						c2.708,9.6,8.648,17.951,15.051,25.598c12.395,14.804,34.365,33.412,53.662,32.757"/>
					<g>
						<path style="fill:#8FCFB1;" d="M120.594,373.576c1.802-18.352-1.227-37.769-9.161-54.471
							c-6.694-14.092-18.475-26.278-33.424-31.406c-7.464-2.56-16.791-3.541-23.583,1.317c-6.199,4.434-8.371,12.252-7.899,19.573
							c0.549,8.507,4.426,16.506,9.122,23.479c4.619,6.858,10.089,13.216,15.992,18.997c5.905,5.784,12.367,11.099,19.413,15.44
							c6.607,4.071,13.911,7.376,21.664,8.381c1.741,0.226,3.488,0.321,5.242,0.272c2.031-0.057,2.039-3.22,0-3.162
							c-7.098,0.2-14-2.135-20.245-5.353c-6.954-3.583-13.311-8.27-19.155-13.448c-5.617-4.977-10.77-10.449-15.452-16.312
							c-5.265-6.594-10.036-13.885-12.337-22.082c-1.808-6.44-1.829-14.146,2.109-19.837c4.513-6.522,13.202-7.052,20.282-5.382
							c14.517,3.423,26.327,14.362,33.474,27.124c4.133,7.379,6.848,15.59,8.707,23.817c1.953,8.645,2.818,17.528,2.529,26.388
							c-0.073,2.227-0.224,4.45-0.442,6.668C117.234,375.599,120.397,375.586,120.594,373.576L120.594,373.576z"/>
					</g>
				</g>
				<g>
					<path style="fill:#8FCFB1;" d="M97.632,394.607c-3.505-9.815-18.486-15.085-27.205-16.531
						c-6.3-1.046-14.402-0.056-16.562,5.953c-1.196,3.328,0.068,7.185,2.471,9.78c2.403,2.594,5.766,4.099,9.166,5.071
						c10.791,3.087,21.709,3.66,31.078-2.52"/>
					<g>
						<path style="fill:#8FCFB1;" d="M99.156,394.187c-2.304-6.235-8.046-10.342-13.854-13.079
							c-5.655-2.665-12.119-4.762-18.415-4.963c-6.532-0.209-14.61,2.401-15.048,10.079c-0.232,4.072,2.052,7.897,5.183,10.332
							c3.432,2.669,7.715,3.893,11.894,4.833c9.688,2.178,19.915,1.881,28.46-3.664c1.701-1.104,0.118-3.842-1.596-2.73
							c-6.572,4.264-14.329,5.248-21.981,4.107c-3.804-0.568-7.831-1.393-11.355-2.977c-3.228-1.451-6.201-3.807-7.171-7.351
							c-0.796-2.911,0.214-5.901,2.777-7.544c2.402-1.54,5.373-1.952,8.176-1.935c5.374,0.033,10.952,1.739,15.862,3.819
							c5.511,2.335,11.826,5.985,14.017,11.914C96.806,396.92,99.864,396.102,99.156,394.187L99.156,394.187z"/>
					</g>
				</g>
			</g>
			<g>
				<g>
					<g>
						<path style="fill:#2E5871;" d="M661.22,363.014c9.464,17.56,15.729,36.843,18.346,56.623c0.74,5.589,1.178,11.215,1.343,16.85
							c0.058,1.963,3.115,1.971,3.057,0c-0.598-20.352-4.892-40.575-12.689-59.388c-2.21-5.332-4.679-10.547-7.417-15.628
							C662.926,359.738,660.286,361.28,661.22,363.014L661.22,363.014z"/>
					</g>
				</g>
				<g>
					<g>
						<path style="fill:#2E5871;" d="M686.33,434.439c2.111-31.122,7.088-62.028,14.864-92.238
							c2.191-8.513,4.607-16.966,7.233-25.355c0.589-1.882-2.361-2.687-2.948-0.813c-9.402,30.031-16.008,60.909-19.75,92.153
							c-1.045,8.728-1.86,17.482-2.455,26.252C683.14,436.403,686.197,436.395,686.33,434.439L686.33,434.439z"/>
					</g>
				</g>
				<g>
					<g>
						<path style="fill:#2E5871;" d="M688.218,443.945c7.392-19.978,19.323-38.216,34.579-53.074
							c4.345-4.232,8.955-8.193,13.808-11.832c1.555-1.166,0.033-3.822-1.543-2.64c-17.574,13.181-32.13,30.261-42.28,49.753
							c-2.861,5.494-5.362,11.172-7.511,16.98C684.587,444.98,687.54,445.777,688.218,443.945L688.218,443.945z"/>
					</g>
				</g>
				<g>
					<g>
						<path style="fill:#2E5871;" d="M94.612,335.845c16.563,22.803,30.297,47.672,40.678,73.879
							c2.894,7.306,5.527,14.714,7.907,22.203c0.593,1.868,3.546,1.07,2.948-0.813c-8.57-26.974-20.501-52.878-35.472-76.899
							c-4.235-6.795-8.716-13.435-13.421-19.913C96.106,332.726,93.453,334.25,94.612,335.845L94.612,335.845z"/>
					</g>
				</g>
				<g>
					<g>
						<path style="fill:#2E5871;" d="M89.86,393.959c16.656,5.273,31.93,14.628,44.25,27.011c3.477,3.494,6.721,7.223,9.681,11.165
							c1.167,1.554,3.822,0.032,2.639-1.543c-10.845-14.443-25.137-26.198-41.461-33.952c-4.631-2.199-9.409-4.082-14.296-5.629
							C88.793,390.416,87.989,393.366,89.86,393.959L89.86,393.959z"/>
					</g>
				</g>
			</g>
		</g>
	</g>
	<g>
		<g>
			<g>
				<path style="opacity:0.67;fill:#FFFFFF;" d="M221.471,242.896c29.723,0,53.818,24.094,53.818,53.818
					c0,6.723-1.243,13.152-3.495,19.085v62.689l-31.391-31.391c-5.89,2.214-12.267,3.434-18.932,3.434
					c-29.723,0-53.818-24.095-53.818-53.817C167.654,266.99,191.749,242.896,221.471,242.896z"/>
			</g>
			<g>
				
					<ellipse transform="matrix(0.9985 -0.0542 0.0542 0.9985 -15.7605 12.5544)" style="fill:#2E5871;" cx="223.711" cy="297.012" rx="29.524" ry="29.524"/>
				<path style="fill:#83CFB1;" d="M204.389,319.504c-12.414-10.572-13.907-29.206-3.335-41.619l22.575,19.226L204.389,319.504z"/>
				<path style="fill:#D94E97;" d="M223.38,297.403l-27.292-23.244c6.391-7.504,15.219-11.707,24.325-12.437L223.38,297.403z"/>
			</g>
		</g>
		<g>
			<g>
				<g>
					<g>
						<path style="fill:#FFC580;" d="M315.588,110.474c0,19.243,15.599,34.842,34.842,34.842c4.352,0,8.515-0.805,12.356-2.262
							h40.586L383.05,122.73c1.434-3.813,2.224-7.942,2.224-12.257c0-19.243-15.6-34.842-34.842-34.842
							C331.188,75.632,315.588,91.231,315.588,110.474z"/>
					</g>
				</g>
			</g>
			<g>
				<rect x="334.994" y="103.673" style="fill:#FFFFFF;" width="8.412" height="19.629"/>
				<rect x="345.743" y="96.613" style="fill:#FFFFFF;" width="8.413" height="26.69"/>
				<rect x="356.492" y="88.053" style="fill:#FFFFFF;" width="8.412" height="35.249"/>
			</g>
		</g>
	</g>
</g>
</svg>
