<?xml version="1.0" encoding="utf-8"?>
<!-- Generator: Adobe Illustrator 27.5.0, SVG Export Plug-In . SVG Version: 6.00 Build 0)  -->
<svg version="1.1" xmlns="http://www.w3.org/2000/svg" xmlns:xlink="http://www.w3.org/1999/xlink" x="0px" y="0px"
	 viewBox="0 0 3710 3710" style="enable-background:new 0 0 3710 3710;" xml:space="preserve">
<g id="Background">
	<g>
		<g>
			<rect style="fill:#FFFFFF;" width="3710" height="3710"/>
		</g>
	</g>
</g>
<g id="Illustration">
	<g>
		<path style="fill:#F4F7FA;" d="M2570.679,616.922c95.39,133.542-12.503,352.808,128.004,452.518
			c136.773,97.061,301.823-66.13,430.638,17.303c191.091,123.768,162.49,699.608-111.198,1060.081
			c-82.307,108.406-151.585,150.978-181.183,272.913c-63.556,261.825,171.101,414.708,128.116,544.324
			c-96.788,291.848-1629.79,552.017-2255.124-315.443c-292.056-405.139-341.313-994.083-88.916-1444.438
			C1077.094,390.397,2356.64,317.279,2570.679,616.922z"/>
		<g>
			<g>
				<g>
					<path style="fill:#97A6B7;" d="M1794.011,1123.966l-63.862-11.875c3.519-42.996,0.98-85.381-6.966-126.244l59.855-21.17
						c16.358-5.786,25.025-24.134,19.393-41.022l-15.025-45.049c-5.666-16.992-23.605-26.209-40.1-20.547l-58.987,20.247
						c-18.283-39.424-42.008-76.329-70.484-109.587l40.548-46.912c11.635-13.46,10.149-34.328-3.335-46.663l-36.053-32.98
						c-13.63-12.467-34.272-11.659-46.087,1.859l-40.516,46.36c-36.032-25.805-76.21-47.083-119.877-62.649l11.606-61.818
						c3.424-18.237-8.674-36.522-27.079-40.854l-49.258-11.594c-18.641-4.388-36.606,6.99-40.067,25.427l-11.733,62.498
						c-47.117-4.844-93.795-2.812-138.866,5.432l-22.558-62.727c-6.629-18.433-27.067-28.935-45.691-23.411l-49.81,14.773
						c-18.836,5.587-28.628,25.215-21.829,43.797l23.511,64.256c-42.602,19.529-82.201,45.048-117.456,75.794l-55.554-46.834
						c-15.75-13.279-39.334-12.355-52.654,2.124l-35.541,38.634c-13.408,14.576-11.311,37.152,4.662,50.362l57.633,47.665
						c-25.544,37.722-45.855,79.485-59.738,124.533l-77.173-14.351c-20.769-3.863-40.611,8.705-44.249,28.082l-9.674,51.531
						c-3.638,19.377,10.341,38.045,31.152,41.685l79.382,13.883c-1.754,46.211,3.418,91.487,14.725,134.742l-77.351,26.55
						c-19.724,6.77-29.883,27.134-22.646,45.435l19.181,48.507c7.189,18.179,28.892,27.273,48.433,20.362l78.401-27.73
						c21.976,38.716,49.321,74.242,81.192,105.521l-53.743,61.493c-13.102,14.991-11.08,36.752,4.493,48.546l41.182,31.189
						c15.397,11.662,38.31,8.981,51.199-5.931l53.463-61.853c37.275,21.573,77.843,38.44,120.993,49.734l-14.533,77.414
						c-3.462,18.437,9.194,35.34,28.207,37.745l50.241,6.357c18.772,2.375,36.718-10.489,40.142-28.725l14.376-76.574
						c43.803,0.714,86.55-4.406,127.368-14.622l25.662,70.135c6.132,16.757,25.127,24.717,42.392,17.823l45.668-18.236
						c17.08-6.82,26.047-25.802,20.063-42.441l-24.765-68.865c37.433-19.673,72.05-44.064,102.927-72.431l54.418,45.006
						c13.359,11.048,33.468,8.696,44.935-5.205l30.401-36.854c11.397-13.816,9.961-33.986-3.224-45.102l-52.487-44.248
						c22.908-34.323,41.495-71.951,54.877-112.267l65.712,11.493c16.939,2.962,33.278-8.75,36.545-26.152l8.688-46.278
						C1821.93,1143.758,1810.916,1127.11,1794.011,1123.966z M1205.64,1407.9c-190.223-28.456-320.785-204.746-285.473-392.837
						c35.312-188.091,221.302-307.044,409.346-266.984c181.654,38.699,297.557,212.342,264.388,389.018
						C1560.733,1313.771,1389.398,1435.388,1205.64,1407.9z"/>
					<polygon style="fill:#97A6B7;" points="1151.632,529.963 1106.457,519.858 1083.124,557.681 					"/>
					<polygon style="fill:#97A6B7;" points="1598.973,633.424 1651.307,643.79 1644.046,682.466 					"/>
					<polygon style="fill:#97A6B7;" points="1763.766,857.5 1815.634,869.423 1797.073,896.238 					"/>
					<polygon style="fill:#97A6B7;" points="1798.425,1125.362 1850.427,1139.453 1828.372,1161.825 					"/>
					<polygon style="fill:#97A6B7;" points="1642.624,1471.069 1692.47,1488.002 1706.59,1447.368 					"/>
					<polygon style="fill:#97A6B7;" points="1411.212,1622.949 1455.635,1639.946 1465.67,1606.66 					"/>
					<polygon style="fill:#97A6B7;" points="1165.942,1661.308 1126.027,1646.239 1171.477,1600.125 					"/>
					<polygon style="fill:#97A6B7;" points="950.591,1574.888 904.372,1555.931 949.919,1517.95 					"/>
					<polygon style="fill:#97A6B7;" points="842.086,662.845 891.966,673.832 865.237,706.689 					"/>
					<polygon style="fill:#97A6B7;" points="668.378,1037.654 713.094,1053.083 716.501,1014.766 					"/>
					<polygon style="fill:#97A6B7;" points="715.448,1331.631 759.022,1347.387 768.273,1318.282 					"/>
				</g>
				<path style="fill:#D8DEE8;" d="M1844.811,1137.795l-64.391-11.974c3.548-43.347,0.987-86.077-7.026-127.273l60.35-21.341
					c16.493-5.833,25.232-24.33,19.552-41.356l-15.15-45.417c-5.714-17.13-23.801-26.423-40.433-20.715l-59.475,20.411
					c-18.436-39.746-42.359-76.953-71.072-110.483l40.883-47.293c11.731-13.569,10.233-34.607-3.364-47.043l-36.353-33.249
					c-13.744-12.569-34.556-11.755-46.469,1.874l-40.851,46.737c-36.332-26.016-76.842-47.469-120.872-63.162l11.701-62.322
					c3.451-18.386-8.747-36.819-27.305-41.187l-49.666-11.69c-18.796-4.424-36.909,7.046-40.399,25.634l-11.829,63.006
					c-47.507-4.885-94.573-2.837-140.016,5.473l-22.747-63.239c-6.684-18.584-27.291-29.171-46.069-23.603l-50.222,14.892
					c-18.992,5.631-28.865,25.42-22.008,44.154l23.707,64.781c-42.955,19.687-82.88,45.413-118.426,76.409l-56.015-47.218
					c-15.881-13.387-39.661-12.457-53.09,2.14l-35.834,38.948c-13.519,14.694-11.404,37.454,4.701,50.773l58.112,48.055
					c-25.754,38.029-46.233,80.133-60.23,125.547l-77.812-14.47c-20.942-3.894-40.948,8.774-44.616,28.309l-9.753,51.951
					c-3.668,19.535,10.427,38.356,31.411,42.026l80.04,13.998c-1.767,46.587,3.448,92.233,14.851,135.841l-77.991,26.764
					c-19.887,6.825-30.13,27.355-22.833,45.805l19.341,48.903c7.249,18.327,29.132,27.496,48.834,20.529l79.049-27.953
					c22.16,39.032,49.731,74.848,81.867,106.383l-54.187,61.993c-13.21,15.113-11.171,37.051,4.531,48.942l41.523,31.444
					c15.526,11.757,38.628,9.055,51.623-5.978l53.904-62.357c37.585,21.751,78.489,38.756,121.997,50.143l-14.653,78.045
					c-3.489,18.588,9.272,35.628,28.443,38.054l50.658,6.41c18.928,2.395,37.022-10.573,40.474-28.959l14.493-77.197
					c44.167,0.721,87.267-4.44,128.422-14.738l25.877,70.707c6.183,16.894,25.336,24.918,42.744,17.969l46.046-18.383
					c17.222-6.875,26.262-26.012,20.229-42.787l-24.972-69.427c37.742-19.833,72.645-44.421,103.778-73.019l54.87,45.375
					c13.469,11.138,33.746,8.767,45.307-5.246l30.652-37.154c11.491-13.928,10.043-34.263-3.251-45.47l-52.923-44.611
					c23.097-34.602,41.836-72.536,55.329-113.18l66.257,11.587c17.08,2.987,33.553-8.821,36.847-26.364l8.759-46.656
					C1872.963,1157.749,1861.857,1140.965,1844.811,1137.795z M1251.574,1424.028c-191.799-28.692-323.448-206.423-287.848-396.047
					c35.6-189.623,223.128-309.542,412.731-269.15c183.16,39.019,300.027,214.081,266.588,392.196
					C1609.606,1329.142,1436.856,1451.745,1251.574,1424.028z"/>
			</g>
		</g>
		<g>
			<g>
				<path style="fill:#97A6B7;" d="M2243.795,2899.753c-37.329-12.382-65.229-44.062-73.096-83.001l-54.331-268.9l-464.761,16.504
					l-57.198,280.133c-8.011,39.232,24.057,78.592,60.988,93.042l194.446,76.08c36.165,14.151,75.041,19.786,113.679,16.481
					l410.934-35.155c12.013-1.028,21.649-10.47,23.047-22.585c1.398-12.114,9.815-25.717-1.64-29.516L2243.795,2899.753z"/>
				<linearGradient id="SVGID_1_" gradientUnits="userSpaceOnUse" x1="2008.2012" y1="2977.574" x2="1982.5548" y2="2238.946">
					<stop  offset="0" style="stop-color:#D8DEE8"/>
					<stop  offset="0.9964" style="stop-color:#97A6B7"/>
				</linearGradient>
				<path style="fill:url(#SVGID_1_);" d="M2248.395,2883.4c-37.291-12.226-65.163-43.509-73.023-81.958l-54.276-265.519
					l-453.432,16.313l-57.142,276.611c-8.003,38.739,13.171,77.587,50.065,91.855l194.251,75.124
					c36.129,13.972,74.965,19.537,113.564,16.273l410.52-34.712c12-1.015,21.627-10.339,23.023-22.301
					c1.397-11.962-5.823-23.253-17.267-27.005L2248.395,2883.4z"/>
			</g>
			<g>
				<g>
					<path style="fill:#97A6B7;" d="M701.933,2726.577c-50.4,3.005-91.632-29.692-91.632-72.901V1096.313
						c0-43.209,41.232-76.577,91.632-74.393l2340.91,162.059c37.002,1.604,56.857-28.267,56.857,8.481v1324.526
						c0,36.749-29.962,68.434-66.964,70.64L701.933,2726.577z"/>
					
						<linearGradient id="SVGID_00000021837264221790056960000008201740954745327762_" gradientUnits="userSpaceOnUse" x1="1556.4513" y1="2454.0754" x2="561.356" y2="4469.9155">
						<stop  offset="0" style="stop-color:#D8DEE8"/>
						<stop  offset="0.9964" style="stop-color:#97A6B7"/>
					</linearGradient>
					<path style="fill:url(#SVGID_00000021837264221790056960000008201740954745327762_);" d="M722.88,2726.577
						c-50.4,3.005-91.632-29.692-91.632-72.901V1096.313c0-43.209,41.232-76.577,91.632-74.393l2330.802,100.991
						c37.002,1.604,66.964,32.801,66.964,69.549v1324.526c0,36.749-29.962,68.434-66.964,70.64L722.88,2726.577z"/>
					<path style="opacity:0.3;fill:#D8DEE8;" d="M3050.77,1124.049l-2330.802-95.885c-24.032,28.926-45.938,46.729-45.938,69.802
						v1211.218v342.143c0,23.074,21.907,40.519,48.851,38.972l2330.802-133.845c19.833-1.139,35.87-18.043,35.87-37.761v-302.782
						V1191.26C3089.553,1171.543,3073.516,1154.899,3050.77,1124.049z"/>
				</g>
				<g>
					
						<linearGradient id="SVGID_00000165212326893196967060000006771375166573641138_" gradientUnits="userSpaceOnUse" x1="1295.194" y1="776.3617" x2="2396.8137" y2="2796.8667">
						<stop  offset="0" style="stop-color:#444B8C"/>
						<stop  offset="0.9964" style="stop-color:#26264F"/>
					</linearGradient>
					<path style="fill:url(#SVGID_00000165212326893196967060000006771375166573641138_);" d="M3036.363,2444.378L748.142,2557.331
						c-24.017,1.186-43.537-14.691-43.537-35.464v-1403.5c0-20.773,19.52-36.888,43.537-35.997l2288.221,84.936
						c17.958,0.667,32.483,15.718,32.483,33.618v1209.438C3068.847,2428.263,3054.321,2443.492,3036.363,2444.378z"/>
					<polygon style="opacity:0.6;fill:#FFFFFF;" points="1318.971,1230.591 796.394,1215.221 796.394,1165.397 1318.971,1182.298 
											"/>
					<polygon style="opacity:0.36;fill:#FFFFFF;" points="1565.07,1224.046 1444.35,1220.393 1444.35,1186.353 1565.07,1190.257 
											"/>
					<polygon style="opacity:0.36;fill:#FFFFFF;" points="1565.07,1270.993 1444.35,1267.689 1444.35,1233.649 1565.07,1237.204 
											"/>
					
						<linearGradient id="SVGID_00000056430018841343087670000015731986945946746520_" gradientUnits="userSpaceOnUse" x1="1882.6549" y1="960.9717" x2="2080.4026" y2="2166.2898">
						<stop  offset="0.0036" style="stop-color:#E38DDD"/>
						<stop  offset="1" style="stop-color:#9571F6"/>
					</linearGradient>
					<polygon style="fill:url(#SVGID_00000056430018841343087670000015731986945946746520_);" points="2166.669,1287.459 
						1698.328,1274.64 1698.328,1241.129 2166.669,1254.922 					"/>
					
						<linearGradient id="SVGID_00000103978031870476740080000014317684937614356113_" gradientUnits="userSpaceOnUse" x1="1779.7839" y1="1312.1995" x2="2243.4673" y2="1312.1995">
						<stop  offset="0" style="stop-color:#FF9085"/>
						<stop  offset="1" style="stop-color:#FB6FBB"/>
					</linearGradient>
					<polygon style="opacity:0.5;fill:url(#SVGID_00000103978031870476740080000014317684937614356113_);" points="
						2243.467,1334.546 1779.784,1323.195 1779.784,1289.853 2243.467,1302.169 					"/>
					
						<linearGradient id="SVGID_00000124139968531034549320000005733649131392341649_" gradientUnits="userSpaceOnUse" x1="1779.7839" y1="1357.855" x2="2243.4673" y2="1357.855">
						<stop  offset="0" style="stop-color:#FF9085"/>
						<stop  offset="1" style="stop-color:#FB6FBB"/>
					</linearGradient>
					<polygon style="opacity:0.5;fill:url(#SVGID_00000124139968531034549320000005733649131392341649_);" points="
						2243.467,1379.531 1779.784,1369.521 1779.784,1336.179 2243.467,1347.154 					"/>
					<polygon style="opacity:0.6;fill:#FFFFFF;" points="2243.467,1424.516 1779.784,1415.847 1779.784,1382.505 2243.467,1392.139 
											"/>
					<polygon style="opacity:0.36;fill:#FFFFFF;" points="1565.07,1317.939 1444.35,1314.984 1444.35,1280.944 1565.07,1284.15 
											"/>
					<polygon style="opacity:0.36;fill:#FFFFFF;" points="1565.07,1364.886 1444.35,1362.28 1444.35,1328.24 1565.07,1331.097 					
						"/>
					<polygon style="opacity:0.36;fill:#FFFFFF;" points="1565.07,1411.832 1444.35,1409.575 1444.35,1375.535 1565.07,1378.043 
											"/>
					<polygon style="opacity:0.36;fill:#FFFFFF;" points="1565.07,1458.779 1444.35,1456.87 1444.35,1422.83 1565.07,1424.99 					
						"/>
					<polygon style="opacity:0.6;fill:#FFFFFF;" points="1888.559,1463.892 1591.413,1459.195 1591.413,1425.461 1888.559,1430.776 
											"/>
					<polygon style="opacity:0.36;fill:#FFFFFF;" points="1565.07,1505.725 1444.35,1504.166 1444.35,1470.126 1565.07,1471.936 
											"/>
					<polygon style="opacity:0.36;fill:#FFFFFF;" points="1565.07,1552.672 1444.35,1551.462 1444.35,1517.422 1565.07,1518.882 
											"/>
					<polygon style="opacity:0.36;fill:#FFFFFF;" points="1565.07,1599.618 1444.35,1598.757 1444.35,1564.717 1565.07,1565.829 
											"/>
					
						<linearGradient id="SVGID_00000029751327187158462510000011256558817180929711_" gradientUnits="userSpaceOnUse" x1="1698.3282" y1="1492.8176" x2="2027.7781" y2="1492.8176">
						<stop  offset="0" style="stop-color:#FF9085"/>
						<stop  offset="1" style="stop-color:#FB6FBB"/>
					</linearGradient>
					<polygon style="opacity:0.5;fill:url(#SVGID_00000029751327187158462510000011256558817180929711_);" points="
						2027.778,1511.701 1698.328,1507.446 1698.328,1473.934 2027.778,1478.875 					"/>
					<polygon style="opacity:0.6;fill:#FFFFFF;" points="2198.933,1559.025 1779.784,1554.824 1779.784,1521.482 2198.933,1526.555 
											"/>
					
						<linearGradient id="SVGID_00000086678964992071354440000017577661055264832667_" gradientUnits="userSpaceOnUse" x1="1886.8669" y1="961.6994" x2="2067.803" y2="2064.5466">
						<stop  offset="0.0036" style="stop-color:#E38DDD"/>
						<stop  offset="1" style="stop-color:#9571F6"/>
					</linearGradient>
					<polygon style="fill:url(#SVGID_00000086678964992071354440000017577661055264832667_);" points="2198.933,1604.139 
						1779.784,1601.15 1779.784,1567.807 2198.933,1571.669 					"/>
					<polygon style="opacity:0.36;fill:#FFFFFF;" points="1565.07,1646.564 1444.35,1646.052 1444.35,1612.012 1565.07,1612.776 
											"/>
					<polygon style="opacity:0.36;fill:#FFFFFF;" points="1565.07,1693.511 1444.35,1693.348 1444.35,1659.308 1565.07,1659.722 
											"/>
					<polygon style="opacity:0.36;fill:#FFFFFF;" points="1565.07,1740.458 1444.35,1740.643 1444.35,1706.603 1565.07,1706.668 
											"/>
					<polygon style="opacity:0.36;fill:#FFFFFF;" points="1565.07,1787.404 1444.35,1787.939 1444.35,1753.899 1565.07,1753.615 
											"/>
					<polygon style="opacity:0.36;fill:#FFFFFF;" points="1565.07,1834.35 1444.35,1835.234 1444.35,1801.194 1565.07,1800.561 
											"/>
					<polygon style="opacity:0.36;fill:#FFFFFF;" points="1565.07,1881.297 1444.35,1882.53 1444.35,1848.49 1565.07,1847.508 					
						"/>
					<polygon style="opacity:0.36;fill:#FFFFFF;" points="1565.07,1928.243 1444.35,1929.825 1444.35,1895.785 1565.07,1894.454 
											"/>
					<polygon style="opacity:0.36;fill:#FFFFFF;" points="1565.07,1975.19 1444.35,1977.121 1444.35,1943.081 1565.07,1941.401 
											"/>
					<polygon style="opacity:0.36;fill:#FFFFFF;" points="1565.07,2022.136 1444.35,2024.416 1444.35,1990.376 1565.07,1988.347 
											"/>
					<polygon style="opacity:0.36;fill:#FFFFFF;" points="1565.07,2069.083 1444.35,2071.712 1444.35,2037.672 1565.07,2035.294 
											"/>
					<polygon style="opacity:0.36;fill:#FFFFFF;" points="1565.07,2116.029 1444.35,2119.007 1444.35,2084.967 1565.07,2082.24 
											"/>
					<polygon style="opacity:0.36;fill:#FFFFFF;" points="1565.07,2162.975 1444.35,2166.303 1444.35,2132.263 1565.07,2129.187 
											"/>
					<polygon style="opacity:0.36;fill:#FFFFFF;" points="1565.07,2209.922 1444.35,2213.598 1444.35,2179.558 1565.07,2176.133 
											"/>
					<polygon style="opacity:0.36;fill:#FFFFFF;" points="1565.07,2256.869 1444.35,2260.894 1444.35,2226.854 1565.07,2223.08 
											"/>
					<polygon style="opacity:0.36;fill:#FFFFFF;" points="1565.07,2303.815 1444.35,2308.189 1444.35,2274.149 1565.07,2270.026 
											"/>
					<polygon style="opacity:0.36;fill:#FFFFFF;" points="1565.07,2350.761 1444.35,2355.485 1444.35,2321.444 1565.07,2316.972 
											"/>
					<polygon style="opacity:0.36;fill:#FFFFFF;" points="1565.07,2397.708 1444.35,2402.78 1444.35,2368.74 1565.07,2363.919 					
						"/>
					<polygon style="opacity:0.36;fill:#FFFFFF;" points="1565.07,2444.654 1444.35,2450.076 1444.35,2416.036 1565.07,2410.865 
											"/>
					
						<linearGradient id="SVGID_00000132782030945587065940000006871653655282234275_" gradientUnits="userSpaceOnUse" x1="1590.593" y1="1212.9325" x2="1919.828" y2="1212.9325">
						<stop  offset="0" style="stop-color:#FF9085"/>
						<stop  offset="1" style="stop-color:#FB6FBB"/>
					</linearGradient>
					<polygon style="opacity:0.5;fill:url(#SVGID_00000132782030945587065940000006871653655282234275_);" points="
						1919.828,1234.782 1590.593,1224.819 1590.593,1191.083 1919.828,1201.731 					"/>
					<polygon style="opacity:0.6;fill:#FFFFFF;" points="2166.669,2191.602 1698.328,2205.864 1698.328,2172.352 2166.669,2159.065 
											"/>
					
						<linearGradient id="SVGID_00000139259358625289368210000013636700184393664136_" gradientUnits="userSpaceOnUse" x1="1779.7839" y1="2225.7905" x2="2243.4673" y2="2225.7905">
						<stop  offset="0" style="stop-color:#FF9085"/>
						<stop  offset="1" style="stop-color:#FB6FBB"/>
					</linearGradient>
					<polygon style="opacity:0.5;fill:url(#SVGID_00000139259358625289368210000013636700184393664136_);" points="
						2243.467,2234.249 1779.784,2249.709 1779.784,2216.367 2243.467,2201.872 					"/>
					
						<linearGradient id="SVGID_00000039828056642443692010000011701296133331733648_" gradientUnits="userSpaceOnUse" x1="1779.7839" y1="2271.4458" x2="2243.4673" y2="2271.4458">
						<stop  offset="0" style="stop-color:#FF9085"/>
						<stop  offset="1" style="stop-color:#FB6FBB"/>
					</linearGradient>
					<polygon style="opacity:0.5;fill:url(#SVGID_00000039828056642443692010000011701296133331733648_);" points="
						2243.467,2279.234 1779.784,2296.035 1779.784,2262.693 2243.467,2246.857 					"/>
					
						<linearGradient id="SVGID_00000136392705536429498730000013146086153694144916_" gradientUnits="userSpaceOnUse" x1="1991.6025" y1="2309.2568" x2="2443.281" y2="2309.2568">
						<stop  offset="0" style="stop-color:#FF9085"/>
						<stop  offset="1" style="stop-color:#FB6FBB"/>
					</linearGradient>
					<polygon style="opacity:0.5;fill:url(#SVGID_00000136392705536429498730000013146086153694144916_);" points="
						2443.281,2316.402 1991.603,2334.073 1991.603,2301.172 2443.281,2284.44 					"/>
					
						<linearGradient id="SVGID_00000027563116333965067280000002401606616557323138_" gradientUnits="userSpaceOnUse" x1="2027.4674" y1="1196.3798" x2="2168.7971" y2="2057.8162">
						<stop  offset="0.0036" style="stop-color:#E38DDD"/>
						<stop  offset="1" style="stop-color:#9571F6"/>
					</linearGradient>
					<polygon style="fill:url(#SVGID_00000027563116333965067280000002401606616557323138_);" points="2443.281,2360.809 
						1991.603,2379.787 1991.603,2346.885 2443.281,2328.847 					"/>
					<polygon style="opacity:0.6;fill:#FFFFFF;" points="2443.281,2405.217 1991.603,2425.5 1991.603,2392.598 2443.281,2373.255 
											"/>
					
						<linearGradient id="SVGID_00000039818504269388526560000008140890038063465870_" gradientUnits="userSpaceOnUse" x1="1590.593" y1="2141.21" x2="1919.828" y2="2141.21">
						<stop  offset="0" style="stop-color:#FF9085"/>
						<stop  offset="1" style="stop-color:#FB6FBB"/>
					</linearGradient>
					<polygon style="opacity:0.5;fill:url(#SVGID_00000039818504269388526560000008140890038063465870_);" points="
						1919.828,2153.198 1590.593,2162.272 1590.593,2128.536 1919.828,2120.147 					"/>
					
						<linearGradient id="SVGID_00000161625029228945255800000006588567836412539521_" gradientUnits="userSpaceOnUse" x1="1698.3282" y1="1677.2513" x2="2166.6689" y2="1677.2513">
						<stop  offset="0" style="stop-color:#FF9085"/>
						<stop  offset="1" style="stop-color:#FB6FBB"/>
					</linearGradient>
					<polygon style="opacity:0.5;fill:url(#SVGID_00000161625029228945255800000006588567836412539521_);" points="
						2166.669,1694.324 1698.328,1693.691 1698.328,1660.179 2166.669,1661.786 					"/>
					<polygon style="opacity:0.6;fill:#FFFFFF;" points="2243.467,1739.412 1779.784,1740.127 1779.784,1706.784 2243.467,1707.035 
											"/>
					
						<linearGradient id="SVGID_00000021808839759050813670000001969990466970883257_" gradientUnits="userSpaceOnUse" x1="1779.7839" y1="1769.236" x2="2243.4673" y2="1769.236">
						<stop  offset="0" style="stop-color:#FF9085"/>
						<stop  offset="1" style="stop-color:#FB6FBB"/>
					</linearGradient>
					<polygon style="opacity:0.5;fill:url(#SVGID_00000021808839759050813670000001969990466970883257_);" points="
						2243.467,1784.397 1779.784,1786.452 1779.784,1753.11 2243.467,1752.02 					"/>
					
						<linearGradient id="SVGID_00000087370469606304220090000014196814359025199016_" gradientUnits="userSpaceOnUse" x1="1779.7839" y1="1814.8916" x2="2243.4673" y2="1814.8916">
						<stop  offset="0" style="stop-color:#FF9085"/>
						<stop  offset="1" style="stop-color:#FB6FBB"/>
					</linearGradient>
					<polygon style="opacity:0.5;fill:url(#SVGID_00000087370469606304220090000014196814359025199016_);" points="
						2243.467,1829.383 1779.784,1832.778 1779.784,1799.436 2243.467,1797.005 					"/>
					
						<linearGradient id="SVGID_00000041975127604735358620000005984192031707445404_" gradientUnits="userSpaceOnUse" x1="1591.4135" y1="1862.9524" x2="1888.559" y2="1862.9524">
						<stop  offset="0" style="stop-color:#FF9085"/>
						<stop  offset="1" style="stop-color:#FB6FBB"/>
					</linearGradient>
					<polygon style="opacity:0.5;fill:url(#SVGID_00000041975127604735358620000005984192031707445404_);" points="
						1888.559,1877.993 1591.413,1881.028 1591.413,1847.294 1888.559,1844.877 					"/>
					<polygon style="opacity:0.6;fill:#FFFFFF;" points="2027.778,1922.179 1698.328,1926.497 1698.328,1892.985 2027.778,1889.353 
											"/>
					
						<linearGradient id="SVGID_00000089572754356381818560000016936525304572128673_" gradientUnits="userSpaceOnUse" x1="1838.8352" y1="1034.6931" x2="2003.0818" y2="2035.8136">
						<stop  offset="0.0036" style="stop-color:#E38DDD"/>
						<stop  offset="1" style="stop-color:#9571F6"/>
					</linearGradient>
					<polygon style="fill:url(#SVGID_00000089572754356381818560000016936525304572128673_);" points="2198.933,1965.051 
						1779.784,1971.755 1779.784,1938.413 2198.933,1932.58 					"/>
					
						<linearGradient id="SVGID_00000022548463723348420290000011014545171245528504_" gradientUnits="userSpaceOnUse" x1="1779.7839" y1="1997.8876" x2="2198.9333" y2="1997.8876">
						<stop  offset="0" style="stop-color:#FF9085"/>
						<stop  offset="1" style="stop-color:#FB6FBB"/>
					</linearGradient>
					<polygon style="opacity:0.5;fill:url(#SVGID_00000022548463723348420290000011014545171245528504_);" points="
						2198.933,2010.164 1779.784,2018.081 1779.784,1984.739 2198.933,1977.694 					"/>
					
						<linearGradient id="SVGID_00000116211659072762000830000003430347300935764621_" gradientUnits="userSpaceOnUse" x1="1877.748" y1="2041.6256" x2="2291.854" y2="2041.6256">
						<stop  offset="0" style="stop-color:#FF9085"/>
						<stop  offset="1" style="stop-color:#FB6FBB"/>
					</linearGradient>
					<polygon style="opacity:0.5;fill:url(#SVGID_00000116211659072762000830000003430347300935764621_);" points="
						2291.854,2053.255 1877.748,2062.273 1877.748,2029.135 2291.854,2020.978 					"/>
					
						<linearGradient id="SVGID_00000038392518403178077430000016865347216747467166_" gradientUnits="userSpaceOnUse" x1="1877.748" y1="2087.0693" x2="2291.854" y2="2087.0693">
						<stop  offset="0" style="stop-color:#FF9085"/>
						<stop  offset="1" style="stop-color:#FB6FBB"/>
					</linearGradient>
					<polygon style="opacity:0.5;fill:url(#SVGID_00000038392518403178077430000016865347216747467166_);" points="2291.854,2098.1 
						1877.748,2108.316 1877.748,2075.177 2291.854,2065.823 					"/>
					
						<linearGradient id="SVGID_00000135685951354801876730000010145130533605982399_" gradientUnits="userSpaceOnUse" x1="1650.3331" y1="991.5943" x2="1832.3496" y2="2101.0259">
						<stop  offset="0.0036" style="stop-color:#E38DDD"/>
						<stop  offset="1" style="stop-color:#9571F6"/>
					</linearGradient>
					<polygon style="fill:url(#SVGID_00000135685951354801876730000010145130533605982399_);" points="1919.828,1648.069 
						1590.593,1646.673 1590.593,1612.937 1919.828,1615.018 					"/>
					<polygon style="fill:#FFFFFF;" points="1318.971,1306.05 1019.859,1298.621 1019.859,1249.452 1318.971,1257.756 					"/>
					<polygon style="opacity:0.6;fill:#FFFFFF;" points="942.494,1296.7 998.83,1298.099 998.83,1248.868 942.494,1247.304 					"/>
					<polygon style="opacity:0.6;fill:#FFFFFF;" points="1318.971,1375.472 1019.859,1369.303 1019.859,1320.133 1318.971,1327.178 
											"/>
					<polygon style="opacity:0.6;fill:#FFFFFF;" points="942.494,1367.707 998.83,1368.869 998.83,1319.638 942.494,1318.311 					
						"/>
					<polygon style="opacity:0.6;fill:#FFFFFF;" points="1318.971,1444.894 1019.859,1439.984 1019.859,1390.815 1318.971,1396.6 
											"/>
					<polygon style="opacity:0.6;fill:#FFFFFF;" points="942.494,1438.714 998.83,1439.639 998.83,1390.408 942.494,1389.318 					
						"/>
					<polygon style="fill:#FFFFFF;" points="1318.971,1937.666 796.394,1944.711 796.394,1894.887 1318.971,1889.373 					"/>
					<polygon style="opacity:0.6;fill:#FFFFFF;" points="1318.971,2013.125 1019.859,2018.526 1019.859,1969.357 1318.971,1964.831 
											"/>
					<polygon style="opacity:0.6;fill:#FFFFFF;" points="942.494,2019.923 998.83,2018.906 998.83,1969.675 942.494,1970.527 					
						"/>
					<polygon style="opacity:0.6;fill:#FFFFFF;" points="1318.971,2082.546 1019.859,2089.208 1019.859,2040.038 1318.971,2034.253 
											"/>
					<polygon style="opacity:0.6;fill:#FFFFFF;" points="942.494,2090.931 998.83,2089.676 998.83,2040.445 942.494,2041.534 					
						"/>
					<polygon style="opacity:0.6;fill:#FFFFFF;" points="1318.971,2151.968 1019.859,2159.889 1019.859,2110.719 1318.971,2103.675 
											"/>
					<polygon style="opacity:0.6;fill:#FFFFFF;" points="942.494,2161.938 998.83,2160.446 998.83,2111.215 942.494,2112.542 					
						"/>
					<polygon style="fill:#FFFFFF;" points="1318.971,1514.786 796.394,1508.425 796.394,1458.6 1318.971,1466.492 					"/>
					<polygon style="opacity:0.6;fill:#FFFFFF;" points="1318.971,1590.244 1019.859,1587.972 1019.859,1538.802 1318.971,1541.95 
											"/>
					<polygon style="opacity:0.6;fill:#FFFFFF;" points="942.494,1587.385 998.83,1587.813 998.83,1538.581 942.494,1537.988 					
						"/>
					<polygon style="opacity:0.6;fill:#FFFFFF;" points="1318.971,1659.666 1019.859,1658.654 1019.859,1609.484 1318.971,1611.372 
											"/>
					<polygon style="opacity:0.6;fill:#FFFFFF;" points="942.494,1658.392 998.83,1658.582 998.83,1609.351 942.494,1608.995 					
						"/>
					<polygon style="opacity:0.6;fill:#FFFFFF;" points="1318.971,1799.411 1019.859,1800.934 1019.859,1751.765 1318.971,1751.117 
											"/>
					<polygon style="opacity:0.6;fill:#FFFFFF;" points="942.494,1801.328 998.83,1801.042 998.83,1751.81 942.494,1751.932 					
						"/>
					<polygon style="opacity:0.6;fill:#FFFFFF;" points="1318.971,1868.833 1019.859,1871.616 1019.859,1822.446 1318.971,1820.539 
											"/>
					<polygon style="opacity:0.6;fill:#FFFFFF;" points="942.494,1872.336 998.83,1871.811 998.83,1822.58 942.494,1822.939 					
						"/>
					<polygon style="opacity:0.6;fill:#FFFFFF;" points="1318.971,1729.087 1019.859,1729.335 1019.859,1680.165 1318.971,1680.794 
											"/>
					<polygon style="opacity:0.6;fill:#FFFFFF;" points="942.494,1729.399 998.83,1729.352 998.83,1680.121 942.494,1680.003 					
						"/>
					<polygon style="fill:#FFFFFF;" points="1318.971,2221.366 796.394,2237.405 796.394,2187.581 1318.971,2173.073 					"/>
					<polygon style="opacity:0.6;fill:#FFFFFF;" points="1318.971,2296.825 1019.859,2307.374 1019.859,2258.205 1318.971,2248.531 
											"/>
					<polygon style="opacity:0.6;fill:#FFFFFF;" points="942.494,2310.103 998.83,2308.116 998.83,2258.885 942.494,2260.706 					
						"/>
					<polygon style="opacity:0.6;fill:#FFFFFF;" points="1318.971,2366.247 1019.859,2378.056 1019.859,2328.886 1318.971,2317.953 
											"/>
					<polygon style="opacity:0.6;fill:#FFFFFF;" points="942.494,2381.11 998.83,2378.886 998.83,2329.655 942.494,2331.713 					
						"/>
					<polygon style="opacity:0.6;fill:#FFFFFF;" points="1318.971,2435.669 1019.859,2448.737 1019.859,2399.567 1318.971,2387.375 
											"/>
					<polygon style="opacity:0.6;fill:#FFFFFF;" points="942.494,2452.117 998.83,2449.656 998.83,2400.424 942.494,2402.721 					
						"/>
					<polygon style="opacity:0.6;fill:#FFFFFF;" points="1382.475,2433.134 1370.965,2433.637 1370.965,1183.979 1382.475,1184.352 
											"/>
				</g>
				<path style="opacity:0.6;fill:#FFFFFF;" d="M2810.356,2491.229c-507.383,10.608-621.483,83.055-765.656-3.751
					c-198.108-119.28-107.886-331.459-300.903-442.758c-242.663-139.925-522.442,116.34-649.092-8.597
					c-126.125-124.42,112.133-417.247-25.792-743.662c-55.349-130.991-149.596-216.07-214.701-264.85l-131.332-5.69
					c-50.401-2.184-91.632,31.184-91.632,74.393v1557.362c0,43.21,41.232,75.906,91.632,72.901l2330.802-138.951
					c37.002-2.206,66.964-33.89,66.964-70.641v-23.548C3050.79,2490.96,2942.583,2488.465,2810.356,2491.229z"/>
			</g>
		</g>
		<g>
			
				<linearGradient id="SVGID_00000141432105617300043430000001676879853349117608_" gradientUnits="userSpaceOnUse" x1="2574.9492" y1="442.8781" x2="2768.5989" y2="1393.5239">
				<stop  offset="0" style="stop-color:#AB316D"/>
				<stop  offset="1" style="stop-color:#792D3D"/>
			</linearGradient>
			<path style="fill:url(#SVGID_00000141432105617300043430000001676879853349117608_);" d="M2881.111,590.619l-486.037-36.752
				c-46.036-3.481-83.6,33.757-83.6,83.197v151.522c0,49.44,37.565,91.386,83.6,93.674l486.037,24.158
				c42.271,2.101,76.323-34.256,76.323-81.193v-143.85C2957.435,634.44,2923.382,593.816,2881.111,590.619z"/>
			<g>
				
					<linearGradient id="SVGID_00000139989316967711633930000002296016311599225273_" gradientUnits="userSpaceOnUse" x1="2732.5557" y1="2041.7587" x2="2617.4609" y2="1060.068">
					<stop  offset="0" style="stop-color:#AB316D"/>
					<stop  offset="1" style="stop-color:#792D3D"/>
				</linearGradient>
				<path style="fill:url(#SVGID_00000139989316967711633930000002296016311599225273_);" d="M2809.422,1122.081l-337.749-10.747
					c-23.441-0.746-42.508,19.15-42.508,44.441v169.118c0,25.291,19.066,46.007,42.508,46.269l337.749,3.781
					c22.12,0.248,39.993-19.373,39.993-43.823v-163.495C2849.415,1143.174,2831.542,1122.785,2809.422,1122.081z"/>
			</g>
			<g>
				<polygon style="fill:#898989;" points="2650.463,1092.829 2635.215,1092.314 2635.215,914.564 2650.463,915.297 				"/>
			</g>
			<g>
				
					<linearGradient id="SVGID_00000147184953983016690820000016268495221183088305_" gradientUnits="userSpaceOnUse" x1="2557.4438" y1="1393.1301" x2="2749.8789" y2="2194.9453">
					<stop  offset="0" style="stop-color:#AB316D"/>
					<stop  offset="1" style="stop-color:#792D3D"/>
				</linearGradient>
				<path style="fill:url(#SVGID_00000147184953983016690820000016268495221183088305_);" d="M2809.422,1603.303l-337.749,2.511
					c-23.441,0.174-42.508,20.818-42.508,46.109v169.118c0,25.291,19.066,45.259,42.508,44.601l337.749-9.477
					c22.12-0.621,39.993-20.943,39.993-45.393v-163.495C2849.415,1622.826,2831.542,1603.138,2809.422,1603.303z"/>
			</g>
			
				<linearGradient id="SVGID_00000103964753483801682420000014590991663993976729_" gradientUnits="userSpaceOnUse" x1="2587.9858" y1="443.561" x2="2781.5374" y2="1393.7253">
				<stop  offset="0" style="stop-color:#FF9085"/>
				<stop  offset="1" style="stop-color:#FB6FBB"/>
			</linearGradient>
			<path style="fill:url(#SVGID_00000103964753483801682420000014590991663993976729_);" d="M2893.922,591.207l-485.653-36.728
				c-45.999-3.479-83.534,33.745-83.534,83.166v151.461c0,49.421,37.535,91.349,83.534,93.636l485.653,24.141
				c42.238,2.1,76.264-34.244,76.264-81.162V681.927C2970.186,635.009,2936.16,594.401,2893.922,591.207z"/>
			<g>
				
					<linearGradient id="SVGID_00000059991909805591177740000010714867172650859180_" gradientUnits="userSpaceOnUse" x1="2745.5146" y1="2041.7255" x2="2630.4729" y2="1060.4867">
					<stop  offset="0.0036" style="stop-color:#F36F56"/>
					<stop  offset="1" style="stop-color:#FFC444"/>
				</linearGradient>
				<path style="fill:url(#SVGID_00000059991909805591177740000010714867172650859180_);" d="M2822.29,1122.461l-337.482-10.739
					c-23.422-0.745-42.474,19.143-42.474,44.424v169.051c0,25.281,19.052,45.988,42.474,46.251l337.482,3.776
					c22.103,0.248,39.961-19.366,39.961-43.806v-163.431C2862.251,1143.546,2844.392,1123.164,2822.29,1122.461z"/>
			</g>
			<g>
				
					<linearGradient id="SVGID_00000148640494103467671580000016888269525761642161_" gradientUnits="userSpaceOnUse" x1="2570.4868" y1="1393.4408" x2="2762.8254" y2="2194.8545">
					<stop  offset="0.0036" style="stop-color:#E38DDD"/>
					<stop  offset="1" style="stop-color:#9571F6"/>
				</linearGradient>
				<path style="fill:url(#SVGID_00000148640494103467671580000016888269525761642161_);" d="M2822.29,1603.493l-337.482,2.512
					c-23.422,0.174-42.474,20.81-42.474,46.091v169.051c0,25.281,19.052,45.24,42.474,44.583l337.482-9.474
					c22.103-0.621,39.961-20.935,39.961-45.375v-163.431C2862.251,1623.009,2844.392,1603.329,2822.29,1603.493z"/>
			</g>
			<g>
				<polygon style="fill:#898989;" points="2650.463,1580.29 2635.215,1580.374 2635.215,1402.624 2650.463,1402.758 				"/>
			</g>
		</g>
		<g>
			
				<linearGradient id="SVGID_00000179615884177154303600000017984656673953106102_" gradientUnits="userSpaceOnUse" x1="1870.4275" y1="1529.0199" x2="1104.4052" y2="2630.1765">
				<stop  offset="0.0036" style="stop-color:#E38DDD"/>
				<stop  offset="1" style="stop-color:#9571F6"/>
			</linearGradient>
			<path style="fill:url(#SVGID_00000179615884177154303600000017984656673953106102_);" d="M2408.557,2063.987l2.145-1.284
				c-36.875-3.431-92.621-15.75-125.299-23.549c-1.137,0.17-2.427,0.084-3.563,0.255c-33.68,4.893-71.933,7.195-112.906,4.832
				c-40.973-2.182-84.678-9.963-128.58-23.249c-5.52-1.433-10.963-3.65-16.44-5.436c-2.721-0.958-5.508-1.9-8.246-2.885l-4.104-1.38
				c-1.399-0.511-2.735-1.101-4.107-1.628c-5.422-2.182-10.872-4.352-16.365-6.529l-4.105-1.625l-4.039-1.88
				c-2.701-1.226-5.401-2.451-8.075-3.693c-10.924-4.681-21.429-10.489-32.101-15.904c-5.304-2.836-10.521-6.017-15.739-9.013
				c-2.593-1.472-5.245-2.981-7.843-4.523c-2.55-1.644-5.142-3.297-7.676-4.913c-41.079-25.976-78.977-58.446-111.385-95.62
				c-3.972-4.689-7.945-9.38-11.949-14.124c-3.853-4.796-7.487-9.833-11.219-14.669l-5.603-7.354l-5.164-7.656l-5.218-7.624
				c-1.707-2.548-3.531-4.988-5.067-7.677c-3.172-5.241-6.372-10.465-9.56-15.734c-0.771-1.288-1.686-2.634-2.327-3.888
				l-1.915-3.626l-3.83-7.252l-3.825-7.182c-0.342-0.633-0.599-1.061-1.027-1.899l-3.749-7.482l-5.059-9.976l-3.75-7.483
				l-0.641-1.254l-0.23-0.446c0.027-0.016-1.492-2.493,1.092,1.643l-6.981-16.842c-1.122-2.788-2.422-5.507-3.383-8.392
				l-3.012-8.504l-3.041-8.489l-1.512-4.232c-0.514-1.406-0.876-2.864-1.32-4.274c-1.709-5.717-3.443-11.416-5.11-17.122
				c-0.956-2.814-1.542-5.742-2.263-8.59l-2.053-8.606l-2.161-8.542l-1.636-8.638c-1.054-5.779-2.324-11.431-3.191-17.141
				c-0.797-5.714-1.611-11.456-2.366-17.162c-5.548-45.671-4.221-90.506,2.947-132.276l1.232-7.803l1.686-7.713
				c1.099-5.101,2.001-10.231,3.276-15.22c0.028-0.198,0.125-0.401,0.151-0.599c2.648-9.818,4.874-19.491,8.106-28.82
				c0.715-2.395,1.474-4.781,2.249-7.137l1.076-3.559l1.334-3.493c1.683-4.614,3.409-9.216,5.082-13.787
				c0.419-1.126,0.779-2.288,1.226-3.43l1.446-3.305c0.952-2.245,1.919-4.462,2.833-6.649c1.967-4.382,3.538-8.818,5.756-13.024
				c16.099-33.967,34.751-63.668,54.785-88.26c19.932-24.641,40.56-44.525,59.812-60.38c2.447-1.937,4.839-3.844,7.206-5.733
				c2.372-1.819,4.561-3.822,6.991-5.422c4.748-3.387,9.254-6.631,13.546-9.746c4.453-3.029,8.878-5.677,12.923-8.352
				c2.044-1.332,4.002-2.687,5.944-3.885c2.059-1.124,4.049-2.242,5.944-3.338c3.813-2.21,7.413-4.29,10.77-6.228
				c0.923-0.588,1.503-0.716,2.178-1.047c0.664-0.289,1.33-0.577,1.968-0.85c1.244-0.599,1.18-0.342,2.317-0.876
				c0.96-0.466,1.453-0.615,1.502-0.534l105.658,176.562l54.75-178.466l123.518-412.638l-605.186-122.305l112.239,187.559
				c0.161,0.268-2.881,2.489-5.226,4.292c-5.011,3.982-9.856,7.938-15.807,12.664c-2.929,2.409-5.677,4.635-8.831,7.216
				c-1.53,1.279-2.994,2.484-4.604,3.812c-1.599,1.284-3.333,2.649-4.653,3.912c-5.704,5.199-11.725,10.659-18.154,16.473
				c-3.155,2.945-6.406,5.911-9.734,8.995c-3.294,3.138-6.547,6.468-9.907,9.862c-6.693,6.773-13.819,13.733-20.898,21.321
				c-6.93,7.717-14.116,15.732-21.604,24.038c-3.794,4.129-7.252,8.638-10.95,13.11c-3.603,4.45-7.307,9.034-11.075,13.694
				c-29.504,37.436-59.238,82.219-85.172,133.837c-26.025,51.526-47.557,110.198-62.286,173.359
				c-2.057,7.824-3.379,15.901-5.029,23.919c-0.76,4.025-1.564,8.038-2.351,12.08l-1.149,6.114l-0.94,6.099
				c-1.189,8.178-2.399,16.443-3.625,24.681l-0.875,6.207l-0.619,6.27c-0.423,4.224-0.835,8.405-1.231,12.612
				c-1.917,16.701-2.463,33.746-3.297,50.856c-0.278,8.544-0.16,17.142-0.191,25.794c0,4.261,0.034,8.578,0.012,12.925
				c0.188,4.331,0.376,8.663,0.563,12.993c2.643,69.303,15.452,139.952,38.296,207.586c3.002,8.366,6.011,16.802,9.03,25.194
				c3.099,8.345,6.708,16.566,10.081,24.82l5.196,12.334l5.727,12.127l5.737,12.083c1.931,4.018,3.765,8.056,5.926,11.972
				c4.21,7.825,7.872,16.015,12.098,23.868c1.043,1.925,1.474,4.29,2.614,6.194l3.435,5.74l7.465,11.014l7.197,11.174
				c2.279,3.808,5.068,7.311,7.519,10.981l14.93,21.846c3.162,5.101,1.193,1.689,2.007,2.988l0.433,0.541l0.857,1.127l1.734,2.167
				l3.447,4.42l6.862,8.788l3.448,4.422l1.707,2.184l2.152,2.682l8.961,10.958l9.014,10.923l4.502,5.393
				c1.493,1.765,2.966,3.252,4.465,4.905c5.938,6.391,11.901,12.766,17.812,19.174c2.907,3.214,6.105,6.182,9.193,9.215l9.339,9.092
				l9.29,9.011l9.692,8.587c6.485,5.663,12.851,11.433,19.443,16.849c6.7,5.353,13.368,10.651,20.035,15.949
				c54.034,41.356,112.442,73.645,171.413,96.164c3.67,1.446,7.351,2.848,11.004,4.267c3.703,1.318,7.4,2.567,11.124,3.798
				c7.395,2.497,14.644,5.115,22.034,7.359c14.886,4.241,29.381,8.68,44.103,11.855c3.654,0.872,7.305,1.676,10.932,2.564
				l5.407,1.244l5.461,1.031c7.294,1.353,14.529,2.669,21.678,3.964l5.386,0.965l5.413,0.768c3.58,0.443,7.166,0.957,10.719,1.417
				c7.134,0.903,14.139,2.14,21.208,2.571c37.894,3.732,74.355,4.279,108.74,2.207c16.72-0.973,32.954-2.637,48.609-4.902
				c47.924-6.715,90.532-18.115,126.875-30.976c4.51-1.715,8.972-3.329,13.348-4.964c4.333-1.647,8.666-3.11,12.774-4.949
				c8.254-3.556,16.187-6.917,23.802-10.201c7.563-3.432,14.631-7.08,21.449-10.358c3.362-1.685,6.694-3.241,9.917-4.915
				c3.122-1.723,6.511-2.876,9.542-4.508C2397.213,2069.5,2403.38,2067.085,2408.557,2063.987z"/>
			
				<linearGradient id="SVGID_00000125585889379037964860000007365827086442954417_" gradientUnits="userSpaceOnUse" x1="5543.686" y1="-4403.939" x2="5838.7212" y2="-4808.2861" gradientTransform="matrix(0.5135 0.8581 0.8581 -0.5135 3040.6387 -5399.8799)">
				<stop  offset="0.0036" style="stop-color:#6165D7"/>
				<stop  offset="1" style="stop-color:#AA80F9"/>
			</linearGradient>
			<path style="opacity:0.4;fill:url(#SVGID_00000125585889379037964860000007365827086442954417_);" d="M2408.557,2063.987
				l2.145-1.284c-36.875-3.431-92.621-15.75-125.299-23.549c-1.137,0.17-2.427,0.084-3.563,0.255
				c-33.68,4.893-71.933,7.195-112.906,4.832c-40.973-2.182-84.678-9.963-128.58-23.249c-5.52-1.433-10.963-3.65-16.44-5.436
				c-2.721-0.958-5.508-1.9-8.246-2.885l-4.104-1.38c-1.399-0.511-2.735-1.101-4.107-1.628c-5.422-2.182-10.872-4.352-16.365-6.529
				l-4.105-1.625l-4.039-1.88c-2.701-1.226-5.401-2.451-8.075-3.693c-10.924-4.681-21.429-10.489-32.101-15.904
				c-5.304-2.836-10.521-6.017-15.739-9.013c-2.593-1.472-5.245-2.981-7.843-4.523c-2.55-1.644-5.142-3.297-7.676-4.913
				c-41.079-25.976-78.977-58.446-111.385-95.62c-3.972-4.689-7.945-9.38-11.949-14.124c-3.853-4.796-7.487-9.833-11.219-14.669
				l-5.603-7.354l-5.164-7.656l-5.218-7.624c-1.707-2.548-3.531-4.988-5.067-7.677c-3.172-5.241-6.372-10.465-9.56-15.734
				c-0.771-1.288-1.686-2.634-2.327-3.888l-1.915-3.626l-3.83-7.252l-3.825-7.182c-0.342-0.633-0.599-1.061-1.027-1.899
				l-3.749-7.482l-5.059-9.976l-3.75-7.483l-0.641-1.254l-0.23-0.446c0.027-0.016-1.492-2.493,1.092,1.643l-6.981-16.842
				c-1.122-2.788-2.422-5.507-3.383-8.392l-3.012-8.504l-3.041-8.489l-1.512-4.232c-0.514-1.406-0.876-2.864-1.32-4.274
				c-1.709-5.717-3.443-11.416-5.11-17.122c-0.956-2.814-1.542-5.742-2.263-8.59l-2.053-8.606l-2.161-8.542l-1.636-8.638
				c-1.054-5.779-2.324-11.431-3.191-17.141c-0.797-5.714-1.611-11.456-2.366-17.162c-5.548-45.671-4.221-90.506,2.947-132.276
				l1.232-7.803l1.686-7.713c1.099-5.101,2.001-10.231,3.276-15.22c0.028-0.198,0.125-0.401,0.151-0.599
				c-50.71,137.983-37.63,304.526,49.072,449.412c88.838,148.454,234.225,239.535,383.531,257.061
				c16.72-0.973,32.954-2.637,48.609-4.902c47.924-6.715,90.532-18.115,126.875-30.976c4.51-1.715,8.972-3.329,13.348-4.964
				c4.333-1.647,8.666-3.11,12.774-4.949c8.254-3.556,16.187-6.917,23.802-10.201c7.563-3.432,14.631-7.08,21.449-10.358
				c3.362-1.685,6.694-3.241,9.917-4.915c3.122-1.723,6.511-2.876,9.542-4.508C2397.213,2069.5,2403.38,2067.085,2408.557,2063.987z
				"/>
		</g>
		<g>
			<path style="fill:#F4F7FA;" d="M2271.683,1999.073c-2.182,0.596-4.027,2.055-5.111,4.04c-1.084,1.985-1.314,4.326-0.635,6.484
				l47.474,151.127c1.358,4.322,5.923,6.765,10.272,5.496l110.256-32.158c4.392-1.281,6.927-5.866,5.676-10.266l-42.745-150.398
				c-1.248-4.391-5.799-6.957-10.201-5.754L2271.683,1999.073z"/>
			
				<linearGradient id="SVGID_00000050625878700362591630000010408233313999708824_" gradientUnits="userSpaceOnUse" x1="2244.6943" y1="1887.8954" x2="2485.3586" y2="2279.0835">
				<stop  offset="0" style="stop-color:#FF9085"/>
				<stop  offset="1" style="stop-color:#FB6FBB"/>
			</linearGradient>
			<path style="fill:url(#SVGID_00000050625878700362591630000010408233313999708824_);" d="M2280.456,2006.42
				c-1.946,0.532-3.591,1.833-4.558,3.603c-0.966,1.77-1.171,3.858-0.567,5.782l42.336,134.772c1.211,3.854,5.282,6.032,9.16,4.901
				l98.325-28.678c3.916-1.142,6.177-5.231,5.062-9.155l-38.119-134.122c-1.113-3.915-5.171-6.204-9.097-5.131L2280.456,2006.42z"/>
			<path style="opacity:0.75;fill:#F4F7FA;" d="M2295.162,2013.927c-1.498,0.409-2.767,1.407-3.517,2.768
				c-0.75,1.36-0.918,2.965-0.465,4.451l13.397,43.956c0.904,2.964,3.993,4.677,6.986,3.875l78.463-21.047
				c1.482-0.397,2.743-1.371,3.503-2.704c0.76-1.333,0.956-2.914,0.543-4.392l-12.452-44.614c-0.85-3.045-4-4.832-7.05-3.998
				L2295.162,2013.927z"/>
			<path style="opacity:0.75;fill:#F4F7FA;" d="M2315.093,2084.06c-1.546,0.423-2.855,1.453-3.629,2.856s-0.947,3.06-0.48,4.593
				l13.823,45.356c0.932,3.058,4.12,4.827,7.208,3.999l80.962-21.717c1.529-0.41,2.83-1.415,3.615-2.79
				c0.785-1.375,0.986-3.007,0.561-4.531l-12.848-46.036c-0.877-3.142-4.128-4.986-7.275-4.126L2315.093,2084.06z"/>
			
				<linearGradient id="SVGID_00000103228054929400763040000011158320991654102457_" gradientUnits="userSpaceOnUse" x1="2820.7458" y1="2005.4545" x2="2938.7209" y2="2513.261">
				<stop  offset="0" style="stop-color:#FF9085"/>
				<stop  offset="1" style="stop-color:#FB6FBB"/>
			</linearGradient>
			<path style="fill:url(#SVGID_00000103228054929400763040000011158320991654102457_);" d="M2913.284,2076.614
				c6.203,2.345,100.809,39.968,120.254,138.709c1.571,7.977,16.77,92.811-40.762,152.742
				c-64.512,67.202-188.734,65.536-238.042,9.357c-11.498-13.101-17.565-27.622-20.963-39.822l0,0l12.992-34.516
				c15.852-19.137,37.436-23.672,48.963-26.513c28.418-7.003,49.874,5.654,66.148-8.05c9.005-7.582,10.794-18.495,12.392-28.243
				c5.443-33.202-13.297-53.64-14.661-74.115c-1.02-15.306-6.378-48.845,13.6-70.716
				C2885.858,2081.597,2903.381,2077.826,2913.284,2076.614z"/>
			
				<linearGradient id="SVGID_00000088855117790936230340000008379100487616253569_" gradientUnits="userSpaceOnUse" x1="2598.6648" y1="3349.2021" x2="2637.4402" y2="3383.6929" gradientTransform="matrix(0.9902 -0.14 0.14 0.9902 -102.8428 206.9384)">
				<stop  offset="0" style="stop-color:#444B8C"/>
				<stop  offset="0.9964" style="stop-color:#26264F"/>
			</linearGradient>
			<path style="fill:url(#SVGID_00000088855117790936230340000008379100487616253569_);" d="M2950.146,3177.049
				c1.104-6.079,20.734-11.581,30.455-3.439c4.826,4.042,8.15,12.237,5.358,15.939c-1.016,1.347,3.145,3.715-0.842,3.761
				C2971.893,3193.464,2949.049,3183.089,2950.146,3177.049z"/>
			
				<linearGradient id="SVGID_00000033368004398143751420000005141071837349128072_" gradientUnits="userSpaceOnUse" x1="1710.7505" y1="3383.7415" x2="1710.7505" y2="3316.1902" gradientTransform="matrix(0.9902 -0.14 0.14 0.9902 813.3583 77.4224)">
				<stop  offset="0" style="stop-color:#FFC444"/>
				<stop  offset="0.9964" style="stop-color:#F36F56"/>
			</linearGradient>
			<path style="fill:url(#SVGID_00000033368004398143751420000005141071837349128072_);" d="M2970.722,3179.261l20.189-2.854
				c-9.354-11.261-7.622-47.124-7.622-47.124l-21.47,4.793c0,0,2.446,9.844,6.608,24.364
				C2969.852,3163.41,2970.488,3171.19,2970.722,3179.261z"/>
			
				<linearGradient id="SVGID_00000137835855086092618690000005241174288030033814_" gradientUnits="userSpaceOnUse" x1="2602.5632" y1="3344.8208" x2="2641.3384" y2="3379.3113" gradientTransform="matrix(0.9902 -0.14 0.14 0.9902 -102.8428 206.9384)">
				<stop  offset="0" style="stop-color:#444B8C"/>
				<stop  offset="0.9964" style="stop-color:#26264F"/>
			</linearGradient>
			<path style="fill:url(#SVGID_00000137835855086092618690000005241174288030033814_);" d="M2968.932,3176.774
				c0,0,24.307-5.599,26.936-0.779c2.629,4.822,4.67,17.731-10.751,17.314C2969.695,3192.894,2967.562,3180.862,2968.932,3176.774z"
				/>
			
				<linearGradient id="SVGID_00000084529440878237053050000017454038285603453588_" gradientUnits="userSpaceOnUse" x1="2664.7922" y1="3180.9453" x2="2703.5693" y2="3215.4377">
				<stop  offset="0" style="stop-color:#444B8C"/>
				<stop  offset="0.9964" style="stop-color:#26264F"/>
			</linearGradient>
			<path style="fill:url(#SVGID_00000084529440878237053050000017454038285603453588_);" d="M2673.131,3199.843
				c1.943-5.864,22.151-8.565,30.636,0.858c4.213,4.678,6.357,13.258,3.074,16.531c-1.195,1.191,2.593,4.119-1.36,3.607
				C2692.366,3219.141,2671.199,3205.67,2673.131,3199.843z"/>
			
				<linearGradient id="SVGID_00000084525000699150822600000003340650307145832339_" gradientUnits="userSpaceOnUse" x1="1713.859" y1="526.747" x2="1756.5109" y2="563.0587" gradientTransform="matrix(0.1359 0.9907 0.9907 -0.1359 1532.756 497.6357)">
				<stop  offset="0" style="stop-color:#FFC444"/>
				<stop  offset="0.9964" style="stop-color:#F36F56"/>
			</linearGradient>
			<path style="fill:url(#SVGID_00000084525000699150822600000003340650307145832339_);" d="M2323.648,2171.052l-18.453-8.838
				c-2.866-2.291-7.25-6.358-10.574-12.591c-5.47-10.26-5.383-21.365-5.312-21.376c0.043-0.006-0.841-14.936,5.494-17.464
				c0.83-0.331,1.788-0.437,2.893-0.258l6.564,17.285c0,0,1.051,7.52,12.909,15.324c11.756,10.239,16.49,19.598,16.49,19.598
				L2323.648,2171.052z"/>
			
				<linearGradient id="SVGID_00000144333262727105679110000004480099576230138529_" gradientUnits="userSpaceOnUse" x1="1776.8341" y1="3215.5066" x2="1776.8341" y2="3147.9524" gradientTransform="matrix(1 0 0 1 925.3102 0)">
				<stop  offset="0" style="stop-color:#FFC444"/>
				<stop  offset="0.9964" style="stop-color:#F36F56"/>
			</linearGradient>
			<path style="fill:url(#SVGID_00000144333262727105679110000004480099576230138529_);" d="M2693.195,3204.913h20.389
				c-7.685-12.46-0.951-47.727-0.951-47.727l-21.93,1.74c0,0,1.045,10.089,3.133,25.049
				C2694.552,3189.097,2694.093,3196.889,2693.195,3204.913z"/>
			
				<linearGradient id="SVGID_00000078749037666855390090000002903776780900923836_" gradientUnits="userSpaceOnUse" x1="-423.2149" y1="3246.4836" x2="-676.0682" y2="2225.5916" gradientTransform="matrix(-1 0 0 1 2275.7473 0)">
				<stop  offset="0" style="stop-color:#444B8C"/>
				<stop  offset="0.9964" style="stop-color:#26264F"/>
			</linearGradient>
			<path style="fill:url(#SVGID_00000078749037666855390090000002903776780900923836_);" d="M2640.353,2433.861
				c-9.445,31.19-22.934,81.532-31.616,144.692c-24.767,180.154,27.873,185.901,18.042,385.535
				c-3.138,63.724,55.207,210.664,60.349,213.909c2.49,0.241,5.189,0.404,8.069,0.316c5.075-0.153,12.23-0.93,20.55-3.425
				c9.242-1.593,42.564-91.847,34.841-145.509c-5.467-37.98-3.882-78.74-0.713-160.26c0.513-13.209,34.309-256.987,34.309-256.987
				l0,0c10.28,90.233,22.102,166.903,32.352,226.345c32.93,190.98,139.999,306.574,145.584,308.428
				c1.103,0.443,11.15,4.093,19.364-1.321c3.656-2.409,4.9-5.519,4.9-5.519c2.864-2.242-0.844-190.671-33.502-332.481
				c-47.402-205.835-26.761-253.997-41.779-345.935C2898.108,2382.097,2640.353,2433.861,2640.353,2433.861z"/>
			
				<linearGradient id="SVGID_00000161616966710485031230000005679636422587044780_" gradientUnits="userSpaceOnUse" x1="2727.8477" y1="2027.0369" x2="2845.8228" y2="2534.8435">
				<stop  offset="0" style="stop-color:#FF9085"/>
				<stop  offset="1" style="stop-color:#FB6FBB"/>
			</linearGradient>
			<path style="fill:url(#SVGID_00000161616966710485031230000005679636422587044780_);" d="M2831.819,2060.548
				c-31.472-0.925-92.426-11.202-132.268,24.648c-0.693,0.622-3.914,4.15-7.933,8.859c-3.731,4.372-16.529,19.676-28.132,40.366
				c-8.404,14.984-15.989,32.45-23.642,58.482c-13.497,45.909-17.369,85-18.664,102.033c-7.283,95.783-0.062,139.974,6.492,170.024
				c28.454,14.615,101.775,40.769,189.138,27.774c39.896-5.935,71.825-19.21,94.293-31.062
				c-22.668-68.636-4.884-105.365,3.505-139.217c11.966-48.271,12.157-44.622,22.008-82.967
				c16.254-63.271,18.921-127.921,7.753-141.151C2914.256,2062.667,2859.997,2061.377,2831.819,2060.548z"/>
			
				<linearGradient id="SVGID_00000152249102290844236920000013779452269251674282_" gradientUnits="userSpaceOnUse" x1="2676.553" y1="2193.7434" x2="3008.7427" y2="2457.386">
				<stop  offset="0" style="stop-color:#FF9085"/>
				<stop  offset="1" style="stop-color:#FB6FBB"/>
			</linearGradient>
			<path style="opacity:0.3;fill:url(#SVGID_00000152249102290844236920000013779452269251674282_);" d="M2944.37,2098.338
				c-16.906-20.027-41.423-29.215-64.663-33.571c10.894,48.626-13.854,108.177-47.439,139.787
				c-31.335,29.492-60.161,9.907-80.931,34.495c-17.153,20.306-17.712,53.309-9.057,75.944
				c11.705,30.613,36.947,33.589,35.635,50.866c-1.739,22.904-47.789,39.953-81.658,43.14c-35.375,3.33-63.582-7.885-77.567-14.637
				c1.416,32.404,5.305,53.729,8.983,70.597c28.454,14.615,101.775,40.769,189.138,27.775c39.896-5.935,71.825-19.21,94.292-31.062
				c-22.668-68.637-4.884-105.365,3.506-139.217c11.965-48.272,12.157-44.623,22.008-82.967
				C2952.871,2176.219,2955.538,2111.567,2944.37,2098.338z"/>
			
				<linearGradient id="SVGID_00000165915928198744791400000010389020530165570996_" gradientUnits="userSpaceOnUse" x1="2668.6907" y1="3176.5632" x2="2707.4675" y2="3211.0552">
				<stop  offset="0" style="stop-color:#444B8C"/>
				<stop  offset="0.9964" style="stop-color:#26264F"/>
			</linearGradient>
			<path style="fill:url(#SVGID_00000165915928198744791400000010389020530165570996_);" d="M2691.77,3202.2
				c0,0,24.851-2.142,26.779,2.999c1.928,5.141,2.143,18.21-13.068,15.639C2690.27,3218.267,2689.842,3206.057,2691.77,3202.2z"/>
			
				<linearGradient id="SVGID_00000045614046248117233260000012216564621231652266_" gradientUnits="userSpaceOnUse" x1="2507.9473" y1="2078.1248" x2="2625.9221" y2="2585.9307">
				<stop  offset="0" style="stop-color:#FF9085"/>
				<stop  offset="1" style="stop-color:#FB6FBB"/>
			</linearGradient>
			<path style="fill:url(#SVGID_00000045614046248117233260000012216564621231652266_);" d="M2748.542,2072.028
				c-34.422-22.396-124.431,47.775-151.68,67.128c-105.664,75.04-92.998,121.85-140.986,98.483
				c-32.449-15.799-36.854-63.427-92.31-81.342c-9.804-3.167-18.238-4.447-23.667-5.034c-0.074,0.04-18.312,9.741-18.392,9.765
				c-6.478,2.098-12.955,4.193-18.39,9.767c-5.335,11.072-10.223,24.559-12.68,40.284c0.525,5.585,1.622,14.845,4.136,26.027
				c2.082,9.255,26.444,110.533,111.127,141.722c15.557,5.729,28.482,7.376,35.005,8.167c27.827,3.374,53.05-0.75,96.168-15.609
				c73.038-25.166,128.8-48.774,178.102-106.477c2.349-2.749,4.247-5.446,6.142-8.351
				C2757.786,2200.334,2781.773,2093.645,2748.542,2072.028z"/>
			<g>
				
					<linearGradient id="SVGID_00000145752444976199605530000015666850935661211309_" gradientUnits="userSpaceOnUse" x1="2702.9299" y1="1950.6272" x2="2912.9241" y2="2214.8269">
					<stop  offset="0" style="stop-color:#FFC444"/>
					<stop  offset="0.9964" style="stop-color:#F36F56"/>
				</linearGradient>
				<path style="fill:url(#SVGID_00000145752444976199605530000015666850935661211309_);" d="M2743.249,2024.465
					c-9.748-16.482-5.405-35.31-4.426-39.378c4.1-17.033,5.625-19.617,8.786-23.222l4.47-4.727c0,0,0.277-0.207,0.572-0.41
					c3.108-2.138,14.716-5.613,17.221-5.738c8.005-0.402,24.294,28.302,33.621,72.535c0.758,1.579,1.508,3.175,2.251,4.787
					c4.626,10.035,8.595,19.904,12.002,29.527c54.094,4.574,61.602,10.92,61.843,14.585c0.507,7.716-30.315,16.631-53.495,20.025
					c-50.552,7.401-102.518-5.931-102.281-15.358c0.104-4.104,10.152-9.452,53.007-15.064c-1.002-7.092-2.004-14.183-3.007-21.275
					C2770.333,2039.981,2750.429,2036.608,2743.249,2024.465z"/>
				<path style="fill:#FFFFFF;" d="M2733.08,1948.932c3.647,13.502,13.863,26.237,17.725,27.692c0.498,0.188,3.353,1.422,6.32,4.042
					c0.404,0.356,0.793,0.796,1.196,1.392c5.23,7.726-5.639,21.359-2.009,24.475c2.634,2.26,10.851-3.892,12.581-1.795
					c1.631,1.973-4.776,8.667-2.888,11.047c1.426,1.797,5.637-1.317,9.435,1.005c1.893,1.156,1.786,2.502,4.618,6.825
					c1.602,2.445,3.623,5.049,5.02,6.425c6.785,6.689,20.785,6.062,22.485,2.208c0.473-1.074-0.334-1.656-0.402-4.818
					c0,0-0.063-2.932,1.004-6.624c1.524-5.276,7.262-10.288,12.647-16.864c9.973-12.178,11.307-20.648,11.632-23.476
					c0.115-1.007,0.154-1.754,0.183-2.293c0.554-10.816-3.332-25.451-10.208-33.255c-11.521-13.073-26.536-1.406-44.368-12.647
					c-20.575-12.97-17.335-39.06-26.701-39.349C2741.025,1892.6,2726.336,1923.967,2733.08,1948.932z"/>
				
					<linearGradient id="SVGID_00000008841479948706854760000001610934248459783091_" gradientUnits="userSpaceOnUse" x1="2711.7842" y1="1943.5862" x2="2921.7856" y2="2207.7947">
					<stop  offset="0" style="stop-color:#FFC444"/>
					<stop  offset="0.9964" style="stop-color:#F36F56"/>
				</linearGradient>
				<path style="fill:url(#SVGID_00000008841479948706854760000001610934248459783091_);" d="M2760.323,2002.061
					c2.099-5.434,9.06-2.709,10.663,3.17c1.604,5.879-2.469,13.523-8.314,13.836
					C2756.826,2019.379,2757.499,2009.375,2760.323,2002.061z"/>
			</g>
			<path style="fill:#FFFFFF;" d="M2760.383,1991.494l-5.019,12.044c0,0-5.091,14.542-11.644,9.036
				c-4.162-3.498-5.044-3.859-5.732-4.019c-0.064-0.015-0.84-2.887-0.893-5.426c-1.262,3.483-3.012,9.406-3.011,16.27
				c0.001,6.667,0.001,13.807,5.219,19.272c0.302,0.316,5.988,6.1,13.652,5.822c0,0,3.014-0.109,14.455-5.42
				c0,0-15.658-6.022-16.462-8.231c-2.183-6.005,5.46-11.602,8.432-25.899C2760.526,1999.429,2760.554,1994.699,2760.383,1991.494z"
				/>
		</g>
	</g>
</g>
</svg>
