<?xml version="1.0" encoding="utf-8"?>
<!-- Generator: Adobe Illustrator 27.5.0, SVG Export Plug-In . SVG Version: 6.00 Build 0)  -->
<svg version="1.1" xmlns="http://www.w3.org/2000/svg" xmlns:xlink="http://www.w3.org/1999/xlink" x="0px" y="0px"
	 viewBox="0 0 750 500" style="enable-background:new 0 0 750 500;" xml:space="preserve">
<g id="BACKGROUND">
	<g>
		<rect style="fill:#FFFFFF;" width="750" height="500"/>
		<path style="fill:none;stroke:#BAC6FC;stroke-width:2.126;stroke-miterlimit:10;" d="M674.593,130.856l3.768-20.148
			c0.384-2.054-0.969-4.03-3.023-4.414l-4.953-0.926c-1.617-0.302-2.845-1.616-3.051-3.248c-0.375-2.972-0.993-5.906-1.851-8.776
			c-0.471-1.576,0.122-3.274,1.479-4.203l4.157-2.848c1.724-1.181,2.164-3.535,0.983-5.259l-11.583-16.912
			c-1.181-1.724-3.535-2.164-5.259-0.983l-4.157,2.847c-1.357,0.93-3.155,0.869-4.454-0.14c-2.367-1.837-4.88-3.474-7.516-4.898
			c-1.447-0.782-2.229-2.402-1.926-4.018l0.926-4.952c0.384-2.054-0.969-4.03-3.023-4.414l-20.148-3.768
			c-2.054-0.384-4.03,0.969-4.414,3.023l-0.926,4.953c-0.302,1.617-1.616,2.845-3.248,3.051c-2.972,0.375-5.905,0.993-8.774,1.851
			c-1.576,0.471-3.274-0.122-4.204-1.479l-2.847-4.157c-1.181-1.724-3.535-2.164-5.259-0.983l-16.912,11.583
			c-1.724,1.181-2.164,3.535-0.983,5.259l2.847,4.156c0.93,1.357,0.869,3.155-0.14,4.454c-1.837,2.367-3.474,4.879-4.897,7.515
			c-0.782,1.448-2.401,2.229-4.018,1.927l-4.952-0.926c-2.054-0.384-4.03,0.969-4.414,3.023l-3.768,20.148
			c-0.384,2.054,0.969,4.03,3.023,4.414l4.952,0.926c1.617,0.302,2.845,1.616,3.051,3.248c0.375,2.972,0.994,5.906,1.851,8.777
			c0.471,1.576-0.122,3.274-1.479,4.204l-4.156,2.847c-1.724,1.181-2.164,3.535-0.983,5.259l11.583,16.912
			c1.181,1.724,3.535,2.164,5.259,0.983l4.156-2.847c1.357-0.93,3.154-0.869,4.454,0.139c2.367,1.836,4.878,3.473,7.513,4.896
			c1.447,0.782,2.229,2.402,1.926,4.018l-0.926,4.953c-0.384,2.054,0.969,4.03,3.023,4.414l20.148,3.768
			c2.054,0.384,4.03-0.97,4.414-3.023l0.926-4.952c0.302-1.617,1.616-2.845,3.248-3.051c2.973-0.375,5.907-0.994,8.778-1.851
			c1.576-0.471,3.274,0.122,4.204,1.479l2.847,4.157c1.181,1.724,3.535,2.164,5.259,0.983l16.912-11.583
			c1.724-1.181,2.164-3.535,0.983-5.259l-2.847-4.157c-0.93-1.357-0.869-3.154,0.139-4.454c1.836-2.367,3.473-4.879,4.897-7.514
			c0.782-1.447,2.401-2.229,4.018-1.926l4.953,0.926C672.233,134.263,674.209,132.91,674.593,130.856z M633.046,138.262
			L633.046,138.262c-7.702,5.275-17.184,7.275-26.36,5.559l0,0c-9.177-1.716-17.295-7.007-22.57-14.709l0,0
			c-5.275-7.702-7.275-17.184-5.559-26.36l0,0c1.716-9.176,7.007-17.295,14.709-22.57v0c7.702-5.275,17.184-7.275,26.36-5.559l0,0
			c9.176,1.716,17.295,7.007,22.57,14.708l0,0c5.275,7.702,7.275,17.184,5.559,26.36l0,0
			C646.039,124.868,640.748,132.986,633.046,138.262z"/>
		<path style="fill:#6252D7;" d="M203.669,101.219c-0.116-2.161-0.561-4.34-1.389-6.468c-2.804-7.206-9.159-11.962-16.282-13.092
			c-1.979-14.431-14.35-25.55-29.324-25.55c-13.003,0-24.041,8.386-28.019,20.043c-3.243-1.556-6.876-2.428-10.714-2.428
			c-13.699,0-24.804,11.105-24.804,24.804c0,0.86,0.056,1.706,0.141,2.544h-2.084c-8.361,0-15.139,6.778-15.139,15.14v0
			c0,1.007,0.103,1.988,0.291,2.94h27.815h27.561h38.488h25.058h21.247c0.187-0.952,0.291-1.934,0.291-2.94v0
			C216.805,108.531,211.081,102.202,203.669,101.219z"/>
	</g>
</g>
<g id="OBJECTS">
	<g>
		<polygon style="fill:#0F1E36;" points="462.102,448.75 318.373,448.75 332.186,396.704 448.288,396.704 		"/>
		<path style="fill:#6252D7;" d="M496.972,451.088H283.503l1.176-2.693c3.119-7.144,10.174-11.761,17.969-11.761h175.18
			c7.795,0,14.85,4.618,17.969,11.761L496.972,451.088z"/>
		<path style="fill:#DBDFFF;" d="M608.602,404.431H172.287c-6.425,0-11.668-5.25-11.651-11.667l0.785-299.086
			c0.017-6.417,5.287-11.667,11.713-11.667h436.316c6.425,0,11.668,5.25,11.651,11.667l-0.786,299.086
			C620.298,399.181,615.027,404.431,608.602,404.431z"/>
		<path style="fill:#6252D7;" d="M608.93,404.431H172.614c-6.425,0-11.668-5.25-11.651-11.667l0.129-49.281h459.68l-0.13,49.281
			C620.626,399.181,615.355,404.431,608.93,404.431z"/>
		<g>
			<defs>
				<polygon id="SVGID_1_" points="176.045,329.341 176.654,97.332 605.69,97.332 605.081,329.341 				"/>
			</defs>
			<clipPath id="SVGID_00000003807170250141751920000011133956590237781924_">
				<use xlink:href="#SVGID_1_"  style="overflow:visible;"/>
			</clipPath>
			<polygon style="clip-path:url(#SVGID_00000003807170250141751920000011133956590237781924_);fill:#FFFFFF;" points="
				176.045,329.341 176.654,97.332 605.69,97.332 605.081,329.341 			"/>
		</g>
	</g>
	<g>
		<g id="XMLID_906_">
			<path id="XMLID_888_" style="fill:#FF6238;" d="M324.453,306.711h-36.434c-3.497,0-6.331-2.835-6.331-6.332v-36.434
				c0-3.497,2.835-6.332,6.331-6.332h36.434c3.497,0,6.332,2.835,6.332,6.332v36.434
				C330.784,303.876,327.95,306.711,324.453,306.711z"/>
		</g>
		<g id="XMLID_6_">
			<path id="XMLID_15_" style="fill:#6252D7;" d="M265.631,306.711h-36.434c-3.497,0-6.331-2.835-6.331-6.332v-36.434
				c0-3.497,2.835-6.332,6.332-6.332h36.434c3.497,0,6.332,2.835,6.332,6.332v36.434
				C271.963,303.876,269.128,306.711,265.631,306.711z"/>
		</g>
		<path style="fill:#FFFFFF;" d="M319.816,272.697L319.816,272.697c-3.623-3.623-9.496-3.623-13.119,0l-0.462,0.462l-0.325-0.325
			c-3.574-3.574-9.398-3.793-13.068-0.318c-3.808,3.605-3.871,9.617-0.187,13.301l0.462,0.462l10.816,10.815
			c1.272,1.272,3.335,1.272,4.607,0l11.277-11.277C323.439,282.193,323.439,276.319,319.816,272.697z"/>
		<g id="XMLID_909_">
			<g>
				<path style="fill:#FFFFFF;" d="M239.574,275.093h-7.387c-0.705,0-1.277,0.572-1.277,1.277v15.888
					c0,0.705,0.572,1.277,1.277,1.277h7.387c0.705,0,1.277-0.572,1.277-1.277V276.37
					C240.851,275.665,240.279,275.093,239.574,275.093z"/>
				<path style="fill:#FFFFFF;" d="M263.918,282.003c0-1.272-1.031-2.303-2.303-2.303c1.272,0,2.303-1.031,2.303-2.303
					s-1.031-2.303-2.303-2.303h-0.621H252c0.419-3.343,0.099-7.249,0.099-7.249c0-1.223-0.991-2.214-2.214-2.214h-0.077
					c-1.141,0-2.076,0.869-2.204,2.002c-0.155,1.379-0.46,5.705-1.914,6.359c-1.298,0.584-2.038,1.16-2.462,1.647
					c-0.113,0.113-0.205,0.244-0.286,0.382c-0.346,0.563-0.26,0.936-0.26,0.936v14.715c0,1.029,0.835,1.864,1.864,1.864h16.448
					v-0.017h0.621c1.272,0,2.303-1.031,2.303-2.303c0-1.272-1.031-2.303-2.303-2.303c1.272,0,2.303-1.031,2.303-2.303
					c0-1.272-1.031-2.303-2.303-2.303h0C262.887,284.306,263.918,283.275,263.918,282.003z"/>
			</g>
		</g>
	</g>
	<g>
		<g>
			<path style="fill:#FEB8A6;" d="M176.168,372.715c0.997-5.101,1.591-15.074,2.101-24.73c-7.091,0.093-14.184,0.141-21.276,0.159
				c1.358,10.925,3.168,26.289,2.01,38.738c-1.469,15.786,2.104,35.381,3.573,47.039c1.47,11.658,0,16.516,0,16.516H175.9
				c0,0-3.673-3.886-5.143-5.829c-1.469-1.943-2.204-14.249-1.837-19.106C169.288,420.643,174.331,382.106,176.168,372.715z"/>
			<path style="fill:#FEB8A6;" d="M190.366,444.607c-1.469-1.943-2.204-14.249-1.837-19.106c0.367-4.858,3.673-43.394,5.51-52.785
				c1.278-6.536,0.52-16.207,0.31-24.869c-3.431,0.002-6.863,0-10.291,0.061c-3.611,0.063-7.223,0.11-10.834,0.146
				c1.619,10.92,4.133,26.312,3.65,38.828c-0.79,20.477,3.842,35.381,5.311,47.039c1.469,11.658,0,16.516,0,16.516l4.91-1.367
				l9.558,0.486l5.804,0.881C202.457,450.436,191.835,446.55,190.366,444.607z"/>
			<path style="fill:#2603C2;" d="M193.487,446.239c0,0-2.251,1.699-5.169,1.892c-3.901,0.258-5.522-2.647-5.522-2.647
				s-1.483,3.973-0.61,4.952c0.7,0.784,6.097,0.37,11.3,0.64c2.57,0.133,7.221,0.141,9.17-0.193c0.874-0.15-0.633-1.865-1.463-2.15
				C195.925,446.927,193.487,446.239,193.487,446.239z"/>
			<path style="fill:#2603C2;" d="M172.523,446.239c0,0-1.995,1.699-4.581,1.892c-3.457,0.258-4.893-2.647-4.893-2.647
				s-1.314,3.973-0.54,4.952c0.62,0.784,5.402,0.37,10.013,0.64c2.278,0.133,6.399,0.141,8.125-0.193
				c0.774-0.15-0.561-1.865-1.296-2.15C174.684,446.927,172.523,446.239,172.523,446.239z"/>
		</g>
		<path style="fill:#FEB8A6;" d="M204.896,211.137c2.264-1.608,2.56-6.818,4.005-7.627c1.445-0.809,4.952-1.715,5.72-2.776
			c0.768-1.061,0.998,1.557,1.156,2.797c0.159,1.24-1.133,1.036-1.254,2.138c-0.121,1.102,0.545,1.742-0.689,2.475
			c-1.234,0.733-5.851,6.362-5.851,6.362l-2.063-2.568L204.896,211.137z"/>
		<path style="fill:#C68C8F;" d="M216.706,204.522c-0.563,0.145-3.405,0.767-4.6,1.661c-1.195,0.895-2.85,2.396-2.85,2.396
			s0.298-2.605,0.679-3.377c0.77-1.562,3.909-4.475,5.135-4.71c1.226-0.235,3.938,1.241,3.938,1.241L216.706,204.522z"/>
		<g>
			<g>
				<g>
					<path style="fill:#DBDFFF;" d="M332.811,235.08H216.675c-3.205,0-5.804-2.598-5.804-5.803v-106.74
						c0-3.205,2.598-5.804,5.804-5.804h116.137c3.205,0,5.803,2.598,5.803,5.803v106.74
						C338.615,232.482,336.016,235.08,332.811,235.08z"/>
					
						<text transform="matrix(1 0 0 1 229.2393 194.8208)" style="fill:#FFFFFF; font-family:'FredokaOne-Regular'; font-size:28.251px;">WWW</text>
					<path style="fill:#6252D7;" d="M338.615,132.596H210.871v-10.06c0-3.205,2.598-5.804,5.804-5.804h116.137
						c3.205,0,5.803,2.598,5.803,5.803V132.596z"/>
					<g>
						<path style="fill:#FFFFFF;" d="M306.228,125.199c0,2.01-1.63,3.64-3.64,3.64c-2.01,0-3.64-1.63-3.64-3.64s1.63-3.64,3.64-3.64
							C304.598,121.559,306.228,123.188,306.228,125.199z"/>
						<path style="fill:#E8F4FF;" d="M318.719,125.199c0,2.01-1.63,3.64-3.64,3.64s-3.64-1.63-3.64-3.64s1.63-3.64,3.64-3.64
							S318.719,123.188,318.719,125.199z"/>
						<path style="fill:#CEDFFD;" d="M331.21,125.199c0,2.01-1.629,3.64-3.64,3.64c-2.01,0-3.64-1.63-3.64-3.64s1.63-3.64,3.64-3.64
							C329.58,121.559,331.21,123.188,331.21,125.199z"/>
					</g>
				</g>
			</g>
		</g>
		<path style="fill:#FEB8A6;" d="M182.507,227.828c2.189-1.076,4.703-2.797,10.299-7.252c3.043-2.423,10.566-8.068,12.091-9.439
			c1.111,1.015,1.182-0.046,2.208,0.944c0.624,0.601,1.257,1.192,1.889,1.784c-2.665,3.68-13.528,16.603-20.083,22.118
			c-4.797,4.036-10.076,2.947-13.856,3.21c-3.78,0.263-12.803-0.454-12.803-0.454l4.772-10.347
			C166.83,227.872,178.159,229.965,182.507,227.828z"/>
		<path style="fill:#FF6238;" d="M205.171,210.891c0,0,2.875,2.387,3.427,6.635c0,0-12.574,16.87-20.29,21.869
			c-6.811,4.413-16.29,24.888-22.811,20.72c-9.187-5.873-11.14-21.473-3.246-25.044c3.354-1.518,21.183-8.016,21.183-8.016
			s6.214-5.446,12.188-9.296C200.437,214.656,205.171,210.891,205.171,210.891z"/>
		<path style="fill:#FEB8A6;" d="M207.095,210.256c0.774-1.164,1.406-2.409,1.8-3.745c0.032-0.018,0.064-0.034,0.096-0.053
			c0.424,0.391,0.788,0.693,0.93,0.812c0.428,0.359,3.913,0.875,3.913,0.875s2.387-0.785,3.175-1.014
			c1.228-0.357,1.884,0.577,1.617,1.088c-0.266,0.511-3.239,2.42-4.18,2.661c-0.718,0.184-1.933,1.002-2.637,1.436
			c-0.704,0.433-1.909,0.917-2.182,1.084c-0.358,0.218-0.692,0.497-1.004,0.8C208.157,212.857,207.588,211.535,207.095,210.256z"/>
		<path style="fill:#FEB8A6;" d="M196.628,209.746c-0.195,0.843-0.393,6.739-1.92,8.162c-1.527,1.422-4.712-2.23-5.296-0.763
			c-0.596,1.468,2.079,10.845,2.079,10.845l-16.075,1.535l0.047-13.32c0,0-1.36-5.257,0.17-12.385
			c1.53-7.128,14.249-12.343,14.249-12.343c0.57-0.393,1.199-3.238,2.266-2.247c1.664,1.538,2.582,7.097,3.227,9.86
			C196.02,201.866,196.835,208.902,196.628,209.746z"/>
		<path style="fill:#0F1E36;" d="M158.692,359.551c-0.492-8.414-3.787-29.81-3.797-39.626c-0.014-14.237,5.135-18.27,5.135-18.27
			l45.169,1.2c7.277,16.972,0.173,50.853,1.424,56.222C193.38,366.496,164.02,361.992,158.692,359.551z"/>
		<path style="fill:#FF6238;" d="M203.646,241.025c2.514,6.59-2.913,20.987-3.172,28.036c-0.318,8.641,5.873,31.255,7.882,33.677
			c0,0-5.718,7.068-24.961,7.176c-19.243,0.109-26.402-4.91-26.402-4.91s4.862-17.948,4.306-28.151
			c-0.555-10.204-2.102-29.526,0.416-38.899c0.808-3.007,4.063-10.178,4.063-10.178l22.588-0.404
			C188.366,227.372,201.82,236.238,203.646,241.025z"/>
		<path style="fill:#FEB8A6;" d="M268.447,236.18c-0.393-0.385-0.772,0.133-1.82,0.755c-1.048,0.622-3.631,2.211-4.03,2.363
			c-0.399,0.153,3.004-2.26,3.913-2.887c0.908-0.627,2.116-1.699,2.645-2.471c0.53-0.771,0.04-1.478-0.623-0.979
			c-0.757,0.57-3.209,2.244-3.762,2.643c-0.788,0.568-3.654,2.013-3.288,1.769c0.806-0.538,5.285-3.847,6.253-4.593
			c0.968-0.746,1.05-1.337,0.83-1.658c-0.31-0.454-1.397,0.131-2.589,0.978c-1.192,0.847-2.036,1.426-2.926,1.89
			c-0.89,0.464-2.645,1.448-2.399,1.185c0.292-0.312,3.914-2.766,4.707-3.46c0.793-0.694,1.016-1.337,0.647-1.63
			c-0.369-0.294-0.677-0.165-1.671,0.411c-0.995,0.576-4.043,3.069-5.533,3.53c0,0,0,0,0,0c-0.668,0.196-1.707,0.513-2.549,0.83
			c-0.275,0.104-6.264,0.214-6.264,0.214c-0.016,0.778-0.675,1.87-1.257,2.46c-0.194,0.196-6.861,3.275-6.861,3.275l2.562,6.546
			c0,0,6.451-3.569,8.191-3.381c1.74,0.188,3.094,0.055,4.403-0.373c1.309-0.427,2.385-1.259,5.01-2.442
			c0.961-0.589,3.458-1.872,4.721-2.959C267.409,237.635,268.84,236.565,268.447,236.18z"/>
		<path style="fill:#FF6238;" d="M247.467,238.137c0,0,1.134,3.907,0.271,8.103c0,0-17.477,12.21-25.593,12.231
			c-8.115,0.021-28.698-3.063-32.8-4.786c-4.102-1.723-8.172-4.957-6.052-12.401c2.12-7.443,8.07-6.075,11.533-4.826
			c3.462,1.249,14.699,6.548,18.013,7.532c3.314,0.984,8.703,1.909,8.703,1.909s7.216-1.589,14.118-3.282
			C241.223,241.252,247.467,238.137,247.467,238.137z"/>
		<path style="fill:#0F1E36;" d="M163.359,203.5c-0.152-8.455,3.112-15.281,11.773-16.363c2.869-1.458,6.128-2.209,8.714-2.217
			c7.763-0.022,10.193,3.949,10.847,7.127c0.06,0.293,1.452,4.049-1.72,6.799c0,0,1.378,21.041,2.656,23.657
			c1.674,3.426,5.07,10.984-2.656,19.179c-16.019,16.99-34.266,6.941-38.158,1.416C142.923,226.213,163.671,220.895,163.359,203.5z"
			/>
	</g>
	<line style="fill:none;stroke:#0F1E36;stroke-miterlimit:10;" x1="678.229" y1="451.088" x2="77.272" y2="451.088"/>
	<g>
		<path style="fill:#FFFFFF;" d="M624.612,144.589H365.637c-7.294,0-13.207-5.913-13.207-13.207l0,0
			c0-7.294,5.913-13.207,13.207-13.207h258.975c7.294,0,13.207,5.913,13.207,13.207l0,0
			C637.819,138.676,631.906,144.589,624.612,144.589z"/>
		<path style="fill:#6252D7;" d="M624.612,118.176h-47.926c7.294,0,13.207,5.913,13.207,13.207c0,7.294-5.913,13.207-13.207,13.207
			h47.926c7.294,0,13.206-5.913,13.206-13.207C637.819,124.089,631.906,118.176,624.612,118.176z"/>
		<path style="fill:none;stroke:#6252D7;stroke-width:2.126;stroke-miterlimit:10;" d="M624.612,144.589H365.637
			c-7.294,0-13.207-5.913-13.207-13.207l0,0c0-7.294,5.913-13.207,13.207-13.207h258.975c7.294,0,13.207,5.913,13.207,13.207l0,0
			C637.819,138.676,631.906,144.589,624.612,144.589z"/>
		<path style="fill:#FFFFFF;" d="M618.579,136.523l-2.863-2.863c1.618-2.52,1.328-5.911-0.876-8.116
			c-2.543-2.543-6.665-2.543-9.208,0c-2.543,2.543-2.543,6.665,0,9.208c2.205,2.205,5.595,2.494,8.116,0.876l2.863,2.863
			c0.543,0.544,1.425,0.544,1.968,0C619.123,137.947,619.123,137.066,618.579,136.523z M607.242,133.142
			c-1.654-1.654-1.654-4.335,0-5.988s4.335-1.654,5.988,0c1.654,1.654,1.654,4.335,0,5.988
			C611.577,134.796,608.896,134.796,607.242,133.142z"/>
	</g>
	<g>
		<path id="XMLID_86_" style="fill:#B7C2FB;" d="M572.616,179.116H369.59c-1.22,0-2.21-0.989-2.21-2.21v-3.092
			c0-1.221,0.989-2.21,2.21-2.21h203.026c1.22,0,2.21,0.989,2.21,2.21v3.092C574.826,178.127,573.836,179.116,572.616,179.116z"/>
		<path id="XMLID_85_" style="fill:#DBDFFF;" d="M571.553,167.457H356.161c-1.197,0-2.168-0.971-2.168-2.168v-6.423
			c0-1.197,0.97-2.168,2.168-2.168h215.392c1.197,0,2.168,0.97,2.168,2.168v6.423C573.721,166.487,572.75,167.457,571.553,167.457z"
			/>
		<path id="XMLID_84_" style="fill:#FF6238;" d="M677.101,272.721H517.588c-1.001,0-1.812-0.811-1.812-1.812v-78.723
			c0-1.001,0.811-1.812,1.812-1.812h159.513c1.001,0,1.812,0.811,1.812,1.812v78.723
			C678.913,271.91,678.102,272.721,677.101,272.721z"/>
		<path id="XMLID_5_" style="fill:#DBDFFF;" d="M503.506,272.721H355.792c-0.993,0-1.799-0.805-1.799-1.799v-78.749
			c0-0.993,0.805-1.799,1.799-1.799h147.714c0.993,0,1.799,0.805,1.799,1.799v78.749
			C505.305,271.916,504.499,272.721,503.506,272.721z"/>
		<path id="XMLID_83_" style="fill:#B7C2FB;" d="M356.161,279.583h215.392c1.197,0,2.168,0.97,2.168,2.168v20.624
			c0,1.197-0.971,2.168-2.168,2.168H356.161c-1.197,0-2.168-0.971-2.168-2.168V281.75
			C353.993,280.553,354.964,279.583,356.161,279.583z"/>
		<path id="XMLID_79_" style="fill:#B7C2FB;" d="M360.443,179.116h-4.24c-1.221,0-2.21-0.989-2.21-2.21v-3.092
			c0-1.221,0.989-2.21,2.21-2.21h4.24c1.22,0,2.21,0.989,2.21,2.21v3.092C362.652,178.127,361.663,179.116,360.443,179.116z"/>
	</g>
	<g>
		<path style="fill:#FFFFFF;" d="M623.55,434.722c-15.487-1.676-29.757-8.884-40.31-20.393
			c-10.864-11.847-16.847-27.224-16.847-43.298v-49.057c20.343-2.458,39.988-9.605,57.157-20.825
			c17.164,11.218,36.812,18.367,57.158,20.825v49.057c0,16.074-5.983,31.451-16.847,43.298
			C653.308,425.838,639.037,433.046,623.55,434.722z"/>
		<path style="fill:#4DB4A7;" d="M623.55,426.748c-13.016-1.724-25.016-7.968-33.915-17.673
			c-9.501-10.361-14.733-23.808-14.733-37.865V329.4c17.079-3.324,33.62-9.532,48.649-18.269
			c15.026,8.738,31.567,14.945,48.65,18.269v41.81c0,14.057-5.233,27.505-14.733,37.865
			C648.567,418.78,636.566,425.024,623.55,426.748z"/>
		<g>
			<g>
				<path style="fill:#FFFFFF;" d="M640.514,364.43h-32.142v-16.07c0-8.861,7.209-16.071,16.071-16.071
					c8.862,0,16.071,7.209,16.071,16.071V364.43z M613.488,359.314h21.908V348.36c0-6.04-4.913-10.955-10.954-10.955
					s-10.954,4.914-10.954,10.955V359.314z"/>
			</g>
			<g>
				<path style="fill:#FFFFFF;" d="M643.513,356.292h-38.646c-2.198,0-3.98,1.782-3.98,3.98v22.443
					c0,5.838,4.733,10.571,10.571,10.571h25.465c5.838,0,10.571-4.733,10.571-10.571v-22.443
					C647.493,358.074,645.711,356.292,643.513,356.292z M626.741,375.307v7.436c0,1.234-1.001,2.235-2.235,2.235h-0.631
					c-1.234,0-2.235-1.001-2.235-2.235v-7.436c-2.007-1.014-3.332-3.182-3.089-5.635c0.26-2.623,2.372-4.764,4.992-5.055
					c3.421-0.379,6.317,2.289,6.317,5.633C629.858,372.461,628.589,374.373,626.741,375.307z"/>
			</g>
		</g>
	</g>
	<g>
		
			<ellipse transform="matrix(0.6294 -0.7771 0.7771 0.6294 40.3981 547.7975)" style="fill:#FFFFFF;" cx="594.481" cy="231.548" rx="24.506" ry="24.506"/>
		<path style="fill:#FF6238;" d="M588.63,225.479v13.565c0,1.742,1.886,2.831,3.395,1.961l11.753-6.782
			c1.51-0.871,1.51-3.05,0-3.921l-11.753-6.782C590.516,222.647,588.63,223.736,588.63,225.479z"/>
	</g>
	<g>
		<path style="fill:#6CCB71;" d="M103.095,354.691c2.368,4.772,2.45,11.86-4.197,12.617c-6.646,0.756-9.924-7.06-10.933-15.886
			c-1.009-8.825-4.287-13.616-12.103-21.433c-7.817-7.817-15.129-21.433-4.539-24.459c10.59-3.026,19.416,13.112,22.694,24.459
			C97.296,341.336,99.266,346.974,103.095,354.691z"/>
		<path style="fill:none;stroke:#0F1E36;stroke-miterlimit:10;" d="M102.01,384.601c0,0,0-26.375-15.526-52.75"/>
		<path style="fill:#6CCB71;" d="M113.183,358.86c-1.744,4.366-3.2,13.885,4.056,14.376c5.89,0.398,9.472-4.397,9.733-12.232
			c0.261-7.835,1.562-14.799,7.883-22.23c6.321-7.431,12.029-28.193,2.498-30.103c-9.531-1.91-16.39,21.178-18.468,31.392
			S116.003,351.8,113.183,358.86z"/>
		<path style="fill:none;stroke:#0F1E36;stroke-miterlimit:10;" d="M115.729,388.67c0,0-1.006-12.473,3.103-28.708
			c1.495-5.907,7.746-21.209,10.82-32.317"/>
		<path style="fill:#6CCB71;" d="M115.88,342.545c1.426,5.133,1.892,16.035-6.342,15.693c-6.683-0.278-10.126-6.121-9.454-14.979
			c0.673-8.857,0.067-16.863-6.137-26.012c-6.204-9.15-10.072-33.241,0.899-34.217c10.971-0.976,15.85,25.877,16.931,37.638
			S113.574,334.245,115.88,342.545z"/>
		<path style="fill:none;stroke:#0F1E36;stroke-miterlimit:10;" d="M107.109,404.431c0,0,4.533-56.778-5.93-99.079"/>
		<rect x="92.351" y="382.155" style="fill:#B7C2FB;" width="29.517" height="68.304"/>
	</g>
	<g>
		<g>
			<g>
				<path style="fill:#DBDFFF;" d="M77.859,190.085h62.375c1.359,0,2.461-1.102,2.461-2.461v-41.698
					c0-1.359-1.102-2.461-2.461-2.461H77.859c-1.359,0-2.461,1.102-2.461,2.461v41.698
					C75.398,188.983,76.499,190.085,77.859,190.085z"/>
				<path style="fill:#B7C2FB;" d="M75.398,150.191h67.297v-4.266c0-1.359-1.102-2.461-2.461-2.461H77.859
					c-1.359,0-2.461,1.102-2.461,2.461V150.191z"/>
			</g>
		</g>
		
			<text transform="matrix(1 0 0 1 91.5576 176.7656)" style="fill:#6252D7; font-family:'Roboto-BoldItalic'; font-size:24.8753px;">&lt;/&gt;</text>
	</g>
	<path style="fill:#BAC6FC;" d="M142.695,244.585v-7.646c0-1.94-1.573-3.512-3.512-3.512h-0.001c-1.469,0-2.794-0.91-3.29-2.293
		c-0.31-0.865-0.662-1.715-1.054-2.546c-0.627-1.329-0.334-2.909,0.705-3.948l0.001-0.001c1.372-1.372,1.372-3.595,0-4.967
		l-5.407-5.407c-1.372-1.372-3.595-1.372-4.967,0l0,0c-1.039,1.039-2.619,1.332-3.948,0.705c-0.831-0.393-1.681-0.744-2.547-1.055
		c-1.383-0.496-2.293-1.821-2.293-3.29v0c0-1.94-1.572-3.512-3.512-3.512h-7.646c-1.94,0-3.512,1.573-3.512,3.512v0.001
		c0,1.469-0.91,2.794-2.293,3.29c-0.865,0.31-1.714,0.662-2.545,1.054c-1.329,0.627-2.909,0.334-3.948-0.705l0,0
		c-1.372-1.371-3.595-1.371-4.967,0l-5.407,5.407c-1.372,1.372-1.372,3.595,0,4.967l0,0c1.039,1.039,1.332,2.62,0.705,3.948
		c-0.393,0.831-0.744,1.681-1.055,2.546c-0.496,1.383-1.821,2.293-3.29,2.293l0,0c-1.94,0-3.512,1.572-3.512,3.512v7.646
		c0,1.94,1.572,3.512,3.512,3.512h0c1.469,0,2.794,0.91,3.29,2.293c0.31,0.865,0.662,1.715,1.055,2.546
		c0.627,1.329,0.334,2.909-0.705,3.948l0,0c-1.371,1.372-1.371,3.595,0,4.967l5.407,5.407c1.372,1.371,3.595,1.371,4.967,0l0,0
		c1.039-1.039,2.619-1.332,3.948-0.705c0.831,0.392,1.68,0.744,2.545,1.054c1.383,0.496,2.293,1.821,2.293,3.29v0.001
		c0,1.94,1.572,3.512,3.512,3.512h7.646c1.94,0,3.512-1.572,3.512-3.512v0c0-1.469,0.91-2.794,2.293-3.29
		c0.866-0.31,1.715-0.662,2.547-1.055c1.328-0.627,2.909-0.334,3.948,0.705l0,0c1.372,1.372,3.595,1.372,4.967,0l5.407-5.407
		c1.372-1.372,1.372-3.595,0-4.967l-0.001-0.001c-1.039-1.039-1.332-2.619-0.705-3.948c0.392-0.831,0.744-1.68,1.054-2.546
		c0.496-1.383,1.821-2.293,3.29-2.293h0.001C141.122,248.097,142.695,246.525,142.695,244.585z M119.055,250.915L119.055,250.915
		c-2.655,2.655-6.255,4.146-10.01,4.146l0,0c-3.755,0-7.355-1.492-10.01-4.146l0,0c-2.655-2.655-4.146-6.255-4.146-10.01l0,0
		c0-3.754,1.491-7.355,4.146-10.01v0c2.655-2.655,6.255-4.146,10.01-4.146l0,0c3.754,0,7.355,1.491,10.01,4.146v0
		c2.655,2.655,4.146,6.255,4.146,10.01l0,0C123.202,244.66,121.71,248.261,119.055,250.915z"/>
</g>
</svg>
